<?xml version="1.0" encoding="UTF-8" standalone="no"?>
<svg
   xmlns:dc="http://purl.org/dc/elements/1.1/"
   xmlns:cc="http://creativecommons.org/ns#"
   xmlns:rdf="http://www.w3.org/1999/02/22-rdf-syntax-ns#"
   xmlns:svg="http://www.w3.org/2000/svg"
   xmlns="http://www.w3.org/2000/svg"
   xmlns:xlink="http://www.w3.org/1999/xlink"
   xmlns:sodipodi="http://sodipodi.sourceforge.net/DTD/sodipodi-0.dtd"
   xmlns:inkscape="http://www.inkscape.org/namespaces/inkscape"
   inkscape:version="1.0beta2 (2b71d25, 2019-12-03)"
   sodipodi:docname="australia-future-unlimited.svg"
   id="svg107"
   version="1.1"
   viewBox="0 0 108.217 82.771"
   height="82.771004"
   width="108.217">
  <metadata
     id="metadata111">
    <rdf:RDF>
      <cc:Work
         rdf:about="">
        <dc:format>image/svg+xml</dc:format>
        <dc:type
           rdf:resource="http://purl.org/dc/dcmitype/StillImage" />
        <dc:title></dc:title>
      </cc:Work>
    </rdf:RDF>
  </metadata>
  <sodipodi:namedview
     inkscape:current-layer="svg107"
     inkscape:window-maximized="0"
     inkscape:window-y="196"
     inkscape:window-x="0"
     inkscape:cy="47.385502"
     inkscape:cx="54.108501"
     inkscape:zoom="7.0907764"
     showgrid="false"
     id="namedview109"
     inkscape:window-height="911"
     inkscape:window-width="1226"
     inkscape:pageshadow="2"
     inkscape:pageopacity="0"
     guidetolerance="10"
     gridtolerance="10"
     objecttolerance="10"
     borderopacity="1"
     inkscape:document-rotation="0"
     bordercolor="#666666"
     pagecolor="#ffffff" />
  <defs
     id="defs27">
    <clipPath
       id="clip-path">
      <path
         inkscape:connector-curvature="0"
         d="M 0,-94.772 H 108.218 V 0 H 0 Z"
         id="path18" />
    </clipPath>
    <clipPath
       id="clip-path-2">
      <path
         inkscape:connector-curvature="0"
         d="m 96.009,-51.63 -6.587,1.748 c -1.48,0.393 -1.787,2.135 -0.148,3.723 v 0 c 1.391,1.348 3.289,1.686 4.244,0.471 v 0 l 3.152,-5.128 a 0.519,0.519 0 0 0 -0.033,-0.636 v 0 a 0.626,0.626 0 0 0 -0.468,-0.2 v 0 a 0.75,0.75 0 0 0 -0.16,0.018"
         id="path66" />
    </clipPath>
    <linearGradient
       gradientUnits="objectBoundingBox"
       y2="-6.698"
       x2="-10.215"
       y1="-6.698"
       x1="-10.265"
       id="linear-gradient">
      <stop
         id="stop14"
         stop-color="#ffc63f"
         offset="0" />
      <stop
         id="stop16"
         stop-color="#f58400"
         offset="0.637" />
      <stop
         id="stop18"
         stop-color="#f58400"
         offset="1" />
    </linearGradient>
    <clipPath
       id="clip-path-3">
      <path
         inkscape:connector-curvature="0"
         d="m 93.123,-91.14 -1.237,0.593 a 4.163,4.163 0 0 0 -2.265,2.773 v 0 a 4.54,4.54 0 0 0 0.4,3.12 v 0 c 1.271,2.233 9.573,14.613 9.573,14.613 v 0 a 2.392,2.392 0 0 1 0.422,1.329 v 0 a 2.252,2.252 0 0 1 -0.385,1.157 v 0 l -8.867,13.625 a 0.588,0.588 0 0 0 -0.036,0.622 v 0 a 0.585,0.585 0 0 0 0.677,0.223 v 0 l 7.015,-1.948 a 2.97,2.97 0 0 0 1.056,-0.52 v 0 a 2.984,2.984 0 0 0 0.6,-0.694 v 0 L 107,-67.162 a 3.146,3.146 0 0 0 -0.219,-3.7 v 0 L 94.546,-90.773 a 1.055,1.055 0 0 0 -0.714,-0.494 v 0 a 0.9,0.9 0 0 0 -0.137,-0.01 v 0 a 1.458,1.458 0 0 0 -0.571,0.137"
         id="path88" />
    </clipPath>
    <linearGradient
       xlink:href="#linear-gradient"
       y2="1.212"
       x2="0.93099999"
       y1="0"
       x1="0.38299999"
       id="linear-gradient-2" />
    <clipPath
       id="clip-path-4">
      <path
         inkscape:connector-curvature="0"
         d="m 55.949,-85.651 a 1.066,1.066 0 0 0 -0.614,0.444 v 0 l -8.592,13.822 a 3.146,3.146 0 0 0 -0.219,3.7 v 0 l 8.769,14.055 a 1.231,1.231 0 0 0 0.711,0.543 v 0 a 1.087,1.087 0 0 0 0.778,-0.129 v 0 l 1.284,-0.75 a 4.191,4.191 0 0 0 1.185,-5.822 v 0 l -5.094,-7.86 a 2.385,2.385 0 0 1 -0.035,-3.233 v 0 l 5,-7.619 a 4.686,4.686 0 0 0 0.779,-3.7 v 0 a 4.373,4.373 0 0 0 -2.039,-2.689 v 0 L 56.7,-85.55 a 1.2,1.2 0 0 0 -0.524,-0.129 v 0 a 0.958,0.958 0 0 0 -0.23,0.028"
         id="path110" />
    </clipPath>
    <linearGradient
       xlink:href="#linear-gradient"
       y2="1.673"
       x2="0.58200002"
       y1="0.107"
       x1="0.39199999"
       id="linear-gradient-3" />
  </defs>
  <g
     transform="translate(-6.057,127.879)"
     id="australia-future-unlimited">
    <g
       transform="translate(6.057,-33.108)"
       id="g12">
      <g
         clip-path="url(#clip-path)"
         id="g14">
        <g
           transform="translate(71.654,-50.051)"
           id="g20">
          <path
             inkscape:connector-curvature="0"
             fill="#3d3935"
             d="M 0,0 C 0.648,0 1,-0.283 1,-0.965 A 0.859,0.859 0 0 0 0.013,-1.948 c -0.7,0 -0.982,0.325 -0.982,1.009 C -0.969,-0.308 -0.645,0 0,0"
             id="path22" />
        </g>
        <g
           transform="translate(66.618,-37.01)"
           id="g24">
          <path
             inkscape:connector-curvature="0"
             fill="#3d3935"
             d="M 0,0 A 0.332,0.332 0 0 0 0.054,0.186 0.332,0.332 0 0 0 0.308,0.314 H 1.214 A 0.322,0.322 0 0 0 1.462,0.184 0.353,0.353 0 0 0 1.525,0 v -15.8 a 0.317,0.317 0 0 0 -0.14,-0.253 0.327,0.327 0 0 0 -0.325,-0.014 c -0.193,0.1 -0.757,0.415 -0.878,0.485 a 0.359,0.359 0 0 0 -0.119,0.115 0.427,0.427 0 0 0 -0.063,0.2 z"
             id="path26" />
        </g>
        <g
           transform="translate(70.911,-37.01)"
           id="g28">
          <path
             inkscape:connector-curvature="0"
             fill="#3d3935"
             d="M 0,0 A 0.34,0.34 0 0 0 0.059,0.182 0.326,0.326 0 0 0 0.315,0.314 H 1.221 A 0.32,0.32 0 0 0 1.469,0.184 0.342,0.342 0 0 0 1.532,0 v -10.639 a 0.338,0.338 0 0 0 -0.076,-0.2 0.328,0.328 0 0 0 -0.234,-0.115 H 0.315 a 0.346,0.346 0 0 0 -0.226,0.1 A 0.328,0.328 0 0 0 0,-10.639 Z"
             id="path30" />
        </g>
        <g
           transform="translate(39.806,-47.555)"
           id="g32">
          <path
             inkscape:connector-curvature="0"
             fill="#3d3935"
             d="m 0,0 a 0.34,0.34 0 0 0 -0.062,-0.187 0.317,0.317 0 0 0 -0.186,-0.121 12.44,12.44 0 0 0 -2.9,-0.381 c -3.092,0 -3.938,1.808 -3.938,3 a 3.4,3.4 0 0 0 2.419,2.939 l 1.279,0.539 c 0.943,0.4 2.235,0.916 2.235,2.185 0,0.916 -0.6,1.807 -2.7,1.807 a 9.151,9.151 0 0 1 -2.653,-0.324 0.315,0.315 0 0 0 -0.4,0.3 v 0.7 a 0.324,0.324 0 0 0 0.06,0.185 0.351,0.351 0 0 0 0.184,0.121 11.748,11.748 0 0 0 2.975,0.378 c 3.36,0 4.135,-1.95 4.135,-3.124 C 0.452,6.4 -0.8,5.391 -2.262,4.78 L -3.317,4.334 c -2.139,-0.891 -2.252,-1.6 -2.252,-2.042 0,-0.54 0.382,-1.62 2.378,-1.62 A 12.831,12.831 0 0 1 -0.35,1.029 0.264,0.264 0 0 0 -0.087,0.971 0.345,0.345 0 0 0 0,0.75 V 0"
             id="path34" />
        </g>
        <g
           transform="translate(63.834,-46.532)"
           id="g36">
          <path
             inkscape:connector-curvature="0"
             fill="#3d3935"
             d="m 0,0 c -0.59,-1.313 -2.208,-1.714 -3.514,-1.714 a 7.271,7.271 0 0 0 -3.431,0.814 0.864,0.864 0 0 0 -0.28,0.2 0.386,0.386 0 0 0 -0.1,0.246 v 0.678 a 0.317,0.317 0 0 0 0.146,0.271 0.309,0.309 0 0 0 0.295,0.015 6.413,6.413 0 0 1 3.1,-0.862 c 1.394,0 2.532,0.469 2.547,2.114 v 1.033 h -0.717 c -3.911,0 -6.313,1.525 -6.313,4.039 a 2.8,2.8 0 0 0 1.743,2.722 q 0.339,-0.6 0.71,-1.192 a 1.707,1.707 0 0 1 -0.877,-1.6 c 0,-2.44 2.968,-2.769 4.866,-2.769 h 0.576 l 0.015,4.624 A 10.34,10.34 0 0 1 -3.5,8.8 4.836,4.836 0 0 1 -5.814,8.361 q -0.371,0.588 -0.71,1.192 a 7.6,7.6 0 0 0 3.121,0.563 19.039,19.039 0 0 0 3.435,-0.349 0.336,0.336 0 0 0 0.19,-0.118 0.348,0.348 0 0 0 0.062,-0.2 V 1.762 A 4.414,4.414 0 0 0 0,0"
             id="path38" />
        </g>
        <g
           transform="translate(82.923,-46.532)"
           id="g40">
          <path
             inkscape:connector-curvature="0"
             fill="#3d3935"
             d="m 0,0 c -0.589,-1.313 -2.207,-1.714 -3.514,-1.714 a 7.27,7.27 0 0 0 -3.431,0.814 0.872,0.872 0 0 0 -0.28,0.2 0.388,0.388 0 0 0 -0.1,0.246 v 0.678 a 0.315,0.315 0 0 0 0.146,0.271 0.309,0.309 0 0 0 0.295,0.015 6.413,6.413 0 0 1 3.1,-0.862 c 1.394,0 2.532,0.469 2.547,2.114 v 1.033 h -0.717 c -3.911,0 -6.313,1.525 -6.313,4.039 0,2.468 2.2,3.161 4.242,3.268 q 0.377,-0.654 0.761,-1.3 h -0.239 c -1.434,0 -3.191,-0.236 -3.191,-2.043 0,-2.44 2.968,-2.769 4.867,-2.769 h 0.575 l 0.015,4.624 A 9.576,9.576 0 0 1 -3.263,8.8 q -0.385,0.646 -0.761,1.3 c 0.209,0.011 0.418,0.018 0.621,0.018 A 19.047,19.047 0 0 0 0.033,9.767 0.333,0.333 0 0 0 0.222,9.649 0.348,0.348 0 0 0 0.284,9.449 V 1.762 A 4.422,4.422 0 0 0 0,0"
             id="path42" />
        </g>
        <g
           transform="translate(20.993,-37.097)"
           id="g44">
          <path
             inkscape:connector-curvature="0"
             fill="#3d3935"
             d="m 0,0 c -0.036,-0.127 -1.753,-5.868 -3.208,-10.5 -0.378,0.541 -0.737,1.082 -1.064,1.623 L -3.1,-4.9 h -5.486 l 2.716,-9.413 1.6,5.44 c 0.327,-0.541 0.686,-1.081 1.064,-1.623 -0.79,-2.515 -1.5,-4.7 -1.826,-5.485 a 0.319,0.319 0 0 0 -0.121,-0.136 0.4,0.4 0 0 0 -0.181,-0.051 h -1.058 a 0.334,0.334 0 0 0 -0.185,0.061 0.364,0.364 0 0 0 -0.112,0.147 c -0.939,2.294 -4.96,15.746 -5.023,15.96 a 0.341,0.341 0 0 0 0.038,0.279 0.3,0.3 0 0 0 0.247,0.121 h 1.035 a 0.308,0.308 0 0 0 0.2,-0.069 0.352,0.352 0 0 0 0.094,-0.149 c 0.041,-0.129 1.1,-3.723 1.1,-3.723 h 6.268 l 1.111,3.732 a 0.3,0.3 0 0 0 0.1,0.145 0.365,0.365 0 0 0 0.206,0.064 h 1 A 0.317,0.317 0 0 0 -0.034,0.272 0.358,0.358 0 0 0 0,0"
             id="path46" />
        </g>
        <g
           transform="translate(45.163,-36.413)"
           id="g48">
          <path
             inkscape:connector-curvature="0"
             fill="#3d3935"
             d="M 0,0 A 7.859,7.859 0 0 0 1.047,-0.068 3.475,3.475 0 0 0 1.615,-0.176 0.381,0.381 0 0 0 1.815,-0.329 0.345,0.345 0 0 0 1.87,-0.5 V -1.165 A 0.327,0.327 0 0 0 1.749,-1.4 0.319,0.319 0 0 0 1.487,-1.46 6.518,6.518 0 0 1 0.116,-1.313 c -1.436,0 -1.736,-0.751 -1.736,-2.041 v -6.806 h 2.894 a 0.336,0.336 0 0 0 0.227,-0.1 0.317,0.317 0 0 0 0.089,-0.213 v -0.758 a 0.319,0.319 0 0 0 -0.091,-0.218 0.339,0.339 0 0 0 -0.225,-0.1 h -2.9 v -2.745 a 0.318,0.318 0 0 0 -0.142,-0.255 0.319,0.319 0 0 0 -0.322,-0.013 c -0.194,0.1 -0.757,0.415 -0.879,0.484 a 0.371,0.371 0 0 0 -0.129,0.133 0.411,0.411 0 0 0 -0.045,0.185 c 0,0.121 0,10.45 0,10.45 C -3.147,-1.1 -2.347,0 0,0"
             id="path50" />
        </g>
        <g
           transform="translate(55.042,-46.646)"
           id="g52">
          <path
             inkscape:connector-curvature="0"
             fill="#3d3935"
             d="m 0,0 a 0.358,0.358 0 0 0 0.1,-0.228 v -0.826 a 0.362,0.362 0 0 0 -0.07,-0.206 0.353,0.353 0 0 0 -0.2,-0.128 4.1,4.1 0 0 0 -1,-0.14 3.738,3.738 0 0 0 -3.608,2.746 V -1 a 0.328,0.328 0 0 0 -0.084,-0.213 0.328,0.328 0 0 0 -0.229,-0.1 H -5.883 A 0.352,0.352 0 0 0 -6.108,-1.23 0.322,0.322 0 0 0 -6.208,-1 V 9.637 a 0.316,0.316 0 0 0 0.085,0.213 0.328,0.328 0 0 0 0.23,0.1 h 0.907 a 0.321,0.321 0 0 0 0.236,-0.116 0.329,0.329 0 0 0 0.074,-0.2 V 4.222 a 4.385,4.385 0 0 1 1.066,-3.217 3.394,3.394 0 0 1 2.419,-1.029 3.85,3.85 0 0 1 0.91,0.1 A 0.292,0.292 0 0 0 0,0"
             id="path54" />
        </g>
        <g
           transform="translate(22.434,-47.962)"
           id="g56">
          <path
             inkscape:connector-curvature="0"
             fill="#3d3935"
             d="m 0,0 a 0.317,0.317 0 0 0 -0.227,0.1 0.342,0.342 0 0 0 -0.085,0.214 v 6.094 a 7.692,7.692 0 0 0 0.28,2.535 4.237,4.237 0 0 0 4.176,2.606 5.362,5.362 0 0 0 2.533,-0.612 C 8.5,9.906 8.629,8.1 8.629,6.055 V 0.314 A 0.34,0.34 0 0 0 8.548,0.1 0.328,0.328 0 0 0 8.316,0 H 7.383 A 0.331,0.331 0 0 0 7.153,0.1 0.332,0.332 0 0 0 7.069,0.311 c 0,0.18 0.014,6.515 0.014,6.515 0,1.692 -0.478,3.357 -2.825,3.357 -2.01,0 -3.051,-1.031 -3.051,-3.308 V 0.314 A 0.348,0.348 0 0 0 1.146,0.128 0.318,0.318 0 0 0 0.892,0 Z"
             id="path58" />
        </g>
      </g>
    </g>
    <g
       transform="translate(6.057,-33.108)"
       id="g60">
      <g
         clip-path="url(#clip-path-2)"
         id="g62">
        <g
           id="g68">
          <g
             id="g70">
            <path
               inkscape:connector-curvature="0"
               fill="url(#linear-gradient)"
               d="m 96.009,-51.63 -6.587,1.748 c -1.48,0.393 -1.787,2.135 -0.148,3.723 v 0 c 1.391,1.348 3.289,1.686 4.244,0.471 v 0 l 3.152,-5.128 a 0.519,0.519 0 0 0 -0.033,-0.636 v 0 a 0.626,0.626 0 0 0 -0.468,-0.2 v 0 a 0.75,0.75 0 0 0 -0.16,0.018"
               id="path80" />
          </g>
        </g>
      </g>
    </g>
    <g
       transform="translate(6.057,-33.108)"
       id="g82">
      <g
         clip-path="url(#clip-path-3)"
         id="g84">
        <g
           id="g90">
          <g
             id="g92">
            <path
               inkscape:connector-curvature="0"
               fill="url(#linear-gradient-2)"
               d="m 93.123,-91.14 -1.237,0.593 a 4.163,4.163 0 0 0 -2.265,2.773 v 0 a 4.54,4.54 0 0 0 0.4,3.12 v 0 c 1.271,2.233 9.573,14.613 9.573,14.613 v 0 a 2.392,2.392 0 0 1 0.422,1.329 v 0 a 2.252,2.252 0 0 1 -0.385,1.157 v 0 l -8.867,13.625 a 0.588,0.588 0 0 0 -0.036,0.622 v 0 a 0.585,0.585 0 0 0 0.677,0.223 v 0 l 7.015,-1.948 a 2.97,2.97 0 0 0 1.056,-0.52 v 0 a 2.984,2.984 0 0 0 0.6,-0.694 v 0 L 107,-67.162 a 3.146,3.146 0 0 0 -0.219,-3.7 v 0 L 94.546,-90.773 a 1.055,1.055 0 0 0 -0.714,-0.494 v 0 a 0.9,0.9 0 0 0 -0.137,-0.01 v 0 a 1.458,1.458 0 0 0 -0.571,0.137"
               id="path102" />
          </g>
        </g>
      </g>
    </g>
    <g
       transform="translate(6.057,-33.108)"
       id="g104">
      <g
         clip-path="url(#clip-path-4)"
         id="g106">
        <g
           id="g112">
          <g
             id="g114">
            <path
               inkscape:connector-curvature="0"
               fill="url(#linear-gradient-3)"
               d="m 55.949,-85.651 a 1.066,1.066 0 0 0 -0.614,0.444 v 0 l -8.592,13.822 a 3.146,3.146 0 0 0 -0.219,3.7 v 0 l 8.769,14.055 a 1.231,1.231 0 0 0 0.711,0.543 v 0 a 1.087,1.087 0 0 0 0.778,-0.129 v 0 l 1.284,-0.75 a 4.191,4.191 0 0 0 1.185,-5.822 v 0 l -5.094,-7.86 a 2.385,2.385 0 0 1 -0.035,-3.233 v 0 l 5,-7.619 a 4.686,4.686 0 0 0 0.779,-3.7 v 0 a 4.373,4.373 0 0 0 -2.039,-2.689 v 0 L 56.7,-85.55 a 1.2,1.2 0 0 0 -0.524,-0.129 v 0 a 0.958,0.958 0 0 0 -0.23,0.028"
               id="path124" />
          </g>
        </g>
      </g>
    </g>
    <g
       transform="translate(6.057,-33.108)"
       id="g126">
      <g
         clip-path="url(#clip-path)"
         id="g128">
        <g
           transform="translate(28.946,-20.736)"
           id="g134">
          <path
             inkscape:connector-curvature="0"
             fill="#3d3935"
             d="M 0,0 C 0,1.039 -0.061,1.93 -1.05,2.491 A 2.7,2.7 0 0 1 -2.43,2.821 2.3,2.3 0 0 1 -4.7,1.514 4.1,4.1 0 0 1 -4.884,0.061 v -3.072 a 0.182,0.182 0 0 1 0.045,-0.111 0.159,0.159 0 0 1 0.118,-0.052 h 0.783 a 0.164,0.164 0 0 1 0.132,0.066 0.181,0.181 0 0 1 0.032,0.1 v 3.182 c 0,0.7 0.074,1.672 1.368,1.672 1.185,0 1.294,-0.891 1.294,-1.6 v -3.257 a 0.177,0.177 0 0 1 0.045,-0.111 0.159,0.159 0 0 1 0.118,-0.052 h 0.785 a 0.162,0.162 0 0 1 0.132,0.066 0.174,0.174 0 0 1 0.032,0.1 z"
             id="path136" />
        </g>
        <g
           transform="translate(19.162,-20.736)"
           id="g138">
          <path
             inkscape:connector-curvature="0"
             fill="#3d3935"
             d="M 0,0 C 0,1.039 -0.06,1.93 -1.05,2.491 A 2.7,2.7 0 0 1 -2.43,2.821 2.3,2.3 0 0 1 -4.7,1.514 4.1,4.1 0 0 1 -4.883,0.061 v -3.072 a 0.176,0.176 0 0 1 0.044,-0.111 0.16,0.16 0 0 1 0.118,-0.052 h 0.782 a 0.164,0.164 0 0 1 0.132,0.066 0.181,0.181 0 0 1 0.031,0.1 v 3.182 c 0,0.7 0.073,1.672 1.367,1.672 1.185,0 1.294,-0.891 1.294,-1.6 v -3.257 a 0.181,0.181 0 0 1 0.044,-0.111 0.16,0.16 0 0 1 0.118,-0.052 h 0.785 a 0.163,0.163 0 0 1 0.131,0.066 0.17,0.17 0 0 1 0.031,0.1 z"
             id="path140" />
        </g>
        <g
           transform="translate(72.129,-18.931)"
           id="g142">
          <path
             inkscape:connector-curvature="0"
             fill="#ffab00"
             d="m 0,0 a 2.488,2.488 0 0 1 -0.583,0.064 c -0.794,0 -0.989,-0.355 -0.989,-0.977 v -3.138 h 1.484 A 0.176,0.176 0 0 0 0.031,-4.1 0.17,0.17 0 0 0 0.077,-4.211 v -0.6 A 0.164,0.164 0 0 0 0.029,-4.923 0.167,0.167 0 0 0 -0.088,-4.973 H -1.571 V -6.49 a 0.163,0.163 0 0 0 -0.074,-0.132 0.164,0.164 0 0 0 -0.167,-0.007 l -0.779,0.471 a 0.2,0.2 0 0 0 -0.067,0.072 0.224,0.224 0 0 0 -0.023,0.1 v 4.831 c 0,0.721 0.024,1.5 0.769,1.9 a 2.406,2.406 0 0 0 1.1,0.232 A 4.559,4.559 0 0 0 -0.229,0.943 1.642,1.642 0 0 0 0.066,0.887 0.191,0.191 0 0 0 0.172,0.807 0.159,0.159 0 0 0 0.2,0.723 V 0.157 A 0.17,0.17 0 0 0 0.137,0.031 0.17,0.17 0 0 0 0,0"
             id="path144" />
        </g>
        <g
           transform="translate(70.558,-23.909)"
           id="g146">
          <path
             inkscape:connector-curvature="0"
             fill="#ffab00"
             d="M 0,0 V -1.512 A 0.163,0.163 0 0 0 -0.074,-1.644 0.165,0.165 0 0 0 -0.241,-1.651 L -1.02,-1.18 a 0.208,0.208 0 0 0 -0.067,0.072 0.227,0.227 0 0 0 -0.023,0.1 v 4.829"
             id="path148" />
        </g>
        <g
           transform="translate(23.142,-18.931)"
           id="g150">
          <path
             inkscape:connector-curvature="0"
             fill="#3d3935"
             d="m 0,0 a 2.48,2.48 0 0 1 -0.582,0.064 c -0.793,0 -0.988,-0.355 -0.988,-0.977 v -3.138 h 1.484 A 0.174,0.174 0 0 0 0.031,-4.1 0.165,0.165 0 0 0 0.078,-4.211 v -0.6 A 0.166,0.166 0 0 0 0.03,-4.928 0.167,0.167 0 0 0 -0.087,-4.978 H -1.571 V -6.49 a 0.164,0.164 0 0 0 -0.074,-0.132 0.165,0.165 0 0 0 -0.168,-0.007 l -0.779,0.471 a 0.205,0.205 0 0 0 -0.068,0.072 0.23,0.23 0 0 0 -0.023,0.1 v 4.831 c 0,0.721 0.025,1.5 0.77,1.9 a 2.4,2.4 0 0 0 1.1,0.232 4.541,4.541 0 0 0 0.585,-0.034 1.674,1.674 0 0 0 0.3,-0.056 A 0.194,0.194 0 0 0 0.173,0.807 0.163,0.163 0 0 0 0.2,0.723 V 0.157 A 0.167,0.167 0 0 0 0.137,0.031 0.169,0.169 0 0 0 0,0"
             id="path152" />
        </g>
        <g
           transform="translate(31.288,-20.662)"
           id="g154">
          <path
             inkscape:connector-curvature="0"
             fill="#3d3935"
             d="m 0,0 a 2.227,2.227 0 0 1 0.757,-2 1.642,1.642 0 0 1 0.965,-0.3 1.784,1.784 0 0 1 0.484,0.061 0.151,0.151 0 0 0 0.146,-0.04 0.188,0.188 0 0 0 0.053,-0.119 V -3.117 A 0.206,0.206 0 0 0 2.368,-3.228 0.183,0.183 0 0 0 2.268,-3.294 2.084,2.084 0 0 0 1.749,-3.363 1.861,1.861 0 0 0 -0.06,-1.931 V -3.085 A 0.174,0.174 0 0 0 -0.1,-3.2 0.172,0.172 0 0 0 -0.221,-3.252 h -0.72 a 0.179,0.179 0 0 0 -0.117,0.042 0.166,0.166 0 0 0 -0.053,0.12 v 5.537 a 0.163,0.163 0 0 0 0.044,0.111 0.175,0.175 0 0 0 0.12,0.053 H -0.16 A 0.167,0.167 0 0 0 -0.037,2.55 0.166,0.166 0 0 0 0,2.447 Z"
             id="path156" />
        </g>
        <g
           transform="translate(55.163,-18.216)"
           id="g158">
          <path
             inkscape:connector-curvature="0"
             fill="#ffab00"
             d="M 0,0 A 0.17,0.17 0 0 0 0.03,0.095 0.171,0.171 0 0 0 0.164,0.164 H 0.937 A 0.167,0.167 0 0 0 1.066,0.1 0.168,0.168 0 0 0 1.1,0 V -5.531 A 0.17,0.17 0 0 0 1.061,-5.631 0.17,0.17 0 0 0 0.939,-5.69 H 0.164 A 0.18,0.18 0 0 0 0.046,-5.641 0.174,0.174 0 0 0 0,-5.531 Z"
             id="path160" />
        </g>
        <g
           transform="translate(53.868,-26.537)"
           id="g162">
          <path
             inkscape:connector-curvature="0"
             fill="#ffab00"
             d="m 0,0 a 0.163,0.163 0 0 0 -0.074,-0.132 0.162,0.162 0 0 0 -0.168,-0.007 l -0.779,0.47 A 0.207,0.207 0 0 0 -1.088,0.4 0.213,0.213 0 0 0 -1.111,0.5 v 7.822 a 0.165,0.165 0 0 0 0.044,0.111 0.173,0.173 0 0 0 0.119,0.053 h 0.786 A 0.165,0.165 0 0 0 -0.039,8.425 0.171,0.171 0 0 0 0,8.322 Z"
             id="path164" />
        </g>
        <g
           transform="translate(55.723,-24.887)"
           id="g166">
          <path
             inkscape:connector-curvature="0"
             fill="#ffab00"
             d="m 0,0 c -0.476,0 -0.659,-0.219 -0.659,-0.671 a 0.554,0.554 0 0 1 0.636,-0.635 c 0.463,0 0.659,0.183 0.659,0.647 C 0.636,-0.219 0.44,0 0,0"
             id="path168" />
        </g>
        <g
           transform="translate(67.066,-18.216)"
           id="g170">
          <path
             inkscape:connector-curvature="0"
             fill="#ffab00"
             d="M 0,0 A 0.18,0.18 0 0 0 0.03,0.095 0.171,0.171 0 0 0 0.164,0.164 H 0.938 A 0.164,0.164 0 0 0 1.066,0.1 0.168,0.168 0 0 0 1.1,0 V -5.531 A 0.165,0.165 0 0 0 1.061,-5.631 0.166,0.166 0 0 0 0.94,-5.69 H 0.164 A 0.18,0.18 0 0 0 0.047,-5.641 0.175,0.175 0 0 0 0,-5.531 Z"
             id="path172" />
        </g>
        <g
           transform="translate(67.628,-24.887)"
           id="g174">
          <path
             inkscape:connector-curvature="0"
             fill="#ffab00"
             d="m 0,0 c -0.476,0 -0.66,-0.219 -0.66,-0.671 a 0.554,0.554 0 0 1 0.635,-0.635 c 0.465,0 0.659,0.183 0.659,0.647 C 0.635,-0.219 0.44,0 0,0"
             id="path176" />
        </g>
        <g
           transform="translate(45.237,-21.297)"
           id="g178">
          <path
             inkscape:connector-curvature="0"
             fill="#ffab00"
             d="M 0,0 A 4.1,4.1 0 0 1 -0.611,2.515 2.611,2.611 0 0 1 -2.76,3.382 2.52,2.52 0 0 1 -5.311,1.7 4.337,4.337 0 0 1 -5.482,0.257 v -5.491 a 0.154,0.154 0 0 1 0.033,-0.091 0.138,0.138 0 0 1 0.1,-0.047 h 0.885 a 0.136,0.136 0 0 1 0.1,0.047 0.149,0.149 0 0 1 0.038,0.091 V 0.2 a 2.439,2.439 0 0 0 0.366,1.587 1.489,1.489 0 0 0 1.25,0.533 1.405,1.405 0 0 0 1.22,-0.55 2.619,2.619 0 0 0 0.318,-1.526 v -5.478 a 0.151,0.151 0 0 1 0.033,-0.091 0.137,0.137 0 0 1 0.1,-0.047 h 0.9 a 0.137,0.137 0 0 1 0.1,0.047 A 0.149,0.149 0 0 1 0,-5.234 Z"
             id="path180" />
        </g>
        <g
           transform="translate(51.512,-18.213)"
           id="g182">
          <path
             inkscape:connector-curvature="0"
             fill="#ffab00"
             d="M 0,0 A 0.169,0.169 0 0 1 -0.039,0.1 0.168,0.168 0 0 1 -0.161,0.164 H -0.948 A 0.176,0.176 0 0 1 -1.065,0.114 0.17,0.17 0 0 1 -1.111,0 v -3.267 c 0,-0.977 -0.4,-1.55 -1.221,-1.55 a 1.385,1.385 0 0 0 -0.854,0.3 2.356,2.356 0 0 0 -0.6,1.954 V 0 A 0.169,0.169 0 0 1 -3.825,0.1 0.167,0.167 0 0 1 -3.947,0.159 H -4.732 A 0.178,0.178 0 0 1 -4.85,0.114 0.176,0.176 0 0 1 -4.9,0 v -5.534 a 0.177,0.177 0 0 1 0.046,-0.113 0.18,0.18 0 0 1 0.122,-0.053 h 0.737 a 0.167,0.167 0 0 1 0.121,0.059 0.167,0.167 0 0 1 0.039,0.1 v 0.985 A 1.906,1.906 0 0 1 -2,-5.831 2.128,2.128 0 0 1 -0.754,-5.452 2.455,2.455 0 0 1 0,-3.255 Z"
             id="path184" />
        </g>
        <g
           transform="translate(58.618,-22.798)"
           id="g186">
          <path
             inkscape:connector-curvature="0"
             fill="#ffab00"
             d="m 0,0 a 1.88,1.88 0 0 1 1.758,-1.245 1.577,1.577 0 0 1 1.636,1.306 1.946,1.946 0 0 1 1.88,-1.306 1.892,1.892 0 0 1 1.513,0.708 3.143,3.143 0 0 1 0.391,1.88 V 4.585 A 0.174,0.174 0 0 1 7.139,4.685 0.165,0.165 0 0 1 7.018,4.744 H 6.232 A 0.177,0.177 0 0 1 6.114,4.694 0.171,0.171 0 0 1 6.068,4.58 V 1.318 A 1.51,1.51 0 0 0 5.668,0.025 1.2,1.2 0 0 0 4.957,-0.22 1.211,1.211 0 0 0 3.931,0.354 2.325,2.325 0 0 0 3.6,1.771 V 4.585 A 0.174,0.174 0 0 1 3.561,4.685 0.166,0.166 0 0 1 3.439,4.744 H 2.654 A 0.176,0.176 0 0 1 2.537,4.694 0.169,0.169 0 0 1 2.49,4.58 v -3.1 c 0,-1.172 -0.354,-1.71 -1.1,-1.71 A 1.316,1.316 0 0 0 0.342,0.39 2.4,2.4 0 0 0 0.036,1.843 V 4.585 A 0.177,0.177 0 0 1 0,4.69 0.166,0.166 0 0 1 -0.121,4.749 H -0.91 A 0.176,0.176 0 0 1 -1.028,4.699 0.169,0.169 0 0 1 -1.074,4.585 v -5.534 a 0.17,0.17 0 0 1 0.046,-0.113 0.178,0.178 0 0 1 0.118,-0.05 h 0.737 a 0.167,0.167 0 0 1 0.121,0.059 0.169,0.169 0 0 1 0.039,0.1 z"
             id="path188" />
        </g>
        <g
           transform="translate(74.978,-24.056)"
           id="g190">
          <path
             inkscape:connector-curvature="0"
             fill="#ffab00"
             d="M 0,0 C -1.745,0 -2.613,1.5 -2.613,3.052 A 2.893,2.893 0 0 0 0.55,6.139 4.8,4.8 0 0 0 2.026,5.933 0.17,0.17 0 0 0 2.1,5.873 0.174,0.174 0 0 0 2.131,5.773 V 5.233 A 0.174,0.174 0 0 0 2.073,5.109 0.16,0.16 0 0 0 1.968,5.07 0.136,0.136 0 0 0 1.918,5.079 3.951,3.951 0 0 1 0.728,5.259 1.971,1.971 0 0 1 -1.477,3.431 H 0.051 V 2.686 h -1.54 c 0.012,-0.219 0.122,-1.819 1.5,-1.819 a 1.444,1.444 0 0 1 1.355,1.55 V 2.685 H 0.051 V 3.43 H 2.23 A 0.179,0.179 0 0 0 2.342,3.387 0.17,0.17 0 0 0 2.392,3.297 3.86,3.86 0 0 0 2.442,2.575 2.409,2.409 0 0 0 0,0"
             id="path192" />
        </g>
        <g
           transform="translate(36.299,-24.056)"
           id="g194">
          <path
             inkscape:connector-curvature="0"
             fill="#3d3935"
             d="M 0,0 C -1.746,0 -2.613,1.5 -2.613,3.052 A 2.893,2.893 0 0 0 0.55,6.139 4.785,4.785 0 0 0 2.024,5.933 0.168,0.168 0 0 0 2.1,5.873 0.174,0.174 0 0 0 2.13,5.773 V 5.233 A 0.169,0.169 0 0 0 2.072,5.109 0.159,0.159 0 0 0 1.967,5.07 0.139,0.139 0 0 0 1.917,5.079 3.947,3.947 0 0 1 0.728,5.259 1.97,1.97 0 0 1 -1.477,3.431 h 1.6 V 2.686 H -1.49 c 0.013,-0.219 0.123,-1.819 1.5,-1.819 a 1.444,1.444 0 0 1 1.355,1.55 V 2.685 H 0.128 V 3.43 h 2.1 A 0.176,0.176 0 0 0 2.339,3.387 0.161,0.161 0 0 0 2.389,3.297 3.824,3.824 0 0 0 2.439,2.575 2.408,2.408 0 0 0 0,0"
             id="path196" />
        </g>
        <g
           transform="translate(83.132,-26.669)"
           id="g198">
          <path
             inkscape:connector-curvature="0"
             fill="#ffab00"
             d="m 0,0 a 0.163,0.163 0 0 0 -0.167,-0.007 l -0.779,0.47 a 0.208,0.208 0 0 0 -0.067,0.073 0.211,0.211 0 0 0 -0.023,0.1 v 2.88 A 1.9,1.9 0 0 0 -2.7,2.625 c -1.282,0 -2.5,1.061 -2.5,3.052 0,1.461 0.7,2.827 2.112,3.034 C -3.041,8.384 -3,8.055 -2.969,7.719 A 2.067,2.067 0 0 1 -4.077,5.726 c 0,-1.745 1,-2.16 1.575,-2.16 1.111,0 1.514,1.245 1.514,2.087 0,0.134 -0.061,2.137 -1.563,2.137 A 1.293,1.293 0 0 1 -2.97,7.72 C -3,8.055 -3.042,8.384 -3.089,8.712 a 2.59,2.59 0 0 0 0.379,0.03 1.841,1.841 0 0 0 1.759,-1.185 v 0.9 a 0.164,0.164 0 0 0 0.043,0.111 0.176,0.176 0 0 0 0.121,0.052 h 0.7 A 0.162,0.162 0 0 0 0.035,8.559 0.17,0.17 0 0 0 0.074,8.459 V 0.132 A 0.163,0.163 0 0 0 0,0"
             id="path200" />
        </g>
        <g
           transform="translate(4.411,-27.143)"
           id="g202">
          <path
             inkscape:connector-curvature="0"
             fill="#ffab00"
             d="m 0,0 a 0.327,0.327 0 0 0 -0.222,0.03 l -0.34,0.193 a 1.285,1.285 0 0 0 -0.6,0.788 1.368,1.368 0 0 0 0.231,1.084 L 0.534,4.329 A 0.7,0.7 0 0 1 0.524,5.276 L -0.968,7.58 a 1.227,1.227 0 0 0 0.347,1.705 l 0.376,0.22 a 0.316,0.316 0 0 0 0.229,0.037 0.358,0.358 0 0 0 0.208,-0.158 l 2.57,-4.12 A 0.923,0.923 0 0 0 2.7,4.181 L 0.18,0.131 A 0.316,0.316 0 0 0 0,0"
             id="path204" />
        </g>
        <g
           transform="translate(10.627,-18.214)"
           id="g206">
          <path
             inkscape:connector-curvature="0"
             fill="#3d3935"
             d="M 0,0 A 0.176,0.176 0 0 1 -0.05,0.117 0.162,0.162 0 0 1 -0.163,0.164 H -1 A 0.16,0.16 0 0 1 -1.11,0.118 0.173,0.173 0 0 1 -1.162,0 V -8.31 A 0.177,0.177 0 0 1 -1.112,-8.427 0.17,0.17 0 0 1 -1,-8.475 h 3.932 a 0.182,0.182 0 0 1 0.117,0.051 0.165,0.165 0 0 1 0.047,0.113 v 0.717 A 0.164,0.164 0 0 1 3.05,-7.483 0.173,0.173 0 0 1 2.932,-7.433 H 0 v 2.764 h 2.692 a 0.18,0.18 0 0 1 0.117,0.05 0.165,0.165 0 0 1 0.046,0.112 v 0.641 A 0.17,0.17 0 0 1 2.809,-3.754 0.177,0.177 0 0 1 2.691,-3.702 H 0 Z"
             id="path208" />
        </g>
      </g>
    </g>
  </g>
</svg>
