<svg xmlns="http://www.w3.org/2000/svg" xmlns:xlink="http://www.w3.org/1999/xlink" height="82.771" width="108.217"><defs><clipPath id="b"><path d="M0-94.772h108.218V0H0z"/></clipPath><clipPath id="c"><path d="m96.009-51.63-6.587 1.748c-1.48.393-1.787 2.135-.148 3.723 1.391 1.348 3.289 1.686 4.244.471l3.152-5.128a.519.519 0 0 0-.033-.636.626.626 0 0 0-.468-.2.75.75 0 0 0-.16.018"/></clipPath><clipPath id="d"><path d="m93.123-91.14-1.237.593a4.163 4.163 0 0 0-2.265 2.773 4.54 4.54 0 0 0 .4 3.12c1.271 2.233 9.573 14.613 9.573 14.613a2.392 2.392 0 0 1 .422 1.329 2.252 2.252 0 0 1-.385 1.157L90.764-53.93a.588.588 0 0 0-.036.622.585.585 0 0 0 .677.223l7.015-1.948a2.97 2.97 0 0 0 1.056-.52 2.984 2.984 0 0 0 .6-.694L107-67.162a3.146 3.146 0 0 0-.219-3.7L94.546-90.773a1.055 1.055 0 0 0-.714-.494.9.9 0 0 0-.137-.01 1.458 1.458 0 0 0-.571.137"/></clipPath><clipPath id="f"><path d="M55.949-85.651a1.066 1.066 0 0 0-.614.444l-8.592 13.822a3.146 3.146 0 0 0-.219 3.7l8.769 14.055a1.231 1.231 0 0 0 .711.543 1.087 1.087 0 0 0 .778-.129l1.284-.75a4.191 4.191 0 0 0 1.185-5.822l-5.094-7.86a2.385 2.385 0 0 1-.035-3.233l5-7.619a4.686 4.686 0 0 0 .779-3.7 4.373 4.373 0 0 0-2.039-2.689L56.7-85.55a1.2 1.2 0 0 0-.524-.129.958.958 0 0 0-.23.028"/></clipPath><linearGradient gradientUnits="objectBoundingBox" y2="-6.698" x2="-10.215" y1="-6.698" x1="-10.265" id="a"><stop stop-color="#ffc63f" offset="0"/><stop stop-color="#f58400" offset=".637"/><stop stop-color="#f58400" offset="1"/></linearGradient><linearGradient xlink:href="#a" y2="1.212" x2=".931" y1="0" x1=".383" id="e"/><linearGradient xlink:href="#a" y2="1.673" x2=".582" y1=".107" x1=".392" id="g"/></defs><g clip-path="url(#b)" transform="translate(0 94.771)"><path fill="#3d3935" d="M71.654-50.051c.648 0 1-.283 1-.965a.859.859 0 0 0-.987-.983c-.7 0-.982.325-.982 1.009 0 .631.324.939.969.939M66.618-37.01a.332.332 0 0 0 .054.186.332.332 0 0 0 .254.128h.906a.322.322 0 0 0 .248-.13.353.353 0 0 0 .063-.184v-15.8a.317.317 0 0 0-.14-.253.327.327 0 0 0-.325-.014c-.193.1-.757.415-.878.485a.359.359 0 0 0-.119.115.427.427 0 0 0-.063.2zm4.293 0a.34.34 0 0 0 .059.182.326.326 0 0 0 .256.132h.906a.32.32 0 0 0 .248-.13.342.342 0 0 0 .063-.184v-10.639a.338.338 0 0 0-.076-.2.328.328 0 0 0-.234-.115h-.907a.346.346 0 0 0-.226.1.328.328 0 0 0-.089.215zM39.806-47.555a.34.34 0 0 0-.062-.187.317.317 0 0 0-.186-.121 12.44 12.44 0 0 0-2.9-.381c-3.092 0-3.938 1.808-3.938 3a3.4 3.4 0 0 0 2.419 2.939l1.279.539c.943.4 2.235.916 2.235 2.185 0 .916-.6 1.807-2.7 1.807a9.151 9.151 0 0 1-2.653-.324.315.315 0 0 0-.4.3v.7a.324.324 0 0 0 .06.185.351.351 0 0 0 .184.121 11.748 11.748 0 0 0 2.975.378c3.36 0 4.135-1.95 4.135-3.124.004-1.617-1.248-2.626-2.71-3.237l-1.055-.446c-2.139-.891-2.252-1.6-2.252-2.042 0-.54.382-1.62 2.378-1.62a12.831 12.831 0 0 1 2.841.357.264.264 0 0 0 .263-.058.345.345 0 0 0 .087-.221v-.75m24.028 1.023c-.59-1.313-2.208-1.714-3.514-1.714a7.271 7.271 0 0 0-3.431.814.864.864 0 0 0-.28.2.386.386 0 0 0-.1.246v.678a.317.317 0 0 0 .146.271.309.309 0 0 0 .295.015 6.413 6.413 0 0 1 3.1-.862c1.394 0 2.532.469 2.547 2.114v1.033h-.717c-3.911 0-6.313 1.525-6.313 4.039a2.8 2.8 0 0 0 1.743 2.722q.339-.6.71-1.192a1.707 1.707 0 0 1-.877-1.6c0-2.44 2.968-2.769 4.866-2.769h.576l.015 4.624a10.34 10.34 0 0 1-2.266.181 4.836 4.836 0 0 1-2.314-.439q-.371.588-.71 1.192a7.6 7.6 0 0 0 3.121.563 19.039 19.039 0 0 0 3.435-.349.336.336 0 0 0 .19-.118.348.348 0 0 0 .062-.2v-7.687a4.414 4.414 0 0 0-.284-1.762m19.089 0c-.589-1.313-2.207-1.714-3.514-1.714a7.27 7.27 0 0 0-3.431.814.872.872 0 0 0-.28.2.388.388 0 0 0-.1.246v.678a.315.315 0 0 0 .146.271.309.309 0 0 0 .295.015 6.413 6.413 0 0 1 3.1-.862c1.394 0 2.532.469 2.547 2.114v1.033h-.717c-3.911 0-6.313 1.525-6.313 4.039 0 2.468 2.2 3.161 4.242 3.268q.377-.654.761-1.3h-.239c-1.434 0-3.191-.236-3.191-2.043 0-2.44 2.968-2.769 4.867-2.769h.575l.015 4.624a9.576 9.576 0 0 1-2.026.186q-.385.646-.761 1.3c.209.011.418.018.621.018a19.047 19.047 0 0 0 3.436-.351.333.333 0 0 0 .189-.118.348.348 0 0 0 .062-.2v-7.687a4.422 4.422 0 0 0-.284-1.762m-61.93 9.435a883.273 883.273 0 0 0-3.208-10.5 29.439 29.439 0 0 0-1.064 1.623l1.172 3.977h-5.486l2.716-9.413 1.6 5.44c.327-.541.686-1.081 1.064-1.623-.79-2.515-1.5-4.7-1.826-5.485a.319.319 0 0 0-.121-.136.4.4 0 0 0-.181-.051h-1.058a.334.334 0 0 0-.185.061.364.364 0 0 0-.112.147c-.939 2.294-4.96 15.746-5.023 15.96a.341.341 0 0 0 .038.279.3.3 0 0 0 .247.121h1.035a.308.308 0 0 0 .2-.069.352.352 0 0 0 .094-.149c.041-.129 1.1-3.723 1.1-3.723h6.268l1.111 3.732a.3.3 0 0 0 .1.145.365.365 0 0 0 .206.064h1a.317.317 0 0 0 .279-.128.358.358 0 0 0 .034-.272m24.17.684a7.859 7.859 0 0 0 1.047-.068 3.475 3.475 0 0 0 .568-.108.381.381 0 0 0 .2-.153.345.345 0 0 0 .055-.171v-.665a.327.327 0 0 0-.121-.235.319.319 0 0 0-.262-.06 6.518 6.518 0 0 1-1.371.147c-1.436 0-1.736-.751-1.736-2.041v-6.806h2.894a.336.336 0 0 0 .227-.1.317.317 0 0 0 .089-.213v-.758a.319.319 0 0 0-.091-.218.339.339 0 0 0-.225-.1h-2.9v-2.745a.318.318 0 0 0-.142-.255.319.319 0 0 0-.322-.013c-.194.1-.757.415-.879.484a.371.371 0 0 0-.129.133.411.411 0 0 0-.045.185v10.45c-.004 2.21.796 3.31 3.143 3.31m9.879-10.233a.358.358 0 0 0 .1-.228v-.826a.362.362 0 0 0-.07-.206.353.353 0 0 0-.2-.128 4.1 4.1 0 0 0-1-.14 3.738 3.738 0 0 0-3.608 2.746v-2.218a.328.328 0 0 0-.084-.213.328.328 0 0 0-.229-.1h-.792a.352.352 0 0 0-.225.083.322.322 0 0 0-.1.23v10.637a.316.316 0 0 0 .085.213.328.328 0 0 0 .23.1h.907a.321.321 0 0 0 .236-.116.329.329 0 0 0 .074-.2v-5.412a4.385 4.385 0 0 1 1.066-3.217 3.394 3.394 0 0 1 2.419-1.029 3.85 3.85 0 0 1 .91.1.292.292 0 0 0 .281-.076m-32.608-1.316a.317.317 0 0 0-.227.1.342.342 0 0 0-.085.214v6.094a7.692 7.692 0 0 0 .28 2.535 4.237 4.237 0 0 0 4.176 2.606 5.362 5.362 0 0 0 2.533-.612c1.823-1.031 1.952-2.837 1.952-4.882v-5.741a.34.34 0 0 0-.081-.214.328.328 0 0 0-.232-.1h-.933a.331.331 0 0 0-.23.1.332.332 0 0 0-.084.211l.014 6.515c0 1.692-.478 3.357-2.825 3.357-2.01 0-3.051-1.031-3.051-3.308v-6.561a.348.348 0 0 0-.061-.186.318.318 0 0 0-.254-.128z"/></g><g clip-path="url(#c)" transform="translate(0 94.771)"><path fill="url(#a)" d="m96.009-51.63-6.587 1.748c-1.48.393-1.787 2.135-.148 3.723 1.391 1.348 3.289 1.686 4.244.471l3.152-5.128a.519.519 0 0 0-.033-.636.626.626 0 0 0-.468-.2.75.75 0 0 0-.16.018"/></g><g clip-path="url(#d)" transform="translate(0 94.771)"><path fill="url(#e)" d="m93.123-91.14-1.237.593a4.163 4.163 0 0 0-2.265 2.773 4.54 4.54 0 0 0 .4 3.12c1.271 2.233 9.573 14.613 9.573 14.613a2.392 2.392 0 0 1 .422 1.329 2.252 2.252 0 0 1-.385 1.157L90.764-53.93a.588.588 0 0 0-.036.622.585.585 0 0 0 .677.223l7.015-1.948a2.97 2.97 0 0 0 1.056-.52 2.984 2.984 0 0 0 .6-.694L107-67.162a3.146 3.146 0 0 0-.219-3.7L94.546-90.773a1.055 1.055 0 0 0-.714-.494.9.9 0 0 0-.137-.01 1.458 1.458 0 0 0-.571.137"/></g><g clip-path="url(#f)" transform="translate(0 94.771)"><path fill="url(#g)" d="M55.949-85.651a1.066 1.066 0 0 0-.614.444l-8.592 13.822a3.146 3.146 0 0 0-.219 3.7l8.769 14.055a1.231 1.231 0 0 0 .711.543 1.087 1.087 0 0 0 .778-.129l1.284-.75a4.191 4.191 0 0 0 1.185-5.822l-5.094-7.86a2.385 2.385 0 0 1-.035-3.233l5-7.619a4.686 4.686 0 0 0 .779-3.7 4.373 4.373 0 0 0-2.039-2.689L56.7-85.55a1.2 1.2 0 0 0-.524-.129.958.958 0 0 0-.23.028"/></g><g clip-path="url(#b)" transform="translate(0 94.771)"><path fill="#3d3935" d="M28.946-20.736c0 1.039-.061 1.93-1.05 2.491a2.7 2.7 0 0 1-1.38.33 2.3 2.3 0 0 1-2.27-1.307 4.1 4.1 0 0 1-.184-1.453v-3.072a.182.182 0 0 1 .045-.111.159.159 0 0 1 .118-.052h.783a.164.164 0 0 1 .132.066.181.181 0 0 1 .032.1v3.182c0 .7.074 1.672 1.368 1.672 1.185 0 1.294-.891 1.294-1.6v-3.257a.177.177 0 0 1 .045-.111.159.159 0 0 1 .118-.052h.785a.162.162 0 0 1 .132.066.174.174 0 0 1 .032.1zm-9.784 0c0 1.039-.06 1.93-1.05 2.491a2.7 2.7 0 0 1-1.38.33 2.3 2.3 0 0 1-2.27-1.307 4.1 4.1 0 0 1-.183-1.453v-3.072a.176.176 0 0 1 .044-.111.16.16 0 0 1 .118-.052h.782a.164.164 0 0 1 .132.066.181.181 0 0 1 .031.1v3.182c0 .7.073 1.672 1.367 1.672 1.185 0 1.294-.891 1.294-1.6v-3.257a.181.181 0 0 1 .044-.111.16.16 0 0 1 .118-.052h.785a.163.163 0 0 1 .131.066.17.17 0 0 1 .031.1z"/><path fill="#ffab00" d="M72.129-18.931a2.488 2.488 0 0 1-.583.064c-.794 0-.989-.355-.989-.977v-3.138h1.484a.176.176 0 0 0 .119-.049.17.17 0 0 0 .046-.111v-.6a.164.164 0 0 0-.048-.112.167.167 0 0 0-.117-.05h-1.483v-1.517a.163.163 0 0 0-.074-.132.164.164 0 0 0-.167-.007l-.779.471a.2.2 0 0 0-.067.072.224.224 0 0 0-.023.1v4.831c0 .721.024 1.5.769 1.9a2.406 2.406 0 0 0 1.1.232 4.559 4.559 0 0 0 .583-.034 1.642 1.642 0 0 0 .295-.056.191.191 0 0 0 .106-.08.159.159 0 0 0 .028-.084v-.566a.17.17 0 0 0-.063-.126.17.17 0 0 0-.137-.031"/><path fill="#ffab00" d="M70.558-23.909v-1.512a.163.163 0 0 0-.074-.132.165.165 0 0 0-.167-.007l-.779.471a.208.208 0 0 0-.067.072.227.227 0 0 0-.023.1v4.829"/><path fill="#3d3935" d="M23.142-18.931a2.48 2.48 0 0 1-.582.064c-.793 0-.988-.355-.988-.977v-3.138h1.484a.174.174 0 0 0 .117-.049.165.165 0 0 0 .047-.111v-.6a.166.166 0 0 0-.048-.117.167.167 0 0 0-.117-.05h-1.484v-1.512a.164.164 0 0 0-.074-.132.165.165 0 0 0-.168-.007l-.779.471a.205.205 0 0 0-.068.072.23.23 0 0 0-.023.1v4.831c0 .721.025 1.5.77 1.9a2.4 2.4 0 0 0 1.1.232 4.541 4.541 0 0 0 .585-.034 1.674 1.674 0 0 0 .3-.056.194.194 0 0 0 .101-.08.163.163 0 0 0 .027-.084v-.566a.167.167 0 0 0-.063-.126.169.169 0 0 0-.137-.031m8.146-1.731a2.227 2.227 0 0 1 .757-2 1.642 1.642 0 0 1 .965-.3 1.784 1.784 0 0 1 .484.061.151.151 0 0 0 .146-.04.188.188 0 0 0 .053-.119v-.719a.206.206 0 0 0-.037-.111.183.183 0 0 0-.1-.066 2.084 2.084 0 0 0-.519-.069 1.861 1.861 0 0 0-1.809 1.432v-1.154a.174.174 0 0 0-.04-.115.172.172 0 0 0-.121-.052h-.72a.179.179 0 0 0-.117.042.166.166 0 0 0-.053.12v5.537a.163.163 0 0 0 .044.111.175.175 0 0 0 .12.053h.787a.167.167 0 0 0 .123-.061.166.166 0 0 0 .037-.103z"/><path fill="#ffab00" d="M55.163-18.216a.17.17 0 0 0 .03.095.171.171 0 0 0 .134.069h.773a.167.167 0 0 0 .129-.064.168.168 0 0 0 .034-.1v-5.531a.17.17 0 0 0-.039-.1.17.17 0 0 0-.122-.059h-.775a.18.18 0 0 0-.118.049.174.174 0 0 0-.046.11zm-1.295-8.321a.163.163 0 0 0-.074-.132.162.162 0 0 0-.168-.007l-.779.47a.207.207 0 0 0-.067.069.213.213 0 0 0-.023.1v7.822a.165.165 0 0 0 .044.111.173.173 0 0 0 .119.053h.786a.165.165 0 0 0 .123-.061.171.171 0 0 0 .039-.103zm1.855 1.65c-.476 0-.659-.219-.659-.671a.554.554 0 0 1 .636-.635c.463 0 .659.183.659.647 0 .44-.196.659-.636.659m11.343 6.671a.18.18 0 0 0 .03.095.171.171 0 0 0 .134.069h.774a.164.164 0 0 0 .128-.064.168.168 0 0 0 .034-.1v-5.531a.165.165 0 0 0-.039-.1.166.166 0 0 0-.121-.059h-.776a.18.18 0 0 0-.117.049.175.175 0 0 0-.047.11zm.562-6.671c-.476 0-.66-.219-.66-.671a.554.554 0 0 1 .635-.635c.465 0 .659.183.659.647.001.44-.194.659-.634.659m-22.391 3.59a4.1 4.1 0 0 1-.611 2.515 2.611 2.611 0 0 1-2.149.867 2.52 2.52 0 0 1-2.551-1.682 4.337 4.337 0 0 1-.171-1.443v-5.491a.154.154 0 0 1 .033-.091.138.138 0 0 1 .1-.047h.885a.136.136 0 0 1 .1.047.149.149 0 0 1 .038.091v5.434a2.439 2.439 0 0 0 .366 1.587 1.489 1.489 0 0 0 1.25.533 1.405 1.405 0 0 0 1.22-.55 2.619 2.619 0 0 0 .318-1.526v-5.478a.151.151 0 0 1 .033-.091.137.137 0 0 1 .1-.047h.9a.137.137 0 0 1 .1.047.149.149 0 0 1 .039.091zm6.275 3.084a.169.169 0 0 1-.039.1.168.168 0 0 1-.122.064h-.787a.176.176 0 0 1-.117-.05.17.17 0 0 1-.046-.114v-3.267c0-.977-.4-1.55-1.221-1.55a1.385 1.385 0 0 0-.854.3 2.356 2.356 0 0 0-.6 1.954v2.563a.169.169 0 0 1-.039.1.167.167 0 0 1-.122.059h-.785a.178.178 0 0 1-.118-.045.176.176 0 0 1-.05-.114v-5.534a.177.177 0 0 1 .046-.113.18.18 0 0 1 .122-.053h.737a.167.167 0 0 1 .121.059.167.167 0 0 1 .039.1v.985a1.906 1.906 0 0 1 1.835-1.275 2.128 2.128 0 0 1 1.246.379 2.455 2.455 0 0 1 .754 2.197zm7.106-4.585a1.88 1.88 0 0 1 1.758-1.245 1.577 1.577 0 0 1 1.636 1.306 1.946 1.946 0 0 1 1.88-1.306 1.892 1.892 0 0 1 1.513.708 3.143 3.143 0 0 1 .391 1.88v3.242a.174.174 0 0 1-.039.1.165.165 0 0 1-.121.059h-.786a.177.177 0 0 1-.118-.05.171.171 0 0 1-.046-.114v-3.262a1.51 1.51 0 0 0-.4-1.293 1.2 1.2 0 0 0-.711-.245 1.211 1.211 0 0 0-1.026.574 2.325 2.325 0 0 0-.331 1.417v2.814a.174.174 0 0 1-.039.1.166.166 0 0 1-.122.059h-.785a.176.176 0 0 1-.117-.05.169.169 0 0 1-.047-.114v-3.1c0-1.172-.354-1.71-1.1-1.71a1.316 1.316 0 0 0-1.048.62 2.4 2.4 0 0 0-.306 1.453v2.742a.177.177 0 0 1-.036.105.166.166 0 0 1-.121.059h-.789a.176.176 0 0 1-.118-.05.169.169 0 0 1-.046-.114v-5.534a.17.17 0 0 1 .046-.113.178.178 0 0 1 .118-.05h.737a.167.167 0 0 1 .121.059.169.169 0 0 1 .039.1zm16.36-1.258c-1.745 0-2.613 1.5-2.613 3.052a2.893 2.893 0 0 0 3.163 3.087 4.8 4.8 0 0 0 1.476-.206.17.17 0 0 0 .074-.06.174.174 0 0 0 .031-.1v-.54a.174.174 0 0 0-.058-.124.16.16 0 0 0-.105-.039.136.136 0 0 0-.05.009 3.951 3.951 0 0 1-1.19.18 1.971 1.971 0 0 1-2.205-1.828h1.528v-.745h-1.54c.012-.219.122-1.819 1.5-1.819a1.444 1.444 0 0 1 1.355 1.55v.268h-1.315v.745h2.179a.179.179 0 0 0 .112-.043.17.17 0 0 0 .05-.09 3.86 3.86 0 0 0 .05-.722 2.409 2.409 0 0 0-2.442-2.575"/><path fill="#3d3935" d="M36.299-24.056c-1.746 0-2.613 1.5-2.613 3.052a2.893 2.893 0 0 0 3.163 3.087 4.785 4.785 0 0 0 1.474-.206.168.168 0 0 0 .076-.06.174.174 0 0 0 .03-.1v-.54a.169.169 0 0 0-.058-.124.159.159 0 0 0-.105-.039.139.139 0 0 0-.05.009 3.947 3.947 0 0 1-1.189.18 1.97 1.97 0 0 1-2.205-1.828h1.6v-.745h-1.613c.013-.219.123-1.819 1.5-1.819a1.444 1.444 0 0 1 1.355 1.55v.268h-1.237v.745h2.1a.176.176 0 0 0 .111-.043.161.161 0 0 0 .05-.09 3.824 3.824 0 0 0 .05-.722 2.408 2.408 0 0 0-2.439-2.575"/><path fill="#ffab00" d="M83.132-26.669a.163.163 0 0 0-.167-.007l-.779.47a.208.208 0 0 0-.067.073.211.211 0 0 0-.023.1v2.88a1.9 1.9 0 0 0-1.664-.891c-1.282 0-2.5 1.061-2.5 3.052 0 1.461.7 2.827 2.112 3.034.047-.327.088-.656.119-.992a2.067 2.067 0 0 1-1.108-1.993c0-1.745 1-2.16 1.575-2.16 1.111 0 1.514 1.245 1.514 2.087 0 .134-.061 2.137-1.563 2.137a1.293 1.293 0 0 1-.419-.07c-.03.335-.072.664-.119.992a2.59 2.59 0 0 0 .379.03 1.841 1.841 0 0 0 1.759-1.185v.9a.164.164 0 0 0 .043.111.176.176 0 0 0 .121.052h.7a.162.162 0 0 0 .122-.061.17.17 0 0 0 .039-.1v-8.327a.163.163 0 0 0-.074-.132m-78.721-.474a.327.327 0 0 0-.222.03l-.34.193a1.285 1.285 0 0 0-.6.788 1.368 1.368 0 0 0 .231 1.084l1.465 2.234a.7.7 0 0 1-.01.947l-1.492 2.304a1.227 1.227 0 0 0 .347 1.705l.376.22a.316.316 0 0 0 .229.037.358.358 0 0 0 .208-.158l2.57-4.12a.923.923 0 0 0-.062-1.083l-2.52-4.05a.316.316 0 0 0-.18-.131"/><path fill="#3d3935" d="M10.627-18.214a.176.176 0 0 1-.05.117.162.162 0 0 1-.113.047h-.837a.16.16 0 0 1-.11-.046.173.173 0 0 1-.052-.118v-8.31a.177.177 0 0 1 .05-.117.17.17 0 0 1 .112-.048h3.932a.182.182 0 0 1 .117.051.165.165 0 0 1 .047.113v.717a.164.164 0 0 1-.046.111.173.173 0 0 1-.118.05h-2.932v2.764h2.692a.18.18 0 0 1 .117.05.165.165 0 0 1 .046.112v.641a.17.17 0 0 1-.046.112.177.177 0 0 1-.118.052h-2.691z"/></g></svg>