<svg xmlns="http://www.w3.org/2000/svg" version="1.0" width="387.298" height="258.199" viewBox="0 0 600 400"><path style="opacity:1;fill:#096;fill-opacity:1;stroke:none" d="M0 330h600v70H0zM0 0h600v70H0z"/><path style="opacity:1;fill:#000;fill-opacity:1;stroke:none" d="M0 70h600v20H0zm0 240h600v20H0z"/><path style="opacity:1;fill:#009;fill-opacity:1;stroke:none" d="M0 90h600v220H0z"/><path d="M290 95c-100 30-95 105-63 174l-38 36 69-25v-92c22-33 62-33 84 0v92l69 25-38-36c32-69 37-144-63-174l-10 43-10-43z" style="opacity:1;fill:#fff;fill-opacity:1;stroke:none"/><path d="m147.701 41.916-6.635 4.347 2.023 7.67-6.185-4.968-6.67 4.294 2.814-7.416-6.145-5.017 7.923.384 2.872-7.394 2.084 7.653 7.92.447z" transform="matrix(3.64396 -.19809 .19348 3.8309 -208.327 65.732)" style="opacity:1;fill:#fff;fill-opacity:1;stroke:none;stroke-opacity:1"/></svg>