<svg xmlns="http://www.w3.org/2000/svg" xmlns:xlink="http://www.w3.org/1999/xlink" width="108.217" height="94.771"><defs><clipPath id="b"><path d="M0-94.772h108.218V0H0z"/></clipPath><clipPath id="c"><path d="M96.009-51.63l-6.587 1.748c-1.48.393-1.787 2.135-.148 3.723 1.391 1.348 3.289 1.686 4.244.471l3.152-5.128a.519.519 0 00-.033-.636.626.626 0 00-.468-.2.75.75 0 00-.16.018"/></clipPath><clipPath id="d"><path d="M93.123-91.14l-1.237.593a4.163 4.163 0 00-2.265 2.773 4.54 4.54 0 00.4 3.12c1.271 2.233 9.573 14.613 9.573 14.613a2.392 2.392 0 01.422 1.329 2.252 2.252 0 01-.385 1.157L90.764-53.93a.588.588 0 00-.036.622.585.585 0 00.677.223l7.015-1.948a2.97 2.97 0 001.056-.52 2.984 2.984 0 00.6-.694L107-67.162a3.146 3.146 0 00-.219-3.7L94.546-90.773a1.055 1.055 0 00-.714-.494.9.9 0 00-.137-.01 1.458 1.458 0 00-.571.137"/></clipPath><clipPath id="f"><path d="M55.949-85.651a1.066 1.066 0 00-.614.444l-8.592 13.822a3.146 3.146 0 00-.219 3.7l8.769 14.055a1.231 1.231 0 00.711.543 1.087 1.087 0 00.778-.129l1.284-.75a4.191 4.191 0 001.185-5.822l-5.094-7.86a2.385 2.385 0 01-.035-3.233l5-7.619a4.686 4.686 0 00.779-3.7 4.373 4.373 0 00-2.039-2.689L56.7-85.55a1.2 1.2 0 00-.524-.129.958.958 0 00-.23.028"/></clipPath><linearGradient id="a" x1="-10.265" y1="-6.698" x2="-10.215" y2="-6.698" gradientUnits="objectBoundingBox"><stop offset="0" stop-color="#ffc63f"/><stop offset=".637" stop-color="#f58400"/><stop offset="1" stop-color="#f58400"/></linearGradient><linearGradient id="e" x1=".383" y1="0" x2=".931" y2="1.212" xlink:href="#a"/><linearGradient id="g" x1=".392" y1=".107" x2=".582" y2="1.673" xlink:href="#a"/></defs><g clip-path="url(#b)" transform="translate(0 94.771)"><path d="M71.654-50.051c.648 0 1-.283 1-.965a.859.859 0 00-.987-.983c-.7 0-.982.325-.982 1.009 0 .631.324.939.969.939M66.618-37.01a.332.332 0 00.054.186.332.332 0 00.254.128h.906a.322.322 0 00.248-.13.353.353 0 00.063-.184v-15.8a.317.317 0 00-.14-.253.327.327 0 00-.325-.014c-.193.1-.757.415-.878.485a.359.359 0 00-.119.115.427.427 0 00-.063.2zm4.293 0a.34.34 0 00.059.182.326.326 0 00.256.132h.906a.32.32 0 00.248-.13.342.342 0 00.063-.184v-10.639a.338.338 0 00-.076-.2.328.328 0 00-.234-.115h-.907a.346.346 0 00-.226.1.328.328 0 00-.089.215zM39.806-47.555a.34.34 0 00-.062-.187.317.317 0 00-.186-.121 12.44 12.44 0 00-2.9-.381c-3.092 0-3.938 1.808-3.938 3a3.4 3.4 0 002.419 2.939l1.279.539c.943.4 2.235.916 2.235 2.185 0 .916-.6 1.807-2.7 1.807a9.151 9.151 0 01-2.653-.324.315.315 0 00-.4.3v.7a.324.324 0 00.06.185.351.351 0 00.184.121 11.748 11.748 0 002.975.378c3.36 0 4.135-1.95 4.135-3.124.004-1.617-1.248-2.626-2.71-3.237l-1.055-.446c-2.139-.891-2.252-1.6-2.252-2.042 0-.54.382-1.62 2.378-1.62a12.831 12.831 0 012.841.357.264.264 0 00.263-.058.345.345 0 00.087-.221v-.75m24.028 1.023c-.59-1.313-2.208-1.714-3.514-1.714a7.271 7.271 0 00-3.431.814.864.864 0 00-.28.2.386.386 0 00-.1.246v.678a.317.317 0 00.146.271.309.309 0 00.295.015 6.413 6.413 0 013.1-.862c1.394 0 2.532.469 2.547 2.114v1.033h-.717c-3.911 0-6.313 1.525-6.313 4.039a2.8 2.8 0 001.743 2.722q.339-.6.71-1.192a1.707 1.707 0 01-.877-1.6c0-2.44 2.968-2.769 4.866-2.769h.576l.015 4.624a10.34 10.34 0 01-2.266.181 4.836 4.836 0 01-2.314-.439q-.371.588-.71 1.192a7.6 7.6 0 003.121.563 19.039 19.039 0 003.435-.349.336.336 0 00.19-.118.348.348 0 00.062-.2v-7.687a4.414 4.414 0 00-.284-1.762m19.089 0c-.589-1.313-2.207-1.714-3.514-1.714a7.27 7.27 0 00-3.431.814.872.872 0 00-.28.2.388.388 0 00-.1.246v.678a.315.315 0 00.146.271.309.309 0 00.295.015 6.413 6.413 0 013.1-.862c1.394 0 2.532.469 2.547 2.114v1.033h-.717c-3.911 0-6.313 1.525-6.313 4.039 0 2.468 2.2 3.161 4.242 3.268q.377-.654.761-1.3h-.239c-1.434 0-3.191-.236-3.191-2.043 0-2.44 2.968-2.769 4.867-2.769h.575l.015 4.624a9.576 9.576 0 01-2.026.186q-.385.646-.761 1.3c.209.011.418.018.621.018a19.047 19.047 0 003.436-.351.333.333 0 00.189-.118.348.348 0 00.062-.2v-7.687a4.422 4.422 0 00-.284-1.762m-61.93 9.435a883.273 883.273 0 00-3.208-10.5 29.439 29.439 0 00-1.064 1.623l1.172 3.977h-5.486l2.716-9.413 1.6 5.44c.327-.541.686-1.081 1.064-1.623-.79-2.515-1.5-4.7-1.826-5.485a.319.319 0 00-.121-.136.4.4 0 00-.181-.051h-1.058a.334.334 0 00-.185.061.364.364 0 00-.112.147c-.939 2.294-4.96 15.746-5.023 15.96a.341.341 0 00.038.279.3.3 0 00.247.121h1.035a.308.308 0 00.2-.069.352.352 0 00.094-.149c.041-.129 1.1-3.723 1.1-3.723h6.268l1.111 3.732a.3.3 0 00.1.145.365.365 0 00.206.064h1a.317.317 0 00.279-.128.358.358 0 00.034-.272m24.17.684a7.859 7.859 0 001.047-.068 3.475 3.475 0 00.568-.108.381.381 0 00.2-.153.345.345 0 00.055-.171v-.665a.327.327 0 00-.121-.235.319.319 0 00-.262-.06 6.518 6.518 0 01-1.371.147c-1.436 0-1.736-.751-1.736-2.041v-6.806h2.894a.336.336 0 00.227-.1.317.317 0 00.089-.213v-.758a.319.319 0 00-.091-.218.339.339 0 00-.225-.1h-2.9v-2.745a.318.318 0 00-.142-.255.319.319 0 00-.322-.013c-.194.1-.757.415-.879.484a.371.371 0 00-.129.133.411.411 0 00-.045.185v10.45c-.004 2.21.796 3.31 3.143 3.31m9.879-10.233a.358.358 0 00.1-.228v-.826a.362.362 0 00-.07-.206.353.353 0 00-.2-.128 4.1 4.1 0 00-1-.14 3.738 3.738 0 00-3.608 2.746v-2.218a.328.328 0 00-.084-.213.328.328 0 00-.229-.1h-.792a.352.352 0 00-.225.083.322.322 0 00-.1.23v10.637a.316.316 0 00.085.213.328.328 0 00.23.1h.907a.321.321 0 00.236-.116.329.329 0 00.074-.2v-5.412a4.385 4.385 0 011.066-3.217 3.394 3.394 0 012.419-1.029 3.85 3.85 0 01.91.1.292.292 0 00.281-.076m-32.608-1.316a.317.317 0 00-.227.1.342.342 0 00-.085.214v6.094a7.692 7.692 0 00.28 2.535 4.237 4.237 0 004.176 2.606 5.362 5.362 0 002.533-.612c1.823-1.031 1.952-2.837 1.952-4.882v-5.741a.34.34 0 00-.081-.214.328.328 0 00-.232-.1h-.933a.331.331 0 00-.23.1.332.332 0 00-.084.211l.014 6.515c0 1.692-.478 3.357-2.825 3.357-2.01 0-3.051-1.031-3.051-3.308v-6.561a.348.348 0 00-.061-.186.318.318 0 00-.254-.128z" fill="#3d3935"/></g><g clip-path="url(#c)" transform="translate(0 94.771)"><path d="M96.009-51.63l-6.587 1.748c-1.48.393-1.787 2.135-.148 3.723 1.391 1.348 3.289 1.686 4.244.471l3.152-5.128a.519.519 0 00-.033-.636.626.626 0 00-.468-.2.75.75 0 00-.16.018" fill="url(#a)"/></g><g clip-path="url(#d)" transform="translate(0 94.771)"><path d="M93.123-91.14l-1.237.593a4.163 4.163 0 00-2.265 2.773 4.54 4.54 0 00.4 3.12c1.271 2.233 9.573 14.613 9.573 14.613a2.392 2.392 0 01.422 1.329 2.252 2.252 0 01-.385 1.157L90.764-53.93a.588.588 0 00-.036.622.585.585 0 00.677.223l7.015-1.948a2.97 2.97 0 001.056-.52 2.984 2.984 0 00.6-.694L107-67.162a3.146 3.146 0 00-.219-3.7L94.546-90.773a1.055 1.055 0 00-.714-.494.9.9 0 00-.137-.01 1.458 1.458 0 00-.571.137" fill="url(#e)"/></g><g clip-path="url(#f)" transform="translate(0 94.771)"><path d="M55.949-85.651a1.066 1.066 0 00-.614.444l-8.592 13.822a3.146 3.146 0 00-.219 3.7l8.769 14.055a1.231 1.231 0 00.711.543 1.087 1.087 0 00.778-.129l1.284-.75a4.191 4.191 0 001.185-5.822l-5.094-7.86a2.385 2.385 0 01-.035-3.233l5-7.619a4.686 4.686 0 00.779-3.7 4.373 4.373 0 00-2.039-2.689L56.7-85.55a1.2 1.2 0 00-.524-.129.958.958 0 00-.23.028" fill="url(#g)"/></g><g clip-path="url(#b)" transform="translate(0 94.771)"><path d="M28.946-20.736c0 1.039-.061 1.93-1.05 2.491a2.7 2.7 0 01-1.38.33 2.3 2.3 0 01-2.27-1.307 4.1 4.1 0 01-.184-1.453v-3.072a.182.182 0 01.045-.111.159.159 0 01.118-.052h.783a.164.164 0 01.132.066.181.181 0 01.032.1v3.182c0 .7.074 1.672 1.368 1.672 1.185 0 1.294-.891 1.294-1.6v-3.257a.177.177 0 01.045-.111.159.159 0 01.118-.052h.785a.162.162 0 01.132.066.174.174 0 01.032.1zm-9.784 0c0 1.039-.06 1.93-1.05 2.491a2.7 2.7 0 01-1.38.33 2.3 2.3 0 01-2.27-1.307 4.1 4.1 0 01-.183-1.453v-3.072a.176.176 0 01.044-.111.16.16 0 01.118-.052h.782a.164.164 0 01.132.066.181.181 0 01.031.1v3.182c0 .7.073 1.672 1.367 1.672 1.185 0 1.294-.891 1.294-1.6v-3.257a.181.181 0 01.044-.111.16.16 0 01.118-.052h.785a.163.163 0 01.131.066.17.17 0 01.031.1z" fill="#3d3935"/><path d="M72.129-18.931a2.488 2.488 0 01-.583.064c-.794 0-.989-.355-.989-.977v-3.138h1.484a.176.176 0 00.119-.049.17.17 0 00.046-.111v-.6a.164.164 0 00-.048-.112.167.167 0 00-.117-.05h-1.483v-1.517a.163.163 0 00-.074-.132.164.164 0 00-.167-.007l-.779.471a.2.2 0 00-.067.072.224.224 0 00-.023.1v4.831c0 .721.024 1.5.769 1.9a2.406 2.406 0 001.1.232 4.559 4.559 0 00.583-.034 1.642 1.642 0 00.295-.056.191.191 0 00.106-.08.159.159 0 00.028-.084v-.566a.17.17 0 00-.063-.126.17.17 0 00-.137-.031" fill="#ffab00"/><path d="M70.558-23.909v-1.512a.163.163 0 00-.074-.132.165.165 0 00-.167-.007l-.779.471a.208.208 0 00-.067.072.227.227 0 00-.023.1v4.829" fill="#ffab00"/><path d="M23.142-18.931a2.48 2.48 0 01-.582.064c-.793 0-.988-.355-.988-.977v-3.138h1.484a.174.174 0 00.117-.049.165.165 0 00.047-.111v-.6a.166.166 0 00-.048-.117.167.167 0 00-.117-.05h-1.484v-1.512a.164.164 0 00-.074-.132.165.165 0 00-.168-.007l-.779.471a.205.205 0 00-.068.072.23.23 0 00-.023.1v4.831c0 .721.025 1.5.77 1.9a2.4 2.4 0 001.1.232 4.541 4.541 0 00.585-.034 1.674 1.674 0 00.3-.056.194.194 0 00.101-.08.163.163 0 00.027-.084v-.566a.167.167 0 00-.063-.126.169.169 0 00-.137-.031m8.146-1.731a2.227 2.227 0 01.757-2 1.642 1.642 0 01.965-.3 1.784 1.784 0 01.484.061.151.151 0 00.146-.04.188.188 0 00.053-.119v-.719a.206.206 0 00-.037-.111.183.183 0 00-.1-.066 2.084 2.084 0 00-.519-.069 1.861 1.861 0 00-1.809 1.432v-1.154a.174.174 0 00-.04-.115.172.172 0 00-.121-.052h-.72a.179.179 0 00-.117.042.166.166 0 00-.053.12v5.537a.163.163 0 00.044.111.175.175 0 00.12.053h.787a.167.167 0 00.123-.061.166.166 0 00.037-.103z" fill="#3d3935"/><path d="M55.163-18.216a.17.17 0 00.03.095.171.171 0 00.134.069h.773a.167.167 0 00.129-.064.168.168 0 00.034-.1v-5.531a.17.17 0 00-.039-.1.17.17 0 00-.122-.059h-.775a.18.18 0 00-.118.049.174.174 0 00-.046.11zm-1.295-8.321a.163.163 0 00-.074-.132.162.162 0 00-.168-.007l-.779.47a.207.207 0 00-.067.069.213.213 0 00-.023.1v7.822a.165.165 0 00.044.111.173.173 0 00.119.053h.786a.165.165 0 00.123-.061.171.171 0 00.039-.103zm1.855 1.65c-.476 0-.659-.219-.659-.671a.554.554 0 01.636-.635c.463 0 .659.183.659.647 0 .44-.196.659-.636.659m11.343 6.671a.18.18 0 00.03.095.171.171 0 00.134.069h.774a.164.164 0 00.128-.064.168.168 0 00.034-.1v-5.531a.165.165 0 00-.039-.1.166.166 0 00-.121-.059h-.776a.18.18 0 00-.117.049.175.175 0 00-.047.11zm.562-6.671c-.476 0-.66-.219-.66-.671a.554.554 0 01.635-.635c.465 0 .659.183.659.647.001.44-.194.659-.634.659m-22.391 3.59a4.1 4.1 0 01-.611 2.515 2.611 2.611 0 01-2.149.867 2.52 2.52 0 01-2.551-1.682 4.337 4.337 0 01-.171-1.443v-5.491a.154.154 0 01.033-.091.138.138 0 01.1-.047h.885a.136.136 0 01.1.047.149.149 0 01.038.091v5.434a2.439 2.439 0 00.366 1.587 1.489 1.489 0 001.25.533 1.405 1.405 0 001.22-.55 2.619 2.619 0 00.318-1.526v-5.478a.151.151 0 01.033-.091.137.137 0 01.1-.047h.9a.137.137 0 01.1.047.149.149 0 01.039.091zm6.275 3.084a.169.169 0 01-.039.1.168.168 0 01-.122.064h-.787a.176.176 0 01-.117-.05.17.17 0 01-.046-.114v-3.267c0-.977-.4-1.55-1.221-1.55a1.385 1.385 0 00-.854.3 2.356 2.356 0 00-.6 1.954v2.563a.169.169 0 01-.039.1.167.167 0 01-.122.059h-.785a.178.178 0 01-.118-.045.176.176 0 01-.05-.114v-5.534a.177.177 0 01.046-.113.18.18 0 01.122-.053h.737a.167.167 0 01.121.059.167.167 0 01.039.1v.985a1.906 1.906 0 011.835-1.275 2.128 2.128 0 011.246.379 2.455 2.455 0 01.754 2.197zm7.106-4.585a1.88 1.88 0 011.758-1.245 1.577 1.577 0 011.636 1.306 1.946 1.946 0 011.88-1.306 1.892 1.892 0 011.513.708 3.143 3.143 0 01.391 1.88v3.242a.174.174 0 01-.039.1.165.165 0 01-.121.059h-.786a.177.177 0 01-.118-.05.171.171 0 01-.046-.114v-3.262a1.51 1.51 0 00-.4-1.293 1.2 1.2 0 00-.711-.245 1.211 1.211 0 00-1.026.574 2.325 2.325 0 00-.331 1.417v2.814a.174.174 0 01-.039.1.166.166 0 01-.122.059h-.785a.176.176 0 01-.117-.05.169.169 0 01-.047-.114v-3.1c0-1.172-.354-1.71-1.1-1.71a1.316 1.316 0 00-1.048.62 2.4 2.4 0 00-.306 1.453v2.742a.177.177 0 01-.036.105.166.166 0 01-.121.059h-.789a.176.176 0 01-.118-.05.169.169 0 01-.046-.114v-5.534a.17.17 0 01.046-.113.178.178 0 01.118-.05h.737a.167.167 0 01.121.059.169.169 0 01.039.1zm16.36-1.258c-1.745 0-2.613 1.5-2.613 3.052a2.893 2.893 0 003.163 3.087 4.8 4.8 0 001.476-.206.17.17 0 00.074-.06.174.174 0 00.031-.1v-.54a.174.174 0 00-.058-.124.16.16 0 00-.105-.039.136.136 0 00-.05.009 3.951 3.951 0 01-1.19.18 1.971 1.971 0 01-2.205-1.828h1.528v-.745h-1.54c.012-.219.122-1.819 1.5-1.819a1.444 1.444 0 011.355 1.55v.268h-1.315v.745h2.179a.179.179 0 00.112-.043.17.17 0 00.05-.09 3.86 3.86 0 00.05-.722 2.409 2.409 0 00-2.442-2.575" fill="#ffab00"/><path d="M36.299-24.056c-1.746 0-2.613 1.5-2.613 3.052a2.893 2.893 0 003.163 3.087 4.785 4.785 0 001.474-.206.168.168 0 00.076-.06.174.174 0 00.03-.1v-.54a.169.169 0 00-.058-.124.159.159 0 00-.105-.039.139.139 0 00-.05.009 3.947 3.947 0 01-1.189.18 1.97 1.97 0 01-2.205-1.828h1.6v-.745h-1.613c.013-.219.123-1.819 1.5-1.819a1.444 1.444 0 011.355 1.55v.268h-1.237v.745h2.1a.176.176 0 00.111-.043.161.161 0 00.05-.09 3.824 3.824 0 00.05-.722 2.408 2.408 0 00-2.439-2.575" fill="#3d3935"/><path d="M83.132-26.669a.163.163 0 00-.167-.007l-.779.47a.208.208 0 00-.067.073.211.211 0 00-.023.1v2.88a1.9 1.9 0 00-1.664-.891c-1.282 0-2.5 1.061-2.5 3.052 0 1.461.7 2.827 2.112 3.034.047-.327.088-.656.119-.992a2.067 2.067 0 01-1.108-1.993c0-1.745 1-2.16 1.575-2.16 1.111 0 1.514 1.245 1.514 2.087 0 .134-.061 2.137-1.563 2.137a1.293 1.293 0 01-.419-.07c-.03.335-.072.664-.119.992a2.59 2.59 0 00.379.03 1.841 1.841 0 001.759-1.185v.9a.164.164 0 00.043.111.176.176 0 00.121.052h.7a.162.162 0 00.122-.061.17.17 0 00.039-.1v-8.327a.163.163 0 00-.074-.132m-78.721-.474a.327.327 0 00-.222.03l-.34.193a1.285 1.285 0 00-.6.788 1.368 1.368 0 00.231 1.084l1.465 2.234a.7.7 0 01-.01.947l-1.492 2.304a1.227 1.227 0 00.347 1.705l.376.22a.316.316 0 00.229.037.358.358 0 00.208-.158l2.57-4.12a.923.923 0 00-.062-1.083l-2.52-4.05a.316.316 0 00-.18-.131" fill="#ffab00"/><path d="M10.627-18.214a.176.176 0 01-.05.117.162.162 0 01-.113.047h-.837a.16.16 0 01-.11-.046.173.173 0 01-.052-.118v-8.31a.177.177 0 01.05-.117.17.17 0 01.112-.048h3.932a.182.182 0 01.117.051.165.165 0 01.047.113v.717a.164.164 0 01-.046.111.173.173 0 01-.118.05h-2.932v2.764h2.692a.18.18 0 01.117.05.165.165 0 01.046.112v.641a.17.17 0 01-.046.112.177.177 0 01-.118.052h-2.691z" fill="#3d3935"/></g></svg>