<svg xmlns="http://www.w3.org/2000/svg" width="239.744" height="62.721"><defs><linearGradient id="b" x1=".067" y1=".73" x2=".972" y2=".372" gradientUnits="objectBoundingBox"><stop offset="0" stop-color="#00a651"/><stop offset="1" stop-color="#a6ce39"/></linearGradient><clipPath id="a"><path data-name="Path 204" d="M34.484 370.579c-7.72 2.9-14.149 5.8-31.878-1.215a33.2 33.2 0 00-.255 17.486c16.879 5.484 26.555 2.681 35.722-.122 7.611-2.325 14.87-4.654 25.6-2.236a36.982 36.982 0 00-.956-15.639 63.19 63.19 0 00-12.593-1.414 40.66 40.66 0 00-15.643 3.139" transform="translate(-1.296 -367.44)" fill="none"/></clipPath></defs><path data-name="Path 200" d="M51.177 6.645c1.349 1.28-1.794 4.549-9.2 3.674s-16.428-7.874-22.35-1.95C27.906 3.103 33.658-.21 37.449 1.341s10.625 4.31 10.353 3.3c.64.32 3.394 2.005 3.394 2.005" fill="#d1d7dc"/><path data-name="Path 201" d="M9.52 9.078C23.754 20.764 38.36-1.478 51.285 6.729 39.713-2.247 21.404-2.992 9.52 9.078" fill="#99a6b1"/><path data-name="Path 202" d="M1.31 22.558c27.9-6.432 46.638 15.133 60.462 1.657.089 2.394.032 7.55.608 13.46-8.68 4.938-21.346 6.619-31.716 1.118-7.222-4.221-27.544-10.8-29.354-16.234" fill="#bbd976"/><g data-name="Group 123" transform="translate(0 20.574)" clip-path="url(#a)"><path data-name="Path 203" d="M0 50.78h64.035v24.895H0z" transform="translate(-.732 -50.78)" fill="url(#b)"/></g><path data-name="Path 205" d="M11.975 56.069c-1.345-1.28 1.8-4.545 9.207-3.67s16.425 7.878 22.351 1.952c-8.279 5.266-14.035 8.579-17.8 7.028s-10.625-4.31-10.357-3.313c-.64-.32-3.4-2.025-3.4-2.025" fill="#d1d7dc"/><path data-name="Path 206" d="M53.635 53.642C39.406 41.959 24.779 64.218 11.87 55.991c11.572 8.976 29.885 9.721 41.765-2.349" fill="#99a6b1"/><path data-name="Path 207" d="M238.918 39.433c-.227-1.79-.369-2.929-.482-3.921a11.669 11.669 0 00-3.577-.656c-3.645 0-5.857 2.329-5.857 5.059 0 3.208 2.872 4.6 4.691 5.6 2.131 1.134 3.694 2.131 3.694 4.233a3.135 3.135 0 01-3.411 3.406c-2.953 0-4.233-2.868-4.658-4.6l-.855.2c.2 1.365.571 3.807.77 4.4a8.67 8.67 0 001.418.6 9.762 9.762 0 002.787.425c3.779 0 6.307-2.386 6.307-5.371 0-3.208-2.669-4.516-4.917-5.671s-3.6-2.131-3.6-4.2a2.956 2.956 0 013.151-3.095c2.475 0 3.24 1.96 3.722 3.751zm-12.5 9.345c-1.418 2.815-2.953 4.375-5.853 4.375-4.318 0-7.441-3.645-7.441-8.948 0-4.318 2.528-8.324 7.271-8.324 3.07 0 4.776 1.215 5.541 4.233l.81-.227c-.17-1.507-.34-2.669-.567-4.261a22.565 22.565 0 00-5.027-.77c-6.339 0-10.936 3.921-10.936 9.916 0 4.516 3.1 9.405 10.171 9.405a26.4 26.4 0 005.229-.737 32.9 32.9 0 001.62-4.379zm-16.478 4.99v-.81c-2.329-.17-2.556-.312-2.556-2.754V38.85c0-2.43.227-2.584 2.556-2.754v-.81h-7.534v.81c2.329.17 2.556.34 2.556 2.754v11.366c0 2.43-.227 2.584-2.556 2.754v.81zm-17.3-15.882c0-.81.085-1.167.316-1.337a3.021 3.021 0 011.588-.34 3.989 3.989 0 014.29 4.375c0 3.609-2.272 4.605-4.119 4.605a6.166 6.166 0 01-2.074-.344zm-4.715-2.588v.81c2.1.142 2.329.255 2.329 2.754v11.366c0 2.357-.227 2.584-2.5 2.754v.81h7.7v-.81c-2.56-.17-2.815-.312-2.815-2.726V45.8l2.1.539a6.6 6.6 0 001.28-.028c2.783-.34 5.541-2.131 5.541-5.825a4.79 4.79 0 00-1.819-4.006 7.928 7.928 0 00-4.8-1.167zm-10.369.6c3.751 0 6.886 3.18 6.886 9.174 0 5.456-2.811 8.1-5.995 8.1-4.006 0-6.93-3.888-6.93-9.231s2.9-8.04 6.051-8.04m.624-1.025c-5.995 0-9.575 4.747-9.575 9.859a9.164 9.164 0 009.235 9.462c5.144 0 9.49-3.751 9.49-9.887a9.139 9.139 0 00-9.15-9.434m-20.512 9.916v-7.02c0-.81.085-1.11.312-1.252a3.086 3.086 0 011.535-.284 3.839 3.839 0 014.148 4.2 4.077 4.077 0 01-1.564 3.524 4.511 4.511 0 01-3.07.81zm11.9 8.466a3.913 3.913 0 01-2.045-1.333 22.111 22.111 0 01-2.3-2.957c-.851-1.276-2.046-3.18-2.528-4.091 2.074-.936 3.609-2.43 3.609-4.885a4.2 4.2 0 00-1.9-3.722 7.843 7.843 0 00-4.516-.968h-7.048v.81c2.216.2 2.43.284 2.43 2.7v11.423c0 2.43-.227 2.584-2.556 2.754v.81h7.445v-.81c-2.244-.17-2.5-.34-2.5-2.754v-4.533h.907c1.45 0 1.932.34 2.43 1.134.855 1.393 1.875 3.155 2.872 4.545a5.134 5.134 0 004.6 2.588c.312.028.652.028 1 .028zm-17.5-13.634a70.014 70.014 0 01-.312-5.031h-.6a1.438 1.438 0 01-1.418.709h-11.236c-.81 0-1.167-.057-1.563-.709h-.568c-.057 1.563-.2 3.411-.34 5.116h.81a9.257 9.257 0 01.911-2.56c.369-.624.936-.879 3.293-.879h1.762v14.007c0 2.244-.227 2.527-2.811 2.7v.81h8.121v-.81c-2.669-.17-2.9-.454-2.9-2.7V36.266h1.989c2.159 0 2.613.227 3.095.907a7.1 7.1 0 01.883 2.532z" fill="#0db14b"/><path data-name="Path 208" d="M130.19 49.154a9.117 9.117 0 01-1.422 2.673c-.624.737-1.418.964-3.581.964-1.418 0-2.43 0-2.953-.369s-.681-.964-.681-2.3v-5.363h2.7c2.471 0 2.669.17 3.042 2.187h.81v-5.427h-.81c-.344 1.9-.486 2.131-3.07 2.131h-2.669v-6.481c0-.81.057-.907.936-.907h2.147c2.046 0 2.835.2 3.212.81a6.959 6.959 0 01.907 2.43l.81-.113c-.085-1.446-.227-3.378-.227-4.091h-12.648v.81c2.216.17 2.43.284 2.43 2.811v11.309c0 2.329-.227 2.556-2.811 2.754v.81h13.695c.255-.883.81-3.552.992-4.488zm-14.582-13.865h-7.437v.81c2.216.2 2.43.34 2.43 2.7v4.605h-9.672v-4.609c0-2.357.227-2.528 2.39-2.7v-.81h-7.36v.81c2.329.17 2.556.312 2.556 2.7v11.479c0 2.386-.227 2.528-2.5 2.7v.81h7.473v-.81c-2.333-.17-2.56-.34-2.56-2.7v-5.671h9.689v5.671c0 2.386-.227 2.528-2.669 2.7v.81h7.615v-.81c-2.3-.17-2.532-.312-2.532-2.7V38.793c0-2.357.231-2.5 2.56-2.7zm-20.285 4.322a70.18 70.18 0 01-.316-5.031h-.6a1.442 1.442 0 01-1.422.709h-11.22c-.81 0-1.167-.057-1.563-.709h-.567c-.057 1.563-.2 3.411-.34 5.116h.81a9.284 9.284 0 01.907-2.56c.373-.624.94-.879 3.3-.879h1.762v14.007c0 2.244-.227 2.527-2.815 2.7v.81h8.121v-.81c-2.673-.17-2.9-.454-2.9-2.7v-14h1.989c2.159 0 2.613.227 3.1.907a7.033 7.033 0 01.879 2.532zm94.418-24.292c-.113-1.361-.255-3.151-.284-4.176h-12.5v.81c2.187.17 2.43.312 2.43 2.754v11.341c0 2.43-.227 2.613-2.5 2.783v.81h7.7v-.81c-2.584-.17-2.811-.34-2.811-2.783v-5.144h2.925c2.588 0 2.73.312 3.07 2.272h.81v-5.5h-.81c-.34 1.847-.482 2.1-3.07 2.1h-2.925v-6.757c0-.81.085-.907.94-.907h2.159c2.159 0 2.754.255 3.24 1.049a6.8 6.8 0 01.81 2.276zm-23.088-3.577c3.751 0 6.886 3.18 6.886 9.174 0 5.456-2.815 8.1-5.995 8.1-4.006 0-6.935-3.893-6.935-9.231s2.9-8.04 6.052-8.04m.628-1.025c-5.995 0-9.575 4.743-9.575 9.859a9.163 9.163 0 009.231 9.462c5.14 0 9.49-3.751 9.49-9.887a9.136 9.136 0 00-9.146-9.434m-15.874 14.286a9.273 9.273 0 01-1.422 2.673c-.624.737-1.422.964-3.581.964-1.418 0-2.43 0-2.953-.369s-.685-.968-.685-2.3v-5.371h2.7c2.471 0 2.669.17 3.038 2.187h.81v-5.421h-.81c-.34 1.9-.482 2.131-3.066 2.131h-2.673v-6.481c0-.81.057-.907.94-.907h2.159c2.046 0 2.811.2 3.212.81a6.959 6.959 0 01.907 2.43l.81-.113c-.081-1.446-.227-3.378-.227-4.091h-12.656v.81c2.216.17 2.43.284 2.43 2.811v11.3c0 2.329-.227 2.556-2.811 2.754v.81h13.692c.255-.883.81-3.552.992-4.492zm-14.262-9.547a69.774 69.774 0 01-.312-5.027h-.6a1.442 1.442 0 01-1.422.709h-11.22c-.81 0-1.167-.057-1.564-.709h-.567c-.057 1.563-.2 3.411-.34 5.112h.81a9.086 9.086 0 01.911-2.556c.369-.624.936-.879 3.293-.879h1.762v14.01c0 2.244-.227 2.528-2.811 2.7v.81h8.125v-.81c-2.673-.17-2.9-.454-2.9-2.7v-14h2.011c2.159 0 2.617.227 3.1.907a7 7 0 01.879 2.528zm-21 6.2h-5.224c.883-2.333 1.762-4.832 2.673-7.246h.057zm7.267 7.955v-.81c-1.847-.17-2.244-.425-3.127-2.868-1.819-4.946-3.722-10.373-5.484-15.23l-.879.255-5.9 14.9c-.968 2.528-1.365 2.7-3.184 2.953v.81h6.2v-.81c-2.163-.2-2.39-.482-1.79-2.272.369-1.195.81-2.386 1.248-3.666h6.035c.628 1.734 1.195 3.269 1.564 4.375s.113 1.337-1.677 1.563v.81zm-16.051-14.148a69.774 69.774 0 01-.312-5.027h-.6a1.438 1.438 0 01-1.418.709H93.796c-.81 0-1.167-.057-1.564-.709h-.567c-.057 1.563-.2 3.411-.34 5.112h.81a9.086 9.086 0 01.911-2.556c.369-.624.936-.879 3.293-.879h1.762v14.003c0 2.244-.227 2.528-2.811 2.7v.81h8.125v-.81c-2.673-.17-2.9-.454-2.9-2.7v-14h1.989c2.159 0 2.617.227 3.1.907a7 7 0 01.879 2.528zm-17.247-.17a301.083 301.083 0 01-.482-3.921 11.821 11.821 0 00-3.581-.652c-3.666 0-5.853 2.329-5.853 5.059 0 3.208 2.868 4.6 4.686 5.594 2.131 1.138 3.694 2.135 3.694 4.237a3.134 3.134 0 01-3.41 3.406c-2.953 0-4.233-2.868-4.658-4.6l-.851.2c.2 1.365.567 3.807.766 4.4a8.97 8.97 0 001.422.6 9.721 9.721 0 002.783.425c3.779 0 6.307-2.386 6.307-5.371 0-3.212-2.669-4.516-4.913-5.671s-3.609-2.131-3.609-4.2a2.959 2.959 0 013.155-3.095c2.471 0 3.24 1.956 3.722 3.751z" fill="#465a65"/></svg>