<svg xmlns="http://www.w3.org/2000/svg" height="769.962" width="733.251" xml:space="preserve"><defs><clipPath id="a" clipPathUnits="userSpaceOnUse"><path d="M0 688h688V0H0z"/></clipPath></defs><g clip-path="url(#a)" style="fill:#000" transform="matrix(1.33333 0 0 -1.33333 -99.121 841.279)"><g style="fill:#000;fill-opacity:1"><path style="fill:#000;fill-opacity:1;fill-rule:nonzero;stroke:none" d="M0 0c-9.713-5.606-23.59-9.105-39.003-9.105-15.44 0-29.304 3.499-39.019 9.094-9.709 5.598-23.6 9.092-39.002 9.092-15.413 0-29.327-3.494-39.014-9.092-9.724-5.595-23.601-9.094-39.027-9.094-15.414 0-29.29 3.499-38.992 9.094-9.723 5.598-23.591 9.092-39.027 9.092-1.441 0-2.87-.053-4.309-.114v-36.102c0-5.468.2-10.725.51-15.905 1.262.045 2.527.112 3.799.112 15.436 0 29.304-3.505 39.027-9.116 9.702-5.59 23.578-9.083 38.992-9.083 15.426 0 29.303 3.493 39.027 9.083 9.687 5.611 23.601 9.116 39.014 9.116 15.402 0 29.293-3.505 39.002-9.116 9.715-5.59 23.579-9.083 39.019-9.083 15.413 0 29.29 3.493 39.003 9.093 9.712 5.601 23.59 9.106 38.991 9.106 1.309 0 2.56-.067 3.821-.112.31 5.18.499 10.437.499 15.905V8.967a99.042 99.042 0 0 1-4.32.114C23.59 9.081 9.712 5.587 0 0" transform="translate(580.968 304.518)"/></g><g style="fill:#000;fill-opacity:1"><path style="fill:#000;fill-opacity:1;fill-rule:nonzero;stroke:none" d="M0 0c-15.427 0-29.314 3.493-39.02 9.083-9.709 5.601-23.599 9.116-39.001 9.116-15.414 0-29.315-3.515-39.014-9.116C-126.759 3.493-140.636 0-156.062 0c-15.414-.012-29.291 3.493-38.992 9.083-8.641 4.99-20.567 8.295-33.92 8.95 6.831-22.869 16.947-42.099 28.885-58.48 1.775-.787 3.463-1.586 5.035-2.495 9.701-5.59 23.578-9.106 38.992-9.095 15.426 0 29.303 3.505 39.027 9.095 9.699 5.6 23.6 9.127 39.014 9.127 15.402 0 29.292-3.505 39.001-9.127 9.706-5.59 23.593-9.095 39.02-9.095 15.413 0 29.29 3.505 39.003 9.095 1.569.92 3.274 1.718 5.035 2.505 11.947 16.371 22.031 35.601 28.874 58.47-13.367-.655-25.292-3.96-33.909-8.95C29.29 3.493 15.413 0 0 0" transform="translate(541.965 191.365)"/></g><g style="fill:#000;fill-opacity:1"><path style="fill:#000;fill-opacity:1;fill-rule:nonzero;stroke:none" d="M0 0c-9.709 5.579-23.6 9.094-39.002 9.094-15.413 0-29.314-3.515-39.014-9.094-4.679-2.706-10.319-4.88-16.627-6.455 22.364-14.949 43.039-25.941 55.641-36.466C-26.408-32.396-5.733-21.404 16.631-6.455 10.323-4.88 4.681-2.706 0 0" transform="translate(502.945 96.409)"/></g><g style="fill:#000;fill-opacity:1"><path style="fill:#000;fill-opacity:1;fill-rule:nonzero;stroke:none" d="M0 0c-9.713-5.601-23.59-9.122-39.003-9.122-15.44 0-29.304 3.521-39.019 9.122-9.709 5.579-23.6 9.086-39.002 9.086-15.413 0-29.327-3.507-39.014-9.086-9.724-5.601-23.601-9.122-39.027-9.122-15.414 0-29.29 3.521-38.992 9.122-9.723 5.579-23.591 9.086-39.027 9.086-1.441 0-2.87-.049-4.309-.111V-43.05c1.439.05 2.868.1 4.309.1 15.436 0 29.304-3.491 39.027-9.083 9.702-5.615 23.578-9.108 38.992-9.108 15.426 0 29.303 3.493 39.027 9.108 9.687 5.592 23.601 9.083 39.014 9.083 15.402 0 29.293-3.491 39.002-9.083 9.715-5.615 23.579-9.108 39.019-9.108 15.413 0 29.29 3.493 39.003 9.108 9.712 5.592 23.59 9.083 38.991 9.083 1.487 0 2.904-.05 4.32-.112V8.975a97.562 97.562 0 0 1-4.32.111C23.59 9.086 9.712 5.579 0 0" transform="translate(580.968 408.572)"/></g><g style="fill:#000;fill-opacity:1"><path style="fill:#000;fill-opacity:1;fill-rule:nonzero;stroke:none" d="M0 0c-29.035 0-52.571-23.535-52.571-52.566 0-2.618.263-5.18.629-7.691 4.824 1.455 9.191 3.293 12.928 5.447 9.688 5.577 23.601 9.086 39.014 9.086 15.402 0 29.293-3.509 39.002-9.086 3.741-2.159 8.11-3.992 12.94-5.459.37 2.523.624 5.08.624 7.703C52.566-23.535 29.032 0 0 0m-71.645-15.441c-1.047-.155-2.087-.444-3.152-.641-2.781-.471-5.415-.538-8.076-.438-2.726.089-5.94.744-7.756 1.922-.463-2.739 2.923-6.349 5.793-8.285 1.963-1.344 4.033-2.498 6.23-3.224.862-.305 1.718-.453 2.575-.774 2.632-.917 5.213-2.606 7.257-4.416 2.658-2.343 4.86-5.322 6.895-7.95 1.633 7.675 4.702 14.867 8.881 21.245-2.773.989-5.773 2.06-9.048 2.561-2.892.455-6.321.51-9.599 0m191.727-37.137L62.37-42.235c.571-3.361.941-6.821.941-10.337 0-3.519-.37-6.95-.941-10.331zM-62.426-42.235l-57.678-10.343 57.701-10.325c-.527 3.381-.915 6.812-.915 10.331 0 3.516.388 6.976.892 10.337m139.339 14.07c.643.879 1.15 1.819 1.799 2.676 1.595 2.315 3.419 4.212 5.343 6.023 2.005 1.851 4.75 3.69 6.89 4.141-1.628 2.224-6.586 2.429-9.984 1.761-2.332-.457-4.548-1.075-6.68-2.121-.832-.407-1.544-.912-2.379-1.306-2.506-1.178-5.508-1.833-8.27-1.985-3.502-.238-7.178.327-10.475.76h-.053c4.16-6.413 7.195-13.58 8.826-21.305 2.674 1.261 5.504 2.631 8.176 4.569 2.373 1.727 4.843 4.115 6.807 6.787M-36.014-.555l-36.285 20.304 20.24-36.302c4.387 6.269 9.788 11.689 16.045 15.998m88.051-15.998 20.248 36.302L36.011-.555a63.31 63.31 0 0 0 16.026-15.998M10.645 9.779 0 115.546-10.655 9.779c3.479.566 7.004.95 10.655.95 3.618 0 7.153-.384 10.645-.95M-36.89 21.715c.4-.798.911-1.545 1.298-2.368 1.184-2.523 1.858-5.523 2.004-8.243.206-3.546-.332-7.22-.762-10.491V.541a62.56 62.56 0 0 0 21.294 8.835c-1.261 2.673-2.612 5.538-4.569 8.177-1.728 2.379-4.129 4.841-6.774 6.768-.879.652-1.807 1.181-2.701 1.797-2.309 1.633-4.189 3.441-6.021 5.365-1.847 2.016-3.68 4.758-4.12 6.909-2.243-1.643-2.421-6.582-1.762-10 .472-2.357 1.085-4.564 2.113-6.677m74.033-12.26a33.39 33.39 0 0 1 0 9.631c-.162 1.046-.489 2.08-.664 3.142-.468 2.784-.551 5.384-.468 8.057.125 2.72.735 5.975 1.958 7.797-2.723.416-6.342-2.942-8.288-5.82-1.356-2.002-2.485-4.014-3.227-6.25-.303-.82-.475-1.727-.757-2.545-.945-2.634-2.629-5.24-4.426-7.298-2.362-2.606-5.32-4.843-7.988-6.831l-.011-.022A63.42 63.42 0 0 0 34.566.421c.988 2.792 2.019 5.798 2.577 9.034" transform="translate(463.943 515.413)"/></g><g style="fill:#000;fill-opacity:1"><path style="fill:#000;fill-opacity:1;fill-rule:nonzero;stroke:none" d="M0 0v-3.892C-29.309-8.82-50.319-25.938-50.319-57.063c0-47.464 38.906-74.179 83.519-74.179 51.095 0 86.629 39.163 86.629 76.774 0 33.976-24.9 47.463-52.912 59.135L68.473 8.3C84.295 5.187 99.857.259 114.901-5.966c8.041-16.6 11.154-34.497 11.154-52.912 0-54.21-31.126-102.451-89.742-102.451-46.169 0-92.856 36.051-92.856 104.525 0 19.712 3.89 39.684 14.006 56.804z" transform="translate(130.884 330.101)"/></g><g style="fill:#000;fill-opacity:1"><path style="fill:#000;fill-opacity:1;fill-rule:nonzero;stroke:none" d="M0 0h3.89c2.593-23.603 17.119-25.159 51.356-26.197l56.801-1.557c33.46-.776 67.438-15.043 67.438-72.624 0-80.405-58.099-72.104-78.849-72.104H42.537c-26.715-.777-34.497-1.039-38.647-32.162H0v89.484h3.89c4.928-33.979 10.115-34.497 38.647-34.497h53.171c4.928 0 71.845-8.3 71.845 62.768 0 56.022-53.43 50.576-85.074 50.576H55.246c-32.941 0-47.985-2.592-51.356-38.904H0z" transform="translate(77.454 553.946)"/></g><g style="fill:#000;fill-opacity:1"><path style="fill:#000;fill-opacity:1;fill-rule:nonzero;stroke:none" d="M0 0c-28.532 0-33.719-.519-38.647-34.495h-3.89v89.223h3.89C-34.497 23.602-26.715 22.825 0 22.825h92.855c42.654.22 60.027-5.322 76.578-40.201 2.921-6.154 5.526-10.965 8.597-20.603 2.528-7.932 3.007-15.221 3.101-16.161l-3.873-.382c-.02.278-.309 3.287-1.486 7.876-.56 2.187-2.029 5.803-2.581 6.976-1.874 3.982-3.229 6.453-5.347 9.7C149.963-2.569 123.02 0 81.442 0z" transform="translate(119.99 108.335)"/></g></g></svg>