<?xml version="1.0" encoding="UTF-8" standalone="no"?>
<svg
   xmlns:dc="http://purl.org/dc/elements/1.1/"
   xmlns:cc="http://creativecommons.org/ns#"
   xmlns:rdf="http://www.w3.org/1999/02/22-rdf-syntax-ns#"
   xmlns:svg="http://www.w3.org/2000/svg"
   xmlns="http://www.w3.org/2000/svg"
   xmlns:sodipodi="http://sodipodi.sourceforge.net/DTD/sodipodi-0.dtd"
   xmlns:inkscape="http://www.inkscape.org/namespaces/inkscape"
   inkscape:version="1.0beta2 (2b71d25, 2019-12-03)"
   sodipodi:docname="JCU 50th Logo - Shield REV.pdf.svg"
   id="svg4595"
   version="1.1"
   viewBox="0 0 156.83 74.93"
   height="74.93pt"
   width="156.83pt">
  <metadata
     id="metadata4599">
    <rdf:RDF>
      <cc:Work
         rdf:about="">
        <dc:format>image/svg+xml</dc:format>
        <dc:type
           rdf:resource="http://purl.org/dc/dcmitype/StillImage" />
        <dc:title></dc:title>
      </cc:Work>
    </rdf:RDF>
  </metadata>
  <sodipodi:namedview
     inkscape:current-layer="surface1"
     inkscape:window-maximized="0"
     inkscape:window-y="127"
     inkscape:window-x="1806"
     inkscape:cy="55.570026"
     inkscape:cx="150.70245"
     inkscape:zoom="2.3193904"
     showgrid="false"
     id="namedview4597"
     inkscape:window-height="822"
     inkscape:window-width="1271"
     inkscape:pageshadow="2"
     inkscape:pageopacity="0"
     guidetolerance="10"
     gridtolerance="10"
     objecttolerance="10"
     borderopacity="1"
     inkscape:document-rotation="0"
     bordercolor="#666666"
     pagecolor="#ffffff" />
  <defs
     id="defs4462">
    <clipPath
       id="clip1">
      <path
         id="path4393"
         d="M 85 13 L 87 13 L 87 74.929688 L 85 74.929688 Z M 85 13 " />
    </clipPath>
    <clipPath
       id="clip2">
      <path
         id="path4396"
         d="M 126 22 L 156.828125 22 L 156.828125 56 L 126 56 Z M 126 22 " />
    </clipPath>
    <clipPath
       id="clip3">
      <path
         id="path4399"
         d="M 126 22 L 156.800781 22 L 156.800781 56 L 126 56 Z M 126 22 " />
    </clipPath>
    <clipPath
       id="clip4">
      <path
         id="path4402"
         d="M 126.546875 39.226562 C 126.546875 48.785156 133.035156 55.621094 141.6875 55.621094 C 150.339844 55.621094 156.824219 48.785156 156.824219 39.226562 C 156.824219 29.671875 150.339844 22.832031 141.6875 22.832031 C 133.035156 22.832031 126.546875 29.671875 126.546875 39.226562 M 134.503906 39.226562 C 134.503906 30.300781 137.363281 25.625 141.6875 25.625 C 146.011719 25.625 148.871094 30.300781 148.871094 39.226562 C 148.871094 47.109375 146.011719 52.832031 141.6875 52.832031 C 137.363281 52.832031 134.503906 47.109375 134.503906 39.226562 " />
    </clipPath>
    <clipPath
       id="clip5">
      <path
         id="path4405"
         d="M 122 59 L 130 59 L 130 66 L 122 66 Z M 122 59 " />
    </clipPath>
    <clipPath
       id="clip6">
      <path
         id="path4408"
         d="M 127.835938 59.210938 L 126.234375 61.855469 L 124.664062 59.210938 L 122.96875 59.210938 L 125.5 63.203125 L 125.5 65.800781 L 126.949219 65.800781 L 126.949219 63.175781 L 129.480469 59.210938 Z M 127.835938 59.210938 " />
    </clipPath>
    <clipPath
       id="clip7">
      <path
         id="path4411"
         d="M 130.023438 59.210938 L 134.992188 59.210938 L 134.992188 60.503906 L 130.023438 60.503906 Z M 130.023438 60.503906 L 131.464844 60.503906 L 131.464844 61.839844 L 130.023438 61.839844 Z M 130.023438 61.839844 L 134.570312 61.839844 L 134.570312 63.128906 L 130.023438 63.128906 Z M 130.023438 63.128906 L 131.464844 63.128906 L 131.464844 64.511719 L 130.023438 64.511719 Z M 130.023438 64.511719 L 135.039062 64.511719 L 135.039062 65.800781 L 130.023438 65.800781 Z M 130.023438 64.511719 " />
    </clipPath>
    <clipPath
       id="clip8">
      <path
         id="path4414"
         d="M 135 59 L 143 59 L 143 66 L 135 66 Z M 135 59 " />
    </clipPath>
    <clipPath
       id="clip9">
      <path
         id="path4417"
         d="M 138.320312 59.164062 L 135.496094 65.800781 L 136.972656 65.800781 L 137.574219 64.324219 L 140.359375 64.324219 L 140.964844 65.800781 L 142.476562 65.800781 L 139.65625 59.164062 Z M 138.96875 60.90625 L 139.84375 63.042969 L 138.09375 63.042969 Z M 138.96875 60.90625 " />
    </clipPath>
    <clipPath
       id="clip10">
      <path
         id="path4420"
         d="M 143 59 L 149 59 L 149 66 L 143 66 Z M 143 59 " />
    </clipPath>
    <clipPath
       id="clip11">
      <path
         id="path4423"
         d="M 143.078125 59.210938 L 143.078125 65.800781 L 144.53125 65.800781 L 144.53125 63.695312 L 145.667969 63.695312 L 147.078125 65.800781 L 148.773438 65.800781 L 147.164062 63.449219 C 148.003906 63.136719 148.578125 62.46875 148.578125 61.40625 L 148.578125 61.386719 C 148.578125 60.765625 148.378906 60.25 148.011719 59.878906 C 147.578125 59.449219 146.929688 59.210938 146.09375 59.210938 Z M 144.53125 60.519531 L 145.96875 60.519531 C 146.675781 60.519531 147.109375 60.839844 147.109375 61.460938 L 147.109375 61.480469 C 147.109375 62.035156 146.703125 62.410156 145.996094 62.410156 L 144.53125 62.410156 Z M 144.53125 60.519531 " />
    </clipPath>
    <clipPath
       id="clip12">
      <path
         id="path4426"
         d="M 149 59 L 155 59 L 155 66 L 149 66 Z M 149 59 " />
    </clipPath>
    <clipPath
       id="clip13">
      <path
         id="path4429"
         d="M 149.308594 61.105469 L 149.308594 61.125 C 149.308594 62.433594 150.164062 62.796875 151.488281 63.136719 C 152.59375 63.421875 152.816406 63.605469 152.816406 63.972656 L 152.816406 63.992188 C 152.816406 64.378906 152.460938 64.617188 151.867188 64.617188 C 151.113281 64.617188 150.492188 64.304688 149.902344 63.816406 L 149.042969 64.839844 C 149.835938 65.546875 150.84375 65.898438 151.839844 65.898438 C 153.261719 65.898438 154.257812 65.160156 154.257812 63.851562 L 154.257812 63.835938 C 154.257812 62.6875 153.503906 62.203125 152.167969 61.855469 C 151.03125 61.566406 150.746094 61.425781 150.746094 60.992188 L 150.746094 60.972656 C 150.746094 60.652344 151.039062 60.398438 151.597656 60.398438 C 152.148438 60.398438 152.722656 60.644531 153.304688 61.046875 L 154.0625 59.957031 C 153.390625 59.421875 152.574219 59.117188 151.613281 59.117188 C 150.265625 59.117188 149.308594 59.910156 149.308594 61.105469 " />
    </clipPath>
    <clipPath
       id="clip14">
      <path
         id="path4432"
         d="M 109 68 L 113 68 L 113 74.929688 L 109 74.929688 Z M 109 68 " />
    </clipPath>
    <clipPath
       id="clip15">
      <path
         id="path4435"
         d="M 113 68 L 119 68 L 119 74.929688 L 113 74.929688 Z M 113 68 " />
    </clipPath>
    <clipPath
       id="clip16">
      <path
         id="path4438"
         d="M 118 68 L 124 68 L 124 74.929688 L 118 74.929688 Z M 118 68 " />
    </clipPath>
    <clipPath
       id="clip17">
      <path
         id="path4441"
         d="M 122 68 L 128 68 L 128 74.929688 L 122 74.929688 Z M 122 68 " />
    </clipPath>
    <clipPath
       id="clip18">
      <path
         id="path4444"
         d="M 134 68 L 140 68 L 140 74.929688 L 134 74.929688 Z M 134 68 " />
    </clipPath>
    <clipPath
       id="clip19">
      <path
         id="path4447"
         d="M 139 68 L 145 68 L 145 74.929688 L 139 74.929688 Z M 139 68 " />
    </clipPath>
    <clipPath
       id="clip20">
      <path
         id="path4450"
         d="M 144 68 L 150 68 L 150 74.929688 L 144 74.929688 Z M 144 68 " />
    </clipPath>
    <clipPath
       id="clip21">
      <path
         id="path4453"
         d="M 149 68 L 155 68 L 155 74.929688 L 149 74.929688 Z M 149 68 " />
    </clipPath>
    <clipPath
       id="clip22">
      <path
         id="path4456"
         d="M 43 68 L 58 68 L 58 74.929688 L 43 74.929688 Z M 43 68 " />
    </clipPath>
    <clipPath
       id="clip23">
      <path
         id="path4459"
         d="M 0 60 L 30 60 L 30 74.929688 L 0 74.929688 Z M 0 60 " />
    </clipPath>
  </defs>
  <g
     id="surface1">
    <g
       style="fill:#ffffff;fill-opacity:1"
       id="g4466"
       clip-rule="nonzero"
       clip-path="url(#clip1)">
      <path
         id="path4464"
         d="M 86.179688 13.640625 L 85.664062 13.640625 L 85.664062 74.734375 L 86.179688 74.734375 L 86.179688 13.640625 "
         style="stroke:none;fill-rule:nonzero;fill:#ffffff;fill-opacity:1" />
    </g>
    <g
       style="fill:#edb800;fill-opacity:1"
       id="g4470"
       clip-rule="nonzero"
       clip-path="url(#clip2)">
      <path
         id="path4468"
         d="M 126.546875 39.226562 C 126.546875 48.785156 133.035156 55.621094 141.6875 55.621094 C 150.339844 55.621094 156.824219 48.785156 156.824219 39.226562 C 156.824219 29.671875 150.339844 22.832031 141.6875 22.832031 C 133.035156 22.832031 126.546875 29.671875 126.546875 39.226562 M 134.503906 39.226562 C 134.503906 30.300781 137.363281 25.625 141.6875 25.625 C 146.011719 25.625 148.871094 30.300781 148.871094 39.226562 C 148.871094 47.109375 146.011719 52.832031 141.6875 52.832031 C 137.363281 52.832031 134.503906 47.109375 134.503906 39.226562 "
         style="stroke:none;fill-rule:nonzero;fill:#edb800;fill-opacity:1" />
    </g>
    <path
       id="path4478"
       d="M 127.835938 59.210938 L 126.234375 61.855469 L 124.664062 59.210938 L 122.96875 59.210938 L 125.5 63.203125 L 125.5 65.800781 L 126.949219 65.800781 L 126.949219 63.175781 L 129.480469 59.210938 L 127.835938 59.210938 "
       style="stroke:none;fill-rule:nonzero;fill:#edb800;fill-opacity:1" />
    <path
       id="path4486"
       d="M 130.023438 59.210938 L 130.023438 65.800781 L 135.039062 65.800781 L 135.039062 64.511719 L 131.464844 64.511719 L 131.464844 63.128906 L 134.570312 63.128906 L 134.570312 61.839844 L 131.464844 61.839844 L 131.464844 60.503906 L 134.992188 60.503906 L 134.992188 59.210938 L 130.023438 59.210938 "
       style="stroke:none;fill-rule:nonzero;fill:#edb800;fill-opacity:1" />
    <path
       id="path4492"
       d="M 138.320312 59.164062 L 135.496094 65.800781 L 136.972656 65.800781 L 137.574219 64.324219 L 140.359375 64.324219 L 140.964844 65.800781 L 142.476562 65.800781 L 139.65625 59.164062 Z M 138.96875 60.90625 L 139.84375 63.042969 L 138.09375 63.042969 Z M 138.96875 60.90625 "
       style="stroke:none;fill-rule:nonzero;fill:#edb800;fill-opacity:1" />
    <path
       id="path4500"
       d="M 143.078125 59.210938 L 143.078125 65.800781 L 144.53125 65.800781 L 144.53125 63.695312 L 145.667969 63.695312 L 147.078125 65.800781 L 148.773438 65.800781 L 147.164062 63.449219 C 148.003906 63.136719 148.578125 62.46875 148.578125 61.40625 L 148.578125 61.386719 C 148.578125 60.765625 148.378906 60.25 148.011719 59.878906 C 147.578125 59.449219 146.929688 59.210938 146.09375 59.210938 Z M 144.53125 60.519531 L 145.96875 60.519531 C 146.675781 60.519531 147.109375 60.839844 147.109375 61.460938 L 147.109375 61.480469 C 147.109375 62.035156 146.703125 62.410156 145.996094 62.410156 L 144.53125 62.410156 L 144.53125 60.519531 "
       style="stroke:none;fill-rule:nonzero;fill:#edb800;fill-opacity:1" />
    <path
       id="path4508"
       d="M 149.308594 61.105469 L 149.308594 61.125 C 149.308594 62.433594 150.164062 62.796875 151.488281 63.136719 C 152.59375 63.421875 152.816406 63.605469 152.816406 63.972656 L 152.816406 63.992188 C 152.816406 64.378906 152.460938 64.617188 151.867188 64.617188 C 151.113281 64.617188 150.492188 64.304688 149.902344 63.816406 L 149.042969 64.839844 C 149.835938 65.546875 150.84375 65.898438 151.839844 65.898438 C 153.261719 65.898438 154.257812 65.160156 154.257812 63.851562 L 154.257812 63.835938 C 154.257812 62.6875 153.503906 62.203125 152.167969 61.855469 C 151.03125 61.566406 150.746094 61.425781 150.746094 60.992188 L 150.746094 60.972656 C 150.746094 60.652344 151.039062 60.398438 151.597656 60.398438 C 152.148438 60.398438 152.722656 60.644531 153.304688 61.046875 L 154.0625 59.957031 C 153.390625 59.421875 152.574219 59.117188 151.613281 59.117188 C 150.265625 59.117188 149.308594 59.910156 149.308594 61.105469 "
       style="stroke:none;fill-rule:nonzero;fill:#edb800;fill-opacity:1" />
    <path
       id="path4516"
       d="M 123.609375 28.523438 L 107.382812 29.84375 L 105.949219 35.332031 C 114.386719 35.398438 124.753906 38.386719 124.753906 48.800781 C 124.753906 53.042969 122.394531 57.277344 117.890625 60.398438 C 113.386719 63.59375 105.59375 65.609375 100.015625 65.609375 L 99.730469 63.316406 C 104.804688 62.621094 117.460938 60.054688 117.460938 50.261719 C 117.460938 42.761719 109.667969 41.09375 102.304688 41.027344 L 105.164062 24.152344 L 124.753906 22.550781 L 123.609375 28.523438 "
       style="stroke:none;fill-rule:nonzero;fill:#edb800;fill-opacity:1" />
    <g
       style="fill:#ffffff;fill-opacity:1"
       id="g4520"
       clip-rule="nonzero"
       clip-path="url(#clip14)">
      <path
         id="path4518"
         d="M 109.339844 74.546875 C 110.242188 74.503906 110.46875 74.425781 110.5625 74.050781 L 111.664062 69.910156 C 111.8125 69.355469 111.769531 69.15625 110.753906 69.121094 L 110.789062 69.007812 L 112.925781 68.84375 L 111.519531 74.050781 C 111.414062 74.425781 111.578125 74.503906 112.5 74.546875 L 112.472656 74.660156 L 109.3125 74.660156 L 109.339844 74.546875 "
         style="stroke:none;fill-rule:nonzero;fill:#ffffff;fill-opacity:1" />
    </g>
    <g
       style="fill:#ffffff;fill-opacity:1"
       id="g4524"
       clip-rule="nonzero"
       clip-path="url(#clip15)">
      <path
         id="path4522"
         d="M 114.914062 71.523438 C 114.914062 72.269531 115.191406 72.566406 115.660156 72.566406 C 116.449219 72.566406 117.265625 71.507812 117.265625 70.160156 C 117.265625 69.476562 117.015625 68.964844 116.425781 68.964844 C 115.507812 68.964844 114.914062 70.472656 114.914062 71.523438 Z M 118.179688 70.707031 C 118.179688 72.957031 116.363281 74.605469 113.367188 74.808594 L 113.378906 74.683594 C 115.6875 74.25 116.632812 73.132812 116.988281 71.933594 L 116.964844 71.914062 C 116.539062 72.488281 116.0625 72.765625 115.433594 72.765625 C 114.445312 72.765625 113.949219 72.089844 113.949219 71.238281 C 113.949219 70.074219 114.96875 68.789062 116.460938 68.789062 C 117.582031 68.789062 118.179688 69.625 118.179688 70.707031 "
         style="stroke:none;fill-rule:nonzero;fill:#ffffff;fill-opacity:1" />
    </g>
    <g
       style="fill:#ffffff;fill-opacity:1"
       id="g4528"
       clip-rule="nonzero"
       clip-path="url(#clip16)">
      <path
         id="path4526"
         d="M 118.3125 74.683594 L 122.644531 69.726562 L 120.28125 69.726562 C 119.761719 69.726562 119.570312 69.867188 119.050781 70.777344 L 118.945312 70.777344 L 119.457031 68.910156 L 123.339844 68.910156 L 123.363281 69.007812 L 120.984375 72.304688 L 119.316406 74.746094 L 118.3125 74.746094 L 118.3125 74.683594 "
         style="stroke:none;fill-rule:nonzero;fill:#ffffff;fill-opacity:1" />
    </g>
    <g
       style="fill:#ffffff;fill-opacity:1"
       id="g4532"
       clip-rule="nonzero"
       clip-path="url(#clip17)">
      <path
         id="path4530"
         d="M 124.773438 74.597656 C 126.144531 74.597656 126.9375 71.835938 126.9375 70.300781 C 126.9375 69.441406 126.660156 68.964844 126.058594 68.964844 C 124.6875 68.964844 123.898438 71.734375 123.898438 73.269531 C 123.898438 74.128906 124.175781 74.597656 124.773438 74.597656 Z M 124.773438 74.78125 C 123.699219 74.78125 122.949219 74.027344 122.949219 72.644531 C 122.949219 71.011719 124.15625 68.789062 126.058594 68.789062 C 127.136719 68.789062 127.882812 69.546875 127.882812 70.925781 C 127.882812 72.558594 126.675781 74.78125 124.773438 74.78125 "
         style="stroke:none;fill-rule:nonzero;fill:#ffffff;fill-opacity:1" />
    </g>
    <path
       id="path4534"
       d="M 130.046875 72.226562 L 132.269531 72.226562 L 132.175781 72.585938 L 129.953125 72.585938 L 130.046875 72.226562 "
       style="stroke:none;fill-rule:nonzero;fill:#ffffff;fill-opacity:1" />
    <g
       style="fill:#ffffff;fill-opacity:1"
       id="g4538"
       clip-rule="nonzero"
       clip-path="url(#clip18)">
      <path
         id="path4536"
         d="M 134.285156 74.050781 L 136.414062 72.558594 C 137.648438 71.714844 138.125 71.023438 138.125 70.074219 C 138.125 69.355469 137.828125 68.945312 137.203125 68.945312 C 136.761719 68.945312 136.316406 69.199219 136.085938 69.5625 C 136.429688 69.667969 136.621094 69.910156 136.621094 70.230469 C 136.621094 70.570312 136.363281 70.882812 135.988281 70.882812 C 135.613281 70.882812 135.371094 70.621094 135.371094 70.214844 C 135.371094 69.441406 136.242188 68.789062 137.335938 68.789062 C 138.515625 68.789062 139.132812 69.40625 139.132812 70.152344 C 139.132812 70.996094 138.464844 71.566406 136.136719 73.027344 L 134.902344 73.84375 L 134.902344 73.867188 L 137.136719 73.867188 C 137.753906 73.867188 137.96875 73.710938 138.445312 72.957031 L 138.558594 72.964844 L 138.074219 74.660156 L 134.148438 74.660156 L 134.285156 74.050781 "
         style="stroke:none;fill-rule:nonzero;fill:#ffffff;fill-opacity:1" />
    </g>
    <g
       style="fill:#ffffff;fill-opacity:1"
       id="g4542"
       clip-rule="nonzero"
       clip-path="url(#clip19)">
      <path
         id="path4540"
         d="M 141.269531 74.597656 C 142.640625 74.597656 143.433594 71.835938 143.433594 70.300781 C 143.433594 69.441406 143.152344 68.964844 142.554688 68.964844 C 141.183594 68.964844 140.394531 71.734375 140.394531 73.269531 C 140.394531 74.128906 140.671875 74.597656 141.269531 74.597656 Z M 141.269531 74.78125 C 140.195312 74.78125 139.445312 74.027344 139.445312 72.644531 C 139.445312 71.011719 140.652344 68.789062 142.554688 68.789062 C 143.632812 68.789062 144.378906 69.546875 144.378906 70.925781 C 144.378906 72.558594 143.171875 74.78125 141.269531 74.78125 "
         style="stroke:none;fill-rule:nonzero;fill:#ffffff;fill-opacity:1" />
    </g>
    <g
       style="fill:#ffffff;fill-opacity:1"
       id="g4546"
       clip-rule="nonzero"
       clip-path="url(#clip20)">
      <path
         id="path4544"
         d="M 144.40625 74.050781 L 146.535156 72.558594 C 147.765625 71.714844 148.246094 71.023438 148.246094 70.074219 C 148.246094 69.355469 147.949219 68.945312 147.324219 68.945312 C 146.882812 68.945312 146.4375 69.199219 146.203125 69.5625 C 146.554688 69.667969 146.742188 69.910156 146.742188 70.230469 C 146.742188 70.570312 146.480469 70.882812 146.109375 70.882812 C 145.734375 70.882812 145.492188 70.621094 145.492188 70.214844 C 145.492188 69.441406 146.359375 68.789062 147.457031 68.789062 C 148.636719 68.789062 149.253906 69.40625 149.253906 70.152344 C 149.253906 70.996094 148.585938 71.566406 146.257812 73.027344 L 145.023438 73.84375 L 145.023438 73.867188 L 147.257812 73.867188 C 147.871094 73.867188 148.089844 73.710938 148.566406 72.957031 L 148.679688 72.964844 L 148.195312 74.660156 L 144.269531 74.660156 L 144.40625 74.050781 "
         style="stroke:none;fill-rule:nonzero;fill:#ffffff;fill-opacity:1" />
    </g>
    <g
       style="fill:#ffffff;fill-opacity:1"
       id="g4550"
       clip-rule="nonzero"
       clip-path="url(#clip21)">
      <path
         id="path4548"
         d="M 151.390625 74.597656 C 152.761719 74.597656 153.554688 71.835938 153.554688 70.300781 C 153.554688 69.441406 153.273438 68.964844 152.675781 68.964844 C 151.304688 68.964844 150.511719 71.734375 150.511719 73.269531 C 150.511719 74.128906 150.792969 74.597656 151.390625 74.597656 Z M 151.390625 74.78125 C 150.3125 74.78125 149.566406 74.027344 149.566406 72.644531 C 149.566406 71.011719 150.773438 68.789062 152.675781 68.789062 C 153.753906 68.789062 154.5 69.546875 154.5 70.925781 C 154.5 72.558594 153.292969 74.78125 151.390625 74.78125 "
         style="stroke:none;fill-rule:nonzero;fill:#ffffff;fill-opacity:1" />
    </g>
    <path
       id="path4552"
       d="M 111.402344 17.328125 C 111.402344 15.460938 112.898438 13.515625 115.128906 13.515625 C 115.816406 13.515625 116.335938 13.75 116.664062 13.96875 L 117.144531 13.542969 L 117.28125 13.542969 L 116.71875 15.601562 L 116.578125 15.601562 C 116.195312 14.148438 115.953125 13.679688 115.078125 13.679688 C 113.636719 13.679688 112.472656 15.808594 112.472656 17.527344 C 112.472656 18.777344 113.089844 19.523438 114.21875 19.523438 C 115.078125 19.523438 115.847656 18.933594 116.511719 18.058594 L 116.640625 18.152344 C 116.03125 19.011719 115.136719 19.863281 113.824219 19.863281 C 112.429688 19.863281 111.402344 18.839844 111.402344 17.328125 "
       style="stroke:none;fill-rule:nonzero;fill:#ffffff;fill-opacity:1" />
    <path
       id="path4554"
       d="M 118.03125 17.632812 C 119.636719 17.605469 119.914062 16.894531 119.914062 16.320312 C 119.914062 15.980469 119.742188 15.835938 119.480469 15.835938 C 118.875 15.835938 118.238281 16.695312 118.03125 17.632812 Z M 118.007812 17.769531 C 117.972656 17.933594 117.960938 18.101562 117.960938 18.257812 C 117.960938 19.054688 118.214844 19.453125 118.910156 19.453125 C 119.359375 19.453125 119.855469 19.167969 120.183594 18.726562 L 120.296875 18.820312 C 119.828125 19.453125 119.246094 19.792969 118.542969 19.792969 C 117.753906 19.792969 117.042969 19.316406 117.042969 18.273438 C 117.042969 16.960938 118.117188 15.652344 119.523438 15.652344 C 120.316406 15.652344 120.707031 16.035156 120.707031 16.546875 C 120.707031 17.222656 119.855469 17.804688 118.007812 17.769531 "
       style="stroke:none;fill-rule:nonzero;fill:#ffffff;fill-opacity:1" />
    <path
       id="path4556"
       d="M 121.992188 18.792969 C 121.960938 18.933594 121.933594 19.054688 121.933594 19.160156 C 121.933594 19.4375 122.15625 19.515625 122.828125 19.472656 L 122.828125 19.558594 C 122.660156 19.628906 122.167969 19.777344 121.785156 19.777344 C 121.289062 19.777344 121.039062 19.578125 121.039062 19.183594 C 121.039062 19.074219 121.0625 18.933594 121.109375 18.785156 L 122.027344 15.738281 L 122.453125 14.125 C 122.523438 13.847656 122.367188 13.714844 121.722656 13.679688 L 121.722656 13.578125 L 123.539062 13.488281 L 121.992188 18.792969 "
       style="stroke:none;fill-rule:nonzero;fill:#ffffff;fill-opacity:1" />
    <path
       id="path4558"
       d="M 124.441406 17.632812 C 126.050781 17.605469 126.328125 16.894531 126.328125 16.320312 C 126.328125 15.980469 126.152344 15.835938 125.890625 15.835938 C 125.285156 15.835938 124.652344 16.695312 124.441406 17.632812 Z M 124.417969 17.769531 C 124.382812 17.933594 124.371094 18.101562 124.371094 18.257812 C 124.371094 19.054688 124.625 19.453125 125.320312 19.453125 C 125.769531 19.453125 126.265625 19.167969 126.597656 18.726562 L 126.710938 18.820312 C 126.238281 19.453125 125.65625 19.792969 124.953125 19.792969 C 124.164062 19.792969 123.453125 19.316406 123.453125 18.273438 C 123.453125 16.960938 124.527344 15.652344 125.933594 15.652344 C 126.726562 15.652344 127.117188 16.035156 127.117188 16.546875 C 127.117188 17.222656 126.265625 17.804688 124.417969 17.769531 "
       style="stroke:none;fill-rule:nonzero;fill:#ffffff;fill-opacity:1" />
    <path
       id="path4560"
       d="M 130.433594 16.988281 C 130.433594 16.425781 130.21875 16.09375 129.757812 16.09375 C 129.480469 16.09375 129.183594 16.277344 128.933594 16.511719 L 128.230469 19.230469 C 128.335938 19.488281 128.578125 19.628906 128.863281 19.628906 C 129.765625 19.628906 130.433594 18.089844 130.433594 16.988281 Z M 128.777344 19.792969 C 128.1875 19.792969 127.753906 19.65625 127.292969 19.28125 L 127.8125 17.5 L 128.664062 14.125 C 128.742188 13.847656 128.578125 13.714844 127.933594 13.679688 L 127.933594 13.578125 L 129.765625 13.488281 L 128.976562 16.292969 L 129.003906 16.3125 C 129.410156 15.886719 129.820312 15.652344 130.296875 15.652344 C 130.894531 15.652344 131.355469 16.113281 131.355469 16.972656 C 131.355469 18.292969 130.269531 19.792969 128.777344 19.792969 "
       style="stroke:none;fill-rule:nonzero;fill:#ffffff;fill-opacity:1" />
    <path
       id="path4562"
       d="M 135.492188 16.25 C 135.492188 16.640625 135.257812 16.910156 134.933594 16.910156 C 134.640625 16.910156 134.425781 16.761719 134.425781 16.449219 C 134.425781 16.363281 134.449219 16.199219 134.535156 16.101562 C 134.199219 16.121094 133.761719 16.484375 133.417969 16.894531 L 132.722656 19.714844 L 131.773438 19.714844 L 132.191406 18.308594 L 132.730469 16.320312 C 132.808594 16.042969 132.722656 15.914062 132.183594 15.878906 L 132.183594 15.773438 L 133.753906 15.695312 L 133.46875 16.632812 L 133.484375 16.652344 C 133.867188 16.121094 134.378906 15.660156 134.847656 15.660156 C 135.273438 15.660156 135.492188 15.929688 135.492188 16.25 "
       style="stroke:none;fill-rule:nonzero;fill:#ffffff;fill-opacity:1" />
    <path
       id="path4564"
       d="M 136.300781 18.414062 C 136.300781 19.019531 136.507812 19.410156 136.933594 19.410156 C 137.273438 19.410156 137.585938 19.074219 137.828125 18.648438 L 138.445312 16.589844 C 138.386719 16.15625 138.140625 15.851562 137.820312 15.851562 C 136.960938 15.851562 136.300781 17.542969 136.300781 18.414062 Z M 138.671875 18.792969 C 138.617188 18.976562 138.585938 19.132812 138.585938 19.246094 C 138.585938 19.5 138.800781 19.558594 139.339844 19.515625 L 139.339844 19.601562 C 139.113281 19.691406 138.75 19.785156 138.464844 19.785156 C 138.019531 19.785156 137.777344 19.679688 137.777344 19.289062 C 137.777344 19.21875 137.785156 19.132812 137.820312 18.996094 L 137.804688 18.984375 C 137.394531 19.566406 137.019531 19.792969 136.515625 19.792969 C 135.824219 19.792969 135.363281 19.28125 135.363281 18.402344 C 135.363281 17.042969 136.542969 15.652344 137.699219 15.652344 C 138.203125 15.652344 138.410156 15.878906 138.574219 16.207031 L 138.730469 15.757812 L 139.644531 15.652344 L 139.175781 17.050781 L 138.671875 18.792969 "
       style="stroke:none;fill-rule:nonzero;fill:#ffffff;fill-opacity:1" />
    <path
       id="path4566"
       d="M 141.929688 15.929688 L 141.199219 18.542969 C 141.148438 18.726562 141.121094 18.875 141.121094 18.996094 C 141.121094 19.273438 141.277344 19.394531 141.597656 19.394531 C 141.808594 19.394531 142.121094 19.34375 142.371094 19.273438 L 142.371094 19.359375 C 142.09375 19.523438 141.589844 19.792969 141.078125 19.792969 C 140.480469 19.792969 140.210938 19.53125 140.210938 19.074219 C 140.210938 18.925781 140.234375 18.761719 140.289062 18.578125 L 141.0625 15.929688 L 140.289062 15.929688 L 140.347656 15.738281 L 141.113281 15.738281 L 141.484375 14.453125 L 142.433594 14.316406 L 141.980469 15.738281 L 143.066406 15.738281 L 143.007812 15.929688 L 141.929688 15.929688 "
       style="stroke:none;fill-rule:nonzero;fill:#ffffff;fill-opacity:1" />
    <path
       id="path4568"
       d="M 145.03125 13.636719 C 145.257812 13.636719 145.453125 13.785156 145.453125 14.089844 C 145.453125 14.488281 145.167969 14.851562 144.8125 14.851562 C 144.589844 14.851562 144.378906 14.6875 144.378906 14.382812 C 144.378906 13.984375 144.675781 13.636719 145.03125 13.636719 Z M 144.847656 19.566406 C 144.683594 19.636719 144.222656 19.785156 143.839844 19.785156 C 143.347656 19.785156 143.09375 19.578125 143.09375 19.195312 C 143.09375 19.074219 143.121094 18.941406 143.164062 18.785156 L 143.929688 16.320312 C 144.011719 16.035156 143.789062 15.914062 143.25 15.878906 L 143.25 15.773438 L 145.011719 15.695312 L 144.058594 18.804688 C 144.007812 18.960938 143.980469 19.089844 143.980469 19.183594 C 143.980469 19.453125 144.195312 19.515625 144.847656 19.480469 L 144.847656 19.566406 "
       style="stroke:none;fill-rule:nonzero;fill:#ffffff;fill-opacity:1" />
    <path
       id="path4570"
       d="M 146.394531 16.320312 C 146.472656 16.042969 146.386719 15.914062 145.847656 15.878906 L 145.847656 15.773438 L 147.417969 15.695312 L 147.160156 16.539062 L 147.175781 16.554688 C 147.695312 16.027344 148.3125 15.667969 148.800781 15.667969 C 149.339844 15.667969 149.625 15.964844 149.625 16.46875 C 149.625 16.632812 149.597656 16.832031 149.527344 17.050781 L 148.9375 18.882812 C 148.886719 19.046875 148.851562 19.175781 148.851562 19.273438 C 148.851562 19.515625 149.058594 19.558594 149.632812 19.515625 L 149.632812 19.601562 C 149.484375 19.664062 149.101562 19.785156 148.757812 19.785156 C 148.261719 19.785156 148 19.628906 148 19.246094 C 148 19.140625 148.027344 18.984375 148.078125 18.828125 L 148.644531 17.085938 C 148.703125 16.886719 148.738281 16.738281 148.738281 16.582031 C 148.738281 16.3125 148.609375 16.15625 148.277344 16.15625 C 147.941406 16.15625 147.53125 16.382812 147.125 16.738281 L 146.386719 19.714844 L 145.4375 19.714844 L 145.855469 18.308594 L 146.394531 16.320312 "
       style="stroke:none;fill-rule:nonzero;fill:#ffffff;fill-opacity:1" />
    <path
       id="path4572"
       d="M 151.207031 18.402344 C 151.207031 19.011719 151.449219 19.308594 151.902344 19.308594 C 152.222656 19.308594 152.457031 19.132812 152.691406 18.785156 L 153.351562 16.554688 C 153.257812 16.191406 153.011719 15.851562 152.664062 15.851562 C 151.769531 15.851562 151.207031 17.542969 151.207031 18.402344 Z M 150.277344 18.324219 C 150.277344 17.058594 151.378906 15.652344 152.542969 15.652344 C 153.039062 15.652344 153.28125 15.851562 153.480469 16.148438 L 153.621094 15.757812 L 154.539062 15.652344 L 154.070312 17.058594 L 153.308594 19.777344 C 152.976562 20.929688 152.449219 21.453125 151.164062 21.453125 C 150.21875 21.453125 149.757812 21.027344 149.757812 20.609375 C 149.757812 20.246094 150 19.984375 150.328125 19.984375 C 150.632812 19.984375 150.808594 20.191406 150.808594 20.480469 C 150.808594 20.679688 150.675781 20.871094 150.492188 20.972656 C 150.617188 21.175781 150.867188 21.285156 151.152344 21.285156 C 151.8125 21.285156 152.1875 20.757812 152.457031 19.828125 L 152.664062 19.089844 L 152.640625 19.082031 C 152.292969 19.5 151.972656 19.714844 151.476562 19.714844 C 150.824219 19.714844 150.277344 19.210938 150.277344 18.324219 "
       style="stroke:none;fill-rule:nonzero;fill:#ffffff;fill-opacity:1" />
    <path
       id="path4574"
       d="M 65.738281 42.355469 C 64.476562 43.085938 62.675781 43.539062 60.675781 43.539062 C 58.671875 43.539062 56.875 43.085938 55.613281 42.359375 C 54.351562 41.632812 52.550781 41.179688 50.550781 41.179688 C 48.550781 41.179688 46.746094 41.632812 45.488281 42.359375 C 44.230469 43.085938 42.429688 43.539062 40.425781 43.539062 C 38.425781 43.539062 36.625 43.085938 35.367188 42.359375 C 34.105469 41.632812 32.304688 41.179688 30.304688 41.179688 C 30.117188 41.179688 29.929688 41.1875 29.742188 41.195312 L 29.742188 45.878906 C 29.742188 46.585938 29.769531 47.269531 29.808594 47.941406 C 29.972656 47.9375 30.136719 47.925781 30.304688 47.925781 C 32.304688 47.925781 34.105469 48.382812 35.367188 49.109375 C 36.625 49.835938 38.425781 50.289062 40.425781 50.289062 C 42.429688 50.289062 44.230469 49.835938 45.488281 49.109375 C 46.746094 48.382812 48.550781 47.925781 50.550781 47.925781 C 52.550781 47.925781 54.351562 48.382812 55.613281 49.109375 C 56.875 49.835938 58.671875 50.289062 60.675781 50.289062 C 62.675781 50.289062 64.476562 49.835938 65.738281 49.109375 C 66.996094 48.382812 68.796875 47.925781 70.796875 47.925781 C 70.964844 47.925781 71.128906 47.9375 71.292969 47.941406 C 71.332031 47.269531 71.355469 46.585938 71.355469 45.878906 L 71.355469 41.195312 C 71.171875 41.1875 70.988281 41.179688 70.796875 41.179688 C 68.796875 41.179688 66.996094 41.632812 65.738281 42.355469 "
       style="stroke:none;fill-rule:nonzero;fill:#ffffff;fill-opacity:1" />
    <path
       id="path4576"
       d="M 60.675781 57.039062 C 58.675781 57.039062 56.871094 56.585938 55.613281 55.859375 C 54.351562 55.132812 52.550781 54.679688 50.550781 54.679688 C 48.550781 54.679688 46.75 55.132812 45.488281 55.859375 C 44.230469 56.585938 42.429688 57.039062 40.425781 57.039062 C 38.425781 57.039062 36.625 56.585938 35.367188 55.859375 C 34.246094 55.214844 32.699219 54.785156 30.964844 54.699219 C 31.851562 57.667969 33.164062 60.164062 34.714844 62.289062 C 34.945312 62.390625 35.164062 62.492188 35.367188 62.613281 C 36.625 63.335938 38.425781 63.792969 40.425781 63.792969 C 42.429688 63.792969 44.230469 63.335938 45.488281 62.613281 C 46.75 61.882812 48.550781 61.425781 50.550781 61.425781 C 52.550781 61.425781 54.351562 61.882812 55.613281 62.613281 C 56.871094 63.335938 58.675781 63.792969 60.675781 63.792969 C 62.675781 63.792969 64.476562 63.335938 65.738281 62.613281 C 65.941406 62.492188 66.160156 62.386719 66.390625 62.285156 C 67.941406 60.164062 69.25 57.667969 70.136719 54.699219 C 68.402344 54.785156 66.855469 55.214844 65.738281 55.859375 C 64.476562 56.585938 62.675781 57.039062 60.675781 57.039062 "
       style="stroke:none;fill-rule:nonzero;fill:#ffffff;fill-opacity:1" />
    <g
       style="fill:#ffffff;fill-opacity:1"
       id="g4580"
       clip-rule="nonzero"
       clip-path="url(#clip22)">
      <path
         id="path4578"
         d="M 55.613281 69.359375 C 54.351562 68.636719 52.550781 68.179688 50.550781 68.179688 C 48.550781 68.179688 46.75 68.636719 45.488281 69.359375 C 44.882812 69.710938 44.152344 69.992188 43.332031 70.199219 C 46.234375 72.136719 48.917969 73.5625 50.550781 74.929688 C 52.1875 73.5625 54.867188 72.136719 57.769531 70.199219 C 56.953125 69.992188 56.21875 69.710938 55.613281 69.359375 "
         style="stroke:none;fill-rule:nonzero;fill:#ffffff;fill-opacity:1" />
    </g>
    <path
       id="path4582"
       d="M 65.738281 28.855469 C 64.476562 29.582031 62.675781 30.039062 60.675781 30.039062 C 58.671875 30.039062 56.875 29.582031 55.613281 28.855469 C 54.351562 28.132812 52.550781 27.675781 50.550781 27.675781 C 48.550781 27.675781 46.746094 28.132812 45.488281 28.855469 C 44.230469 29.582031 42.429688 30.039062 40.425781 30.039062 C 38.425781 30.039062 36.625 29.582031 35.367188 28.855469 C 34.105469 28.132812 32.304688 27.675781 30.304688 27.675781 C 30.117188 27.675781 29.929688 27.683594 29.742188 27.691406 L 29.742188 34.441406 C 29.929688 34.4375 30.117188 34.429688 30.304688 34.429688 C 32.304688 34.429688 34.105469 34.882812 35.367188 35.609375 C 36.625 36.335938 38.425781 36.789062 40.425781 36.789062 C 42.429688 36.789062 44.230469 36.335938 45.488281 35.609375 C 46.746094 34.882812 48.550781 34.429688 50.550781 34.429688 C 52.550781 34.429688 54.351562 34.882812 55.613281 35.609375 C 56.875 36.335938 58.671875 36.789062 60.675781 36.789062 C 62.675781 36.789062 64.476562 36.335938 65.738281 35.609375 C 66.996094 34.882812 68.796875 34.429688 70.796875 34.429688 C 70.988281 34.429688 71.171875 34.4375 71.355469 34.445312 L 71.355469 27.691406 C 71.171875 27.683594 70.988281 27.675781 70.796875 27.675781 C 68.796875 27.675781 66.996094 28.132812 65.738281 28.855469 "
       style="stroke:none;fill-rule:nonzero;fill:#ffffff;fill-opacity:1" />
    <path
       id="path4584"
       d="M 50.550781 14.992188 C 46.785156 14.992188 43.730469 18.046875 43.730469 21.8125 C 43.730469 22.152344 43.765625 22.484375 43.8125 22.8125 C 44.4375 22.625 45.003906 22.382812 45.488281 22.105469 C 46.746094 21.382812 48.550781 20.925781 50.550781 20.925781 C 52.550781 20.925781 54.351562 21.382812 55.613281 22.105469 C 56.097656 22.386719 56.664062 22.625 57.292969 22.8125 C 57.339844 22.484375 57.371094 22.15625 57.371094 21.8125 C 57.371094 18.046875 54.320312 14.992188 50.550781 14.992188 Z M 41.257812 16.996094 C 41.121094 17.015625 40.984375 17.054688 40.847656 17.078125 C 40.488281 17.140625 40.144531 17.148438 39.800781 17.136719 C 39.445312 17.125 39.027344 17.039062 38.792969 16.886719 C 38.734375 17.242188 39.171875 17.710938 39.542969 17.960938 C 39.800781 18.136719 40.070312 18.285156 40.351562 18.378906 C 40.464844 18.421875 40.578125 18.4375 40.6875 18.480469 C 41.027344 18.601562 41.363281 18.820312 41.628906 19.054688 C 41.972656 19.359375 42.257812 19.746094 42.523438 20.085938 C 42.734375 19.089844 43.132812 18.15625 43.675781 17.328125 C 43.316406 17.199219 42.925781 17.0625 42.503906 16.996094 C 42.128906 16.9375 41.679688 16.929688 41.257812 16.996094 Z M 66.132812 21.816406 L 58.644531 20.472656 C 58.71875 20.910156 58.765625 21.359375 58.765625 21.816406 C 58.765625 22.269531 58.71875 22.714844 58.644531 23.15625 Z M 42.453125 20.472656 L 34.96875 21.816406 L 42.457031 23.15625 C 42.386719 22.714844 42.335938 22.269531 42.335938 21.816406 C 42.335938 21.359375 42.386719 20.910156 42.453125 20.472656 Z M 60.53125 18.648438 C 60.617188 18.535156 60.679688 18.410156 60.765625 18.300781 C 60.972656 18 61.210938 17.753906 61.460938 17.519531 C 61.71875 17.277344 62.074219 17.039062 62.351562 16.980469 C 62.140625 16.691406 61.5 16.667969 61.058594 16.753906 C 60.753906 16.8125 60.46875 16.894531 60.191406 17.027344 C 60.082031 17.082031 59.992188 17.148438 59.882812 17.199219 C 59.558594 17.351562 59.167969 17.4375 58.808594 17.457031 C 58.355469 17.488281 57.878906 17.414062 57.449219 17.355469 L 57.441406 17.355469 C 57.984375 18.1875 58.375 19.117188 58.589844 20.121094 C 58.933594 19.957031 59.300781 19.78125 59.648438 19.527344 C 59.957031 19.304688 60.277344 18.996094 60.53125 18.648438 Z M 45.878906 15.066406 L 41.171875 12.429688 L 43.796875 17.140625 C 44.367188 16.328125 45.066406 15.625 45.878906 15.066406 Z M 57.304688 17.140625 L 59.929688 12.429688 L 55.226562 15.066406 C 56.035156 15.625 56.738281 16.328125 57.304688 17.140625 Z M 51.933594 13.722656 L 50.550781 0 L 49.167969 13.722656 C 49.621094 13.652344 50.078125 13.601562 50.550781 13.601562 C 51.023438 13.601562 51.480469 13.652344 51.933594 13.722656 Z M 45.765625 12.175781 C 45.816406 12.277344 45.882812 12.375 45.933594 12.484375 C 46.089844 12.808594 46.175781 13.199219 46.195312 13.550781 C 46.222656 14.011719 46.152344 14.488281 46.09375 14.914062 L 46.09375 14.921875 C 46.921875 14.382812 47.859375 13.988281 48.859375 13.777344 C 48.695312 13.429688 48.519531 13.058594 48.265625 12.714844 C 48.042969 12.40625 47.730469 12.085938 47.386719 11.835938 C 47.273438 11.753906 47.152344 11.683594 47.035156 11.605469 C 46.738281 11.390625 46.492188 11.15625 46.253906 10.910156 C 46.015625 10.648438 45.777344 10.289062 45.71875 10.011719 C 45.429688 10.226562 45.40625 10.867188 45.492188 11.308594 C 45.554688 11.613281 45.632812 11.902344 45.765625 12.175781 Z M 55.371094 13.765625 C 55.429688 13.390625 55.4375 12.941406 55.371094 12.515625 C 55.351562 12.382812 55.308594 12.246094 55.285156 12.109375 C 55.226562 11.746094 55.214844 11.410156 55.226562 11.0625 C 55.242188 10.710938 55.320312 10.289062 55.480469 10.050781 C 55.125 9.996094 54.65625 10.433594 54.402344 10.808594 C 54.226562 11.066406 54.082031 11.328125 53.984375 11.617188 C 53.945312 11.722656 53.921875 11.84375 53.886719 11.949219 C 53.765625 12.289062 53.546875 12.628906 53.3125 12.894531 C 53.007812 13.234375 52.621094 13.523438 52.277344 13.78125 L 52.273438 13.785156 C 53.277344 14 54.207031 14.394531 55.039062 14.9375 C 55.164062 14.578125 55.300781 14.1875 55.371094 13.765625 "
       style="stroke:none;fill-rule:nonzero;fill:#edb800;fill-opacity:1" />
    <path
       id="path4586"
       d="M 7.335938 39.039062 L 7.335938 39.542969 C 3.535156 40.183594 0.808594 42.402344 0.808594 46.441406 C 0.808594 52.601562 5.855469 56.066406 11.644531 56.066406 C 18.273438 56.066406 22.886719 50.984375 22.886719 46.105469 C 22.886719 41.695312 19.652344 39.945312 16.019531 38.433594 L 16.222656 37.960938 C 18.273438 38.363281 20.292969 39.003906 22.246094 39.8125 C 23.289062 41.964844 23.691406 44.289062 23.691406 46.675781 C 23.691406 53.710938 19.652344 59.972656 12.046875 59.972656 C 6.058594 59.972656 0 55.292969 0 46.410156 C 0 43.851562 0.503906 41.257812 1.816406 39.039062 L 7.335938 39.039062 "
       style="stroke:none;fill-rule:nonzero;fill:#ffffff;fill-opacity:1" />
    <path
       id="path4588"
       d="M 0.40625 9.992188 L 0.910156 9.992188 C 1.246094 13.054688 3.128906 13.257812 7.574219 13.394531 L 14.941406 13.59375 C 19.285156 13.695312 23.691406 15.546875 23.691406 23.019531 C 23.691406 33.449219 16.152344 32.375 13.460938 32.375 L 5.921875 32.375 C 2.457031 32.472656 1.449219 32.507812 0.910156 36.546875 L 0.40625 36.546875 L 0.40625 24.9375 L 0.910156 24.9375 C 1.546875 29.34375 2.222656 29.410156 5.921875 29.410156 L 12.824219 29.410156 C 13.460938 29.410156 22.144531 30.488281 22.144531 21.269531 C 22.144531 14 15.210938 14.707031 11.105469 14.707031 L 7.574219 14.707031 C 3.296875 14.707031 1.347656 15.042969 0.910156 19.753906 L 0.40625 19.753906 L 0.40625 9.992188 "
       style="stroke:none;fill-rule:nonzero;fill:#ffffff;fill-opacity:1" />
    <g
       style="fill:#ffffff;fill-opacity:1"
       id="g4592"
       clip-rule="nonzero"
       clip-path="url(#clip23)">
      <path
         id="path4590"
         d="M 5.921875 67.8125 C 2.222656 67.8125 1.546875 67.878906 0.910156 72.289062 L 0.40625 72.289062 L 0.40625 60.710938 L 0.910156 60.710938 C 1.449219 64.75 2.457031 64.851562 5.921875 64.851562 L 17.972656 64.851562 C 23.507812 64.824219 25.761719 65.542969 27.90625 70.066406 C 28.285156 70.867188 28.625 71.488281 29.023438 72.742188 C 29.351562 73.769531 29.414062 74.714844 29.425781 74.835938 L 28.921875 74.886719 C 28.921875 74.851562 28.882812 74.460938 28.730469 73.867188 C 28.65625 73.582031 28.46875 73.113281 28.394531 72.960938 C 28.152344 72.445312 27.976562 72.121094 27.703125 71.703125 C 25.382812 68.144531 21.886719 67.8125 16.492188 67.8125 L 5.921875 67.8125 "
         style="stroke:none;fill-rule:nonzero;fill:#ffffff;fill-opacity:1" />
    </g>
  </g>
</svg>
