<svg xmlns="http://www.w3.org/2000/svg" viewBox="0 0 298.79 97.44" height="129.92" width="398.387"><defs><clipPath id="a"><path d="M228 36h2v61.441h-2zm0 0"/></clipPath><clipPath id="b"><path d="M17 88h20v9.441H17zm0 0"/></clipPath><clipPath id="c"><path d="M65 85h13v12.441H65zm0 0"/></clipPath><clipPath id="d"><path d="M78 85h11v12.441H78zm0 0"/></clipPath><clipPath id="e"><path d="M89 85h10v12.441H89zm0 0"/></clipPath><clipPath id="f"><path d="M99 85h11v12.441H99zm0 0"/></clipPath><clipPath id="g"><path d="M111 85h11v12.441h-11zm0 0"/></clipPath><clipPath id="h"><path d="M123 85h13v12.441h-13zm0 0"/></clipPath><clipPath id="i"><path d="M138 85h9v12.441h-9zm0 0"/></clipPath><clipPath id="j"><path d="M148 85h3v12.441h-3zm0 0"/></clipPath><clipPath id="k"><path d="M152 85h13v12.441h-13zm0 0"/></clipPath><clipPath id="l"><path d="M268 45h30.79v34H268zm0 0"/></clipPath><clipPath id="m"><path d="M251 91h4v6.441h-4zm0 0"/></clipPath><clipPath id="n"><path d="M255 91h6v6.441h-6zm0 0"/></clipPath><clipPath id="o"><path d="M260 91h6v6.441h-6zm0 0"/></clipPath><clipPath id="p"><path d="M264 91h6v6.441h-6zm0 0"/></clipPath><clipPath id="q"><path d="M276 91h6v6.441h-6zm0 0"/></clipPath><clipPath id="r"><path d="M281 91h6v6.441h-6zm0 0"/></clipPath><clipPath id="s"><path d="M286 91h6v6.441h-6zm0 0"/></clipPath><clipPath id="t"><path d="M291 91h6v6.441h-6zm0 0"/></clipPath></defs><g style="fill:#000;fill-opacity:1"><g style="fill:#fff;fill-opacity:1" clip-path="url(#a)"><path d="M229.488 36.05h-.515v61.095h.515V36.05" style="stroke:none;fill-rule:nonzero;fill:#fff;fill-opacity:1"/></g><path d="M46.805 55.082c-1.637.945-3.98 1.54-6.582 1.54-2.606 0-4.942-.595-6.582-1.536-1.637-.945-3.985-1.535-6.582-1.535-2.598 0-4.95.59-6.582 1.535-1.641.941-3.98 1.535-6.586 1.535-2.602 0-4.942-.594-6.579-1.535-1.64-.945-3.98-1.535-6.585-1.535-.243 0-.485.008-.727.02v6.09c0 .925.035 1.812.086 2.683.21-.008.426-.016.64-.016 2.606 0 4.946.59 6.587 1.535 1.636.946 3.976 1.535 6.578 1.535 2.605 0 4.945-.59 6.586-1.535 1.632-.945 3.984-1.535 6.582-1.535 2.597 0 4.945.59 6.582 1.535 1.64.946 3.976 1.535 6.582 1.535 2.601 0 4.945-.59 6.582-1.535 1.64-.945 3.98-1.535 6.578-1.535.222 0 .433.008.644.016a42.37 42.37 0 0 0 .086-2.684v-6.09a14.67 14.67 0 0 0-.73-.02c-2.598 0-4.938.59-6.578 1.532m-6.582 19.094c-2.602 0-4.946-.59-6.582-1.531-1.637-.946-3.985-1.54-6.582-1.54-2.598 0-4.946.594-6.582 1.54-1.641.94-3.98 1.53-6.586 1.53-2.602.005-4.942-.59-6.579-1.53-1.457-.844-3.468-1.403-5.722-1.512A32.306 32.306 0 0 0 6.46 81c.302.133.587.27.853.422 1.636.941 3.976 1.535 6.578 1.535 2.605 0 4.945-.594 6.586-1.535 1.636-.945 3.984-1.54 6.582-1.54 2.597 0 4.945.59 6.582 1.54 1.636.941 3.98 1.535 6.582 1.535 2.601 0 4.945-.594 6.582-1.535.265-.156.554-.29.851-.422 2.016-2.762 3.715-6.008 4.871-9.867-2.254.11-4.27.668-5.722 1.512-1.637.94-3.98 1.53-6.582 1.53" style="stroke:none;fill-rule:nonzero;fill:#fff;fill-opacity:1"/><g style="fill:#fff;fill-opacity:1" clip-path="url(#b)"><path d="M33.64 90.2c-1.636-.942-3.984-1.536-6.581-1.536-2.598 0-4.946.594-6.582 1.535-.79.457-1.743.824-2.805 1.09 3.773 2.52 7.262 4.375 9.387 6.152 2.125-1.777 5.613-3.632 9.386-6.152-1.062-.266-2.015-.633-2.804-1.09" style="stroke:none;fill-rule:nonzero;fill:#fff;fill-opacity:1"/></g><path d="M46.805 37.527c-1.637.946-3.98 1.54-6.582 1.54-2.606 0-4.942-.594-6.582-1.54-1.637-.941-3.985-1.535-6.582-1.535-2.598 0-4.95.594-6.582 1.535-1.641.946-3.98 1.54-6.586 1.54-2.602 0-4.942-.594-6.579-1.54-1.64-.941-3.98-1.535-6.585-1.535-.243 0-.485.008-.727.02v8.777c.242-.008.484-.016.727-.016 2.605 0 4.945.59 6.585 1.532 1.637.949 3.977 1.539 6.579 1.539 2.605 0 4.945-.59 6.586-1.54 1.632-.94 3.984-1.53 6.582-1.53 2.597 0 4.945.59 6.582 1.53 1.64.95 3.976 1.54 6.582 1.54 2.601 0 4.945-.59 6.582-1.54 1.64-.94 3.98-1.53 6.578-1.53.254 0 .492.007.73.019v-8.781a14.67 14.67 0 0 0-.73-.02c-2.598 0-4.938.594-6.578 1.535M27.059 19.5c-4.899 0-8.872 3.969-8.872 8.867 0 .442.047.875.106 1.297a10.167 10.167 0 0 0 2.184-.918c1.632-.941 3.984-1.531 6.582-1.531 2.597 0 4.945.59 6.582 1.531.632.363 1.367.676 2.183.922.063-.426.106-.86.106-1.3 0-4.9-3.973-8.868-8.871-8.868zm-12.09 2.605c-.176.024-.352.075-.531.106-.47.082-.915.09-1.36.074-.46-.015-1.004-.125-1.308-.324-.079.46.492 1.07.976 1.398.332.227.68.422 1.05.543.145.051.29.078.434.133.446.152.88.438 1.227.742.445.399.816.899 1.16 1.344a10.564 10.564 0 0 1 1.5-3.586c-.469-.168-.972-.348-1.527-.43a5.242 5.242 0 0 0-1.621 0zm32.351 6.266-9.738-1.746c.098.566.16 1.152.16 1.742 0 .594-.062 1.176-.16 1.746zm-30.793-1.746-9.734 1.746 9.738 1.742c-.09-.57-.156-1.152-.156-1.746 0-.59.066-1.176.152-1.742zm23.508-2.375c.11-.148.195-.305.305-.45.27-.39.578-.71.902-1.019.34-.312.801-.62 1.164-.695-.277-.379-1.113-.41-1.687-.3a4.5 4.5 0 0 0-1.125.359c-.14.07-.262.152-.403.218-.421.2-.93.313-1.394.336-.59.043-1.211-.054-1.77-.129h-.007a10.569 10.569 0 0 1 1.488 3.598c.453-.215.93-.445 1.383-.773.398-.29.816-.692 1.144-1.145zm-19.05-4.656-6.126-3.43 3.418 6.129a10.647 10.647 0 0 1 2.707-2.7zm14.855 2.699 3.418-6.129-6.121 3.43a10.631 10.631 0 0 1 2.703 2.699zm-6.985-4.445L27.06 0l-1.797 17.848a11.34 11.34 0 0 1 1.797-.16c.609 0 1.207.066 1.796.16zm-8.02-2.012c.067.133.153.258.22.398.199.426.312.93.336 1.391.035.598-.055 1.219-.125 1.77v.011a10.497 10.497 0 0 1 3.59-1.488c-.211-.453-.442-.938-.77-1.383a5.37 5.37 0 0 0-1.145-1.14c-.148-.11-.304-.2-.453-.305a6.896 6.896 0 0 1-1.02-.902c-.308-.34-.616-.805-.69-1.168-.38.277-.41 1.109-.301 1.687.082.398.183.77.359 1.129zm12.493 2.066a5.657 5.657 0 0 0 0-1.625c-.027-.175-.086-.351-.113-.53a6.683 6.683 0 0 1-.078-1.36c.02-.457.125-1.008.328-1.313-.457-.07-1.07.496-1.399.98a4.286 4.286 0 0 0-.543 1.055c-.05.137-.082.293-.128.43-.16.445-.442.883-.747 1.23-.398.442-.898.817-1.347 1.153 0 0 0 .004-.004.004 1.305.281 2.515.797 3.594 1.5.168-.469.34-.977.437-1.524M65.824 40.11c0-2.684-.05-3.176-3.246-3.637v-.368h8.395v.368c-2.926.39-3.004 1.12-3.004 3.636v8.735c.027 4.738-.535 5.785-5.832 8.054l-.192-.414c3.586-1.683 3.88-4.32 3.88-8.71v-7.665m9.234 5.637c-.414 1.219-1.493 3.758-1.493 4.93 0 1.488 1.684 1.488 2.786 1.66v.363h-6.688v-.363c2.172-.586 2.39-1.074 3.148-2.98l2.754-7.2 1.47-3.976c.218-.637.534-1.22.265-1.684a4.59 4.59 0 0 0 1.781-1.316l5.371 14.3c.656 1.782 1.074 2.489 3.024 2.856v.363h-7.172v-.363c.855-.195 1.879-.465 1.879-1.563 0-1.023-.93-3.32-1.563-5.027zm2.707-7.469-2.293 6.344h4.832zm21.524 10.86 4.417-9.711c.61-1.34.95-2.563.414-2.93l.05-.39h5.364v.367c-1.558.316-2.508.902-2.414 2.609l.54 8.887c.269 3.39.269 3.93 2.874 4.367v.363h-8.023v-.363c1.879-.293 3.074-.512 2.953-2.66l-.66-10.664h-.047l-6.223 13.687h-.27L92.48 39.57h-.046c-.391 3.735-.586 6.446-.758 10.223-.047.953-.024 2.055 2.93 2.543v.363h-6.81v-.363c2.173-.367 2.391-1.418 2.735-3.39l.903-6.86.316-3.32c.148-1.61-1.242-2.172-2.684-2.293v-.368h5.27l.023.27c-.535.559.121 2.023.293 2.414l4.637 10.348m12.254 3.199c2.93-.39 2.953-1.125 3.023-3.637v-8.59c-.07-2.515-.093-3.246-3.023-3.636v-.368h13.105l-.293 3.758h-.367c-.172-3.148-2.441-3.172-4.902-3.172h-2.367v6.954h2.535c1.832 0 3.223-.145 3.488-2.243h.367v5.442h-.367c-.316-2.145-1.656-2.176-3.488-2.176h-2.535v4.004c0 1.441-.344 3.441 3.66 3.441 3.074 0 4.586-1.168 5.195-4.246h.364a15.333 15.333 0 0 1-.825 4.832h-13.57v-.363m25.574-11.934h-.387c-.39-1.976-1.027-3.882-3.44-3.882-1.563 0-2.856 1.074-2.856 2.687 0 4.219 7.687 4.074 7.687 9.004 0 3.144-3.125 4.785-5.93 4.785-1.492 0-3.054-.441-4.293-1.246l-.71-4.148h.437c.61 2.343 2.246 4.66 4.93 4.66 1.804 0 3.222-1.075 3.222-2.977 0-4.344-7.464-3.953-7.464-8.836 0-2.855 2.828-4.66 5.437-4.66 1.246 0 2.492.363 3.566.95l-.199 3.663m21.606.731h-.368c-.464-2.758-2.078-4.735-5.003-4.735-4.465 0-6.98 3.66-6.98 7.86 0 4.808 3.683 8.148 7.226 8.148 3.191 0 4.46-2.34 5.562-4.976l.344.148a23.4 23.4 0 0 1-1.344 4.367c-1.562.754-3.246 1.051-4.98 1.051-5.102 0-9.64-2.93-9.64-8.445 0-4.344 3.39-8.739 9.835-8.739 1.855 0 3.734.368 5.348 1.32v4m19.914 3.27c0 5.25-3.809 8.59-8.934 8.59-5.144 0-8.93-3.34-8.93-8.613 0-5.2 3.809-8.566 8.907-8.566 6.25 0 8.957 4.246 8.957 8.59m-15.032-.61c0 3.781 2 8.613 6.391 8.613 4.027 0 5.813-4.097 5.813-7.586-.075-4.324-2.59-8.422-6.325-8.422-4.199 0-5.879 4.098-5.879 7.395m34.633.609c0 5.25-3.808 8.59-8.933 8.59-5.149 0-8.934-3.34-8.934-8.613 0-5.2 3.809-8.566 8.91-8.566 6.25 0 8.957 4.246 8.957 8.59m-15.035-.61c0 3.781 2.004 8.613 6.395 8.613 4.03 0 5.812-4.097 5.812-7.586-.078-4.324-2.59-8.422-6.324-8.422-4.195 0-5.883 4.098-5.883 7.395M203.86 48.7c.074 2.51.097 3.245 3.245 3.636v.363h-8.421v-.363c2.93-.39 2.953-1.125 3.027-3.637v-8.59c-.074-2.515-.098-3.246-3.027-3.636v-.368h7.761v.368c-2.488.39-2.511 1.12-2.586 3.636zm11.03-12.595v.368c-2.78.293-4.636 2.66-6.445 4.539l-2.293 2.441 4.957 5.465c1.489 1.637 3.246 3.098 5.414 3.707l-.12.371c-4.247-.344-4.93-.465-7.227-2.98l-4.977-5.418 3.93-4.27c2.562-2.879 2.074-3.683.437-3.855v-.368h6.325M81.637 59.012v.363c-2.219.246-2.367 1.613-2.465 4.836l-.145 5.344c-.074 3.148-1.418 6.343-6.832 6.343-7.566 0-6.785-5.468-6.785-7.418v-5.464c-.074-2.516-.097-3.246-3.027-3.641v-.363h8.422v.363c-3.2.465-3.25.953-3.25 3.64v5c0 .465-.782 6.762 5.906 6.762 5.273 0 4.762-5.027 4.762-8.007v-2.56c0-3.1-.246-4.515-3.66-4.835v-.363h7.074m16.984 12.761-.125-8.906c-.023-2.32-.656-3.004-3.414-3.492v-.363h6.66v.363c-1.683.223-2 1.148-2.195 2.734-.344 2.684-.219 8.567-.098 13.887l-.316.074c-3.906-4.61-8.25-8.882-12.375-13.328v4.496c0 6.051-.145 7.293 3.394 8v.371h-7.297v-.37c3.297-.34 3.172-2.587 3.172-8.126v-3.66c0-2.441-.39-3.394-3.488-4.078v-.363h4.027l12.055 12.761m9.336-.168c.07 2.512.098 3.247 3.023 3.637v.367h-8.195v-.367c2.926-.39 2.953-1.125 3.024-3.637v-8.59c-.07-2.515-.098-3.245-3.024-3.64v-.363h8.195v.363c-2.925.395-2.953 1.125-3.023 3.64v8.59m21.891-12.593v.363c-2.297.2-3 2.125-4.516 5.664l-4.664 11.129h-.34l-5.512-13.2c-.734-1.784-1.296-3.347-3.468-3.593v-.363h7.738v.363c-3.441.344-2.32 2.297-1.688 3.836l3.907 9.418 2.882-6.906c2.094-5.004 2.485-5.809-1.222-6.348v-.363h6.883m.218 16.226c2.93-.386 2.954-1.12 3.028-3.633v-8.59c-.074-2.515-.098-3.245-3.028-3.64v-.363h13.106l-.29 3.758h-.366c-.172-3.149-2.446-3.172-4.91-3.172h-2.364v6.953h2.54c1.823 0 3.222-.145 3.488-2.246h.367v5.445h-.367c-.317-2.148-1.665-2.172-3.489-2.172h-2.539v4.004c0 1.438-.344 3.438 3.66 3.438 3.075 0 4.59-1.168 5.2-4.247h.363a15.375 15.375 0 0 1-.828 4.836h-13.57v-.37m18.374-11.199c0-3.735-.125-4.298-2.855-4.54v-.34l5.953-.2c6.152-.194 6.637 2.81 6.637 3.981 0 2.051-1.266 3.223-3.024 4.004l.121.168c1.88 3.293 4.223 7.492 8.25 8.325l-.074.363c-2.586-.121-4.488-.047-5.906-1.512-1.61-1.684-2.879-3.828-3.39-4.883-.977-2.023-1.856-1.437-3.563-1.73v3.93c0 2.683.047 3.171 3.39 3.632v.371h-8.566v-.37c2.93-.387 2.953-1.122 3.027-3.634zm2.149 3.222c2.34-.024 5.074-1.098 5.074-3.809 0-2.855-2.512-4.004-5.074-3.98v7.789m22.168-3.953h-.39c-.391-1.98-1.024-3.883-3.438-3.883-1.563 0-2.856 1.074-2.856 2.683 0 4.223 7.684 4.078 7.684 9.008 0 3.145-3.121 4.781-5.93 4.781-1.488 0-3.05-.437-4.297-1.246l-.703-4.144h.438c.609 2.344 2.242 4.66 4.93 4.66 1.804 0 3.218-1.074 3.218-2.977 0-4.343-7.465-3.953-7.465-8.836 0-2.855 2.828-4.66 5.442-4.66 1.246 0 2.488.364 3.562.953l-.195 3.66m7.137 8.297c.074 2.512.097 3.247 3.027 3.637v.367h-8.203v-.367c2.933-.39 2.957-1.125 3.031-3.637v-8.59c-.074-2.515-.098-3.245-3.031-3.64v-.363h8.203v.363c-2.93.395-2.953 1.125-3.027 3.64v8.59m19.145-13.351h.19l.344 4.566-.344.07c-.851-3.027-2.19-3.148-5-3.148h-1.468V71.02c0 3.023.148 3.832 3.422 4.218v.371h-8.98v-.37c3.269-.387 3.413-1.196 3.413-4.22V59.743h-1.46c-2.81 0-4.153.121-5.009 3.149l-.34-.07.34-4.567h.196l.246.219c.61.562.71.539 1.512.539h11.18c.804 0 .902.023 1.511-.54l.246-.218m16.649.757v.363c-2.125.172-3.172 1.344-4.2 3.102l-2.879 5.71v2.762c.051 2.801.098 3.805 3.22 4.29v.37h-8.59v-.37c3.124-.485 3.175-1.489 3.222-4.29v-1.957l-2.535-5.539c-.93-2.05-1.59-3.781-4.055-4.078v-.363h6.738v.363c-2.004.273-1.734 1.074-.949 2.785l2.438 5.27 2.12-4.028c1.516-2.828 1.321-3.754-.8-4.027v-.363h6.27M65.305 80.422H214.14v.5H65.305v-.5" style="stroke:none;fill-rule:nonzero;fill:#fff;fill-opacity:1"/><g style="fill:#fff;fill-opacity:1" clip-path="url(#c)"><path d="m73.363 92.398-2.043-4.73-2.027 4.73zm-2.972-7.21h1.925l5.204 11.906h-2.196l-1.199-2.856h-5.59l-1.215 2.856h-2.129l5.2-11.906" style="stroke:none;fill-rule:nonzero;fill:#fff;fill-opacity:1"/></g><g style="fill:#fff;fill-opacity:1" clip-path="url(#d)"><path d="M78.242 92.078V85.27h2.078v6.722c0 2.195 1.133 3.363 2.989 3.363 1.843 0 2.972-1.097 2.972-3.277V85.27h2.078v6.707c0 3.53-1.992 5.304-5.082 5.304-3.074 0-5.035-1.773-5.035-5.203" style="stroke:none;fill-rule:nonzero;fill:#fff;fill-opacity:1"/></g><g style="fill:#fff;fill-opacity:1" clip-path="url(#e)"><path d="m89.59 95.371 1.25-1.484c1.133.976 2.281 1.535 3.734 1.535 1.281 0 2.094-.61 2.094-1.488v-.032c0-.843-.473-1.3-2.672-1.808-2.516-.606-3.933-1.352-3.933-3.531v-.032c0-2.027 1.69-3.43 4.035-3.43 1.726 0 3.093.524 4.293 1.489l-1.118 1.57c-1.062-.797-2.125-1.219-3.207-1.219-1.218 0-1.925.625-1.925 1.403v.035c0 .91.539 1.316 2.82 1.855 2.5.61 3.785 1.504 3.785 3.465v.035c0 2.211-1.742 3.528-4.223 3.528a7.287 7.287 0 0 1-4.933-1.89" style="stroke:none;fill-rule:nonzero;fill:#fff;fill-opacity:1"/></g><g style="fill:#fff;fill-opacity:1" clip-path="url(#f)"><path d="M103.59 87.195h-3.75V85.27h9.594v1.925h-3.75v9.899h-2.094v-9.899" style="stroke:none;fill-rule:nonzero;fill:#fff;fill-opacity:1"/></g><g style="fill:#fff;fill-opacity:1" clip-path="url(#g)"><path d="M116.406 91.133c1.485 0 2.434-.778 2.434-1.977v-.035c0-1.266-.914-1.957-2.45-1.957h-3.027v3.969zm-5.117-5.863h5.27c1.484 0 2.652.44 3.41 1.183.625.64.98 1.52.98 2.55v.032c0 1.945-1.164 3.11-2.804 3.582l3.19 4.477h-2.464l-2.906-4.121h-2.602v4.12h-2.074V85.27" style="stroke:none;fill-rule:nonzero;fill:#fff;fill-opacity:1"/></g><g style="fill:#fff;fill-opacity:1" clip-path="url(#h)"><path d="m131.703 92.398-2.043-4.73-2.027 4.73zm-2.973-7.21h1.926l5.203 11.906h-2.195l-1.2-2.856h-5.593l-1.215 2.856h-2.129l5.203-11.906" style="stroke:none;fill-rule:nonzero;fill:#fff;fill-opacity:1"/></g><g style="fill:#fff;fill-opacity:1" clip-path="url(#i)"><path d="M138 85.27h2.078v9.933h6.215v1.89H138V85.27" style="stroke:none;fill-rule:nonzero;fill:#fff;fill-opacity:1"/></g><g style="fill:#fff;fill-opacity:1" clip-path="url(#j)"><path d="M148.234 85.27h2.075v11.824h-2.075V85.27" style="stroke:none;fill-rule:nonzero;fill:#fff;fill-opacity:1"/></g><g style="fill:#fff;fill-opacity:1" clip-path="url(#k)"><path d="m160.527 92.398-2.043-4.73-2.027 4.73zm-2.972-7.21h1.925l5.204 11.906h-2.196l-1.199-2.856h-5.594l-1.215 2.856h-2.128l5.203-11.906" style="stroke:none;fill-rule:nonzero;fill:#fff;fill-opacity:1"/></g><g style="fill:#fff;fill-opacity:1" clip-path="url(#l)"><path d="M268.508 61.707c0 9.555 6.488 16.39 15.14 16.39 8.649 0 15.137-6.835 15.137-16.39 0-9.559-6.488-16.398-15.137-16.398-8.652 0-15.14 6.84-15.14 16.398m7.953 0c0-8.93 2.863-13.605 7.187-13.605 4.325 0 7.184 4.675 7.184 13.605 0 7.879-2.86 13.602-7.184 13.602s-7.187-5.723-7.187-13.602" style="stroke:none;fill-rule:nonzero;fill:#fff;fill-opacity:1"/></g><path d="m269.797 81.691-1.602 2.641-1.574-2.64h-1.691l2.53 3.988v2.597h1.45v-2.625l2.531-3.96h-1.644m2.187-.001v6.586h5.02v-1.289h-3.578v-1.383h3.105v-1.289h-3.105V82.98h3.527v-1.289h-4.969m8.297-.046-2.828 6.632h1.48l.602-1.476h2.785l.606 1.476h1.512l-2.82-6.632zm.649 1.738.875 2.137h-1.75zm4.11-1.692v6.586h1.452v-2.105h1.137l1.41 2.105h1.695l-1.609-2.351c.84-.313 1.414-.98 1.414-2.043v-.02c0-.62-.2-1.136-.566-1.508-.434-.43-1.082-.664-1.918-.664zm1.452 1.305h1.438c.707 0 1.14.324 1.14.942v.019c0 .555-.406.934-1.113.934h-1.465v-1.895m4.778.586v.02c0 1.308.855 1.675 2.18 2.011 1.105.285 1.327.473 1.327.836v.024c0 .382-.355.62-.949.62-.754 0-1.375-.312-1.965-.8l-.86 1.023a4.195 4.195 0 0 0 2.798 1.059c1.422 0 2.418-.734 2.418-2.047v-.016c0-1.148-.754-1.632-2.09-1.98-1.137-.289-1.422-.43-1.422-.863v-.02c0-.32.293-.574.848-.574.554 0 1.129.246 1.71.648l.758-1.09c-.671-.535-1.488-.84-2.449-.84-1.347 0-2.304.794-2.304 1.989M265.57 51l-16.226 1.32-1.434 5.489c8.438.066 18.805 3.054 18.805 13.472 0 4.239-2.36 8.473-6.863 11.594-4.508 3.2-12.297 5.21-17.875 5.21l-.286-2.292c5.075-.691 17.73-3.262 17.73-13.055 0-7.5-7.792-9.168-15.155-9.234l2.859-16.875 19.59-1.602L265.57 51" style="stroke:none;fill-rule:nonzero;fill:#fff;fill-opacity:1"/><g style="fill:#fff;fill-opacity:1" clip-path="url(#m)"><path d="M251.3 97.023c.903-.043 1.13-.12 1.223-.496l1.102-4.14c.148-.555.105-.754-.91-.79l.035-.113 2.137-.164-1.407 5.207c-.105.375.06.453.98.496l-.026.114h-3.16l.027-.114" style="stroke:none;fill-rule:nonzero;fill:#fff;fill-opacity:1"/></g><g style="fill:#fff;fill-opacity:1" clip-path="url(#n)"><path d="M256.875 94c0 .75.277 1.043.746 1.043.793 0 1.606-1.059 1.606-2.406 0-.684-.25-1.196-.84-1.196-.922 0-1.512 1.512-1.512 2.559zm3.266-.813c0 2.247-1.817 3.895-4.813 4.098l.012-.125c2.308-.433 3.254-1.55 3.61-2.75l-.024-.015c-.43.57-.903.847-1.528.847-.992 0-1.484-.676-1.484-1.527 0-1.164 1.012-2.45 2.508-2.45 1.117 0 1.719.837 1.719 1.922" style="stroke:none;fill-rule:nonzero;fill:#fff;fill-opacity:1"/></g><g style="fill:#fff;fill-opacity:1" clip-path="url(#o)"><path d="m260.273 97.16 4.332-4.957h-2.363c-.52 0-.71.14-1.23 1.05h-.106l.512-1.862h3.883l.023.093-2.379 3.297-1.664 2.442h-1.008v-.063" style="stroke:none;fill-rule:nonzero;fill:#fff;fill-opacity:1"/></g><g style="fill:#fff;fill-opacity:1" clip-path="url(#p)"><path d="M266.734 97.074c1.371 0 2.164-2.758 2.164-4.297 0-.859-.277-1.336-.878-1.336-1.372 0-2.16 2.77-2.16 4.305 0 .86.277 1.328.874 1.328zm0 .184c-1.074 0-1.82-.754-1.82-2.137 0-1.633 1.203-3.855 3.106-3.855 1.078 0 1.824.757 1.824 2.136 0 1.633-1.207 3.856-3.11 3.856" style="stroke:none;fill-rule:nonzero;fill:#fff;fill-opacity:1"/></g><path d="M272.008 94.703h2.222l-.093.36h-2.223l.094-.36" style="stroke:none;fill-rule:nonzero;fill:#fff;fill-opacity:1"/><g style="fill:#fff;fill-opacity:1" clip-path="url(#q)"><path d="m276.246 96.527 2.129-1.492c1.234-.844 1.71-1.535 1.71-2.484 0-.719-.296-1.13-.92-1.13-.442 0-.884.255-1.118.618.344.106.535.348.535.668a.64.64 0 0 1-.633.652c-.37 0-.617-.261-.617-.668 0-.773.871-1.425 1.965-1.425 1.18 0 1.797.617 1.797 1.363 0 .844-.668 1.418-2.996 2.875l-1.235.816v.024h2.23c.618 0 .837-.153 1.313-.91l.114.007-.485 1.696h-3.926l.137-.61" style="stroke:none;fill-rule:nonzero;fill:#fff;fill-opacity:1"/></g><g style="fill:#fff;fill-opacity:1" clip-path="url(#r)"><path d="M283.23 97.074c1.372 0 2.165-2.758 2.165-4.297 0-.859-.278-1.336-.88-1.336-1.37 0-2.16 2.77-2.16 4.305 0 .86.278 1.328.875 1.328zm0 .184c-1.074 0-1.82-.754-1.82-2.137 0-1.633 1.203-3.855 3.106-3.855 1.078 0 1.824.757 1.824 2.136 0 1.633-1.207 3.856-3.11 3.856" style="stroke:none;fill-rule:nonzero;fill:#fff;fill-opacity:1"/></g><g style="fill:#fff;fill-opacity:1" clip-path="url(#s)"><path d="m286.367 96.527 2.13-1.492c1.233-.844 1.71-1.535 1.71-2.484 0-.719-.297-1.13-.922-1.13-.441 0-.887.255-1.12.618.347.106.538.348.538.668a.64.64 0 0 1-.633.652c-.375 0-.617-.261-.617-.668 0-.773.867-1.425 1.961-1.425 1.184 0 1.8.617 1.8 1.363 0 .844-.671 1.418-2.995 2.875l-1.235.816v.024h2.23c.618 0 .837-.153 1.313-.91l.114.007-.485 1.696h-3.926l.137-.61" style="stroke:none;fill-rule:nonzero;fill:#fff;fill-opacity:1"/></g><g style="fill:#fff;fill-opacity:1" clip-path="url(#t)"><path d="M293.352 97.074c1.37 0 2.16-2.758 2.16-4.297 0-.859-.278-1.336-.875-1.336-1.371 0-2.16 2.77-2.16 4.305 0 .86.277 1.328.875 1.328zm0 .184c-1.075 0-1.825-.754-1.825-2.137 0-1.633 1.207-3.855 3.11-3.855 1.078 0 1.824.757 1.824 2.136 0 1.633-1.207 3.856-3.11 3.856" style="stroke:none;fill-rule:nonzero;fill:#fff;fill-opacity:1"/></g><path d="M253.367 39.805c0-1.867 1.492-3.813 3.723-3.813a2.76 2.76 0 0 1 1.535.453l.48-.425h.137l-.562 2.058h-.14c-.384-1.453-.626-1.922-1.5-1.922-1.442 0-2.606 2.13-2.606 3.848 0 1.25.617 1.996 1.746 1.996.86 0 1.632-.59 2.293-1.465l.129.094c-.61.86-1.504 1.71-2.813 1.71-1.398 0-2.422-1.023-2.422-2.534m6.625.305c1.606-.028 1.883-.739 1.883-1.313 0-.34-.172-.484-.434-.484-.605 0-1.238.859-1.449 1.796zm-.027.136a2.338 2.338 0 0 0-.043.488c0 .797.254 1.196.95 1.196.448 0 .944-.285 1.273-.727l.113.094c-.469.633-1.051.973-1.754.973-.79 0-1.5-.477-1.5-1.52 0-1.313 1.074-2.621 2.48-2.621.793 0 1.18.383 1.18.894 0 .676-.848 1.258-2.7 1.223m3.989 1.024c-.035.14-.058.261-.058.367 0 .277.222.355.894.312v.086c-.168.07-.66.219-1.043.219-.496 0-.746-.203-.746-.594 0-.11.023-.25.07-.398l.918-3.047.426-1.613c.07-.278-.086-.41-.73-.446v-.101l1.816-.09-1.547 5.305m2.449-1.16c1.606-.028 1.887-.739 1.887-1.313 0-.34-.176-.484-.437-.484-.606 0-1.239.859-1.45 1.796zm-.023.136a2.338 2.338 0 0 0-.043.488c0 .797.25 1.196.945 1.196.45 0 .946-.285 1.278-.727l.109.094c-.465.633-1.047.973-1.754.973-.789 0-1.5-.477-1.5-1.52 0-1.313 1.074-2.621 2.484-2.621.79 0 1.18.383 1.18.894 0 .676-.851 1.258-2.7 1.223m6.017-.781c0-.563-.215-.895-.676-.895-.278 0-.57.184-.824.418l-.704 2.719c.106.258.348.398.633.398.903 0 1.57-1.539 1.57-2.64zm-1.657 2.805c-.59 0-1.023-.137-1.484-.512l.52-1.781.851-3.375c.078-.278-.086-.41-.73-.446v-.101l1.832-.09-.79 2.805.028.02c.406-.427.816-.661 1.293-.661.597 0 1.058.46 1.058 1.32 0 1.32-1.086 2.82-2.578 2.82m6.715-3.542c0 .39-.234.66-.555.66-.296 0-.515-.149-.515-.461 0-.086.027-.25.113-.348-.336.02-.773.383-1.117.793l-.695 2.82h-.95l.418-1.406.54-1.988c.078-.277-.008-.406-.547-.442v-.105l1.57-.078-.285.937.015.02c.383-.531.895-.992 1.364-.992.425 0 .644.27.644.59m.809 2.163c0 .606.207.997.633.997.34 0 .652-.336.894-.762l.617-2.059c-.062-.433-.304-.738-.625-.738-.86 0-1.52 1.692-1.52 2.563zm2.37.38c-.054.183-.089.34-.089.453 0 .254.219.312.758.27v.085c-.227.086-.59.184-.88.184-.44 0-.683-.106-.683-.496 0-.07.008-.157.043-.293l-.02-.012c-.406.582-.78.809-1.284.809-.692 0-1.153-.512-1.153-1.391 0-1.36 1.18-2.75 2.336-2.75.504 0 .711.226.875.555l.156-.45.914-.105-.468 1.398-.504 1.743m3.257-2.864-.73 2.614c-.05.183-.078.332-.078.453 0 .277.156.398.477.398.21 0 .52-.05.773-.121v.086c-.277.164-.781.434-1.293.434-.598 0-.867-.262-.867-.72 0-.148.023-.312.074-.495l.777-2.649h-.777l.063-.191h.765l.371-1.285.95-.137-.454 1.422h1.086l-.062.191h-1.074m3.101-2.293c.227 0 .422.149.422.453 0 .399-.285.762-.64.762-.227 0-.434-.164-.434-.469 0-.398.297-.746.652-.746zm-.183 5.93c-.164.07-.625.219-1.008.219-.496 0-.746-.211-.746-.59 0-.121.023-.254.066-.41l.766-2.465c.09-.285-.137-.406-.676-.442v-.105l1.762-.078-.953 3.11a1.203 1.203 0 0 0-.079.378c0 .27.215.332.868.297v.086m1.546-3.246c.079-.277-.007-.406-.546-.442v-.105l1.57-.078-.258.844.016.015c.52-.527 1.136-.886 1.625-.886.535 0 .824.296.824.8a1.9 1.9 0 0 1-.098.582l-.59 1.832c-.05.164-.086.293-.086.391 0 .242.208.285.782.242v.086a2.592 2.592 0 0 1-.875.184c-.496 0-.758-.157-.758-.54 0-.105.027-.261.078-.417l.566-1.742c.06-.2.094-.348.094-.504 0-.27-.129-.426-.46-.426-.337 0-.747.226-1.153.582l-.738 2.976h-.95l.418-1.406.54-1.988m4.812 2.082c0 .61.242.906.695.906.32 0 .555-.176.79-.523l.66-2.23c-.098-.364-.34-.704-.688-.704-.895 0-1.457 1.692-1.457 2.55zm-.93-.078c0-1.266 1.102-2.672 2.266-2.672.496 0 .738.2.937.496l.141-.39.922-.106-.473 1.406-.761 2.719c-.332 1.152-.86 1.676-2.149 1.676-.941 0-1.402-.426-1.402-.844 0-.363.242-.625.57-.625.305 0 .48.207.48.496 0 .2-.132.39-.316.492.125.203.375.313.664.313.66 0 1.031-.528 1.301-1.457l.207-.739-.023-.007c-.348.418-.672.632-1.164.632-.653 0-1.2-.504-1.2-1.39" style="stroke:none;fill-rule:nonzero;fill:#fff;fill-opacity:1"/></g></svg>