<?xml version="1.0" encoding="UTF-8" standalone="no"?>
<!-- Created with Inkscape (http://www.inkscape.org/) -->

<svg
   xmlns:dc="http://purl.org/dc/elements/1.1/"
   xmlns:cc="http://creativecommons.org/ns#"
   xmlns:rdf="http://www.w3.org/1999/02/22-rdf-syntax-ns#"
   xmlns:svg="http://www.w3.org/2000/svg"
   xmlns="http://www.w3.org/2000/svg"
   xmlns:sodipodi="http://sodipodi.sourceforge.net/DTD/sodipodi-0.dtd"
   xmlns:inkscape="http://www.inkscape.org/namespaces/inkscape"
   version="1.1"
   id="svg2"
   xml:space="preserve"
   width="704.20001"
   height="797.96002"
   viewBox="0 0 704.20001 797.96002"
   sodipodi:docname="jcu-logo-vertical-mono-rev.svg"
   inkscape:version="0.92.2 5c3e80d, 2017-08-06"><metadata
     id="metadata8"><rdf:RDF><cc:Work
         rdf:about=""><dc:format>image/svg+xml</dc:format><dc:type
           rdf:resource="http://purl.org/dc/dcmitype/StillImage" /><dc:title></dc:title></cc:Work></rdf:RDF></metadata><defs
     id="defs6" /><sodipodi:namedview
     pagecolor="#ffffff"
     bordercolor="#666666"
     borderopacity="1"
     objecttolerance="10"
     gridtolerance="10"
     guidetolerance="10"
     inkscape:pageopacity="0"
     inkscape:pageshadow="2"
     inkscape:window-width="640"
     inkscape:window-height="480"
     id="namedview4"
     showgrid="false"
     inkscape:zoom="0.57067617"
     inkscape:cx="18.812023"
     inkscape:cy="362.97426"
     inkscape:current-layer="g12" /><g
     id="g10"
     inkscape:groupmode="layer"
     inkscape:label="ink_ext_XXXXXX"
     transform="matrix(1.3333333,0,0,-1.3333333,0,797.96)"><g
       id="g12"
       transform="scale(0.1)"><path
         d="m 132.563,1953.36 c 0,91.69 -1.684,108.4 -110.9185,124.19 v 12.53 H 308.566 v -12.53 c -100.078,-13.28 -102.64,-38.33 -102.64,-124.19 V 1654.85 C 206.805,1493.06 187.637,1457.19 6.64453,1379.72 L 0,1393.88 c 122.543,57.53 132.563,147.55 132.563,297.58 v 261.9"
         style="fill:#ffffff;fill-opacity:1;fill-rule:nonzero;stroke:none"
         id="path14"
         inkscape:connector-curvature="0" /><path
         d="m 448.074,1760.75 c -14.16,-41.72 -50.965,-128.49 -50.965,-168.46 0,-50.88 57.563,-50.88 95.141,-56.71 V 1523.1 H 263.766 v 12.48 c 74.25,20.02 81.714,36.7 107.55,101.78 l 94.18,245.96 50.106,135.9 c 7.472,21.71 18.296,41.69 9.144,57.51 22.527,9.21 43.332,24.16 60.879,45.01 l 183.422,-488.56 c 22.48,-60.9 36.719,-85.08 103.394,-97.6 V 1523.1 H 627.324 v 12.48 c 29.188,6.67 64.219,15.9 64.219,53.36 0,35.04 -31.727,113.43 -53.379,171.81 z m 92.543,255.14 -78.41,-216.77 h 165.117 z"
         style="fill:#ffffff;fill-opacity:1;fill-rule:nonzero;stroke:none"
         id="path16"
         inkscape:connector-curvature="0" /><path
         d="m 1275.97,1644.83 150.94,331.88 c 20.85,45.78 32.49,87.56 14.13,100.02 l 1.74,13.38 h 183.32 v -12.55 c -53.29,-10.83 -85.78,-30.82 -82.48,-89.2 l 18.35,-303.53 c 9.16,-115.85 9.16,-134.26 98.3,-149.27 v -12.46 h -274.2 v 12.46 c 64.19,10.04 105.01,17.53 100.85,90.91 l -22.53,364.37 h -1.64 L 1250.19,1523.1 h -9.16 l -197.67,448.57 h -1.58 c -13.42,-127.54 -20.07,-220.1 -25.93,-349.27 -1.63,-32.55 -0.81,-70.13 100.09,-86.84 V 1523.1 H 883.379 v 12.46 c 74.191,12.54 81.621,48.43 93.375,115.91 l 30.806,234.33 10.83,113.39 c 5.05,55.07 -42.515,74.24 -91.683,78.37 v 12.55 h 180.073 l 0.82,-9.19 c -18.37,-19.14 4.12,-69.21 10.01,-82.55 l 158.36,-353.54"
         style="fill:#ffffff;fill-opacity:1;fill-rule:nonzero;stroke:none"
         id="path18"
         inkscape:connector-curvature="0" /><path
         d="m 1694.66,1535.56 c 100.09,13.4 100.89,38.43 103.28,124.27 v 293.53 c -2.39,85.89 -3.19,110.91 -103.28,124.19 v 12.53 h 447.71 l -10.02,-128.36 h -12.44 c -5.9,107.51 -83.45,108.4 -167.61,108.4 h -80.88 v -237.63 h 86.67 c 62.54,0 110.1,4.97 119.24,76.63 h 12.51 v -185.9 h -12.51 c -10.87,73.31 -56.7,74.27 -119.24,74.27 h -86.67 v -136.8 c 0,-49.14 -11.68,-117.55 125.05,-117.55 105.08,0 156.73,39.92 177.58,145.06 h 12.46 c -0.8,-63.37 -11.58,-115.08 -28.26,-165.1 h -463.59 v 12.46"
         style="fill:#ffffff;fill-opacity:1;fill-rule:nonzero;stroke:none"
         id="path20"
         inkscape:connector-curvature="0" /><path
         d="m 2568.49,1943.35 h -13.31 c -13.34,67.53 -35,132.58 -117.55,132.58 -53.45,0 -97.57,-36.68 -97.57,-91.75 0,-144.2 262.62,-139.21 262.62,-307.67 0,-107.51 -106.76,-163.44 -202.58,-163.44 -50.97,0 -104.3,15 -146.71,42.53 l -24.26,141.76 h 14.96 c 20.85,-80.07 76.73,-159.28 168.47,-159.28 61.63,0 110.13,36.67 110.13,101.72 0,148.44 -255.15,135.09 -255.15,301.88 0,97.57 96.71,159.21 185.85,159.21 42.53,0 85.08,-12.45 121.81,-32.45 l -6.71,-125.09"
         style="fill:#ffffff;fill-opacity:1;fill-rule:nonzero;stroke:none"
         id="path22"
         inkscape:connector-curvature="0" /><path
         d="m 3306.56,1918.33 h -12.54 c -15.87,94.23 -70.94,161.71 -170.9,161.71 -152.63,0 -238.58,-124.99 -238.58,-268.44 0,-164.33 125.87,-278.46 246.92,-278.46 109.11,0 152.49,80 190.02,170.05 l 11.76,-5.01 c -10.12,-50.91 -25.88,-100.9 -45.92,-149.25 -53.34,-25.83 -110.91,-35.86 -170.14,-35.86 -174.31,0 -329.36,100.07 -329.36,288.52 0,148.41 115.9,298.52 336.06,298.52 63.41,0 127.59,-12.55 182.68,-45.05 v -136.73"
         style="fill:#ffffff;fill-opacity:1;fill-rule:nonzero;stroke:none"
         id="path24"
         inkscape:connector-curvature="0" /><path
         d="m 3987.03,1806.56 c 0,-179.27 -130.08,-293.43 -305.2,-293.43 -175.87,0 -305.21,114.16 -305.21,294.24 0,177.68 130.14,292.76 304.41,292.76 213.5,0 306,-145.11 306,-293.57 m -513.63,20.89 c 0,-129.25 68.36,-294.33 218.45,-294.33 137.52,0 198.51,140.09 198.51,259.26 -2.56,147.68 -88.45,287.68 -216.04,287.68 -143.44,0 -200.92,-140 -200.92,-252.61"
         style="fill:#ffffff;fill-opacity:1;fill-rule:nonzero;stroke:none"
         id="path26"
         inkscape:connector-curvature="0" /><path
         d="m 4656.68,1806.56 c 0,-179.27 -130.05,-293.43 -305.14,-293.43 -175.97,0 -305.22,114.16 -305.22,294.24 0,177.68 130.1,292.76 304.42,292.76 213.42,0 305.94,-145.11 305.94,-293.57 m -513.64,20.89 c 0,-129.25 68.4,-294.33 218.48,-294.33 137.65,0 198.49,140.09 198.49,259.26 -2.55,147.68 -88.43,287.68 -216.05,287.68 -143.29,0 -200.92,-140 -200.92,-252.61"
         style="fill:#ffffff;fill-opacity:1;fill-rule:nonzero;stroke:none"
         id="path28"
         inkscape:connector-curvature="0" /><path
         d="m 4848.76,1659.83 c 2.47,-85.87 3.29,-110.9 110.91,-124.25 v -12.48 h -287.75 v 12.48 c 100.15,13.35 100.91,38.38 103.4,124.25 v 293.53 c -2.49,85.89 -3.25,110.91 -103.4,124.19 v 12.56 h 265.15 v -12.56 c -85.02,-13.28 -85.84,-38.3 -88.31,-124.19 z m 376.87,430.28 v -12.56 c -95.06,-9.99 -158.41,-90.87 -220.14,-155.05 l -78.37,-83.4 169.29,-186.74 c 50.87,-55.9 110.93,-105.88 185.06,-126.72 l -4.17,-12.57 c -145.07,11.7 -168.38,15.88 -246.86,101.74 l -170.08,185.16 134.28,145.86 c 87.53,98.37 70.85,125.91 14.95,131.72 v 12.56 h 216.04"
         style="fill:#ffffff;fill-opacity:1;fill-rule:nonzero;stroke:none"
         id="path30"
         inkscape:connector-curvature="0" /><path
         d="m 672.887,1307.5 v -12.46 c -75.879,-8.34 -80.903,-55.11 -84.172,-165.14 l -5.082,-182.58 c -2.43,-107.672 -48.309,-216.8 -233.414,-216.8 -258.4417,0 -231.785,186.8 -231.785,253.429 v 186.801 c -2.563,85.96 -3.368,110.88 -103.4496,124.29 v 12.46 H 302.719 v -12.46 C 193.434,1279.17 191.797,1262.49 191.797,1170.75 V 999.82 c 0,-15.871 -26.738,-231.011 201.746,-231.011 180.129,0 162.629,171.781 162.629,273.571 v 87.52 c 0,105.91 -8.324,154.2 -125.039,165.14 v 12.46 h 241.754"
         style="fill:#ffffff;fill-opacity:1;fill-rule:nonzero;stroke:none"
         id="path32"
         inkscape:connector-curvature="0" /><path
         d="m 1253.09,871.398 -4.17,304.372 c -0.86,79.23 -22.48,102.59 -116.71,119.27 v 12.46 h 227.52 v -12.46 c -57.52,-7.53 -68.3,-39.23 -74.96,-93.44 -11.7,-91.65 -7.53,-292.67 -3.36,-474.44 l -10.78,-2.551 C 1137.2,882.16 988.797,1028.21 847.871,1179.99 v -153.54 c 0,-206.751 -4.976,-249.251 115.906,-273.419 V 740.43 H 714.539 v 12.601 c 112.539,11.617 108.32,88.43 108.32,277.589 v 125.11 c 0,83.4 -13.324,115.95 -119.199,139.31 v 12.46 H 841.215 L 1253.09,871.398"
         style="fill:#ffffff;fill-opacity:1;fill-rule:nonzero;stroke:none"
         id="path34"
         inkscape:connector-curvature="0" /><path
         d="m 1572.09,877.18 c 2.5,-85.809 3.42,-110.871 103.38,-124.2 v -12.55 h -280.1 v 12.55 c 99.99,13.329 100.91,38.391 103.34,124.2 v 293.57 c -2.43,85.96 -3.35,110.88 -103.34,124.29 v 12.46 h 280.1 v -12.46 c -99.96,-13.41 -100.88,-38.33 -103.38,-124.29 V 877.18"
         style="fill:#ffffff;fill-opacity:1;fill-rule:nonzero;stroke:none"
         id="path36"
         inkscape:connector-curvature="0" /><path
         d="m 2320.02,1307.5 v -12.46 c -78.42,-6.73 -102.55,-72.55 -154.24,-193.48 L 2006.44,721.332 h -11.63 l -188.39,451.028 c -25.05,60.99 -44.23,114.34 -118.41,122.68 v 12.46 h 264.29 v -12.46 c -117.6,-11.7 -79.24,-78.42 -57.57,-130.98 l 133.37,-321.849 98.52,235.989 c 71.6,170.97 84.96,198.46 -41.75,216.84 v 12.46 h 235.15"
         style="fill:#ffffff;fill-opacity:1;fill-rule:nonzero;stroke:none"
         id="path38"
         inkscape:connector-curvature="0" /><path
         d="m 2327.53,753.031 c 100.15,13.278 100.96,38.34 103.4,124.149 v 293.57 c -2.44,85.96 -3.25,110.88 -103.4,124.29 v 12.46 h 447.81 l -9.98,-128.41 h -12.53 c -5.9,107.61 -83.45,108.42 -167.66,108.42 h -80.82 v -237.65 h 86.72 c 62.43,0 110.08,4.98 119.2,76.72 h 12.58 V 940.59 h -12.58 c -10.82,73.35 -56.77,74.16 -119.2,74.16 h -86.72 V 878.039 c 0,-49.141 -11.68,-117.519 125.11,-117.519 104.98,0 156.75,39.992 177.55,145.05 h 12.51 c -0.83,-63.359 -11.65,-115.058 -28.33,-165.14 h -463.66 v 12.601"
         style="fill:#ffffff;fill-opacity:1;fill-rule:nonzero;stroke:none"
         id="path40"
         inkscape:connector-curvature="0" /><path
         d="m 2955.31,1135.78 c 0,127.56 -4.2,146.71 -97.57,155.09 v 11.61 l 203.47,6.68 c 210.09,6.69 226.77,-95.86 226.77,-135.9 0,-70.04 -43.34,-110.08 -103.35,-136.81 l 4.12,-5.83 C 3252.98,918.129 3333,774.691 3470.66,746.262 l -2.57,-12.422 c -88.42,4.172 -153.41,1.621 -201.77,51.648 -55.04,57.532 -98.37,130.883 -115.86,166.852 -33.42,69.14 -63.4,49.09 -121.77,59.19 V 877.18 c 0,-91.692 1.61,-108.321 115.87,-124.149 V 740.43 h -292.65 v 12.601 c 100.03,13.278 100.84,38.34 103.4,124.149 z m 73.38,-110.13 c 80.02,0.8 173.45,37.53 173.45,130.08 0,97.61 -85.92,136.8 -173.45,135.95 v -266.03"
         style="fill:#ffffff;fill-opacity:1;fill-rule:nonzero;stroke:none"
         id="path42"
         inkscape:connector-curvature="0" /><path
         d="m 3786.16,1160.75 h -13.32 c -13.34,67.57 -35.04,132.63 -117.54,132.63 -53.41,0 -97.52,-36.67 -97.52,-91.78 0,-144.25 262.57,-139.23 262.57,-307.741 0,-107.468 -106.72,-163.339 -202.58,-163.339 -50.87,0 -104.3,14.98 -146.83,42.558 l -24.07,141.633 h 14.92 c 20.9,-80.031 76.7,-159.223 168.51,-159.223 61.65,0 109.96,36.641 109.96,101.66 0,148.452 -255.06,135.141 -255.06,301.942 0,97.62 96.65,159.22 185.85,159.22 42.58,0 85.11,-12.46 121.83,-32.51 l -6.72,-125.05"
         style="fill:#ffffff;fill-opacity:1;fill-rule:nonzero;stroke:none"
         id="path44"
         inkscape:connector-curvature="0" /><path
         d="m 4030,877.18 c 2.46,-85.809 3.36,-110.871 103.4,-124.2 v -12.55 h -280.24 v 12.55 c 100.17,13.329 100.97,38.391 103.51,124.2 v 293.57 c -2.54,85.96 -3.34,110.88 -103.51,124.29 v 12.46 h 280.24 v -12.46 C 4033.36,1281.63 4032.46,1256.71 4030,1170.75 V 877.18"
         style="fill:#ffffff;fill-opacity:1;fill-rule:nonzero;stroke:none"
         id="path46"
         inkscape:connector-curvature="0" /><path
         d="m 4684.05,1333.33 h 6.59 l 11.7,-155.95 -11.7,-2.46 c -29.17,103.44 -74.94,107.57 -170.85,107.57 h -50.16 V 897.23 c 0,-103.3 5.09,-130.921 116.85,-144.199 v -12.652 h -306.85 v 12.652 c 111.69,13.278 116.66,40.899 116.66,144.199 v 385.26 h -49.92 c -95.98,0 -141.84,-4.13 -171.08,-107.57 l -11.54,2.46 11.54,155.95 h 6.75 l 8.34,-7.49 c 20.87,-19.19 24.24,-18.34 51.67,-18.34 h 381.99 c 27.46,0 30.8,-0.85 51.65,18.34 l 8.36,7.49"
         style="fill:#ffffff;fill-opacity:1;fill-rule:nonzero;stroke:none"
         id="path48"
         inkscape:connector-curvature="0" /><path
         d="m 5252.87,1307.5 v -12.46 c -72.56,-5.87 -108.34,-45.87 -143.43,-105.95 l -98.37,-195.051 v -94.398 c 1.7,-95.762 3.31,-129.981 110.05,-146.61 V 740.43 h -293.54 v 12.601 c 106.77,16.629 108.5,50.848 110.06,146.61 v 66.82 l -86.65,189.269 c -31.72,70.03 -54.23,129.27 -138.49,139.31 v 12.46 h 230.19 v -12.46 c -68.41,-9.24 -59.21,-36.72 -32.46,-95.1 l 83.3,-180.12 72.53,137.61 c 51.7,96.72 45.04,128.37 -27.41,137.61 v 12.46 h 214.22"
         style="fill:#ffffff;fill-opacity:1;fill-rule:nonzero;stroke:none"
         id="path50"
         inkscape:connector-curvature="0" /><path
         d="M 114.852,575.949 H 5200.06 V 558.941 H 114.852 v 17.008"
         style="fill:#ffffff;fill-opacity:1;fill-rule:nonzero;stroke:none"
         id="path52"
         inkscape:connector-curvature="0" /><path
         d="m 1790.65,4005.97 c -58.87,-33.98 -142.99,-55.19 -236.42,-55.19 -93.59,0 -177.62,21.21 -236.51,55.13 -58.85,33.93 -143.05,55.11 -236.41,55.11 -93.431,0 -177.767,-21.18 -236.486,-55.11 -58.941,-33.92 -143.058,-55.13 -236.566,-55.13 -93.426,0 -177.547,21.21 -236.352,55.13 -58.937,33.93 -143,55.11 -236.558,55.11 -8.743,0 -17.399,-0.33 -26.121,-0.7 v -218.83 c 0,-33.14 1.211,-65 3.089,-96.4 7.649,0.27 15.317,0.67 23.032,0.67 93.558,0 177.621,-21.24 236.558,-55.26 58.805,-33.88 142.926,-55.05 236.352,-55.05 93.508,0 177.625,21.17 236.566,55.05 58.719,34.02 143.055,55.26 236.486,55.26 93.36,0 177.56,-21.24 236.41,-55.26 58.89,-33.88 142.92,-55.05 236.51,-55.05 93.43,0 177.55,21.17 236.42,55.12 58.87,33.95 142.99,55.19 236.35,55.19 7.93,0 15.51,-0.4 23.16,-0.67 1.88,31.4 3.02,63.26 3.02,96.4 v 218.83 c -8.59,0.37 -17.18,0.7 -26.18,0.7 -93.36,0 -177.48,-21.18 -236.35,-55.05"
         style="fill:#ffffff;fill-opacity:1;fill-rule:nonzero;stroke:none"
         id="path54"
         inkscape:connector-curvature="0" /><path
         d="m 1554.23,3320.09 c -93.51,0 -177.69,21.18 -236.51,55.06 -58.85,33.95 -143.05,55.26 -236.41,55.26 -93.431,0 -177.697,-21.31 -236.486,-55.26 -58.941,-33.88 -143.058,-55.06 -236.566,-55.06 -93.426,-0.07 -177.547,21.18 -236.352,55.06 -52.383,30.25 -124.668,50.28 -205.601,54.25 41.406,-138.62 102.718,-255.19 175.086,-354.48 10.757,-4.77 20.992,-9.62 30.515,-15.12 58.805,-33.89 142.926,-55.2 236.352,-55.13 93.508,0 177.625,21.24 236.566,55.13 58.789,33.94 143.055,55.32 236.486,55.32 93.36,0 177.56,-21.24 236.41,-55.32 58.82,-33.89 143,-55.13 236.51,-55.13 93.43,0 177.55,21.24 236.42,55.13 9.51,5.57 19.85,10.41 30.52,15.19 72.42,99.22 133.55,215.79 175.02,354.41 -81.02,-3.97 -153.31,-24 -205.54,-54.25 -58.87,-33.88 -142.99,-55.06 -236.42,-55.06"
         style="fill:#ffffff;fill-opacity:1;fill-rule:nonzero;stroke:none"
         id="path56"
         inkscape:connector-curvature="0" /><path
         d="m 1317.72,2744.51 c -58.85,33.81 -143.05,55.12 -236.41,55.12 -93.431,0 -177.697,-21.31 -236.486,-55.12 -28.371,-16.4 -62.554,-29.58 -100.789,-39.13 135.559,-90.62 260.885,-157.23 337.275,-221.04 76.33,63.81 201.65,130.42 337.21,221.04 -38.23,9.55 -72.43,22.73 -100.8,39.13"
         style="fill:#ffffff;fill-opacity:1;fill-rule:nonzero;stroke:none"
         id="path58"
         inkscape:connector-curvature="0" /><path
         d="m 1790.65,4636.7 c -58.87,-33.95 -142.99,-55.29 -236.42,-55.29 -93.59,0 -177.62,21.34 -236.51,55.29 -58.85,33.81 -143.05,55.07 -236.41,55.07 -93.431,0 -177.767,-21.26 -236.486,-55.07 -58.941,-33.95 -143.058,-55.29 -236.566,-55.29 -93.426,0 -177.547,21.34 -236.352,55.29 -58.937,33.81 -143,55.07 -236.558,55.07 -8.743,0 -17.399,-0.3 -26.121,-0.67 v -315.35 c 8.722,0.3 17.378,0.6 26.121,0.6 93.558,0 177.621,-21.16 236.558,-55.05 58.805,-34.04 142.926,-55.21 236.352,-55.21 93.508,0 177.625,21.17 236.566,55.21 58.719,33.89 143.055,55.05 236.486,55.05 93.36,0 177.56,-21.16 236.41,-55.05 58.89,-34.04 142.92,-55.21 236.51,-55.21 93.43,0 177.55,21.17 236.42,55.21 58.87,33.89 142.99,55.05 236.35,55.05 9,0 17.59,-0.3 26.18,-0.67 v 315.42 c -8.59,0.37 -17.18,0.67 -26.18,0.67 -93.36,0 -177.48,-21.26 -236.35,-55.07"
         style="fill:#ffffff;fill-opacity:1;fill-rule:nonzero;stroke:none"
         id="path60"
         inkscape:connector-curvature="0" /><path
         d="m 1081.31,5284.31 c -176.001,0 -318.669,-142.65 -318.669,-318.63 0,-15.86 1.597,-31.39 3.812,-46.62 29.242,8.82 55.715,19.96 78.371,33.03 58.719,33.8 143.055,55.07 236.486,55.07 93.36,0 177.56,-21.27 236.41,-55.07 22.67,-13.09 49.16,-24.21 78.43,-33.09 2.24,15.29 3.79,30.78 3.79,46.68 0,175.98 -142.66,318.63 -318.63,318.63 z m -434.279,-93.59 c -6.351,-0.94 -12.656,-2.69 -19.113,-3.88 -16.855,-2.86 -32.82,-3.27 -48.953,-2.66 -16.52,0.54 -35.996,4.51 -47.008,11.64 -2.809,-16.59 17.715,-38.48 35.109,-50.21 11.899,-8.15 24.454,-15.15 37.762,-19.54 5.231,-1.86 10.418,-2.75 15.61,-4.69 15.953,-5.57 31.601,-15.8 43.984,-26.77 16.121,-14.21 29.465,-32.26 41.797,-48.19 9.898,46.52 28.508,90.12 53.836,128.77 -16.809,6 -34.992,12.49 -54.84,15.53 -17.531,2.75 -38.32,3.09 -58.184,0 z m 1162.149,-225.1 -349.82,62.68 c 3.47,-20.36 5.7,-41.34 5.7,-62.65 0,-21.33 -2.23,-42.13 -5.7,-62.62 z m -1106.27,62.68 -349.621,-62.68 349.758,-62.59 c -3.195,20.49 -5.547,41.29 -5.547,62.62 0,21.31 2.352,42.29 5.41,62.65 z m 844.6,85.29 c 3.9,5.33 6.98,11.03 10.91,16.22 9.67,14.03 20.72,25.53 32.38,36.51 12.15,11.22 28.79,22.37 41.77,25.1 -9.87,13.48 -39.91,14.73 -60.52,10.68 -14.13,-2.78 -27.56,-6.52 -40.49,-12.86 -5.04,-2.47 -9.35,-5.53 -14.42,-7.92 -15.19,-7.14 -33.39,-11.11 -50.13,-12.03 -21.23,-1.44 -43.51,1.99 -63.5,4.61 h -0.31 c 25.21,-38.87 43.61,-82.32 53.49,-129.14 16.22,7.64 33.36,15.94 49.56,27.69 14.39,10.47 29.36,24.94 41.26,41.14 z M 863.008,5280.95 643.066,5404.02 765.75,5183.98 c 26.59,38 59.328,70.86 97.258,96.97 z m 533.722,-96.97 122.73,220.04 -219.88,-123.07 c 37.86,-26.11 70.75,-58.97 97.15,-96.97 z m -250.91,159.61 -64.51,641.11 -64.59,-641.11 c 21.09,3.43 42.45,5.76 64.59,5.76 21.93,0 43.36,-2.33 64.51,-5.76 z m -288.125,72.35 c 2.422,-4.84 5.516,-9.36 7.868,-14.35 7.175,-15.29 11.261,-33.48 12.152,-49.97 1.246,-21.49 -2.02,-43.76 -4.621,-63.59 v -0.44 c 38.668,25.23 82.336,43.73 129.076,53.56 -7.654,16.2 -15.838,33.56 -27.701,49.56 -10.469,14.42 -25.028,29.34 -41.063,41.03 -5.328,3.94 -10.953,7.16 -16.367,10.89 -13.996,9.9 -25.394,20.85 -36.504,32.52 -11.191,12.22 -22.305,28.84 -24.972,41.88 -13.594,-9.96 -14.676,-39.9 -10.672,-60.62 2.859,-14.28 6.574,-27.66 12.804,-40.47 z m 448.745,-74.32 c 2.66,17.58 2.99,38.47 0,58.39 -0.97,6.33 -2.95,12.6 -4.01,19.04 -2.85,16.88 -3.35,32.64 -2.85,48.84 0.77,16.49 4.46,36.22 11.87,47.26 -16.5,2.52 -38.43,-17.83 -50.24,-35.28 -8.21,-12.13 -15.05,-24.33 -19.56,-37.88 -1.83,-4.97 -2.87,-10.47 -4.58,-15.43 -5.73,-15.96 -15.94,-31.76 -26.83,-44.24 -14.31,-15.79 -32.25,-29.36 -48.42,-41.41 0,0 0,-0.13 -0.06,-0.13 46.74,-10.12 90.26,-28.57 129.07,-53.91 5.98,16.92 12.24,35.14 15.61,54.75"
         style="fill:#ffffff;fill-opacity:1;fill-rule:nonzero;stroke:none"
         id="path62"
         inkscape:connector-curvature="0" /><path
         d="M 390.238,166.789 320.41,328.371 251.156,166.789 Z M 288.672,413.191 h 65.773 L 532.199,6.35156 H 457.176 L 416.203,103.879 H 225.18 L 183.641,6.35156 H 110.918 L 288.672,413.191"
         style="fill:#ffffff;fill-opacity:1;fill-rule:nonzero;stroke:none"
         id="path64"
         inkscape:connector-curvature="0" /><path
         d="m 556.883,177.75 v 232.559 h 70.988 v -229.68 c 0,-75.027 38.656,-114.8399 102.149,-114.8399 62.894,0 101.566,37.4999 101.566,111.9609 v 232.559 h 70.977 V 181.23 C 902.563,60.5898 834.469,0 728.859,0 623.832,0 556.883,60.5898 556.883,177.75"
         style="fill:#ffffff;fill-opacity:1;fill-rule:nonzero;stroke:none"
         id="path66"
         inkscape:connector-curvature="0" /><path
         d="M 944.578,65.2305 987.273,116 c 38.677,-33.4609 77.907,-52.5312 127.547,-52.5312 43.86,0 71.56,20.7929 71.56,50.8012 v 1.171 c 0,28.848 -16.16,44.411 -91.18,61.707 -85.98,20.801 -134.47,46.211 -134.47,120.641 v 1.16 c 0,69.231 57.72,117.153 137.93,117.153 58.85,0 105.6,-17.903 146.59,-50.801 l -38.09,-53.672 c -36.36,27.133 -72.71,41.562 -109.65,41.562 -41.56,0 -65.79,-21.351 -65.79,-47.89 v -1.153 c 0,-31.179 18.47,-45.007 96.37,-63.48 85.41,-20.789 129.27,-51.367 129.27,-118.316 v -1.153 c 0,-75.5974 -59.44,-120.609156 -144.27,-120.609156 -61.74,0 -120.039,21.351556 -168.512,64.640656"
         style="fill:#ffffff;fill-opacity:1;fill-rule:nonzero;stroke:none"
         id="path68"
         inkscape:connector-curvature="0" /><path
         d="m 1422.88,344.52 h -128.11 v 65.789 h 327.79 V 344.52 H 1494.45 V 6.35156 h -71.57 V 344.52"
         style="fill:#ffffff;fill-opacity:1;fill-rule:nonzero;stroke:none"
         id="path70"
         inkscape:connector-curvature="0" /><path
         d="m 1860.79,210.059 c 50.78,0 83.1,26.57 83.1,67.543 v 1.16 c 0,43.258 -31.16,66.918 -83.69,66.918 H 1756.9 V 210.059 Z m -174.86,200.25 h 180.05 c 50.79,0 90.6,-14.989 116.58,-40.368 21.35,-21.953 33.45,-51.961 33.45,-87.14 v -1.16 c 0,-66.391 -39.8,-106.2 -95.79,-122.36 L 2029.29,6.35156 h -84.25 L 1845.78,147.172 H 1756.9 V 6.35156 h -70.97 V 410.309"
         style="fill:#ffffff;fill-opacity:1;fill-rule:nonzero;stroke:none"
         id="path72"
         inkscape:connector-curvature="0" /><path
         d="m 2383.5,166.789 -69.83,161.582 -69.25,-161.582 z m -101.57,246.402 h 65.78 L 2525.46,6.35156 h -75.03 L 2409.46,103.879 H 2218.43 L 2176.9,6.35156 h -72.73 L 2281.93,413.191"
         style="fill:#ffffff;fill-opacity:1;fill-rule:nonzero;stroke:none"
         id="path74"
         inkscape:connector-curvature="0" /><path
         d="m 2598.61,410.309 h 70.97 V 70.9883 h 212.37 V 6.35156 H 2598.61 V 410.309"
         style="fill:#ffffff;fill-opacity:1;fill-rule:nonzero;stroke:none"
         id="path76"
         inkscape:connector-curvature="0" /><path
         d="m 2948.22,410.309 h 70.96 V 6.35156 h -70.96 V 410.309"
         style="fill:#ffffff;fill-opacity:1;fill-rule:nonzero;stroke:none"
         id="path78"
         inkscape:connector-curvature="0" /><path
         d="m 3368.29,166.789 -69.83,161.582 -69.25,-161.582 z m -101.57,246.402 h 65.78 L 3510.26,6.35156 h -75.03 L 3394.26,103.879 H 3203.24 L 3161.69,6.35156 h -72.72 L 3266.72,413.191"
         style="fill:#ffffff;fill-opacity:1;fill-rule:nonzero;stroke:none"
         id="path80"
         inkscape:connector-curvature="0" /></g></g></svg>