<?xml version="1.0" encoding="UTF-8" standalone="no"?>
<svg
   xmlns:dc="http://purl.org/dc/elements/1.1/"
   xmlns:cc="http://creativecommons.org/ns#"
   xmlns:rdf="http://www.w3.org/1999/02/22-rdf-syntax-ns#"
   xmlns:svg="http://www.w3.org/2000/svg"
   xmlns="http://www.w3.org/2000/svg"
   xmlns:sodipodi="http://sodipodi.sourceforge.net/DTD/sodipodi-0.dtd"
   xmlns:inkscape="http://www.inkscape.org/namespaces/inkscape"
   viewBox="0 0 733.25067 769.96185"
   height="769.96185"
   width="733.25067"
   xml:space="preserve"
   id="svg2"
   version="1.1"
   sodipodi:docname="jcu-logo-shield.svg"
   inkscape:version="0.92.2 5c3e80d, 2017-08-06"><sodipodi:namedview
     pagecolor="#ffffff"
     bordercolor="#666666"
     borderopacity="1"
     objecttolerance="10"
     gridtolerance="10"
     guidetolerance="10"
     inkscape:pageopacity="0"
     inkscape:pageshadow="2"
     inkscape:window-width="640"
     inkscape:window-height="480"
     id="namedview4915"
     showgrid="false"
     inkscape:zoom="0.50586922"
     inkscape:cx="-4.0437804"
     inkscape:cy="317.19167"
     inkscape:current-layer="g14" /><metadata
     id="metadata8"><rdf:RDF><cc:Work
         rdf:about=""><dc:format>image/svg+xml</dc:format><dc:type
           rdf:resource="http://purl.org/dc/dcmitype/StillImage" /><dc:title /></cc:Work></rdf:RDF></metadata><defs
     id="defs6"><clipPath
       id="clipPath18"
       clipPathUnits="userSpaceOnUse"><path
         id="path16"
         d="M 0,688 H 688 V 0 H 0 Z" /></clipPath></defs><g
     transform="matrix(1.3333333,0,0,-1.3333333,-99.121064,841.27851)"
     id="g10"><g
       id="g12"><g
         clip-path="url(#clipPath18)"
         id="g14"><g
           style="fill:#0066b3;fill-opacity:1"
           transform="translate(580.9678,304.5184)"
           id="g20"><path
             id="path22"
             style="fill:#0066b3;fill-opacity:1;fill-rule:nonzero;stroke:none"
             d="m 0,0 c -9.713,-5.606 -23.59,-9.105 -39.003,-9.105 -15.44,0 -29.304,3.499 -39.019,9.094 -9.709,5.598 -23.6,9.092 -39.002,9.092 -15.413,0 -29.327,-3.494 -39.014,-9.092 -9.724,-5.595 -23.601,-9.094 -39.027,-9.094 -15.414,0 -29.29,3.499 -38.992,9.094 -9.723,5.598 -23.591,9.092 -39.027,9.092 -1.441,0 -2.87,-0.053 -4.309,-0.114 v -36.102 c 0,-5.468 0.2,-10.725 0.51,-15.905 1.262,0.045 2.527,0.112 3.799,0.112 15.436,0 29.304,-3.505 39.027,-9.116 9.702,-5.59 23.578,-9.083 38.992,-9.083 15.426,0 29.303,3.493 39.027,9.083 9.687,5.611 23.601,9.116 39.014,9.116 15.402,0 29.293,-3.505 39.002,-9.116 9.715,-5.59 23.579,-9.083 39.019,-9.083 15.413,0 29.29,3.493 39.003,9.093 9.712,5.601 23.59,9.106 38.991,9.106 1.309,0 2.56,-0.067 3.821,-0.112 0.31,5.18 0.499,10.437 0.499,15.905 V 8.967 C 41.895,9.028 40.478,9.081 38.991,9.081 23.59,9.081 9.712,5.587 0,0" /></g><g
           style="fill:#0066b3;fill-opacity:1"
           transform="translate(541.9648,191.3655)"
           id="g24"><path
             id="path26"
             style="fill:#0066b3;fill-opacity:1;fill-rule:nonzero;stroke:none"
             d="m 0,0 c -15.427,0 -29.314,3.493 -39.02,9.083 -9.709,5.601 -23.599,9.116 -39.001,9.116 -15.414,0 -29.315,-3.515 -39.014,-9.116 C -126.759,3.493 -140.636,0 -156.062,0 c -15.414,-0.012 -29.291,3.493 -38.992,9.083 -8.641,4.99 -20.567,8.295 -33.92,8.95 6.831,-22.869 16.947,-42.099 28.885,-58.48 1.775,-0.787 3.463,-1.586 5.035,-2.495 9.701,-5.59 23.578,-9.106 38.992,-9.095 15.426,0 29.303,3.505 39.027,9.095 9.699,5.6 23.6,9.127 39.014,9.127 15.402,0 29.292,-3.505 39.001,-9.127 9.706,-5.59 23.593,-9.095 39.02,-9.095 15.413,0 29.29,3.505 39.003,9.095 1.569,0.92 3.274,1.718 5.035,2.505 11.947,16.371 22.031,35.601 28.874,58.47 C 59.545,17.378 47.62,14.073 39.003,9.083 29.29,3.493 15.413,0 0,0" /></g><g
           style="fill:#0066b3;fill-opacity:1"
           transform="translate(502.9453,96.4085)"
           id="g28"><path
             id="path30"
             style="fill:#0066b3;fill-opacity:1;fill-rule:nonzero;stroke:none"
             d="m 0,0 c -9.709,5.579 -23.6,9.094 -39.002,9.094 -15.413,0 -29.314,-3.515 -39.014,-9.094 -4.679,-2.706 -10.319,-4.88 -16.627,-6.455 22.364,-14.949 43.039,-25.941 55.641,-36.466 12.594,10.525 33.269,21.517 55.633,36.466 C 10.323,-4.88 4.681,-2.706 0,0" /></g><g
           transform="translate(580.9678,408.5721)"
           id="g32"><path
             id="path34"
             style="fill:#0066b3;fill-opacity:1;fill-rule:nonzero;stroke:none"
             d="m 0,0 c -9.713,-5.601 -23.59,-9.122 -39.003,-9.122 -15.44,0 -29.304,3.521 -39.019,9.122 -9.709,5.579 -23.6,9.086 -39.002,9.086 -15.413,0 -29.327,-3.507 -39.014,-9.086 -9.724,-5.601 -23.601,-9.122 -39.027,-9.122 -15.414,0 -29.29,3.521 -38.992,9.122 -9.723,5.579 -23.591,9.086 -39.027,9.086 -1.441,0 -2.87,-0.049 -4.309,-0.111 V -43.05 c 1.439,0.05 2.868,0.1 4.309,0.1 15.436,0 29.304,-3.491 39.027,-9.083 9.702,-5.615 23.578,-9.108 38.992,-9.108 15.426,0 29.303,3.493 39.027,9.108 9.687,5.592 23.601,9.083 39.014,9.083 15.402,0 29.293,-3.491 39.002,-9.083 9.715,-5.615 23.579,-9.108 39.019,-9.108 15.413,0 29.29,3.493 39.003,9.108 9.712,5.592 23.59,9.083 38.991,9.083 1.487,0 2.904,-0.05 4.32,-0.112 V 8.975 C 41.895,9.037 40.478,9.086 38.991,9.086 23.59,9.086 9.712,5.579 0,0" /></g><g
           transform="translate(463.9434,515.4129)"
           id="g36"><path
             id="path38"
             style="fill:#e7b20f;fill-opacity:1;fill-rule:nonzero;stroke:none"
             d="m 0,0 c -29.035,0 -52.571,-23.535 -52.571,-52.566 0,-2.618 0.263,-5.18 0.629,-7.691 4.824,1.455 9.191,3.293 12.928,5.447 9.688,5.577 23.601,9.086 39.014,9.086 15.402,0 29.293,-3.509 39.002,-9.086 3.741,-2.159 8.11,-3.992 12.94,-5.459 0.37,2.523 0.624,5.08 0.624,7.703 C 52.566,-23.535 29.032,0 0,0 m -71.645,-15.441 c -1.047,-0.155 -2.087,-0.444 -3.152,-0.641 -2.781,-0.471 -5.415,-0.538 -8.076,-0.438 -2.726,0.089 -5.94,0.744 -7.756,1.922 -0.463,-2.739 2.923,-6.349 5.793,-8.285 1.963,-1.344 4.033,-2.498 6.23,-3.224 0.862,-0.305 1.718,-0.453 2.575,-0.774 2.632,-0.917 5.213,-2.606 7.257,-4.416 2.658,-2.343 4.86,-5.322 6.895,-7.95 1.633,7.675 4.702,14.867 8.881,21.245 -2.773,0.989 -5.773,2.06 -9.048,2.561 -2.892,0.455 -6.321,0.51 -9.599,0 M 120.082,-52.578 62.37,-42.235 c 0.571,-3.361 0.941,-6.821 0.941,-10.337 0,-3.519 -0.37,-6.95 -0.941,-10.331 z m -182.508,10.343 -57.678,-10.343 57.701,-10.325 c -0.527,3.381 -0.915,6.812 -0.915,10.331 0,3.516 0.388,6.976 0.892,10.337 m 139.339,14.07 c 0.643,0.879 1.15,1.819 1.799,2.676 1.595,2.315 3.419,4.212 5.343,6.023 2.005,1.851 4.75,3.69 6.89,4.141 -1.628,2.224 -6.586,2.429 -9.984,1.761 -2.332,-0.457 -4.548,-1.075 -6.68,-2.121 -0.832,-0.407 -1.544,-0.912 -2.379,-1.306 -2.506,-1.178 -5.508,-1.833 -8.27,-1.985 -3.502,-0.238 -7.178,0.327 -10.475,0.76 h -0.053 c 4.16,-6.413 7.195,-13.58 8.826,-21.305 2.674,1.261 5.504,2.631 8.176,4.569 2.373,1.727 4.843,4.115 6.807,6.787 m -112.927,27.61 -36.285,20.304 20.24,-36.302 c 4.387,6.269 9.788,11.689 16.045,15.998 M 52.037,-16.553 72.285,19.749 36.011,-0.555 c 6.244,-4.309 11.671,-9.729 16.026,-15.998 M 10.645,9.779 0,115.546 -10.655,9.779 c 3.479,0.566 7.004,0.95 10.655,0.95 3.618,0 7.153,-0.384 10.645,-0.95 M -36.89,21.715 c 0.4,-0.798 0.911,-1.545 1.298,-2.368 1.184,-2.523 1.858,-5.523 2.004,-8.243 0.206,-3.546 -0.332,-7.22 -0.762,-10.491 V 0.541 c 6.38,4.161 13.583,7.214 21.294,8.835 -1.261,2.673 -2.612,5.538 -4.569,8.177 -1.728,2.379 -4.129,4.841 -6.774,6.768 -0.879,0.652 -1.807,1.181 -2.701,1.797 -2.309,1.633 -4.189,3.441 -6.021,5.365 -1.847,2.016 -3.68,4.758 -4.12,6.909 -2.243,-1.643 -2.421,-6.582 -1.762,-10 0.472,-2.357 1.085,-4.564 2.113,-6.677 M 37.143,9.455 c 0.437,2.9 0.493,6.346 0,9.631 -0.162,1.046 -0.489,2.08 -0.664,3.142 -0.468,2.784 -0.551,5.384 -0.468,8.057 0.125,2.72 0.735,5.975 1.958,7.797 -2.723,0.416 -6.342,-2.942 -8.288,-5.82 -1.356,-2.002 -2.485,-4.014 -3.227,-6.25 -0.303,-0.82 -0.475,-1.727 -0.757,-2.545 -0.945,-2.634 -2.629,-5.24 -4.426,-7.298 -2.362,-2.606 -5.32,-4.843 -7.988,-6.831 L 13.272,9.316 c 7.711,-1.669 14.892,-4.714 21.294,-8.895 0.988,2.792 2.019,5.798 2.577,9.034" /></g><g
           transform="translate(130.8838,330.1014)"
           id="g40"
           style="fill:#000000"><path
             id="path42"
             style="fill:#000000;fill-opacity:1;fill-rule:nonzero;stroke:none"
             d="m 0,0 v -3.892 c -29.309,-4.928 -50.319,-22.046 -50.319,-53.171 0,-47.464 38.906,-74.179 83.519,-74.179 51.095,0 86.629,39.163 86.629,76.774 0,33.976 -24.9,47.463 -52.912,59.135 L 68.473,8.3 c 15.822,-3.113 31.384,-8.041 46.428,-14.266 8.041,-16.6 11.154,-34.497 11.154,-52.912 0,-54.21 -31.126,-102.451 -89.742,-102.451 -46.169,0 -92.856,36.051 -92.856,104.525 0,19.712 3.89,39.684 14.006,56.804 z" /></g><g
           transform="translate(77.4536,553.9456)"
           id="g44"
           style="fill:#000000"><path
             id="path46"
             style="fill:#000000;fill-opacity:1;fill-rule:nonzero;stroke:none"
             d="m 0,0 h 3.89 c 2.593,-23.603 17.119,-25.159 51.356,-26.197 l 56.801,-1.557 c 33.46,-0.776 67.438,-15.043 67.438,-72.624 0,-80.405 -58.099,-72.104 -78.849,-72.104 H 42.537 C 15.822,-173.259 8.04,-173.521 3.89,-204.644 H 0 v 89.484 h 3.89 c 4.928,-33.979 10.115,-34.497 38.647,-34.497 h 53.171 c 4.928,0 71.845,-8.3 71.845,62.768 0,56.022 -53.43,50.576 -85.074,50.576 H 55.246 c -32.941,0 -47.985,-2.592 -51.356,-38.904 H 0 Z" /></g><g
           transform="translate(119.9902,108.3353)"
           id="g48"
           style="fill:#000000"><path
             id="path50"
             style="fill:#000000;fill-opacity:1;fill-rule:nonzero;stroke:none"
             d="m 0,0 c -28.532,0 -33.719,-0.519 -38.647,-34.495 h -3.89 v 89.223 h 3.89 C -34.497,23.602 -26.715,22.825 0,22.825 h 92.855 c 42.654,0.22 60.027,-5.322 76.578,-40.201 2.921,-6.154 5.526,-10.965 8.597,-20.603 2.528,-7.932 3.007,-15.221 3.101,-16.161 l -3.873,-0.382 c -0.02,0.278 -0.309,3.287 -1.486,7.876 -0.56,2.187 -2.029,5.803 -2.581,6.976 -1.874,3.982 -3.229,6.453 -5.347,9.7 C 149.963,-2.569 123.02,0 81.442,0 Z" /></g></g></g></g></svg>