<?xml version="1.0" encoding="UTF-8" standalone="no"?>
<svg
   xmlns:dc="http://purl.org/dc/elements/1.1/"
   xmlns:cc="http://creativecommons.org/ns#"
   xmlns:rdf="http://www.w3.org/1999/02/22-rdf-syntax-ns#"
   xmlns:svg="http://www.w3.org/2000/svg"
   xmlns="http://www.w3.org/2000/svg"
   xmlns:sodipodi="http://sodipodi.sourceforge.net/DTD/sodipodi-0.dtd"
   xmlns:inkscape="http://www.inkscape.org/namespaces/inkscape"
   inkscape:version="1.0beta2 (2b71d25, 2019-12-03)"
   sodipodi:docname="JCU 50th Logo - Vertical BLACK.pdf.svg"
   id="svg9396"
   version="1.1"
   viewBox="0 0 237.83 174.83"
   height="174.83pt"
   width="237.83pt">
  <metadata
     id="metadata9400">
    <rdf:RDF>
      <cc:Work
         rdf:about="">
        <dc:format>image/svg+xml</dc:format>
        <dc:type
           rdf:resource="http://purl.org/dc/dcmitype/StillImage" />
        <dc:title></dc:title>
      </cc:Work>
    </rdf:RDF>
  </metadata>
  <sodipodi:namedview
     inkscape:current-layer="surface1"
     inkscape:window-maximized="0"
     inkscape:window-y="174"
     inkscape:window-x="1915"
     inkscape:cy="104.516"
     inkscape:cx="176.15582"
     inkscape:zoom="1.650172"
     showgrid="false"
     id="namedview9398"
     inkscape:window-height="828"
     inkscape:window-width="1237"
     inkscape:pageshadow="2"
     inkscape:pageopacity="0"
     guidetolerance="10"
     gridtolerance="10"
     objecttolerance="10"
     borderopacity="1"
     inkscape:document-rotation="0"
     bordercolor="#666666"
     pagecolor="#ffffff" />
  <defs
     id="defs9197">
    <clipPath
       id="clip1">
      <path
         id="path9107"
         d="M 166 113 L 168 113 L 168 174.828125 L 166 174.828125 Z M 166 113 " />
    </clipPath>
    <clipPath
       id="clip2">
      <path
         id="path9110"
         d="M 3 162 L 16 162 L 16 174.828125 L 3 174.828125 Z M 3 162 " />
    </clipPath>
    <clipPath
       id="clip3">
      <path
         id="path9113"
         d="M 16 162 L 27 162 L 27 174.828125 L 16 174.828125 Z M 16 162 " />
    </clipPath>
    <clipPath
       id="clip4">
      <path
         id="path9116"
         d="M 27 162 L 37 162 L 37 174.828125 L 27 174.828125 Z M 27 162 " />
    </clipPath>
    <clipPath
       id="clip5">
      <path
         id="path9119"
         d="M 37 162 L 48 162 L 48 174.828125 L 37 174.828125 Z M 37 162 " />
    </clipPath>
    <clipPath
       id="clip6">
      <path
         id="path9122"
         d="M 49 162 L 60 162 L 60 174.828125 L 49 174.828125 Z M 49 162 " />
    </clipPath>
    <clipPath
       id="clip7">
      <path
         id="path9125"
         d="M 61 162 L 74 162 L 74 174.828125 L 61 174.828125 Z M 61 162 " />
    </clipPath>
    <clipPath
       id="clip8">
      <path
         id="path9128"
         d="M 75 162 L 85 162 L 85 174.828125 L 75 174.828125 Z M 75 162 " />
    </clipPath>
    <clipPath
       id="clip9">
      <path
         id="path9131"
         d="M 86 162 L 89 162 L 89 174.828125 L 86 174.828125 Z M 86 162 " />
    </clipPath>
    <clipPath
       id="clip10">
      <path
         id="path9134"
         d="M 90 162 L 103 162 L 103 174.828125 L 90 174.828125 Z M 90 162 " />
    </clipPath>
    <clipPath
       id="clip11">
      <path
         id="path9137"
         d="M 207 122 L 237.828125 122 L 237.828125 156 L 207 156 Z M 207 122 " />
    </clipPath>
    <clipPath
       id="clip12">
      <path
         id="path9140"
         d="M 207 122 L 237.800781 122 L 237.800781 156 L 207 156 Z M 207 122 " />
    </clipPath>
    <clipPath
       id="clip13">
      <path
         id="path9143"
         d="M 207.546875 139.25 C 207.546875 148.808594 214.039062 155.644531 222.6875 155.644531 C 231.339844 155.644531 237.828125 148.808594 237.828125 139.25 C 237.828125 129.695312 231.339844 122.855469 222.6875 122.855469 C 214.039062 122.855469 207.546875 129.695312 207.546875 139.25 M 215.503906 139.25 C 215.503906 130.320312 218.363281 125.648438 222.6875 125.648438 C 227.015625 125.648438 229.875 130.320312 229.875 139.25 C 229.875 147.132812 227.015625 152.855469 222.6875 152.855469 C 218.363281 152.855469 215.503906 147.132812 215.503906 139.25 " />
    </clipPath>
    <clipPath
       id="clip14">
      <path
         id="path9146"
         d="M 203 159 L 211 159 L 211 166 L 203 166 Z M 203 159 " />
    </clipPath>
    <clipPath
       id="clip15">
      <path
         id="path9149"
         d="M 208.835938 159.234375 L 207.234375 161.882812 L 205.664062 159.234375 L 203.972656 159.234375 L 206.503906 163.226562 L 206.503906 165.824219 L 207.953125 165.824219 L 207.953125 163.199219 L 210.484375 159.234375 Z M 208.835938 159.234375 " />
    </clipPath>
    <clipPath
       id="clip16">
      <path
         id="path9152"
         d="M 211.023438 159.234375 L 215.992188 159.234375 L 215.992188 160.527344 L 211.023438 160.527344 Z M 211.023438 160.527344 L 212.464844 160.527344 L 212.464844 161.859375 L 211.023438 161.859375 Z M 211.023438 161.859375 L 215.570312 161.859375 L 215.570312 163.152344 L 211.023438 163.152344 Z M 211.023438 163.152344 L 212.464844 163.152344 L 212.464844 164.535156 L 211.023438 164.535156 Z M 211.023438 164.535156 L 216.042969 164.535156 L 216.042969 165.824219 L 211.023438 165.824219 Z M 211.023438 164.535156 " />
    </clipPath>
    <clipPath
       id="clip17">
      <path
         id="path9155"
         d="M 216 159 L 224 159 L 224 166 L 216 166 Z M 216 159 " />
    </clipPath>
    <clipPath
       id="clip18">
      <path
         id="path9158"
         d="M 219.320312 159.1875 L 216.496094 165.824219 L 217.976562 165.824219 L 218.574219 164.347656 L 221.363281 164.347656 L 221.964844 165.824219 L 223.480469 165.824219 L 220.65625 159.1875 Z M 219.96875 160.929688 L 220.84375 163.066406 L 219.09375 163.066406 Z M 219.96875 160.929688 " />
    </clipPath>
    <clipPath
       id="clip19">
      <path
         id="path9161"
         d="M 224 159 L 230 159 L 230 166 L 224 166 Z M 224 159 " />
    </clipPath>
    <clipPath
       id="clip20">
      <path
         id="path9164"
         d="M 224.082031 159.234375 L 224.082031 165.824219 L 225.53125 165.824219 L 225.53125 163.71875 L 226.667969 163.71875 L 228.082031 165.824219 L 229.777344 165.824219 L 228.164062 163.472656 C 229.003906 163.160156 229.578125 162.492188 229.578125 161.429688 L 229.578125 161.410156 C 229.578125 160.789062 229.382812 160.273438 229.011719 159.902344 C 228.578125 159.472656 227.933594 159.234375 227.09375 159.234375 Z M 225.53125 160.542969 L 226.972656 160.542969 C 227.675781 160.542969 228.109375 160.863281 228.109375 161.484375 L 228.109375 161.503906 C 228.109375 162.058594 227.707031 162.433594 227 162.433594 L 225.53125 162.433594 Z M 225.53125 160.542969 " />
    </clipPath>
    <clipPath
       id="clip21">
      <path
         id="path9167"
         d="M 230 159 L 236 159 L 236 166 L 230 166 Z M 230 159 " />
    </clipPath>
    <clipPath
       id="clip22">
      <path
         id="path9170"
         d="M 230.308594 161.128906 L 230.308594 161.148438 C 230.308594 162.457031 231.164062 162.820312 232.492188 163.160156 C 233.59375 163.441406 233.820312 163.632812 233.820312 163.996094 L 233.820312 164.015625 C 233.820312 164.402344 233.460938 164.640625 232.867188 164.640625 C 232.117188 164.640625 231.496094 164.328125 230.902344 163.839844 L 230.046875 164.863281 C 230.835938 165.570312 231.84375 165.921875 232.84375 165.921875 C 234.261719 165.921875 235.261719 165.183594 235.261719 163.875 L 235.261719 163.859375 C 235.261719 162.710938 234.507812 162.226562 233.171875 161.882812 C 232.03125 161.589844 231.75 161.445312 231.75 161.015625 L 231.75 160.996094 C 231.75 160.675781 232.042969 160.421875 232.597656 160.421875 C 233.148438 160.421875 233.726562 160.667969 234.308594 161.070312 L 235.0625 159.980469 C 234.394531 159.445312 233.574219 159.140625 232.613281 159.140625 C 231.269531 159.140625 230.308594 159.933594 230.308594 161.128906 " />
    </clipPath>
    <clipPath
       id="clip23">
      <path
         id="path9173"
         d="M 190 168 L 194 168 L 194 174.828125 L 190 174.828125 Z M 190 168 " />
    </clipPath>
    <clipPath
       id="clip24">
      <path
         id="path9176"
         d="M 194 168 L 200 168 L 200 174.828125 L 194 174.828125 Z M 194 168 " />
    </clipPath>
    <clipPath
       id="clip25">
      <path
         id="path9179"
         d="M 199 168 L 205 168 L 205 174.828125 L 199 174.828125 Z M 199 168 " />
    </clipPath>
    <clipPath
       id="clip26">
      <path
         id="path9182"
         d="M 203 168 L 209 168 L 209 174.828125 L 203 174.828125 Z M 203 168 " />
    </clipPath>
    <clipPath
       id="clip27">
      <path
         id="path9185"
         d="M 215 168 L 221 168 L 221 174.828125 L 215 174.828125 Z M 215 168 " />
    </clipPath>
    <clipPath
       id="clip28">
      <path
         id="path9188"
         d="M 220 168 L 226 168 L 226 174.828125 L 220 174.828125 Z M 220 168 " />
    </clipPath>
    <clipPath
       id="clip29">
      <path
         id="path9191"
         d="M 225 168 L 231 168 L 231 174.828125 L 225 174.828125 Z M 225 168 " />
    </clipPath>
    <clipPath
       id="clip30">
      <path
         id="path9194"
         d="M 230 168 L 236 168 L 236 174.828125 L 230 174.828125 Z M 230 168 " />
    </clipPath>
  </defs>
  <g
     id="surface1">
    <g
       style="fill:#000000;fill-opacity:1"
       id="g9201"
       clip-rule="nonzero"
       clip-path="url(#clip1)">
      <path
         id="path9199"
         d="M 167.183594 113.664062 L 166.664062 113.664062 L 166.664062 174.757812 L 167.183594 174.757812 L 167.183594 113.664062 "
         style="stroke:none;fill-rule:nonzero;fill:#000000;fill-opacity:1" />
    </g>
    <path
       id="path9203"
       d="M 3.871094 117.753906 C 3.871094 115.074219 3.824219 114.589844 0.632812 114.128906 L 0.632812 113.761719 L 9.011719 113.761719 L 9.011719 114.128906 C 6.089844 114.515625 6.015625 115.246094 6.015625 117.753906 L 6.015625 126.472656 C 6.039062 131.199219 5.480469 132.246094 0.195312 134.511719 L 0 134.097656 C 3.578125 132.414062 3.871094 129.785156 3.871094 125.40625 L 3.871094 117.753906 "
       style="stroke:none;fill-rule:nonzero;fill:#000000;fill-opacity:1" />
    <path
       id="path9205"
       d="M 13.089844 123.382812 C 12.675781 124.597656 11.597656 127.132812 11.597656 128.300781 C 11.597656 129.789062 13.28125 129.789062 14.378906 129.957031 L 14.378906 130.320312 L 7.703125 130.320312 L 7.703125 129.957031 C 9.875 129.371094 10.089844 128.886719 10.84375 126.984375 L 13.597656 119.800781 L 15.058594 115.832031 C 15.277344 115.195312 15.59375 114.613281 15.328125 114.152344 C 15.984375 113.882812 16.59375 113.445312 17.105469 112.835938 L 22.464844 127.105469 C 23.121094 128.886719 23.535156 129.589844 25.484375 129.957031 L 25.484375 130.320312 L 18.324219 130.320312 L 18.324219 129.957031 C 19.175781 129.761719 20.199219 129.492188 20.199219 128.398438 C 20.199219 127.375 19.273438 125.085938 18.640625 123.382812 Z M 15.789062 115.929688 L 13.5 122.257812 L 18.324219 122.257812 Z M 15.789062 115.929688 "
       style="stroke:none;fill-rule:nonzero;fill:#000000;fill-opacity:1" />
    <path
       id="path9207"
       d="M 37.269531 126.765625 L 41.679688 117.074219 C 42.289062 115.734375 42.628906 114.515625 42.089844 114.152344 L 42.144531 113.761719 L 47.496094 113.761719 L 47.496094 114.125 C 45.941406 114.441406 44.992188 115.027344 45.089844 116.730469 L 45.625 125.597656 C 45.890625 128.980469 45.890625 129.519531 48.496094 129.957031 L 48.496094 130.320312 L 40.484375 130.320312 L 40.484375 129.957031 C 42.359375 129.664062 43.554688 129.445312 43.429688 127.300781 L 42.773438 116.660156 L 42.726562 116.660156 L 36.515625 130.320312 L 36.25 130.320312 L 30.476562 117.21875 L 30.429688 117.21875 C 30.039062 120.945312 29.84375 123.648438 29.671875 127.421875 C 29.625 128.371094 29.648438 129.46875 32.59375 129.957031 L 32.59375 130.320312 L 25.800781 130.320312 L 25.800781 129.957031 C 27.96875 129.589844 28.1875 128.542969 28.53125 126.574219 L 29.429688 119.726562 L 29.746094 116.414062 C 29.894531 114.808594 28.503906 114.246094 27.070312 114.125 L 27.070312 113.761719 L 32.328125 113.761719 L 32.351562 114.027344 C 31.816406 114.585938 32.472656 116.050781 32.644531 116.441406 L 37.269531 126.765625 "
       style="stroke:none;fill-rule:nonzero;fill:#000000;fill-opacity:1" />
    <path
       id="path9209"
       d="M 49.5 129.957031 C 52.421875 129.566406 52.445312 128.835938 52.515625 126.328125 L 52.515625 117.753906 C 52.445312 115.246094 52.421875 114.515625 49.5 114.128906 L 49.5 113.761719 L 62.578125 113.761719 L 62.285156 117.511719 L 61.921875 117.511719 C 61.746094 114.371094 59.484375 114.34375 57.023438 114.34375 L 54.664062 114.34375 L 54.664062 121.285156 L 57.195312 121.285156 C 59.019531 121.285156 60.410156 121.140625 60.675781 119.046875 L 61.042969 119.046875 L 61.042969 124.476562 L 60.675781 124.476562 C 60.359375 122.335938 59.019531 122.308594 57.195312 122.308594 L 54.664062 122.308594 L 54.664062 126.304688 C 54.664062 127.738281 54.320312 129.738281 58.316406 129.738281 C 61.382812 129.738281 62.894531 128.570312 63.503906 125.5 L 63.867188 125.5 C 63.84375 127.351562 63.527344 128.859375 63.039062 130.320312 L 49.5 130.320312 L 49.5 129.957031 "
       style="stroke:none;fill-rule:nonzero;fill:#000000;fill-opacity:1" />
    <path
       id="path9211"
       d="M 75.023438 118.046875 L 74.632812 118.046875 C 74.246094 116.074219 73.613281 114.175781 71.203125 114.175781 C 69.640625 114.175781 68.351562 115.246094 68.351562 116.855469 C 68.351562 121.066406 76.023438 120.921875 76.023438 125.839844 C 76.023438 128.980469 72.902344 130.613281 70.105469 130.613281 C 68.617188 130.613281 67.058594 130.175781 65.820312 129.371094 L 65.109375 125.230469 L 65.546875 125.230469 C 66.15625 127.570312 67.789062 129.882812 70.46875 129.882812 C 72.269531 129.882812 73.683594 128.8125 73.683594 126.914062 C 73.683594 122.578125 66.234375 122.96875 66.234375 118.097656 C 66.234375 115.246094 69.058594 113.445312 71.660156 113.445312 C 72.902344 113.445312 74.148438 113.808594 75.21875 114.394531 L 75.023438 118.046875 "
       style="stroke:none;fill-rule:nonzero;fill:#000000;fill-opacity:1" />
    <path
       id="path9213"
       d="M 96.582031 118.777344 L 96.214844 118.777344 C 95.75 116.023438 94.144531 114.054688 91.222656 114.054688 C 86.765625 114.054688 84.253906 117.707031 84.253906 121.894531 C 84.253906 126.695312 87.929688 130.027344 91.46875 130.027344 C 94.65625 130.027344 95.921875 127.691406 97.019531 125.0625 L 97.359375 125.207031 C 97.066406 126.695312 96.605469 128.15625 96.019531 129.566406 C 94.460938 130.320312 92.78125 130.613281 91.050781 130.613281 C 85.957031 130.613281 81.429688 127.691406 81.429688 122.1875 C 81.429688 117.851562 84.816406 113.46875 91.246094 113.46875 C 93.097656 113.46875 94.972656 113.835938 96.582031 114.785156 L 96.582031 118.777344 "
       style="stroke:none;fill-rule:nonzero;fill:#000000;fill-opacity:1" />
    <path
       id="path9215"
       d="M 116.457031 122.042969 C 116.457031 127.277344 112.65625 130.613281 107.542969 130.613281 C 102.40625 130.613281 98.628906 127.277344 98.628906 122.019531 C 98.628906 116.828125 102.429688 113.46875 107.519531 113.46875 C 113.753906 113.46875 116.457031 117.707031 116.457031 122.042969 M 101.453125 121.433594 C 101.453125 125.207031 103.453125 130.03125 107.835938 130.03125 C 111.851562 130.03125 113.632812 125.9375 113.632812 122.457031 C 113.558594 118.144531 111.050781 114.054688 107.324219 114.054688 C 103.132812 114.054688 101.453125 118.144531 101.453125 121.433594 "
       style="stroke:none;fill-rule:nonzero;fill:#000000;fill-opacity:1" />
    <path
       id="path9217"
       d="M 136.019531 122.042969 C 136.019531 127.277344 132.21875 130.613281 127.105469 130.613281 C 121.964844 130.613281 118.1875 127.277344 118.1875 122.019531 C 118.1875 116.828125 121.988281 113.46875 127.082031 113.46875 C 133.316406 113.46875 136.019531 117.707031 136.019531 122.042969 M 121.015625 121.433594 C 121.015625 125.207031 123.011719 130.03125 127.394531 130.03125 C 131.417969 130.03125 133.195312 125.9375 133.195312 122.457031 C 133.117188 118.144531 130.609375 114.054688 126.882812 114.054688 C 122.695312 114.054688 121.015625 118.144531 121.015625 121.433594 "
       style="stroke:none;fill-rule:nonzero;fill:#000000;fill-opacity:1" />
    <path
       id="path9219"
       d="M 141.628906 126.328125 C 141.699219 128.835938 141.726562 129.566406 144.867188 129.957031 L 144.867188 130.320312 L 136.464844 130.320312 L 136.464844 129.957031 C 139.386719 129.566406 139.410156 128.835938 139.480469 126.328125 L 139.480469 117.753906 C 139.410156 115.246094 139.386719 114.515625 136.464844 114.128906 L 136.464844 113.761719 L 144.207031 113.761719 L 144.207031 114.128906 C 141.726562 114.515625 141.699219 115.246094 141.628906 117.753906 Z M 152.636719 113.761719 L 152.636719 114.128906 C 149.859375 114.417969 148.007812 116.78125 146.207031 118.65625 L 143.917969 121.09375 L 148.859375 126.546875 C 150.347656 128.179688 152.101562 129.640625 154.265625 130.246094 L 154.144531 130.613281 C 149.90625 130.273438 149.226562 130.152344 146.933594 127.644531 L 141.96875 122.234375 L 145.890625 117.972656 C 148.445312 115.101562 147.957031 114.296875 146.324219 114.128906 L 146.324219 113.761719 L 152.636719 113.761719 "
       style="stroke:none;fill-rule:nonzero;fill:#000000;fill-opacity:1" />
    <path
       id="path9221"
       d="M 19.65625 136.621094 L 19.65625 136.984375 C 17.4375 137.226562 17.292969 138.59375 17.195312 141.808594 L 17.046875 147.140625 C 16.976562 150.285156 15.636719 153.472656 10.230469 153.472656 C 2.679688 153.472656 3.460938 148.015625 3.460938 146.070312 L 3.460938 140.613281 C 3.386719 138.101562 3.359375 137.375 0.4375 136.984375 L 0.4375 136.621094 L 8.84375 136.621094 L 8.84375 136.984375 C 5.648438 137.445312 5.601562 137.933594 5.601562 140.613281 L 5.601562 145.605469 C 5.601562 146.070312 4.820312 152.355469 11.496094 152.355469 C 16.757812 152.355469 16.246094 147.335938 16.246094 144.363281 L 16.246094 141.808594 C 16.246094 138.714844 16.003906 137.304688 12.59375 136.984375 L 12.59375 136.621094 L 19.65625 136.621094 "
       style="stroke:none;fill-rule:nonzero;fill:#000000;fill-opacity:1" />
    <path
       id="path9223"
       d="M 36.601562 149.359375 L 36.480469 140.46875 C 36.453125 138.152344 35.824219 137.46875 33.070312 136.984375 L 33.070312 136.621094 L 39.714844 136.621094 L 39.714844 136.984375 C 38.035156 137.203125 37.722656 138.128906 37.527344 139.714844 C 37.183594 142.390625 37.308594 148.261719 37.429688 153.570312 L 37.113281 153.644531 C 33.21875 149.042969 28.882812 144.777344 24.765625 140.34375 L 24.765625 144.828125 C 24.765625 150.867188 24.621094 152.109375 28.152344 152.816406 L 28.152344 153.183594 L 20.871094 153.183594 L 20.871094 152.816406 C 24.15625 152.476562 24.035156 150.230469 24.035156 144.707031 L 24.035156 141.050781 C 24.035156 138.617188 23.644531 137.664062 20.554688 136.984375 L 20.554688 136.621094 L 24.570312 136.621094 L 36.601562 149.359375 "
       style="stroke:none;fill-rule:nonzero;fill:#000000;fill-opacity:1" />
    <path
       id="path9225"
       d="M 45.917969 149.1875 C 45.992188 151.695312 46.019531 152.425781 48.9375 152.816406 L 48.9375 153.183594 L 40.757812 153.183594 L 40.757812 152.816406 C 43.679688 152.425781 43.707031 151.695312 43.777344 149.1875 L 43.777344 140.613281 C 43.707031 138.101562 43.679688 137.375 40.757812 136.984375 L 40.757812 136.621094 L 48.9375 136.621094 L 48.9375 136.984375 C 46.019531 137.375 45.992188 138.101562 45.917969 140.613281 L 45.917969 149.1875 "
       style="stroke:none;fill-rule:nonzero;fill:#000000;fill-opacity:1" />
    <path
       id="path9227"
       d="M 67.765625 136.621094 L 67.765625 136.984375 C 65.476562 137.179688 64.769531 139.101562 63.261719 142.636719 L 58.605469 153.742188 L 58.265625 153.742188 L 52.765625 140.566406 C 52.03125 138.785156 51.472656 137.226562 49.304688 136.984375 L 49.304688 136.621094 L 57.023438 136.621094 L 57.023438 136.984375 C 53.589844 137.324219 54.710938 139.273438 55.34375 140.808594 L 59.238281 150.210938 L 62.117188 143.316406 C 64.207031 138.324219 64.597656 137.519531 60.898438 136.984375 L 60.898438 136.621094 L 67.765625 136.621094 "
       style="stroke:none;fill-rule:nonzero;fill:#000000;fill-opacity:1" />
    <path
       id="path9229"
       d="M 67.984375 152.816406 C 70.910156 152.425781 70.933594 151.695312 71.003906 149.1875 L 71.003906 140.613281 C 70.933594 138.101562 70.910156 137.375 67.984375 136.984375 L 67.984375 136.621094 L 81.066406 136.621094 L 80.773438 140.371094 L 80.40625 140.371094 C 80.234375 137.226562 77.96875 137.203125 75.511719 137.203125 L 73.148438 137.203125 L 73.148438 144.144531 L 75.683594 144.144531 C 77.507812 144.144531 78.898438 144 79.164062 141.902344 L 79.53125 141.902344 L 79.53125 147.335938 L 79.164062 147.335938 C 78.847656 145.195312 77.507812 145.171875 75.683594 145.171875 L 73.148438 145.171875 L 73.148438 149.164062 C 73.148438 150.597656 72.808594 152.597656 76.804688 152.597656 C 79.871094 152.597656 81.382812 151.429688 81.988281 148.359375 L 82.355469 148.359375 C 82.332031 150.210938 82.015625 151.71875 81.527344 153.183594 L 67.984375 153.183594 L 67.984375 152.816406 "
       style="stroke:none;fill-rule:nonzero;fill:#000000;fill-opacity:1" />
    <path
       id="path9231"
       d="M 86.320312 141.636719 C 86.320312 137.910156 86.199219 137.351562 83.472656 137.105469 L 83.472656 136.765625 L 89.414062 136.570312 C 95.550781 136.375 96.039062 139.371094 96.039062 140.539062 C 96.039062 142.585938 94.773438 143.757812 93.019531 144.535156 L 93.140625 144.707031 C 95.015625 147.992188 97.355469 152.183594 101.375 153.011719 L 101.300781 153.375 C 98.71875 153.253906 96.820312 153.328125 95.40625 151.867188 C 93.796875 150.1875 92.53125 148.042969 92.023438 146.992188 C 91.046875 144.972656 90.171875 145.558594 88.464844 145.265625 L 88.464844 149.1875 C 88.464844 151.867188 88.511719 152.351562 91.851562 152.816406 L 91.851562 153.183594 L 83.300781 153.183594 L 83.300781 152.816406 C 86.222656 152.425781 86.246094 151.695312 86.320312 149.1875 Z M 88.464844 144.851562 C 90.800781 144.828125 93.53125 143.757812 93.53125 141.050781 C 93.53125 138.203125 91.023438 137.058594 88.464844 137.082031 L 88.464844 144.851562 "
       style="stroke:none;fill-rule:nonzero;fill:#000000;fill-opacity:1" />
    <path
       id="path9233"
       d="M 110.589844 140.90625 L 110.199219 140.90625 C 109.8125 138.933594 109.179688 137.03125 106.769531 137.03125 C 105.207031 137.03125 103.917969 138.101562 103.917969 139.714844 C 103.917969 143.925781 111.589844 143.78125 111.589844 148.703125 C 111.589844 151.839844 108.472656 153.472656 105.671875 153.472656 C 104.1875 153.472656 102.625 153.035156 101.382812 152.230469 L 100.679688 148.09375 L 101.117188 148.09375 C 101.726562 150.429688 103.355469 152.742188 106.039062 152.742188 C 107.839844 152.742188 109.25 151.671875 109.25 149.773438 C 109.25 145.4375 101.800781 145.828125 101.800781 140.953125 C 101.800781 138.101562 104.621094 136.304688 107.226562 136.304688 C 108.472656 136.304688 109.714844 136.667969 110.785156 137.253906 L 110.589844 140.90625 "
       style="stroke:none;fill-rule:nonzero;fill:#000000;fill-opacity:1" />
    <path
       id="path9235"
       d="M 117.714844 149.1875 C 117.785156 151.695312 117.8125 152.425781 120.734375 152.816406 L 120.734375 153.183594 L 112.546875 153.183594 L 112.546875 152.816406 C 115.472656 152.425781 115.496094 151.695312 115.570312 149.1875 L 115.570312 140.613281 C 115.496094 138.101562 115.472656 137.375 112.546875 136.984375 L 112.546875 136.621094 L 120.734375 136.621094 L 120.734375 136.984375 C 117.8125 137.375 117.785156 138.101562 117.714844 140.613281 L 117.714844 149.1875 "
       style="stroke:none;fill-rule:nonzero;fill:#000000;fill-opacity:1" />
    <path
       id="path9237"
       d="M 136.816406 135.863281 L 137.007812 135.863281 L 137.351562 140.421875 L 137.007812 140.492188 C 136.15625 137.46875 134.820312 137.351562 132.019531 137.351562 L 130.554688 137.351562 L 130.554688 148.601562 C 130.554688 151.621094 130.703125 152.425781 133.96875 152.816406 L 133.96875 153.183594 L 125.003906 153.183594 L 125.003906 152.816406 C 128.265625 152.425781 128.410156 151.621094 128.410156 148.601562 L 128.410156 137.351562 L 126.953125 137.351562 C 124.148438 137.351562 122.8125 137.46875 121.957031 140.492188 L 121.617188 140.421875 L 121.957031 135.863281 L 122.152344 135.863281 L 122.398438 136.082031 C 123.007812 136.644531 123.105469 136.621094 123.90625 136.621094 L 135.0625 136.621094 C 135.867188 136.621094 135.964844 136.644531 136.570312 136.082031 L 136.816406 135.863281 "
       style="stroke:none;fill-rule:nonzero;fill:#000000;fill-opacity:1" />
    <path
       id="path9239"
       d="M 153.433594 136.621094 L 153.433594 136.984375 C 151.3125 137.15625 150.265625 138.324219 149.242188 140.078125 L 146.367188 145.773438 L 146.367188 148.53125 C 146.417969 151.328125 146.464844 152.328125 149.582031 152.816406 L 149.582031 153.183594 L 141.007812 153.183594 L 141.007812 152.816406 C 144.128906 152.328125 144.179688 151.328125 144.222656 148.53125 L 144.222656 146.582031 L 141.691406 141.050781 C 140.765625 139.007812 140.109375 137.277344 137.648438 136.984375 L 137.648438 136.621094 L 144.371094 136.621094 L 144.371094 136.984375 C 142.371094 137.253906 142.640625 138.054688 143.421875 139.761719 L 145.855469 145.023438 L 147.976562 141.003906 C 149.484375 138.179688 149.289062 137.253906 147.175781 136.984375 L 147.175781 136.621094 L 153.433594 136.621094 "
       style="stroke:none;fill-rule:nonzero;fill:#000000;fill-opacity:1" />
    <path
       id="path9241"
       d="M 3.355469 157.988281 L 151.890625 157.988281 L 151.890625 158.484375 L 3.355469 158.484375 L 3.355469 157.988281 "
       style="stroke:none;fill-rule:nonzero;fill:#000000;fill-opacity:1" />
    <path
       id="path9243"
       d="M 52.304688 57.800781 C 50.582031 58.792969 48.128906 59.410156 45.398438 59.410156 C 42.664062 59.410156 40.210938 58.792969 38.488281 57.800781 C 36.769531 56.8125 34.3125 56.191406 31.585938 56.191406 C 28.855469 56.191406 26.390625 56.8125 24.675781 57.800781 C 22.957031 58.792969 20.496094 59.410156 17.765625 59.410156 C 15.039062 59.410156 12.582031 58.792969 10.863281 57.800781 C 9.140625 56.8125 6.6875 56.191406 3.953125 56.191406 C 3.699219 56.191406 3.445312 56.199219 3.191406 56.210938 L 3.191406 62.605469 C 3.191406 63.574219 3.226562 64.503906 3.28125 65.421875 C 3.503906 65.410156 3.726562 65.398438 3.953125 65.398438 C 6.6875 65.398438 9.140625 66.019531 10.863281 67.015625 C 12.582031 68.003906 15.039062 68.621094 17.765625 68.621094 C 20.496094 68.621094 22.957031 68.003906 24.675781 67.015625 C 26.390625 66.019531 28.855469 65.398438 31.585938 65.398438 C 34.3125 65.398438 36.769531 66.019531 38.488281 67.015625 C 40.210938 68.003906 42.664062 68.621094 45.398438 68.621094 C 48.128906 68.621094 50.582031 68.003906 52.304688 67.011719 C 54.023438 66.019531 56.480469 65.398438 59.207031 65.398438 C 59.4375 65.398438 59.660156 65.410156 59.882812 65.421875 C 59.9375 64.503906 59.972656 63.574219 59.972656 62.605469 L 59.972656 56.210938 C 59.71875 56.199219 59.46875 56.191406 59.207031 56.191406 C 56.480469 56.191406 54.023438 56.8125 52.304688 57.800781 "
       style="stroke:none;fill-rule:nonzero;fill:#000000;fill-opacity:1" />
    <path
       id="path9245"
       d="M 45.398438 77.832031 C 42.667969 77.832031 40.207031 77.214844 38.488281 76.226562 C 36.769531 75.234375 34.3125 74.613281 31.585938 74.613281 C 28.855469 74.613281 26.394531 75.234375 24.675781 76.226562 C 22.957031 77.214844 20.496094 77.832031 17.765625 77.832031 C 15.039062 77.835938 12.582031 77.214844 10.863281 76.226562 C 9.332031 75.339844 7.222656 74.757812 4.855469 74.640625 C 6.066406 78.691406 7.859375 82.09375 9.972656 84.996094 C 10.285156 85.132812 10.585938 85.277344 10.863281 85.4375 C 12.582031 86.425781 15.039062 87.050781 17.765625 87.046875 C 20.496094 87.046875 22.957031 86.425781 24.675781 85.4375 C 26.394531 84.445312 28.855469 83.820312 31.585938 83.820312 C 34.3125 83.820312 36.769531 84.441406 38.488281 85.4375 C 40.207031 86.425781 42.667969 87.046875 45.398438 87.046875 C 48.128906 87.046875 50.582031 86.425781 52.304688 85.4375 C 52.582031 85.273438 52.882812 85.132812 53.195312 84.992188 C 55.308594 82.09375 57.09375 78.691406 58.308594 74.640625 C 55.941406 74.757812 53.828125 75.339844 52.304688 76.226562 C 50.582031 77.214844 48.128906 77.832031 45.398438 77.832031 "
       style="stroke:none;fill-rule:nonzero;fill:#000000;fill-opacity:1" />
    <path
       id="path9247"
       d="M 38.488281 94.644531 C 36.769531 93.65625 34.3125 93.035156 31.585938 93.035156 C 28.855469 93.035156 26.394531 93.65625 24.675781 94.644531 C 23.847656 95.125 22.847656 95.511719 21.734375 95.789062 C 25.691406 98.4375 29.351562 100.382812 31.585938 102.246094 C 33.8125 100.382812 37.472656 98.4375 41.433594 95.789062 C 40.316406 95.511719 39.316406 95.125 38.488281 94.644531 "
       style="stroke:none;fill-rule:nonzero;fill:#000000;fill-opacity:1" />
    <path
       id="path9249"
       d="M 52.304688 39.378906 C 50.582031 40.367188 48.128906 40.992188 45.398438 40.992188 C 42.664062 40.992188 40.210938 40.367188 38.488281 39.378906 C 36.769531 38.390625 34.3125 37.769531 31.585938 37.769531 C 28.855469 37.769531 26.390625 38.390625 24.675781 39.378906 C 22.957031 40.367188 20.496094 40.992188 17.765625 40.992188 C 15.039062 40.992188 12.582031 40.367188 10.863281 39.378906 C 9.140625 38.390625 6.6875 37.769531 3.953125 37.769531 C 3.699219 37.769531 3.445312 37.777344 3.191406 37.789062 L 3.191406 47 C 3.445312 46.992188 3.699219 46.980469 3.953125 46.980469 C 6.6875 46.980469 9.140625 47.597656 10.863281 48.589844 C 12.582031 49.585938 15.039062 50.203125 17.765625 50.203125 C 20.496094 50.203125 22.957031 49.585938 24.675781 48.589844 C 26.390625 47.597656 28.855469 46.980469 31.585938 46.980469 C 34.3125 46.980469 36.769531 47.597656 38.488281 48.589844 C 40.210938 49.585938 42.664062 50.203125 45.398438 50.203125 C 48.128906 50.203125 50.582031 49.585938 52.304688 48.589844 C 54.023438 47.597656 56.480469 46.980469 59.207031 46.980469 C 59.46875 46.980469 59.71875 46.992188 59.972656 47 L 59.972656 37.789062 C 59.71875 37.777344 59.46875 37.769531 59.207031 37.769531 C 56.480469 37.769531 54.023438 38.390625 52.304688 39.378906 "
       style="stroke:none;fill-rule:nonzero;fill:#000000;fill-opacity:1" />
    <path
       id="path9251"
       d="M 31.585938 20.460938 C 26.445312 20.460938 22.277344 24.628906 22.277344 29.765625 C 22.277344 30.230469 22.324219 30.683594 22.386719 31.128906 C 23.242188 30.871094 24.015625 30.546875 24.675781 30.164062 C 26.390625 29.175781 28.855469 28.554688 31.585938 28.554688 C 34.3125 28.554688 36.769531 29.175781 38.488281 30.164062 C 39.152344 30.546875 39.925781 30.871094 40.78125 31.132812 C 40.84375 30.683594 40.890625 30.230469 40.890625 29.765625 C 40.890625 24.628906 36.722656 20.460938 31.585938 20.460938 Z M 18.898438 23.195312 C 18.714844 23.222656 18.53125 23.273438 18.339844 23.308594 C 17.847656 23.390625 17.382812 23.402344 16.910156 23.386719 C 16.429688 23.371094 15.859375 23.253906 15.539062 23.046875 C 15.457031 23.53125 16.054688 24.167969 16.5625 24.511719 C 16.910156 24.75 17.277344 24.953125 17.667969 25.082031 C 17.820312 25.136719 17.96875 25.164062 18.121094 25.21875 C 18.589844 25.382812 19.046875 25.679688 19.40625 26 C 19.878906 26.417969 20.269531 26.945312 20.628906 27.410156 C 20.917969 26.050781 21.460938 24.777344 22.199219 23.648438 C 21.710938 23.472656 21.179688 23.285156 20.597656 23.195312 C 20.085938 23.113281 19.480469 23.105469 18.898438 23.195312 Z M 52.84375 29.769531 L 42.628906 27.9375 C 42.726562 28.535156 42.792969 29.144531 42.792969 29.769531 C 42.792969 30.390625 42.726562 31 42.628906 31.597656 Z M 20.53125 27.9375 L 10.320312 29.769531 L 20.535156 31.597656 C 20.441406 31 20.375 30.390625 20.375 29.769531 C 20.375 29.144531 20.441406 28.535156 20.53125 27.9375 Z M 45.203125 25.449219 C 45.316406 25.292969 45.40625 25.125 45.519531 24.972656 C 45.800781 24.5625 46.125 24.226562 46.464844 23.90625 C 46.820312 23.578125 47.304688 23.253906 47.6875 23.175781 C 47.398438 22.78125 46.519531 22.742188 45.917969 22.863281 C 45.503906 22.941406 45.113281 23.050781 44.734375 23.238281 C 44.589844 23.308594 44.460938 23.398438 44.316406 23.46875 C 43.871094 23.675781 43.339844 23.792969 42.851562 23.820312 C 42.230469 23.863281 41.578125 23.761719 40.996094 23.6875 L 40.984375 23.6875 C 41.722656 24.820312 42.261719 26.089844 42.546875 27.457031 C 43.023438 27.234375 43.523438 26.992188 43.996094 26.648438 C 44.417969 26.34375 44.855469 25.921875 45.203125 25.449219 Z M 25.207031 20.558594 L 18.78125 16.964844 L 22.367188 23.390625 C 23.144531 22.28125 24.097656 21.320312 25.207031 20.558594 Z M 40.796875 23.390625 L 44.382812 16.964844 L 37.960938 20.558594 C 39.066406 21.320312 40.027344 22.28125 40.796875 23.390625 Z M 33.46875 18.730469 L 31.585938 0.00390625 L 29.699219 18.730469 C 30.3125 18.628906 30.9375 18.5625 31.585938 18.5625 C 32.222656 18.5625 32.851562 18.628906 33.46875 18.730469 Z M 25.050781 16.617188 C 25.121094 16.757812 25.214844 16.890625 25.28125 17.035156 C 25.492188 17.480469 25.609375 18.011719 25.636719 18.496094 C 25.671875 19.121094 25.578125 19.773438 25.503906 20.351562 L 25.503906 20.363281 C 26.632812 19.628906 27.90625 19.085938 29.273438 18.800781 C 29.046875 18.328125 28.808594 17.820312 28.464844 17.351562 C 28.15625 16.933594 27.730469 16.496094 27.265625 16.152344 C 27.109375 16.039062 26.945312 15.945312 26.785156 15.835938 C 26.378906 15.546875 26.042969 15.226562 25.71875 14.886719 C 25.394531 14.527344 25.070312 14.042969 24.988281 13.664062 C 24.59375 13.953125 24.5625 14.828125 24.679688 15.433594 C 24.761719 15.851562 24.871094 16.242188 25.050781 16.617188 Z M 38.160156 18.785156 C 38.238281 18.273438 38.246094 17.664062 38.160156 17.082031 C 38.132812 16.894531 38.074219 16.714844 38.042969 16.523438 C 37.960938 16.03125 37.945312 15.570312 37.960938 15.097656 C 37.980469 14.617188 38.089844 14.039062 38.304688 13.71875 C 37.824219 13.644531 37.183594 14.238281 36.839844 14.75 C 36.597656 15.101562 36.398438 15.460938 36.269531 15.855469 C 36.214844 16 36.183594 16.160156 36.132812 16.304688 C 35.964844 16.773438 35.667969 17.234375 35.351562 17.597656 C 34.933594 18.058594 34.40625 18.453125 33.9375 18.808594 C 33.9375 18.808594 33.9375 18.8125 33.933594 18.8125 C 35.296875 19.105469 36.570312 19.644531 37.703125 20.386719 C 37.878906 19.890625 38.0625 19.359375 38.160156 18.785156 "
       style="stroke:none;fill-rule:nonzero;fill:#000000;fill-opacity:1" />
    <g
       style="fill:#000000;fill-opacity:1"
       id="g9255"
       clip-rule="nonzero"
       clip-path="url(#clip2)">
      <path
         id="path9253"
         d="M 11.398438 169.9375 L 9.359375 165.21875 L 7.335938 169.9375 Z M 8.429688 162.742188 L 10.351562 162.742188 L 15.542969 174.625 L 13.351562 174.625 L 12.15625 171.777344 L 6.578125 171.777344 L 5.363281 174.625 L 3.238281 174.625 L 8.429688 162.742188 "
         style="stroke:none;fill-rule:nonzero;fill:#000000;fill-opacity:1" />
    </g>
    <g
       style="fill:#000000;fill-opacity:1"
       id="g9259"
       clip-rule="nonzero"
       clip-path="url(#clip3)">
      <path
         id="path9257"
         d="M 16.265625 169.617188 L 16.265625 162.824219 L 18.339844 162.824219 L 18.339844 169.535156 C 18.339844 171.726562 19.46875 172.886719 21.324219 172.886719 C 23.160156 172.886719 24.289062 171.792969 24.289062 169.617188 L 24.289062 162.824219 L 26.363281 162.824219 L 26.363281 169.515625 C 26.363281 173.039062 24.375 174.808594 21.289062 174.808594 C 18.222656 174.808594 16.265625 173.039062 16.265625 169.617188 "
         style="stroke:none;fill-rule:nonzero;fill:#000000;fill-opacity:1" />
    </g>
    <g
       style="fill:#000000;fill-opacity:1"
       id="g9263"
       clip-rule="nonzero"
       clip-path="url(#clip4)">
      <path
         id="path9261"
         d="M 27.589844 172.90625 L 28.835938 171.421875 C 29.96875 172.398438 31.113281 172.957031 32.5625 172.957031 C 33.84375 172.957031 34.652344 172.347656 34.652344 171.472656 L 34.652344 171.4375 C 34.652344 170.59375 34.179688 170.140625 31.988281 169.636719 C 29.476562 169.027344 28.0625 168.285156 28.0625 166.113281 L 28.0625 166.078125 C 28.0625 164.054688 29.746094 162.65625 32.089844 162.65625 C 33.808594 162.65625 35.175781 163.179688 36.371094 164.140625 L 35.261719 165.707031 C 34.199219 164.914062 33.136719 164.492188 32.058594 164.492188 C 30.84375 164.492188 30.136719 165.117188 30.136719 165.894531 L 30.136719 165.925781 C 30.136719 166.835938 30.675781 167.242188 32.949219 167.78125 C 35.445312 168.386719 36.726562 169.28125 36.726562 171.238281 L 36.726562 171.269531 C 36.726562 173.476562 34.988281 174.792969 32.511719 174.792969 C 30.710938 174.792969 29.007812 174.167969 27.589844 172.90625 "
         style="stroke:none;fill-rule:nonzero;fill:#000000;fill-opacity:1" />
    </g>
    <g
       style="fill:#000000;fill-opacity:1"
       id="g9267"
       clip-rule="nonzero"
       clip-path="url(#clip5)">
      <path
         id="path9265"
         d="M 41.5625 164.746094 L 37.820312 164.746094 L 37.820312 162.824219 L 47.394531 162.824219 L 47.394531 164.746094 L 43.652344 164.746094 L 43.652344 174.625 L 41.5625 174.625 L 41.5625 164.746094 "
         style="stroke:none;fill-rule:nonzero;fill:#000000;fill-opacity:1" />
    </g>
    <g
       style="fill:#000000;fill-opacity:1"
       id="g9271"
       clip-rule="nonzero"
       clip-path="url(#clip6)">
      <path
         id="path9269"
         d="M 54.351562 168.675781 C 55.835938 168.675781 56.78125 167.898438 56.78125 166.703125 L 56.78125 166.667969 C 56.78125 165.40625 55.867188 164.714844 54.335938 164.714844 L 51.316406 164.714844 L 51.316406 168.675781 Z M 49.242188 162.824219 L 54.503906 162.824219 C 55.988281 162.824219 57.148438 163.261719 57.910156 164.003906 C 58.53125 164.644531 58.886719 165.523438 58.886719 166.550781 L 58.886719 166.582031 C 58.886719 168.523438 57.722656 169.6875 56.089844 170.15625 L 59.273438 174.625 L 56.8125 174.625 L 53.914062 170.511719 L 51.316406 170.511719 L 51.316406 174.625 L 49.242188 174.625 L 49.242188 162.824219 "
         style="stroke:none;fill-rule:nonzero;fill:#000000;fill-opacity:1" />
    </g>
    <g
       style="fill:#000000;fill-opacity:1"
       id="g9275"
       clip-rule="nonzero"
       clip-path="url(#clip7)">
      <path
         id="path9273"
         d="M 69.621094 169.9375 L 67.582031 165.21875 L 65.558594 169.9375 Z M 66.652344 162.742188 L 68.574219 162.742188 L 73.765625 174.625 L 71.574219 174.625 L 70.378906 171.777344 L 64.796875 171.777344 L 63.585938 174.625 L 61.460938 174.625 L 66.652344 162.742188 "
         style="stroke:none;fill-rule:nonzero;fill:#000000;fill-opacity:1" />
    </g>
    <g
       style="fill:#000000;fill-opacity:1"
       id="g9279"
       clip-rule="nonzero"
       clip-path="url(#clip8)">
      <path
         id="path9277"
         d="M 75.902344 162.824219 L 77.976562 162.824219 L 77.976562 172.738281 L 84.179688 172.738281 L 84.179688 174.625 L 75.902344 174.625 L 75.902344 162.824219 "
         style="stroke:none;fill-rule:nonzero;fill:#000000;fill-opacity:1" />
    </g>
    <g
       style="fill:#000000;fill-opacity:1"
       id="g9283"
       clip-rule="nonzero"
       clip-path="url(#clip9)">
      <path
         id="path9281"
         d="M 86.113281 162.824219 L 88.1875 162.824219 L 88.1875 174.625 L 86.113281 174.625 L 86.113281 162.824219 "
         style="stroke:none;fill-rule:nonzero;fill:#000000;fill-opacity:1" />
    </g>
    <g
       style="fill:#000000;fill-opacity:1"
       id="g9287"
       clip-rule="nonzero"
       clip-path="url(#clip10)">
      <path
         id="path9285"
         d="M 98.386719 169.9375 L 96.34375 165.21875 L 94.324219 169.9375 Z M 95.417969 162.742188 L 97.339844 162.742188 L 102.53125 174.625 L 100.339844 174.625 L 99.144531 171.777344 L 93.5625 171.777344 L 92.351562 174.625 L 90.226562 174.625 L 95.417969 162.742188 "
         style="stroke:none;fill-rule:nonzero;fill:#000000;fill-opacity:1" />
    </g>
    <g
       style="fill:#000000;fill-opacity:1"
       id="g9291"
       clip-rule="nonzero"
       clip-path="url(#clip11)">
      <path
         id="path9289"
         d="M 207.546875 139.25 C 207.546875 148.808594 214.039062 155.644531 222.6875 155.644531 C 231.339844 155.644531 237.828125 148.808594 237.828125 139.25 C 237.828125 129.695312 231.339844 122.855469 222.6875 122.855469 C 214.039062 122.855469 207.546875 129.695312 207.546875 139.25 M 215.503906 139.25 C 215.503906 130.320312 218.363281 125.648438 222.6875 125.648438 C 227.015625 125.648438 229.875 130.320312 229.875 139.25 C 229.875 147.132812 227.015625 152.855469 222.6875 152.855469 C 218.363281 152.855469 215.503906 147.132812 215.503906 139.25 "
         style="stroke:none;fill-rule:nonzero;fill:#000000;fill-opacity:1" />
    </g>
    <path
       id="path9299"
       d="M 208.835938 159.234375 L 207.234375 161.882812 L 205.664062 159.234375 L 203.972656 159.234375 L 206.503906 163.226562 L 206.503906 165.824219 L 207.953125 165.824219 L 207.953125 163.199219 L 210.484375 159.234375 L 208.835938 159.234375 "
       style="stroke:none;fill-rule:nonzero;fill:#000000;fill-opacity:1" />
    <path
       id="path9307"
       d="M 211.023438 159.234375 L 211.023438 165.824219 L 216.042969 165.824219 L 216.042969 164.535156 L 212.464844 164.535156 L 212.464844 163.152344 L 215.570312 163.152344 L 215.570312 161.859375 L 212.464844 161.859375 L 212.464844 160.527344 L 215.992188 160.527344 L 215.992188 159.234375 L 211.023438 159.234375 "
       style="stroke:none;fill-rule:nonzero;fill:#000000;fill-opacity:1" />
    <path
       id="path9313"
       d="M 219.320312 159.1875 L 216.496094 165.824219 L 217.976562 165.824219 L 218.574219 164.347656 L 221.363281 164.347656 L 221.964844 165.824219 L 223.480469 165.824219 L 220.65625 159.1875 Z M 219.96875 160.929688 L 220.84375 163.066406 L 219.09375 163.066406 Z M 219.96875 160.929688 "
       style="stroke:none;fill-rule:nonzero;fill:#000000;fill-opacity:1" />
    <path
       id="path9321"
       d="M 224.082031 159.234375 L 224.082031 165.824219 L 225.53125 165.824219 L 225.53125 163.71875 L 226.667969 163.71875 L 228.082031 165.824219 L 229.777344 165.824219 L 228.164062 163.472656 C 229.003906 163.160156 229.578125 162.492188 229.578125 161.429688 L 229.578125 161.410156 C 229.578125 160.789062 229.382812 160.273438 229.011719 159.902344 C 228.578125 159.472656 227.933594 159.234375 227.09375 159.234375 Z M 225.53125 160.542969 L 226.972656 160.542969 C 227.675781 160.542969 228.109375 160.863281 228.109375 161.484375 L 228.109375 161.503906 C 228.109375 162.058594 227.707031 162.433594 227 162.433594 L 225.53125 162.433594 L 225.53125 160.542969 "
       style="stroke:none;fill-rule:nonzero;fill:#000000;fill-opacity:1" />
    <path
       id="path9329"
       d="M 230.308594 161.128906 L 230.308594 161.148438 C 230.308594 162.457031 231.164062 162.820312 232.492188 163.160156 C 233.59375 163.441406 233.820312 163.632812 233.820312 163.996094 L 233.820312 164.015625 C 233.820312 164.402344 233.460938 164.640625 232.867188 164.640625 C 232.117188 164.640625 231.496094 164.328125 230.902344 163.839844 L 230.046875 164.863281 C 230.835938 165.570312 231.84375 165.921875 232.84375 165.921875 C 234.261719 165.921875 235.261719 165.183594 235.261719 163.875 L 235.261719 163.859375 C 235.261719 162.710938 234.507812 162.226562 233.171875 161.882812 C 232.03125 161.589844 231.75 161.445312 231.75 161.015625 L 231.75 160.996094 C 231.75 160.675781 232.042969 160.421875 232.597656 160.421875 C 233.148438 160.421875 233.726562 160.667969 234.308594 161.070312 L 235.0625 159.980469 C 234.394531 159.445312 233.574219 159.140625 232.613281 159.140625 C 231.269531 159.140625 230.308594 159.933594 230.308594 161.128906 "
       style="stroke:none;fill-rule:nonzero;fill:#000000;fill-opacity:1" />
    <path
       id="path9337"
       d="M 204.609375 128.546875 L 188.382812 129.867188 L 186.953125 135.355469 C 195.386719 135.421875 205.753906 138.410156 205.753906 148.824219 C 205.753906 153.0625 203.394531 157.300781 198.890625 160.421875 C 194.386719 163.617188 186.59375 165.632812 181.019531 165.632812 L 180.730469 163.339844 C 185.808594 162.644531 198.460938 160.078125 198.460938 150.285156 C 198.460938 142.785156 190.671875 141.117188 183.304688 141.050781 L 186.164062 124.175781 L 205.753906 122.574219 L 204.609375 128.546875 "
       style="stroke:none;fill-rule:nonzero;fill:#000000;fill-opacity:1" />
    <g
       style="fill:#000000;fill-opacity:1"
       id="g9341"
       clip-rule="nonzero"
       clip-path="url(#clip23)">
      <path
         id="path9339"
         d="M 190.339844 174.570312 C 191.242188 174.527344 191.46875 174.449219 191.5625 174.074219 L 192.667969 169.933594 C 192.816406 169.378906 192.769531 169.179688 191.757812 169.144531 L 191.789062 169.03125 L 193.925781 168.867188 L 192.519531 174.074219 C 192.414062 174.449219 192.582031 174.527344 193.5 174.570312 L 193.476562 174.683594 L 190.3125 174.683594 L 190.339844 174.570312 "
         style="stroke:none;fill-rule:nonzero;fill:#000000;fill-opacity:1" />
    </g>
    <g
       style="fill:#000000;fill-opacity:1"
       id="g9345"
       clip-rule="nonzero"
       clip-path="url(#clip24)">
      <path
         id="path9343"
         d="M 195.917969 171.546875 C 195.917969 172.292969 196.195312 172.589844 196.664062 172.589844 C 197.453125 172.589844 198.269531 171.53125 198.269531 170.183594 C 198.269531 169.5 198.019531 168.988281 197.425781 168.988281 C 196.507812 168.988281 195.917969 170.496094 195.917969 171.546875 Z M 199.179688 170.730469 C 199.179688 172.980469 197.367188 174.632812 194.371094 174.832031 L 194.378906 174.707031 C 196.6875 174.273438 197.636719 173.15625 197.992188 171.957031 L 197.964844 171.9375 C 197.539062 172.511719 197.0625 172.789062 196.4375 172.789062 C 195.445312 172.789062 194.953125 172.113281 194.953125 171.261719 C 194.953125 170.097656 195.96875 168.8125 197.460938 168.8125 C 198.582031 168.8125 199.179688 169.648438 199.179688 170.730469 "
         style="stroke:none;fill-rule:nonzero;fill:#000000;fill-opacity:1" />
    </g>
    <g
       style="fill:#000000;fill-opacity:1"
       id="g9349"
       clip-rule="nonzero"
       clip-path="url(#clip25)">
      <path
         id="path9347"
         d="M 199.3125 174.707031 L 203.644531 169.75 L 201.285156 169.75 C 200.765625 169.75 200.570312 169.890625 200.050781 170.800781 L 199.945312 170.800781 L 200.460938 168.933594 L 204.339844 168.933594 L 204.367188 169.03125 L 201.988281 172.328125 L 200.320312 174.769531 L 199.3125 174.769531 L 199.3125 174.707031 "
         style="stroke:none;fill-rule:nonzero;fill:#000000;fill-opacity:1" />
    </g>
    <g
       style="fill:#000000;fill-opacity:1"
       id="g9353"
       clip-rule="nonzero"
       clip-path="url(#clip26)">
      <path
         id="path9351"
         d="M 205.777344 174.621094 C 207.148438 174.621094 207.9375 171.859375 207.9375 170.324219 C 207.9375 169.464844 207.660156 168.988281 207.0625 168.988281 C 205.6875 168.988281 204.898438 171.757812 204.898438 173.292969 C 204.898438 174.152344 205.175781 174.621094 205.777344 174.621094 Z M 205.777344 174.804688 C 204.699219 174.804688 203.953125 174.050781 203.953125 172.667969 C 203.953125 171.035156 205.160156 168.8125 207.0625 168.8125 C 208.136719 168.8125 208.886719 169.570312 208.886719 170.949219 C 208.886719 172.582031 207.675781 174.804688 205.777344 174.804688 "
         style="stroke:none;fill-rule:nonzero;fill:#000000;fill-opacity:1" />
    </g>
    <path
       id="path9355"
       d="M 211.050781 172.25 L 213.273438 172.25 L 213.175781 172.609375 L 210.953125 172.609375 L 211.050781 172.25 "
       style="stroke:none;fill-rule:nonzero;fill:#000000;fill-opacity:1" />
    <g
       style="fill:#000000;fill-opacity:1"
       id="g9359"
       clip-rule="nonzero"
       clip-path="url(#clip27)">
      <path
         id="path9357"
         d="M 215.289062 174.074219 L 217.414062 172.582031 C 218.648438 171.738281 219.125 171.046875 219.125 170.097656 C 219.125 169.378906 218.832031 168.96875 218.207031 168.96875 C 217.761719 168.96875 217.320312 169.222656 217.085938 169.585938 C 217.433594 169.691406 217.625 169.933594 217.625 170.253906 C 217.625 170.59375 217.363281 170.90625 216.988281 170.90625 C 216.617188 170.90625 216.375 170.644531 216.375 170.238281 C 216.375 169.464844 217.242188 168.8125 218.335938 168.8125 C 219.519531 168.8125 220.132812 169.429688 220.132812 170.175781 C 220.132812 171.019531 219.464844 171.589844 217.136719 173.050781 L 215.90625 173.867188 L 215.90625 173.890625 L 218.136719 173.890625 C 218.753906 173.890625 218.972656 173.734375 219.449219 172.980469 L 219.5625 172.988281 L 219.074219 174.683594 L 215.148438 174.683594 L 215.289062 174.074219 "
         style="stroke:none;fill-rule:nonzero;fill:#000000;fill-opacity:1" />
    </g>
    <g
       style="fill:#000000;fill-opacity:1"
       id="g9363"
       clip-rule="nonzero"
       clip-path="url(#clip28)">
      <path
         id="path9361"
         d="M 222.273438 174.621094 C 223.644531 174.621094 224.433594 171.859375 224.433594 170.324219 C 224.433594 169.464844 224.15625 168.988281 223.558594 168.988281 C 222.1875 168.988281 221.394531 171.757812 221.394531 173.292969 C 221.394531 174.152344 221.671875 174.621094 222.273438 174.621094 Z M 222.273438 174.804688 C 221.195312 174.804688 220.449219 174.050781 220.449219 172.667969 C 220.449219 171.035156 221.65625 168.8125 223.558594 168.8125 C 224.632812 168.8125 225.382812 169.570312 225.382812 170.949219 C 225.382812 172.582031 224.171875 174.804688 222.273438 174.804688 "
         style="stroke:none;fill-rule:nonzero;fill:#000000;fill-opacity:1" />
    </g>
    <g
       style="fill:#000000;fill-opacity:1"
       id="g9367"
       clip-rule="nonzero"
       clip-path="url(#clip29)">
      <path
         id="path9365"
         d="M 225.410156 174.074219 L 227.535156 172.582031 C 228.769531 171.738281 229.246094 171.046875 229.246094 170.097656 C 229.246094 169.378906 228.953125 168.96875 228.328125 168.96875 C 227.882812 168.96875 227.441406 169.222656 227.207031 169.585938 C 227.554688 169.691406 227.746094 169.933594 227.746094 170.253906 C 227.746094 170.59375 227.484375 170.90625 227.109375 170.90625 C 226.738281 170.90625 226.496094 170.644531 226.496094 170.238281 C 226.496094 169.464844 227.363281 168.8125 228.457031 168.8125 C 229.640625 168.8125 230.253906 169.429688 230.253906 170.175781 C 230.253906 171.019531 229.585938 171.589844 227.257812 173.050781 L 226.027344 173.867188 L 226.027344 173.890625 L 228.257812 173.890625 C 228.875 173.890625 229.089844 173.734375 229.566406 172.980469 L 229.683594 172.988281 L 229.195312 174.683594 L 225.269531 174.683594 L 225.410156 174.074219 "
         style="stroke:none;fill-rule:nonzero;fill:#000000;fill-opacity:1" />
    </g>
    <g
       style="fill:#000000;fill-opacity:1"
       id="g9371"
       clip-rule="nonzero"
       clip-path="url(#clip30)">
      <path
         id="path9369"
         d="M 232.394531 174.621094 C 233.765625 174.621094 234.554688 171.859375 234.554688 170.324219 C 234.554688 169.464844 234.277344 168.988281 233.679688 168.988281 C 232.308594 168.988281 231.515625 171.757812 231.515625 173.292969 C 231.515625 174.152344 231.792969 174.621094 232.394531 174.621094 Z M 232.394531 174.804688 C 231.316406 174.804688 230.570312 174.050781 230.570312 172.667969 C 230.570312 171.035156 231.777344 168.8125 233.679688 168.8125 C 234.753906 168.8125 235.5 169.570312 235.5 170.949219 C 235.5 172.582031 234.292969 174.804688 232.394531 174.804688 "
         style="stroke:none;fill-rule:nonzero;fill:#000000;fill-opacity:1" />
    </g>
    <path
       id="path9373"
       d="M 192.40625 117.351562 C 192.40625 115.484375 193.898438 113.539062 196.132812 113.539062 C 196.816406 113.539062 197.339844 113.773438 197.667969 113.992188 L 198.144531 113.566406 L 198.285156 113.566406 L 197.71875 115.625 L 197.582031 115.625 C 197.199219 114.171875 196.957031 113.703125 196.078125 113.703125 C 194.636719 113.703125 193.476562 115.832031 193.476562 117.550781 C 193.476562 118.800781 194.089844 119.546875 195.21875 119.546875 C 196.078125 119.546875 196.851562 118.957031 197.511719 118.078125 L 197.640625 118.175781 C 197.035156 119.035156 196.140625 119.886719 194.828125 119.886719 C 193.429688 119.886719 192.40625 118.863281 192.40625 117.351562 "
       style="stroke:none;fill-rule:nonzero;fill:#000000;fill-opacity:1" />
    <path
       id="path9375"
       d="M 199.03125 117.65625 C 200.640625 117.628906 200.917969 116.917969 200.917969 116.34375 C 200.917969 116.003906 200.742188 115.855469 200.484375 115.855469 C 199.875 115.855469 199.242188 116.71875 199.03125 117.65625 Z M 199.007812 117.792969 C 198.972656 117.957031 198.964844 118.125 198.964844 118.28125 C 198.964844 119.078125 199.214844 119.476562 199.910156 119.476562 C 200.363281 119.476562 200.855469 119.191406 201.1875 118.75 L 201.300781 118.84375 C 200.832031 119.476562 200.25 119.816406 199.546875 119.816406 C 198.757812 119.816406 198.042969 119.339844 198.042969 118.296875 C 198.042969 116.984375 199.121094 115.675781 200.527344 115.675781 C 201.316406 115.675781 201.707031 116.058594 201.707031 116.570312 C 201.707031 117.246094 200.855469 117.828125 199.007812 117.792969 "
       style="stroke:none;fill-rule:nonzero;fill:#000000;fill-opacity:1" />
    <path
       id="path9377"
       d="M 202.992188 118.816406 C 202.960938 118.957031 202.933594 119.078125 202.933594 119.183594 C 202.933594 119.460938 203.160156 119.539062 203.828125 119.496094 L 203.828125 119.582031 C 203.664062 119.652344 203.167969 119.800781 202.785156 119.800781 C 202.289062 119.800781 202.039062 119.597656 202.039062 119.207031 C 202.039062 119.097656 202.066406 118.957031 202.109375 118.808594 L 203.027344 115.761719 L 203.453125 114.148438 C 203.523438 113.871094 203.367188 113.738281 202.726562 113.703125 L 202.726562 113.601562 L 204.539062 113.511719 L 202.992188 118.816406 "
       style="stroke:none;fill-rule:nonzero;fill:#000000;fill-opacity:1" />
    <path
       id="path9379"
       d="M 205.445312 117.65625 C 207.050781 117.628906 207.328125 116.917969 207.328125 116.34375 C 207.328125 116.003906 207.152344 115.855469 206.894531 115.855469 C 206.285156 115.855469 205.652344 116.71875 205.445312 117.65625 Z M 205.417969 117.792969 C 205.382812 117.957031 205.375 118.125 205.375 118.28125 C 205.375 119.078125 205.628906 119.476562 206.320312 119.476562 C 206.773438 119.476562 207.269531 119.191406 207.597656 118.75 L 207.710938 118.84375 C 207.242188 119.476562 206.660156 119.816406 205.957031 119.816406 C 205.167969 119.816406 204.453125 119.339844 204.453125 118.296875 C 204.453125 116.984375 205.53125 115.675781 206.9375 115.675781 C 207.726562 115.675781 208.117188 116.058594 208.117188 116.570312 C 208.117188 117.246094 207.269531 117.828125 205.417969 117.792969 "
       style="stroke:none;fill-rule:nonzero;fill:#000000;fill-opacity:1" />
    <path
       id="path9381"
       d="M 211.4375 117.011719 C 211.4375 116.449219 211.21875 116.117188 210.761719 116.117188 C 210.480469 116.117188 210.1875 116.300781 209.9375 116.535156 L 209.230469 119.253906 C 209.335938 119.511719 209.578125 119.652344 209.867188 119.652344 C 210.769531 119.652344 211.4375 118.113281 211.4375 117.011719 Z M 209.777344 119.816406 C 209.1875 119.816406 208.753906 119.679688 208.292969 119.304688 L 208.816406 117.523438 L 209.664062 114.148438 C 209.742188 113.871094 209.578125 113.738281 208.9375 113.703125 L 208.9375 113.601562 L 210.769531 113.511719 L 209.976562 116.316406 L 210.003906 116.335938 C 210.414062 115.910156 210.820312 115.675781 211.300781 115.675781 C 211.898438 115.675781 212.355469 116.136719 212.355469 116.996094 C 212.355469 118.316406 211.273438 119.816406 209.777344 119.816406 "
       style="stroke:none;fill-rule:nonzero;fill:#000000;fill-opacity:1" />
    <path
       id="path9383"
       d="M 216.492188 116.273438 C 216.492188 116.664062 216.257812 116.933594 215.9375 116.933594 C 215.644531 116.933594 215.425781 116.785156 215.425781 116.472656 C 215.425781 116.386719 215.449219 116.222656 215.539062 116.125 C 215.199219 116.144531 214.765625 116.507812 214.417969 116.917969 L 213.722656 119.738281 L 212.777344 119.738281 L 213.191406 118.332031 L 213.730469 116.34375 C 213.808594 116.066406 213.722656 115.9375 213.183594 115.902344 L 213.183594 115.796875 L 214.757812 115.71875 L 214.46875 116.65625 L 214.488281 116.671875 C 214.867188 116.144531 215.382812 115.683594 215.851562 115.683594 C 216.277344 115.683594 216.492188 115.953125 216.492188 116.273438 "
       style="stroke:none;fill-rule:nonzero;fill:#000000;fill-opacity:1" />
    <path
       id="path9385"
       d="M 217.304688 118.4375 C 217.304688 119.042969 217.511719 119.433594 217.9375 119.433594 C 218.273438 119.433594 218.585938 119.097656 218.828125 118.671875 L 219.445312 116.613281 C 219.386719 116.179688 219.144531 115.875 218.820312 115.875 C 217.960938 115.875 217.304688 117.566406 217.304688 118.4375 Z M 219.671875 118.816406 C 219.621094 119 219.585938 119.15625 219.585938 119.269531 C 219.585938 119.519531 219.804688 119.582031 220.339844 119.539062 L 220.339844 119.625 C 220.113281 119.710938 219.75 119.808594 219.464844 119.808594 C 219.019531 119.808594 218.777344 119.703125 218.777344 119.3125 C 218.777344 119.242188 218.785156 119.15625 218.820312 119.019531 L 218.804688 119.007812 C 218.394531 119.589844 218.023438 119.816406 217.519531 119.816406 C 216.824219 119.816406 216.363281 119.304688 216.363281 118.425781 C 216.363281 117.0625 217.546875 115.675781 218.699219 115.675781 C 219.203125 115.675781 219.410156 115.902344 219.578125 116.230469 L 219.734375 115.777344 L 220.644531 115.675781 L 220.175781 117.074219 L 219.671875 118.816406 "
       style="stroke:none;fill-rule:nonzero;fill:#000000;fill-opacity:1" />
    <path
       id="path9387"
       d="M 222.929688 115.953125 L 222.199219 118.566406 C 222.148438 118.75 222.121094 118.894531 222.121094 119.019531 C 222.121094 119.296875 222.277344 119.417969 222.601562 119.417969 C 222.808594 119.417969 223.121094 119.363281 223.371094 119.296875 L 223.371094 119.382812 C 223.097656 119.546875 222.59375 119.816406 222.078125 119.816406 C 221.480469 119.816406 221.210938 119.554688 221.210938 119.097656 C 221.210938 118.949219 221.238281 118.78125 221.289062 118.601562 L 222.0625 115.953125 L 221.289062 115.953125 L 221.351562 115.761719 L 222.113281 115.761719 L 222.488281 114.476562 L 223.433594 114.335938 L 222.980469 115.761719 L 224.066406 115.761719 L 224.007812 115.953125 L 222.929688 115.953125 "
       style="stroke:none;fill-rule:nonzero;fill:#000000;fill-opacity:1" />
    <path
       id="path9389"
       d="M 226.03125 113.660156 C 226.257812 113.660156 226.457031 113.808594 226.457031 114.113281 C 226.457031 114.511719 226.171875 114.875 225.8125 114.875 C 225.589844 114.875 225.382812 114.710938 225.382812 114.40625 C 225.382812 114.007812 225.675781 113.660156 226.03125 113.660156 Z M 225.851562 119.589844 C 225.683594 119.660156 225.226562 119.808594 224.84375 119.808594 C 224.347656 119.808594 224.09375 119.597656 224.09375 119.21875 C 224.09375 119.097656 224.121094 118.964844 224.164062 118.808594 L 224.929688 116.34375 C 225.015625 116.058594 224.789062 115.9375 224.25 115.902344 L 224.25 115.796875 L 226.015625 115.71875 L 225.058594 118.828125 C 225.007812 118.984375 224.980469 119.113281 224.980469 119.207031 C 224.980469 119.476562 225.199219 119.539062 225.851562 119.503906 L 225.851562 119.589844 "
       style="stroke:none;fill-rule:nonzero;fill:#000000;fill-opacity:1" />
    <path
       id="path9391"
       d="M 227.394531 116.34375 C 227.476562 116.066406 227.386719 115.9375 226.847656 115.902344 L 226.847656 115.796875 L 228.421875 115.71875 L 228.160156 116.558594 L 228.179688 116.578125 C 228.699219 116.046875 229.316406 115.691406 229.800781 115.691406 C 230.339844 115.691406 230.625 115.988281 230.625 116.492188 C 230.625 116.65625 230.601562 116.855469 230.53125 117.074219 L 229.941406 118.90625 C 229.886719 119.070312 229.851562 119.199219 229.851562 119.296875 C 229.851562 119.539062 230.0625 119.582031 230.632812 119.539062 L 230.632812 119.625 C 230.484375 119.6875 230.105469 119.808594 229.757812 119.808594 C 229.261719 119.808594 229.003906 119.652344 229.003906 119.269531 C 229.003906 119.164062 229.027344 119.007812 229.078125 118.851562 L 229.644531 117.109375 C 229.703125 116.90625 229.738281 116.761719 229.738281 116.605469 C 229.738281 116.335938 229.609375 116.179688 229.28125 116.179688 C 228.941406 116.179688 228.535156 116.40625 228.125 116.761719 L 227.386719 119.738281 L 226.441406 119.738281 L 226.855469 118.332031 L 227.394531 116.34375 "
       style="stroke:none;fill-rule:nonzero;fill:#000000;fill-opacity:1" />
    <path
       id="path9393"
       d="M 232.210938 118.425781 C 232.210938 119.035156 232.449219 119.332031 232.902344 119.332031 C 233.226562 119.332031 233.457031 119.15625 233.691406 118.808594 L 234.351562 116.578125 C 234.257812 116.214844 234.015625 115.875 233.667969 115.875 C 232.773438 115.875 232.210938 117.566406 232.210938 118.425781 Z M 231.28125 118.347656 C 231.28125 117.082031 232.382812 115.675781 233.546875 115.675781 C 234.039062 115.675781 234.285156 115.875 234.484375 116.167969 L 234.621094 115.777344 L 235.542969 115.675781 L 235.074219 117.082031 L 234.308594 119.800781 C 233.980469 120.953125 233.449219 121.476562 232.164062 121.476562 C 231.21875 121.476562 230.757812 121.050781 230.757812 120.632812 C 230.757812 120.269531 231.003906 120.007812 231.332031 120.007812 C 231.636719 120.007812 231.808594 120.214844 231.808594 120.503906 C 231.808594 120.703125 231.679688 120.894531 231.496094 120.996094 C 231.617188 121.195312 231.867188 121.308594 232.15625 121.308594 C 232.816406 121.308594 233.1875 120.78125 233.457031 119.851562 L 233.667969 119.113281 L 233.640625 119.105469 C 233.292969 119.519531 232.972656 119.738281 232.476562 119.738281 C 231.824219 119.738281 231.28125 119.234375 231.28125 118.347656 "
       style="stroke:none;fill-rule:nonzero;fill:#000000;fill-opacity:1" />
  </g>
</svg>
