<?xml version="1.0" encoding="UTF-8" standalone="no"?>
<svg
   xmlns:dc="http://purl.org/dc/elements/1.1/"
   xmlns:cc="http://creativecommons.org/ns#"
   xmlns:rdf="http://www.w3.org/1999/02/22-rdf-syntax-ns#"
   xmlns:svg="http://www.w3.org/2000/svg"
   xmlns="http://www.w3.org/2000/svg"
   xmlns:sodipodi="http://sodipodi.sourceforge.net/DTD/sodipodi-0.dtd"
   xmlns:inkscape="http://www.inkscape.org/namespaces/inkscape"
   inkscape:version="1.0beta2 (2b71d25, 2019-12-03)"
   sodipodi:docname="JCU 50th Logo - Vertical &amp; Shield SMALL-USE ONLY CMYK.pdf.svg"
   id="svg6952"
   version="1.1"
   viewBox="0 0 145.69 78.35"
   height="78.35pt"
   width="145.69pt">
  <metadata
     id="metadata6956">
    <rdf:RDF>
      <cc:Work
         rdf:about="">
        <dc:format>image/svg+xml</dc:format>
        <dc:type
           rdf:resource="http://purl.org/dc/dcmitype/StillImage" />
        <dc:title></dc:title>
      </cc:Work>
    </rdf:RDF>
  </metadata>
  <sodipodi:namedview
     inkscape:current-layer="surface1"
     inkscape:window-maximized="0"
     inkscape:window-y="154"
     inkscape:window-x="1822"
     inkscape:cy="52.233332"
     inkscape:cx="47.261637"
     inkscape:zoom="2.4967396"
     showgrid="false"
     id="namedview6954"
     inkscape:window-height="832"
     inkscape:window-width="1420"
     inkscape:pageshadow="2"
     inkscape:pageopacity="0"
     guidetolerance="10"
     gridtolerance="10"
     objecttolerance="10"
     borderopacity="1"
     inkscape:document-rotation="0"
     bordercolor="#666666"
     pagecolor="#ffffff" />
  <defs
     id="defs6785">
    <clipPath
       id="clip1">
      <path
         id="path6725"
         d="M 82 17 L 83 17 L 83 78.351562 L 82 78.351562 Z M 82 17 " />
    </clipPath>
    <clipPath
       id="clip2">
      <path
         id="path6728"
         d="M 1 72 L 7 72 L 7 78.351562 L 1 78.351562 Z M 1 72 " />
    </clipPath>
    <clipPath
       id="clip3">
      <path
         id="path6731"
         d="M 7 72 L 12 72 L 12 78.351562 L 7 78.351562 Z M 7 72 " />
    </clipPath>
    <clipPath
       id="clip4">
      <path
         id="path6734"
         d="M 12 72 L 17 72 L 17 78.351562 L 12 78.351562 Z M 12 72 " />
    </clipPath>
    <clipPath
       id="clip5">
      <path
         id="path6737"
         d="M 16 72 L 22 72 L 22 78.351562 L 16 78.351562 Z M 16 72 " />
    </clipPath>
    <clipPath
       id="clip6">
      <path
         id="path6740"
         d="M 22 72 L 27 72 L 27 78.351562 L 22 78.351562 Z M 22 72 " />
    </clipPath>
    <clipPath
       id="clip7">
      <path
         id="path6743"
         d="M 27 72 L 34 72 L 34 78.351562 L 27 78.351562 Z M 27 72 " />
    </clipPath>
    <clipPath
       id="clip8">
      <path
         id="path6746"
         d="M 33 72 L 38 72 L 38 78.351562 L 33 78.351562 Z M 33 72 " />
    </clipPath>
    <clipPath
       id="clip9">
      <path
         id="path6749"
         d="M 38 72 L 40 72 L 40 78.351562 L 38 78.351562 Z M 38 72 " />
    </clipPath>
    <clipPath
       id="clip10">
      <path
         id="path6752"
         d="M 40 72 L 46 72 L 46 78.351562 L 40 78.351562 Z M 40 72 " />
    </clipPath>
    <clipPath
       id="clip11">
      <path
         id="path6755"
         d="M 100 72 L 105 72 L 105 78.351562 L 100 78.351562 Z M 100 72 " />
    </clipPath>
    <clipPath
       id="clip12">
      <path
         id="path6758"
         d="M 104 72 L 110 72 L 110 78.351562 L 104 78.351562 Z M 104 72 " />
    </clipPath>
    <clipPath
       id="clip13">
      <path
         id="path6761"
         d="M 109 72 L 115 72 L 115 78.351562 L 109 78.351562 Z M 109 72 " />
    </clipPath>
    <clipPath
       id="clip14">
      <path
         id="path6764"
         d="M 114 72 L 119 72 L 119 78.351562 L 114 78.351562 Z M 114 72 " />
    </clipPath>
    <clipPath
       id="clip15">
      <path
         id="path6767"
         d="M 125 72 L 130 72 L 130 78.351562 L 125 78.351562 Z M 125 72 " />
    </clipPath>
    <clipPath
       id="clip16">
      <path
         id="path6770"
         d="M 130 72 L 135 72 L 135 78.351562 L 130 78.351562 Z M 130 72 " />
    </clipPath>
    <clipPath
       id="clip17">
      <path
         id="path6773"
         d="M 134 72 L 140 72 L 140 78.351562 L 134 78.351562 Z M 134 72 " />
    </clipPath>
    <clipPath
       id="clip18">
      <path
         id="path6776"
         d="M 140 72 L 145 72 L 145 78.351562 L 140 78.351562 Z M 140 72 " />
    </clipPath>
    <clipPath
       id="clip19">
      <path
         id="path6779"
         d="M 121 29 L 145.691406 29 L 145.691406 56 L 121 56 Z M 121 29 " />
    </clipPath>
    <clipPath
       id="clip20">
      <path
         id="path6782"
         d="M 140 60 L 145.691406 60 L 145.691406 67 L 140 67 Z M 140 60 " />
    </clipPath>
  </defs>
  <g
     id="surface1">
    <g
       style="fill:#000000;fill-opacity:1"
       id="g6789"
       clip-rule="nonzero"
       clip-path="url(#clip1)">
      <path
         id="path6787"
         d="M 82.816406 17.09375 L 82.300781 17.09375 L 82.300781 78.1875 L 82.816406 78.1875 L 82.816406 17.09375 "
         style="stroke:none;fill-rule:nonzero;fill:#000000;fill-opacity:1" />
    </g>
    <path
       id="path6791"
       d="M 1.734375 52.714844 C 1.734375 51.515625 1.710938 51.296875 0.28125 51.09375 L 0.28125 50.929688 L 4.035156 50.929688 L 4.035156 51.09375 C 2.726562 51.265625 2.691406 51.59375 2.691406 52.714844 L 2.691406 56.621094 C 2.703125 58.734375 2.453125 59.203125 0.0859375 60.21875 L 0 60.03125 C 1.601562 59.28125 1.734375 58.101562 1.734375 56.140625 L 1.734375 52.714844 "
       style="stroke:none;fill-rule:nonzero;fill:#000000;fill-opacity:1" />
    <path
       id="path6793"
       d="M 5.859375 55.234375 C 5.675781 55.78125 5.191406 56.914062 5.191406 57.4375 C 5.191406 58.101562 5.945312 58.101562 6.4375 58.179688 L 6.4375 58.34375 L 3.449219 58.34375 L 3.449219 58.179688 C 4.421875 57.917969 4.519531 57.699219 4.855469 56.847656 L 6.085938 53.632812 L 6.742188 51.855469 C 6.839844 51.570312 6.980469 51.308594 6.863281 51.101562 C 7.15625 50.984375 7.429688 50.785156 7.65625 50.515625 L 10.054688 56.902344 C 10.351562 57.699219 10.535156 58.015625 11.410156 58.179688 L 11.410156 58.34375 L 8.203125 58.34375 L 8.203125 58.179688 C 8.585938 58.09375 9.042969 57.972656 9.042969 57.480469 C 9.042969 57.023438 8.628906 56 8.34375 55.234375 Z M 7.070312 51.898438 L 6.042969 54.734375 L 8.203125 54.734375 Z M 7.070312 51.898438 "
       style="stroke:none;fill-rule:nonzero;fill:#000000;fill-opacity:1" />
    <path
       id="path6795"
       d="M 16.683594 56.75 L 18.660156 52.410156 C 18.933594 51.8125 19.085938 51.265625 18.84375 51.101562 L 18.867188 50.929688 L 21.265625 50.929688 L 21.265625 51.09375 C 20.566406 51.234375 20.144531 51.496094 20.183594 52.257812 L 20.425781 56.226562 C 20.546875 57.742188 20.546875 57.984375 21.710938 58.179688 L 21.710938 58.34375 L 18.125 58.34375 L 18.125 58.179688 C 18.964844 58.046875 19.5 57.949219 19.445312 56.992188 L 19.148438 52.226562 L 19.128906 52.226562 L 16.347656 58.34375 L 16.230469 58.34375 L 13.644531 52.476562 L 13.621094 52.476562 C 13.449219 54.144531 13.359375 55.355469 13.285156 57.042969 C 13.261719 57.46875 13.273438 57.960938 14.59375 58.179688 L 14.59375 58.34375 L 11.550781 58.34375 L 11.550781 58.179688 C 12.523438 58.015625 12.617188 57.546875 12.773438 56.664062 L 13.175781 53.601562 L 13.316406 52.117188 C 13.382812 51.398438 12.761719 51.144531 12.117188 51.09375 L 12.117188 50.929688 L 14.472656 50.929688 L 14.484375 51.046875 C 14.242188 51.296875 14.539062 51.953125 14.613281 52.128906 L 16.683594 56.75 "
       style="stroke:none;fill-rule:nonzero;fill:#000000;fill-opacity:1" />
    <path
       id="path6797"
       d="M 22.160156 58.179688 C 23.46875 58.003906 23.480469 57.675781 23.511719 56.554688 L 23.511719 52.714844 C 23.480469 51.59375 23.46875 51.265625 22.160156 51.09375 L 22.160156 50.929688 L 28.015625 50.929688 L 27.882812 52.605469 L 27.722656 52.605469 C 27.644531 51.199219 26.628906 51.1875 25.53125 51.1875 L 24.472656 51.1875 L 24.472656 54.296875 L 25.605469 54.296875 C 26.421875 54.296875 27.046875 54.230469 27.164062 53.292969 L 27.328125 53.292969 L 27.328125 55.726562 L 27.164062 55.726562 C 27.023438 54.765625 26.421875 54.753906 25.605469 54.753906 L 24.472656 54.753906 L 24.472656 56.542969 C 24.472656 57.1875 24.320312 58.082031 26.105469 58.082031 C 27.480469 58.082031 28.15625 57.558594 28.429688 56.183594 L 28.59375 56.183594 C 28.582031 57.011719 28.441406 57.6875 28.222656 58.34375 L 22.160156 58.34375 L 22.160156 58.179688 "
       style="stroke:none;fill-rule:nonzero;fill:#000000;fill-opacity:1" />
    <path
       id="path6799"
       d="M 33.589844 52.847656 L 33.414062 52.847656 C 33.238281 51.964844 32.957031 51.113281 31.875 51.113281 C 31.175781 51.113281 30.601562 51.59375 30.601562 52.3125 C 30.601562 54.199219 34.035156 54.132812 34.035156 56.335938 C 34.035156 57.742188 32.640625 58.472656 31.386719 58.472656 C 30.71875 58.472656 30.023438 58.277344 29.46875 57.917969 L 29.152344 56.0625 L 29.34375 56.0625 C 29.617188 57.109375 30.347656 58.148438 31.546875 58.148438 C 32.355469 58.148438 32.988281 57.667969 32.988281 56.816406 C 32.988281 54.875 29.652344 55.050781 29.652344 52.867188 C 29.652344 51.59375 30.917969 50.785156 32.082031 50.785156 C 32.640625 50.785156 33.195312 50.949219 33.675781 51.210938 L 33.589844 52.847656 "
       style="stroke:none;fill-rule:nonzero;fill:#000000;fill-opacity:1" />
    <path
       id="path6801"
       d="M 43.238281 53.175781 L 43.074219 53.175781 C 42.867188 51.941406 42.148438 51.058594 40.839844 51.058594 C 38.84375 51.058594 37.71875 52.695312 37.71875 54.570312 C 37.71875 56.71875 39.367188 58.210938 40.949219 58.210938 C 42.375 58.210938 42.945312 57.164062 43.433594 55.988281 L 43.589844 56.054688 C 43.457031 56.71875 43.25 57.371094 42.988281 58.003906 C 42.289062 58.34375 41.539062 58.472656 40.761719 58.472656 C 38.484375 58.472656 36.457031 57.164062 36.457031 54.699219 C 36.457031 52.761719 37.972656 50.796875 40.851562 50.796875 C 41.679688 50.796875 42.519531 50.960938 43.238281 51.386719 L 43.238281 53.175781 "
       style="stroke:none;fill-rule:nonzero;fill:#000000;fill-opacity:1" />
    <path
       id="path6803"
       d="M 52.136719 54.636719 C 52.136719 56.980469 50.4375 58.472656 48.148438 58.472656 C 45.847656 58.472656 44.15625 56.980469 44.15625 54.625 C 44.15625 52.300781 45.855469 50.796875 48.136719 50.796875 C 50.929688 50.796875 52.136719 52.695312 52.136719 54.636719 M 45.421875 54.363281 C 45.421875 56.054688 46.316406 58.210938 48.277344 58.210938 C 50.078125 58.210938 50.875 56.378906 50.875 54.820312 C 50.839844 52.890625 49.71875 51.058594 48.046875 51.058594 C 46.171875 51.058594 45.421875 52.890625 45.421875 54.363281 "
       style="stroke:none;fill-rule:nonzero;fill:#000000;fill-opacity:1" />
    <path
       id="path6805"
       d="M 60.894531 54.636719 C 60.894531 56.980469 59.195312 58.472656 56.90625 58.472656 C 54.601562 58.472656 52.914062 56.980469 52.914062 54.625 C 52.914062 52.300781 54.613281 50.796875 56.894531 50.796875 C 59.683594 50.796875 60.894531 52.695312 60.894531 54.636719 M 54.179688 54.363281 C 54.179688 56.054688 55.074219 58.210938 57.035156 58.210938 C 58.835938 58.210938 59.632812 56.378906 59.632812 54.820312 C 59.597656 52.890625 58.472656 51.058594 56.804688 51.058594 C 54.929688 51.058594 54.179688 52.890625 54.179688 54.363281 "
       style="stroke:none;fill-rule:nonzero;fill:#000000;fill-opacity:1" />
    <path
       id="path6807"
       d="M 63.40625 56.554688 C 63.4375 57.675781 63.449219 58.003906 64.855469 58.179688 L 64.855469 58.34375 L 61.09375 58.34375 L 61.09375 58.179688 C 62.402344 58.003906 62.414062 57.675781 62.445312 56.554688 L 62.445312 52.714844 C 62.414062 51.59375 62.402344 51.265625 61.09375 51.09375 L 61.09375 50.929688 L 64.5625 50.929688 L 64.5625 51.09375 C 63.449219 51.265625 63.4375 51.59375 63.40625 52.714844 Z M 68.335938 50.929688 L 68.335938 51.09375 C 67.09375 51.222656 66.265625 52.28125 65.457031 53.121094 L 64.429688 54.210938 L 66.644531 56.652344 C 67.308594 57.382812 68.09375 58.035156 69.066406 58.308594 L 69.011719 58.472656 C 67.113281 58.320312 66.808594 58.265625 65.78125 57.144531 L 63.558594 54.722656 L 65.316406 52.816406 C 66.460938 51.527344 66.242188 51.167969 65.511719 51.09375 L 65.511719 50.929688 L 68.335938 50.929688 "
       style="stroke:none;fill-rule:nonzero;fill:#000000;fill-opacity:1" />
    <path
       id="path6809"
       d="M 8.800781 61.160156 L 8.800781 61.324219 C 7.808594 61.433594 7.742188 62.046875 7.699219 63.484375 L 7.632812 65.871094 C 7.601562 67.28125 7 68.707031 4.582031 68.707031 C 1.199219 68.707031 1.550781 66.265625 1.550781 65.394531 L 1.550781 62.949219 C 1.515625 61.828125 1.503906 61.5 0.195312 61.324219 L 0.195312 61.160156 L 3.957031 61.160156 L 3.957031 61.324219 C 2.53125 61.53125 2.507812 61.75 2.507812 62.949219 L 2.507812 65.183594 C 2.507812 65.394531 2.160156 68.207031 5.144531 68.207031 C 7.5 68.207031 7.273438 65.960938 7.273438 64.628906 L 7.273438 63.484375 C 7.273438 62.097656 7.164062 61.46875 5.636719 61.324219 L 5.636719 61.160156 L 8.800781 61.160156 "
       style="stroke:none;fill-rule:nonzero;fill:#000000;fill-opacity:1" />
    <path
       id="path6811"
       d="M 16.386719 66.863281 L 16.332031 62.882812 C 16.320312 61.847656 16.039062 61.542969 14.804688 61.324219 L 14.804688 61.160156 L 17.78125 61.160156 L 17.78125 61.324219 C 17.027344 61.421875 16.886719 61.839844 16.800781 62.546875 C 16.648438 63.746094 16.703125 66.375 16.757812 68.75 L 16.617188 68.785156 C 14.871094 66.722656 12.929688 64.8125 11.085938 62.828125 L 11.085938 64.835938 C 11.085938 67.539062 11.023438 68.097656 12.601562 68.414062 L 12.601562 68.578125 L 9.34375 68.578125 L 9.34375 68.414062 C 10.816406 68.261719 10.761719 67.257812 10.761719 64.78125 L 10.761719 63.148438 C 10.761719 62.054688 10.585938 61.628906 9.203125 61.324219 L 9.203125 61.160156 L 11 61.160156 L 16.386719 66.863281 "
       style="stroke:none;fill-rule:nonzero;fill:#000000;fill-opacity:1" />
    <path
       id="path6813"
       d="M 20.558594 66.789062 C 20.589844 67.910156 20.601562 68.238281 21.910156 68.414062 L 21.910156 68.578125 L 18.246094 68.578125 L 18.246094 68.414062 C 19.554688 68.238281 19.566406 67.910156 19.597656 66.789062 L 19.597656 62.949219 C 19.566406 61.828125 19.554688 61.5 18.246094 61.324219 L 18.246094 61.160156 L 21.910156 61.160156 L 21.910156 61.324219 C 20.601562 61.5 20.589844 61.828125 20.558594 62.949219 L 20.558594 66.789062 "
       style="stroke:none;fill-rule:nonzero;fill:#000000;fill-opacity:1" />
    <path
       id="path6815"
       d="M 30.339844 61.160156 L 30.339844 61.324219 C 29.3125 61.414062 28.996094 62.273438 28.320312 63.855469 L 26.238281 68.828125 L 26.085938 68.828125 L 23.621094 62.929688 C 23.292969 62.132812 23.042969 61.433594 22.074219 61.324219 L 22.074219 61.160156 L 25.53125 61.160156 L 25.53125 61.324219 C 23.992188 61.476562 24.492188 62.351562 24.777344 63.039062 L 26.519531 67.246094 L 27.808594 64.160156 C 28.746094 61.925781 28.921875 61.566406 27.265625 61.324219 L 27.265625 61.160156 L 30.339844 61.160156 "
       style="stroke:none;fill-rule:nonzero;fill:#000000;fill-opacity:1" />
    <path
       id="path6817"
       d="M 30.4375 68.414062 C 31.746094 68.238281 31.757812 67.910156 31.789062 66.789062 L 31.789062 62.949219 C 31.757812 61.828125 31.746094 61.5 30.4375 61.324219 L 30.4375 61.160156 L 36.292969 61.160156 L 36.160156 62.839844 L 36 62.839844 C 35.921875 61.433594 34.90625 61.421875 33.804688 61.421875 L 32.75 61.421875 L 32.75 64.53125 L 33.882812 64.53125 C 34.699219 64.53125 35.324219 64.464844 35.441406 63.527344 L 35.605469 63.527344 L 35.605469 65.960938 L 35.441406 65.960938 C 35.300781 65 34.699219 64.992188 33.882812 64.992188 L 32.75 64.992188 L 32.75 66.777344 C 32.75 67.421875 32.597656 68.316406 34.386719 68.316406 C 35.757812 68.316406 36.433594 67.792969 36.707031 66.417969 L 36.871094 66.417969 C 36.859375 67.246094 36.71875 67.921875 36.5 68.578125 L 30.4375 68.578125 L 30.4375 68.414062 "
       style="stroke:none;fill-rule:nonzero;fill:#000000;fill-opacity:1" />
    <path
       id="path6819"
       d="M 38.644531 63.40625 C 38.644531 61.738281 38.589844 61.488281 37.371094 61.378906 L 37.371094 61.226562 L 40.03125 61.140625 C 42.777344 61.054688 42.996094 62.394531 42.996094 62.917969 C 42.996094 63.832031 42.429688 64.355469 41.644531 64.707031 L 41.699219 64.78125 C 42.539062 66.253906 43.585938 68.128906 45.386719 68.5 L 45.351562 68.664062 C 44.195312 68.609375 43.34375 68.640625 42.714844 67.988281 C 41.992188 67.234375 41.425781 66.277344 41.199219 65.804688 C 40.761719 64.902344 40.367188 65.164062 39.605469 65.03125 L 39.605469 66.789062 C 39.605469 67.988281 39.628906 68.207031 41.121094 68.414062 L 41.121094 68.578125 L 37.292969 68.578125 L 37.292969 68.414062 C 38.601562 68.238281 38.613281 67.910156 38.644531 66.789062 Z M 39.605469 64.847656 C 40.652344 64.835938 41.875 64.355469 41.875 63.148438 C 41.875 61.871094 40.75 61.359375 39.605469 61.367188 L 39.605469 64.847656 "
       style="stroke:none;fill-rule:nonzero;fill:#000000;fill-opacity:1" />
    <path
       id="path6821"
       d="M 49.511719 63.082031 L 49.335938 63.082031 C 49.164062 62.199219 48.878906 61.347656 47.800781 61.347656 C 47.101562 61.347656 46.523438 61.828125 46.523438 62.546875 C 46.523438 64.433594 49.957031 64.367188 49.957031 66.570312 C 49.957031 67.976562 48.5625 68.707031 47.308594 68.707031 C 46.644531 68.707031 45.945312 68.511719 45.390625 68.152344 L 45.074219 66.296875 L 45.269531 66.296875 C 45.542969 67.34375 46.273438 68.378906 47.472656 68.378906 C 48.28125 68.378906 48.910156 67.902344 48.910156 67.050781 C 48.910156 65.109375 45.574219 65.285156 45.574219 63.101562 C 45.574219 61.828125 46.839844 61.019531 48.007812 61.019531 C 48.5625 61.019531 49.117188 61.183594 49.597656 61.445312 L 49.511719 63.082031 "
       style="stroke:none;fill-rule:nonzero;fill:#000000;fill-opacity:1" />
    <path
       id="path6823"
       d="M 52.699219 66.789062 C 52.730469 67.910156 52.742188 68.238281 54.050781 68.414062 L 54.050781 68.578125 L 50.386719 68.578125 L 50.386719 68.414062 C 51.699219 68.238281 51.707031 67.910156 51.742188 66.789062 L 51.742188 62.949219 C 51.707031 61.828125 51.699219 61.5 50.386719 61.324219 L 50.386719 61.160156 L 54.050781 61.160156 L 54.050781 61.324219 C 52.742188 61.5 52.730469 61.828125 52.699219 62.949219 L 52.699219 66.789062 "
       style="stroke:none;fill-rule:nonzero;fill:#000000;fill-opacity:1" />
    <path
       id="path6825"
       d="M 61.253906 60.824219 L 61.339844 60.824219 L 61.492188 62.863281 L 61.339844 62.894531 C 60.957031 61.542969 60.359375 61.488281 59.105469 61.488281 L 58.449219 61.488281 L 58.449219 66.527344 C 58.449219 67.878906 58.515625 68.238281 59.976562 68.414062 L 59.976562 68.578125 L 55.964844 68.578125 L 55.964844 68.414062 C 57.425781 68.238281 57.488281 67.878906 57.488281 66.527344 L 57.488281 61.488281 L 56.835938 61.488281 C 55.582031 61.488281 54.980469 61.542969 54.597656 62.894531 L 54.449219 62.863281 L 54.597656 60.824219 L 54.6875 60.824219 L 54.796875 60.921875 C 55.070312 61.171875 55.113281 61.160156 55.472656 61.160156 L 60.46875 61.160156 C 60.828125 61.160156 60.871094 61.171875 61.144531 60.921875 L 61.253906 60.824219 "
       style="stroke:none;fill-rule:nonzero;fill:#000000;fill-opacity:1" />
    <path
       id="path6827"
       d="M 68.691406 61.160156 L 68.691406 61.324219 C 67.742188 61.402344 67.273438 61.925781 66.816406 62.710938 L 65.53125 65.261719 L 65.53125 66.496094 C 65.550781 67.746094 65.574219 68.195312 66.96875 68.414062 L 66.96875 68.578125 L 63.128906 68.578125 L 63.128906 68.414062 C 64.527344 68.195312 64.546875 67.746094 64.570312 66.496094 L 64.570312 65.621094 L 63.4375 63.148438 C 63.019531 62.230469 62.726562 61.457031 61.625 61.324219 L 61.625 61.160156 L 64.636719 61.160156 L 64.636719 61.324219 C 63.738281 61.445312 63.859375 61.804688 64.210938 62.570312 L 65.300781 64.925781 L 66.246094 63.125 C 66.925781 61.859375 66.835938 61.445312 65.890625 61.324219 L 65.890625 61.160156 L 68.691406 61.160156 "
       style="stroke:none;fill-rule:nonzero;fill:#000000;fill-opacity:1" />
    <path
       id="path6829"
       d="M 1.5 70.726562 L 68 70.726562 L 68 70.949219 L 1.5 70.949219 L 1.5 70.726562 "
       style="stroke:none;fill-rule:nonzero;fill:#000000;fill-opacity:1" />
    <path
       id="path6831"
       d="M 23.414062 25.875 C 22.648438 26.320312 21.546875 26.597656 20.324219 26.597656 C 19.101562 26.597656 18.003906 26.320312 17.230469 25.875 C 16.460938 25.429688 15.359375 25.15625 14.140625 25.15625 C 12.917969 25.15625 11.816406 25.429688 11.046875 25.875 C 10.277344 26.320312 9.175781 26.597656 7.953125 26.597656 C 6.730469 26.597656 5.632812 26.320312 4.863281 25.875 C 4.09375 25.429688 2.992188 25.15625 1.769531 25.15625 C 1.65625 25.15625 1.542969 25.160156 1.429688 25.164062 L 1.429688 28.027344 C 1.429688 28.457031 1.445312 28.875 1.46875 29.285156 C 1.570312 29.28125 1.667969 29.277344 1.769531 29.277344 C 2.992188 29.277344 4.09375 29.554688 4.863281 30 C 5.632812 30.441406 6.730469 30.71875 7.953125 30.71875 C 9.175781 30.71875 10.277344 30.441406 11.046875 30 C 11.816406 29.554688 12.917969 29.277344 14.140625 29.277344 C 15.359375 29.277344 16.460938 29.554688 17.230469 30 C 18.003906 30.441406 19.101562 30.71875 20.324219 30.71875 C 21.546875 30.71875 22.648438 30.441406 23.414062 30 C 24.1875 29.554688 25.285156 29.277344 26.507812 29.277344 C 26.609375 29.277344 26.710938 29.28125 26.808594 29.285156 C 26.835938 28.875 26.847656 28.457031 26.847656 28.027344 L 26.847656 25.164062 C 26.738281 25.160156 26.625 25.15625 26.507812 25.15625 C 25.285156 25.15625 24.1875 25.429688 23.414062 25.875 "
       style="stroke:none;fill-rule:nonzero;fill:#0069b4;fill-opacity:1" />
    <path
       id="path6833"
       d="M 20.324219 34.84375 C 19.101562 34.84375 18 34.566406 17.230469 34.125 C 16.460938 33.679688 15.359375 33.402344 14.140625 33.402344 C 12.917969 33.402344 11.816406 33.679688 11.046875 34.125 C 10.277344 34.566406 9.175781 34.84375 7.953125 34.84375 C 6.730469 34.84375 5.632812 34.566406 4.863281 34.125 C 4.179688 33.726562 3.234375 33.464844 2.175781 33.414062 C 2.714844 35.226562 3.519531 36.75 4.464844 38.050781 C 4.605469 38.113281 4.738281 38.175781 4.863281 38.246094 C 5.632812 38.691406 6.730469 38.96875 7.953125 38.96875 C 9.175781 38.96875 10.277344 38.691406 11.046875 38.246094 C 11.816406 37.804688 12.917969 37.523438 14.140625 37.523438 C 15.359375 37.523438 16.460938 37.800781 17.230469 38.246094 C 18 38.691406 19.101562 38.96875 20.324219 38.96875 C 21.546875 38.96875 22.648438 38.691406 23.414062 38.246094 C 23.539062 38.175781 23.675781 38.109375 23.816406 38.046875 C 24.761719 36.75 25.5625 35.226562 26.105469 33.414062 C 25.042969 33.464844 24.097656 33.726562 23.414062 34.125 C 22.648438 34.566406 21.546875 34.84375 20.324219 34.84375 "
       style="stroke:none;fill-rule:nonzero;fill:#0069b4;fill-opacity:1" />
    <path
       id="path6835"
       d="M 17.230469 42.371094 C 16.460938 41.929688 15.359375 41.648438 14.140625 41.648438 C 12.917969 41.648438 11.816406 41.929688 11.046875 42.371094 C 10.675781 42.585938 10.230469 42.757812 9.730469 42.882812 C 11.503906 44.066406 13.140625 44.9375 14.140625 45.773438 C 15.136719 44.9375 16.777344 44.066406 18.550781 42.882812 C 18.050781 42.757812 17.601562 42.585938 17.230469 42.371094 "
       style="stroke:none;fill-rule:nonzero;fill:#0069b4;fill-opacity:1" />
    <path
       id="path6837"
       d="M 23.414062 17.625 C 22.648438 18.070312 21.546875 18.347656 20.324219 18.347656 C 19.101562 18.347656 18.003906 18.070312 17.230469 17.625 C 16.460938 17.183594 15.359375 16.90625 14.140625 16.90625 C 12.917969 16.90625 11.816406 17.183594 11.046875 17.625 C 10.277344 18.070312 9.175781 18.347656 7.953125 18.347656 C 6.730469 18.347656 5.632812 18.070312 4.863281 17.625 C 4.09375 17.183594 2.992188 16.90625 1.769531 16.90625 C 1.65625 16.90625 1.542969 16.910156 1.429688 16.914062 L 1.429688 21.039062 C 1.542969 21.035156 1.65625 21.03125 1.769531 21.03125 C 2.992188 21.03125 4.09375 21.308594 4.863281 21.75 C 5.632812 22.195312 6.730469 22.472656 7.953125 22.472656 C 9.175781 22.472656 10.277344 22.195312 11.046875 21.75 C 11.816406 21.308594 12.917969 21.03125 14.140625 21.03125 C 15.359375 21.03125 16.460938 21.308594 17.230469 21.75 C 18.003906 22.195312 19.101562 22.472656 20.324219 22.472656 C 21.546875 22.472656 22.648438 22.195312 23.414062 21.75 C 24.1875 21.308594 25.285156 21.03125 26.507812 21.03125 C 26.625 21.03125 26.738281 21.035156 26.847656 21.039062 L 26.847656 16.914062 C 26.738281 16.910156 26.625 16.90625 26.507812 16.90625 C 25.285156 16.90625 24.1875 17.183594 23.414062 17.625 "
       style="stroke:none;fill-rule:nonzero;fill:#0069b4;fill-opacity:1" />
    <path
       id="path6839"
       d="M 14.140625 9.15625 C 11.839844 9.15625 9.972656 11.023438 9.972656 13.324219 C 9.972656 13.53125 9.992188 13.734375 10.023438 13.933594 C 10.40625 13.820312 10.75 13.671875 11.046875 13.503906 C 11.816406 13.058594 12.917969 12.78125 14.140625 12.78125 C 15.359375 12.78125 16.460938 13.058594 17.230469 13.503906 C 17.527344 13.671875 17.875 13.820312 18.257812 13.933594 C 18.285156 13.734375 18.304688 13.53125 18.304688 13.324219 C 18.304688 11.023438 16.441406 9.15625 14.140625 9.15625 Z M 8.460938 10.382812 C 8.378906 10.394531 8.296875 10.417969 8.210938 10.433594 C 7.992188 10.46875 7.78125 10.476562 7.570312 10.46875 C 7.355469 10.460938 7.101562 10.40625 6.957031 10.316406 C 6.917969 10.53125 7.1875 10.816406 7.414062 10.972656 C 7.570312 11.078125 7.734375 11.167969 7.910156 11.226562 C 7.976562 11.25 8.046875 11.261719 8.113281 11.289062 C 8.324219 11.359375 8.527344 11.496094 8.6875 11.640625 C 8.898438 11.824219 9.074219 12.058594 9.234375 12.269531 C 9.363281 11.660156 9.609375 11.089844 9.9375 10.585938 C 9.71875 10.507812 9.480469 10.421875 9.222656 10.382812 C 8.992188 10.34375 8.71875 10.339844 8.460938 10.382812 Z M 23.660156 13.324219 L 19.085938 12.503906 C 19.128906 12.773438 19.160156 13.046875 19.160156 13.324219 C 19.160156 13.601562 19.128906 13.875 19.085938 14.144531 Z M 9.191406 12.503906 L 4.621094 13.324219 L 9.195312 14.144531 C 9.152344 13.875 9.121094 13.601562 9.121094 13.324219 C 9.121094 13.046875 9.152344 12.773438 9.191406 12.503906 Z M 20.238281 11.390625 C 20.289062 11.320312 20.328125 11.246094 20.378906 11.179688 C 20.507812 10.996094 20.652344 10.84375 20.800781 10.699219 C 20.960938 10.554688 21.179688 10.40625 21.347656 10.371094 C 21.21875 10.195312 20.828125 10.179688 20.558594 10.234375 C 20.371094 10.269531 20.199219 10.316406 20.027344 10.402344 C 19.960938 10.433594 19.90625 10.472656 19.839844 10.503906 C 19.640625 10.597656 19.402344 10.648438 19.183594 10.660156 C 18.90625 10.679688 18.613281 10.636719 18.351562 10.601562 L 18.347656 10.601562 C 18.679688 11.109375 18.917969 11.679688 19.046875 12.289062 C 19.261719 12.191406 19.484375 12.082031 19.699219 11.929688 C 19.886719 11.789062 20.082031 11.601562 20.238281 11.390625 Z M 11.285156 9.203125 L 8.410156 7.59375 L 10.015625 10.46875 C 10.359375 9.972656 10.789062 9.542969 11.285156 9.203125 Z M 18.265625 10.46875 L 19.871094 7.59375 L 16.996094 9.203125 C 17.488281 9.542969 17.917969 9.972656 18.265625 10.46875 Z M 14.984375 8.382812 L 14.140625 0 L 13.296875 8.382812 C 13.570312 8.339844 13.851562 8.308594 14.140625 8.308594 C 14.425781 8.308594 14.707031 8.339844 14.984375 8.382812 Z M 11.214844 7.4375 C 11.246094 7.5 11.289062 7.558594 11.320312 7.625 C 11.414062 7.824219 11.464844 8.0625 11.476562 8.277344 C 11.492188 8.558594 11.453125 8.847656 11.417969 9.109375 L 11.417969 9.113281 C 11.921875 8.785156 12.492188 8.542969 13.105469 8.414062 C 13.003906 8.203125 12.898438 7.976562 12.742188 7.765625 C 12.605469 7.578125 12.414062 7.382812 12.207031 7.230469 C 12.136719 7.179688 12.0625 7.136719 11.992188 7.085938 C 11.808594 6.957031 11.660156 6.816406 11.515625 6.660156 C 11.367188 6.503906 11.222656 6.285156 11.1875 6.113281 C 11.011719 6.246094 10.996094 6.636719 11.046875 6.90625 C 11.085938 7.09375 11.136719 7.269531 11.214844 7.4375 Z M 17.085938 8.40625 C 17.117188 8.179688 17.125 7.90625 17.085938 7.644531 C 17.070312 7.5625 17.046875 7.480469 17.03125 7.394531 C 16.996094 7.175781 16.988281 6.96875 16.996094 6.757812 C 17.003906 6.542969 17.050781 6.285156 17.148438 6.140625 C 16.933594 6.105469 16.648438 6.371094 16.492188 6.601562 C 16.386719 6.757812 16.296875 6.917969 16.238281 7.09375 C 16.214844 7.160156 16.199219 7.234375 16.175781 7.296875 C 16.101562 7.507812 15.96875 7.714844 15.828125 7.875 C 15.640625 8.082031 15.40625 8.261719 15.191406 8.417969 C 15.804688 8.550781 16.371094 8.792969 16.878906 9.125 C 16.957031 8.902344 17.039062 8.664062 17.085938 8.40625 "
       style="stroke:none;fill-rule:nonzero;fill:#edb800;fill-opacity:1" />
    <g
       style="fill:#000000;fill-opacity:1"
       id="g6843"
       clip-rule="nonzero"
       clip-path="url(#clip2)">
      <path
         id="path6841"
         d="M 5.101562 76.078125 L 4.191406 73.964844 L 3.285156 76.078125 Z M 3.773438 72.855469 L 4.636719 72.855469 L 6.960938 78.175781 L 5.980469 78.175781 L 5.441406 76.902344 L 2.945312 76.902344 L 2.402344 78.175781 L 1.449219 78.175781 L 3.773438 72.855469 "
         style="stroke:none;fill-rule:nonzero;fill:#000000;fill-opacity:1" />
    </g>
    <g
       style="fill:#000000;fill-opacity:1"
       id="g6847"
       clip-rule="nonzero"
       clip-path="url(#clip3)">
      <path
         id="path6845"
         d="M 7.28125 75.9375 L 7.28125 72.894531 L 8.210938 72.894531 L 8.210938 75.898438 C 8.210938 76.878906 8.714844 77.398438 9.546875 77.398438 C 10.367188 77.398438 10.875 76.910156 10.875 75.9375 L 10.875 72.894531 L 11.800781 72.894531 L 11.800781 75.890625 C 11.800781 77.46875 10.910156 78.261719 9.53125 78.261719 C 8.15625 78.261719 7.28125 77.46875 7.28125 75.9375 "
         style="stroke:none;fill-rule:nonzero;fill:#000000;fill-opacity:1" />
    </g>
    <g
       style="fill:#000000;fill-opacity:1"
       id="g6851"
       clip-rule="nonzero"
       clip-path="url(#clip4)">
      <path
         id="path6849"
         d="M 12.351562 77.40625 L 12.910156 76.742188 C 13.414062 77.179688 13.929688 77.429688 14.578125 77.429688 C 15.152344 77.429688 15.515625 77.15625 15.515625 76.765625 L 15.515625 76.75 C 15.515625 76.375 15.300781 76.167969 14.320312 75.941406 C 13.199219 75.671875 12.5625 75.339844 12.5625 74.367188 L 12.5625 74.351562 C 12.5625 73.445312 13.320312 72.820312 14.367188 72.820312 C 15.136719 72.820312 15.746094 73.054688 16.285156 73.484375 L 15.785156 74.183594 C 15.308594 73.832031 14.835938 73.640625 14.351562 73.640625 C 13.808594 73.640625 13.492188 73.921875 13.492188 74.269531 L 13.492188 74.28125 C 13.492188 74.691406 13.734375 74.871094 14.753906 75.113281 C 15.867188 75.382812 16.441406 75.785156 16.441406 76.660156 L 16.441406 76.675781 C 16.441406 77.664062 15.664062 78.253906 14.554688 78.253906 C 13.75 78.253906 12.984375 77.972656 12.351562 77.40625 "
         style="stroke:none;fill-rule:nonzero;fill:#000000;fill-opacity:1" />
    </g>
    <g
       style="fill:#000000;fill-opacity:1"
       id="g6855"
       clip-rule="nonzero"
       clip-path="url(#clip5)">
      <path
         id="path6853"
         d="M 18.605469 73.753906 L 16.929688 73.753906 L 16.929688 72.894531 L 21.21875 72.894531 L 21.21875 73.753906 L 19.542969 73.753906 L 19.542969 78.175781 L 18.605469 78.175781 L 18.605469 73.753906 "
         style="stroke:none;fill-rule:nonzero;fill:#000000;fill-opacity:1" />
    </g>
    <g
       style="fill:#000000;fill-opacity:1"
       id="g6859"
       clip-rule="nonzero"
       clip-path="url(#clip6)">
      <path
         id="path6857"
         d="M 24.332031 75.511719 C 24.996094 75.511719 25.417969 75.164062 25.417969 74.628906 L 25.417969 74.613281 C 25.417969 74.050781 25.011719 73.738281 24.324219 73.738281 L 22.972656 73.738281 L 22.972656 75.511719 Z M 22.046875 72.894531 L 24.402344 72.894531 C 25.066406 72.894531 25.585938 73.089844 25.925781 73.421875 C 26.207031 73.710938 26.363281 74.101562 26.363281 74.5625 L 26.363281 74.578125 C 26.363281 75.445312 25.84375 75.964844 25.109375 76.175781 L 26.535156 78.175781 L 25.433594 78.175781 L 24.136719 76.335938 L 22.972656 76.335938 L 22.972656 78.175781 L 22.046875 78.175781 L 22.046875 72.894531 "
         style="stroke:none;fill-rule:nonzero;fill:#000000;fill-opacity:1" />
    </g>
    <g
       style="fill:#000000;fill-opacity:1"
       id="g6863"
       clip-rule="nonzero"
       clip-path="url(#clip7)">
      <path
         id="path6861"
         d="M 31.167969 76.078125 L 30.253906 73.964844 L 29.351562 76.078125 Z M 29.839844 72.855469 L 30.699219 72.855469 L 33.027344 78.175781 L 32.042969 78.175781 L 31.507812 76.902344 L 29.011719 76.902344 L 28.46875 78.175781 L 27.515625 78.175781 L 29.839844 72.855469 "
         style="stroke:none;fill-rule:nonzero;fill:#000000;fill-opacity:1" />
    </g>
    <g
       style="fill:#000000;fill-opacity:1"
       id="g6867"
       clip-rule="nonzero"
       clip-path="url(#clip8)">
      <path
         id="path6865"
         d="M 33.980469 72.894531 L 34.910156 72.894531 L 34.910156 77.332031 L 37.6875 77.332031 L 37.6875 78.175781 L 33.980469 78.175781 L 33.980469 72.894531 "
         style="stroke:none;fill-rule:nonzero;fill:#000000;fill-opacity:1" />
    </g>
    <g
       style="fill:#000000;fill-opacity:1"
       id="g6871"
       clip-rule="nonzero"
       clip-path="url(#clip9)">
      <path
         id="path6869"
         d="M 38.554688 72.894531 L 39.480469 72.894531 L 39.480469 78.175781 L 38.554688 78.175781 L 38.554688 72.894531 "
         style="stroke:none;fill-rule:nonzero;fill:#000000;fill-opacity:1" />
    </g>
    <g
       style="fill:#000000;fill-opacity:1"
       id="g6875"
       clip-rule="nonzero"
       clip-path="url(#clip10)">
      <path
         id="path6873"
         d="M 44.046875 76.078125 L 43.132812 73.964844 L 42.226562 76.078125 Z M 42.71875 72.855469 L 43.578125 72.855469 L 45.902344 78.175781 L 44.921875 78.175781 L 44.386719 76.902344 L 41.886719 76.902344 L 41.34375 78.175781 L 40.394531 78.175781 L 42.71875 72.855469 "
         style="stroke:none;fill-rule:nonzero;fill:#000000;fill-opacity:1" />
    </g>
    <g
       style="fill:#000000;fill-opacity:1"
       id="g6879"
       clip-rule="nonzero"
       clip-path="url(#clip11)">
      <path
         id="path6877"
         d="M 100.789062 78.210938 L 100.855469 78.148438 C 101.679688 78.140625 101.945312 78.066406 102.050781 77.667969 L 103.125 73.625 C 103.195312 73.355469 103.222656 73.171875 103.121094 73.042969 C 103.011719 72.886719 102.75 72.820312 102.195312 72.800781 L 102.269531 72.746094 L 104.316406 72.613281 L 102.902344 77.648438 C 102.871094 77.753906 102.851562 77.875 102.917969 77.96875 C 103.023438 78.117188 103.316406 78.15625 103.898438 78.179688 L 103.867188 78.210938 L 100.789062 78.210938 "
         style="stroke:none;fill-rule:nonzero;fill:#000000;fill-opacity:1" />
    </g>
    <g
       style="fill:#000000;fill-opacity:1"
       id="g6883"
       clip-rule="nonzero"
       clip-path="url(#clip12)">
      <path
         id="path6881"
         d="M 107.730469 72.648438 C 106.804688 72.648438 106.214844 74.15625 106.214844 75.191406 C 106.214844 75.902344 106.46875 76.25 106.984375 76.25 C 107.746094 76.25 108.59375 75.230469 108.59375 73.859375 C 108.59375 73.089844 108.277344 72.648438 107.730469 72.648438 Z M 104.796875 78.277344 C 106.695312 77.953125 107.894531 77.039062 108.320312 75.601562 L 108.289062 75.578125 L 108.222656 75.546875 C 107.8125 76.105469 107.347656 76.363281 106.765625 76.363281 C 105.726562 76.363281 105.359375 75.613281 105.359375 74.910156 C 105.359375 73.800781 106.347656 72.5625 107.765625 72.5625 C 108.757812 72.5625 109.402344 73.28125 109.402344 74.394531 C 109.402344 76.597656 107.59375 78.148438 104.792969 78.351562 L 104.796875 78.277344 "
         style="stroke:none;fill-rule:nonzero;fill:#000000;fill-opacity:1" />
    </g>
    <g
       style="fill:#000000;fill-opacity:1"
       id="g6887"
       clip-rule="nonzero"
       clip-path="url(#clip13)">
      <path
         id="path6885"
         d="M 109.570312 78.292969 L 113.832031 73.464844 L 111.496094 73.394531 C 110.953125 73.394531 110.757812 73.5625 110.257812 74.441406 L 110.191406 74.421875 L 110.730469 72.652344 L 114.476562 72.683594 L 112.148438 75.929688 L 110.53125 78.292969 L 109.570312 78.292969 "
         style="stroke:none;fill-rule:nonzero;fill:#000000;fill-opacity:1" />
    </g>
    <g
       style="fill:#000000;fill-opacity:1"
       id="g6891"
       clip-rule="nonzero"
       clip-path="url(#clip14)">
      <path
         id="path6889"
         d="M 117.132812 72.648438 C 115.742188 72.648438 114.980469 75.453125 114.980469 76.894531 C 114.980469 77.78125 115.285156 78.234375 115.878906 78.234375 C 117.269531 78.234375 118.03125 75.433594 118.03125 73.996094 C 118.03125 73.101562 117.726562 72.648438 117.132812 72.648438 Z M 115.878906 78.328125 C 114.808594 78.328125 114.144531 77.542969 114.144531 76.285156 C 114.144531 74.730469 115.28125 72.5625 117.132812 72.5625 C 118.207031 72.5625 118.871094 73.347656 118.871094 74.605469 C 118.871094 76.160156 117.734375 78.328125 115.878906 78.328125 "
         style="stroke:none;fill-rule:nonzero;fill:#000000;fill-opacity:1" />
    </g>
    <path
       id="path6893"
       d="M 120.933594 76.183594 L 121.066406 75.886719 L 123.195312 75.917969 L 123.078125 76.183594 L 120.933594 76.183594 "
       style="stroke:none;fill-rule:nonzero;fill:#000000;fill-opacity:1" />
    <g
       style="fill:#000000;fill-opacity:1"
       id="g6897"
       clip-rule="nonzero"
       clip-path="url(#clip15)">
      <path
         id="path6895"
         d="M 125.027344 78.210938 L 125.203125 77.667969 L 127.265625 76.234375 C 128.476562 75.402344 128.953125 74.714844 128.953125 73.777344 C 128.953125 73.027344 128.625 72.632812 128.011719 72.632812 C 127.574219 72.632812 127.121094 72.882812 126.882812 73.253906 C 127.226562 73.410156 127.402344 73.628906 127.402344 73.929688 C 127.402344 74.214844 127.183594 74.523438 126.824219 74.523438 C 126.484375 74.523438 126.265625 74.28125 126.265625 73.914062 C 126.265625 73.167969 127.105469 72.5625 128.140625 72.5625 C 129.179688 72.5625 129.851562 73.070312 129.851562 73.851562 C 129.851562 74.671875 129.160156 75.234375 126.945312 76.621094 L 125.742188 77.417969 L 125.742188 77.460938 L 125.765625 77.519531 L 127.941406 77.519531 C 128.558594 77.519531 128.78125 77.367188 129.257812 76.613281 L 129.328125 76.640625 L 128.828125 78.210938 L 125.027344 78.210938 "
         style="stroke:none;fill-rule:nonzero;fill:#000000;fill-opacity:1" />
    </g>
    <g
       style="fill:#000000;fill-opacity:1"
       id="g6901"
       clip-rule="nonzero"
       clip-path="url(#clip16)">
      <path
         id="path6899"
         d="M 133.234375 72.648438 C 131.84375 72.648438 131.082031 75.453125 131.082031 76.894531 C 131.082031 77.78125 131.386719 78.234375 131.980469 78.234375 C 133.371094 78.234375 134.132812 75.433594 134.132812 73.996094 C 134.132812 73.101562 133.828125 72.648438 133.234375 72.648438 Z M 131.980469 78.328125 C 130.90625 78.328125 130.242188 77.542969 130.242188 76.285156 C 130.242188 74.730469 131.382812 72.5625 133.234375 72.5625 C 134.308594 72.5625 134.972656 73.347656 134.972656 74.605469 C 134.972656 76.160156 133.835938 78.328125 131.980469 78.328125 "
         style="stroke:none;fill-rule:nonzero;fill:#000000;fill-opacity:1" />
    </g>
    <g
       style="fill:#000000;fill-opacity:1"
       id="g6905"
       clip-rule="nonzero"
       clip-path="url(#clip17)">
      <path
         id="path6903"
         d="M 134.90625 78.210938 L 135.082031 77.667969 L 137.144531 76.234375 C 138.355469 75.402344 138.828125 74.714844 138.828125 73.777344 C 138.828125 73.027344 138.503906 72.632812 137.890625 72.632812 C 137.445312 72.632812 137.003906 72.878906 136.761719 73.253906 C 137.105469 73.410156 137.277344 73.628906 137.277344 73.929688 C 137.277344 74.214844 137.058594 74.523438 136.703125 74.523438 C 136.363281 74.523438 136.144531 74.28125 136.144531 73.914062 C 136.144531 73.167969 136.984375 72.5625 138.015625 72.5625 C 139.058594 72.5625 139.726562 73.070312 139.726562 73.851562 C 139.726562 74.671875 139.039062 75.234375 136.824219 76.621094 L 135.621094 77.417969 L 135.621094 77.460938 L 135.644531 77.519531 L 137.820312 77.519531 C 138.4375 77.519531 138.65625 77.367188 139.136719 76.613281 L 139.210938 76.640625 L 138.707031 78.210938 L 134.90625 78.210938 "
         style="stroke:none;fill-rule:nonzero;fill:#000000;fill-opacity:1" />
    </g>
    <g
       style="fill:#000000;fill-opacity:1"
       id="g6909"
       clip-rule="nonzero"
       clip-path="url(#clip18)">
      <path
         id="path6907"
         d="M 143.113281 72.648438 C 141.722656 72.648438 140.960938 75.453125 140.960938 76.894531 C 140.960938 77.78125 141.261719 78.234375 141.855469 78.234375 C 143.25 78.234375 144.011719 75.433594 144.011719 73.996094 C 144.011719 73.101562 143.707031 72.648438 143.113281 72.648438 Z M 141.855469 78.328125 C 140.785156 78.328125 140.121094 77.542969 140.121094 76.285156 C 140.121094 74.730469 141.257812 72.5625 143.113281 72.5625 C 144.183594 72.5625 144.851562 73.347656 144.851562 74.605469 C 144.851562 76.160156 143.710938 78.328125 141.855469 78.328125 "
         style="stroke:none;fill-rule:nonzero;fill:#000000;fill-opacity:1" />
    </g>
    <path
       id="path6911"
       d="M 105.054688 23.300781 C 103.6875 23.300781 102.734375 22.300781 102.734375 20.867188 C 102.734375 19.089844 104.179688 17.1875 106.328125 17.1875 C 107.003906 17.1875 107.503906 17.425781 107.804688 17.621094 L 108.320312 17.203125 L 108.429688 17.214844 L 107.839844 19.167969 L 107.742188 19.140625 C 107.425781 17.816406 107.1875 17.265625 106.277344 17.265625 C 104.847656 17.265625 103.691406 19.34375 103.691406 21.0625 C 103.691406 22.328125 104.328125 23.050781 105.4375 23.050781 C 106.222656 23.050781 106.984375 22.566406 107.707031 21.605469 L 107.777344 21.707031 C 106.980469 22.761719 106.09375 23.300781 105.054688 23.300781 "
       style="stroke:none;fill-rule:nonzero;fill:#000000;fill-opacity:1" />
    <path
       id="path6913"
       d="M 110.574219 19.367188 C 109.992188 19.367188 109.339844 20.167969 109.121094 21.15625 C 109.160156 21.15625 109.199219 21.15625 109.238281 21.15625 C 110.445312 21.15625 111.039062 20.714844 111.039062 19.882812 C 111.039062 19.550781 110.875 19.367188 110.574219 19.367188 Z M 109.660156 23.230469 C 109.003906 23.230469 108.234375 22.855469 108.234375 21.789062 C 108.234375 20.601562 109.214844 19.273438 110.617188 19.273438 C 111.3125 19.273438 111.726562 19.585938 111.726562 20.105469 C 111.726562 20.804688 110.769531 21.257812 109.289062 21.257812 L 109.136719 21.257812 C 109.0625 21.433594 109.050781 21.585938 109.050781 21.773438 C 109.050781 22.609375 109.347656 22.984375 110.015625 22.984375 C 110.46875 22.984375 110.960938 22.707031 111.296875 22.257812 L 111.347656 22.355469 C 110.882812 22.917969 110.316406 23.230469 109.660156 23.230469 "
       style="stroke:none;fill-rule:nonzero;fill:#000000;fill-opacity:1" />
    <path
       id="path6915"
       d="M 112.824219 23.214844 C 112.359375 23.214844 112.136719 23.039062 112.136719 22.679688 C 112.136719 22.578125 112.15625 22.449219 112.203125 22.304688 L 113.101562 19.328125 L 113.515625 17.75 C 113.546875 17.632812 113.535156 17.542969 113.480469 17.472656 C 113.390625 17.351562 113.179688 17.289062 112.765625 17.265625 L 112.804688 17.207031 L 114.535156 17.164062 L 112.984375 22.289062 C 112.953125 22.421875 112.925781 22.546875 112.925781 22.65625 C 112.925781 22.953125 113.175781 23.011719 113.546875 23.011719 C 113.632812 23.011719 113.730469 23.007812 113.84375 23.003906 C 113.648438 23.082031 113.179688 23.214844 112.824219 23.214844 "
       style="stroke:none;fill-rule:nonzero;fill:#000000;fill-opacity:1" />
    <path
       id="path6917"
       d="M 116.832031 19.367188 C 116.25 19.367188 115.597656 20.167969 115.378906 21.15625 C 115.417969 21.15625 115.457031 21.15625 115.496094 21.15625 C 116.703125 21.15625 117.300781 20.714844 117.300781 19.882812 C 117.300781 19.550781 117.132812 19.367188 116.832031 19.367188 Z M 115.917969 23.230469 C 115.261719 23.230469 114.492188 22.855469 114.492188 21.789062 C 114.492188 20.601562 115.472656 19.273438 116.875 19.273438 C 117.570312 19.273438 117.984375 19.585938 117.984375 20.105469 C 117.984375 20.804688 117.027344 21.257812 115.546875 21.257812 L 115.394531 21.257812 C 115.320312 21.433594 115.308594 21.585938 115.308594 21.773438 C 115.308594 22.609375 115.605469 22.984375 116.273438 22.984375 C 116.726562 22.984375 117.21875 22.707031 117.554688 22.257812 L 117.601562 22.355469 C 117.140625 22.917969 116.574219 23.230469 115.917969 23.230469 "
       style="stroke:none;fill-rule:nonzero;fill:#000000;fill-opacity:1" />
    <path
       id="path6919"
       d="M 120.605469 19.621094 C 120.289062 19.621094 119.976562 19.847656 119.773438 20.039062 L 119.074219 22.714844 C 119.179688 23 119.425781 23.15625 119.734375 23.15625 C 120.679688 23.15625 121.308594 21.578125 121.308594 20.535156 C 121.308594 19.78125 120.925781 19.621094 120.605469 19.621094 Z M 119.648438 23.230469 C 119.066406 23.230469 118.65625 23.089844 118.226562 22.742188 L 118.746094 21.046875 L 119.578125 17.75 C 119.609375 17.636719 119.601562 17.546875 119.550781 17.476562 C 119.464844 17.351562 119.246094 17.289062 118.828125 17.265625 L 118.867188 17.207031 L 120.613281 17.164062 L 119.804688 19.847656 L 119.898438 19.90625 C 120.3125 19.472656 120.703125 19.273438 121.132812 19.273438 C 121.734375 19.273438 122.121094 19.761719 122.121094 20.519531 C 122.121094 21.800781 121.0625 23.230469 119.648438 23.230469 "
       style="stroke:none;fill-rule:nonzero;fill:#000000;fill-opacity:1" />
    <path
       id="path6921"
       d="M 122.574219 23.15625 L 123.019531 21.835938 L 123.546875 19.894531 C 123.570312 19.800781 123.59375 19.679688 123.527344 19.589844 C 123.453125 19.484375 123.289062 19.429688 122.976562 19.410156 L 123.015625 19.351562 L 124.507812 19.316406 L 124.1875 20.175781 L 124.222656 20.210938 L 124.277344 20.230469 C 124.707031 19.636719 125.1875 19.28125 125.574219 19.28125 C 125.929688 19.28125 126.160156 19.492188 126.160156 19.816406 C 126.160156 20.171875 125.953125 20.417969 125.660156 20.417969 C 125.367188 20.417969 125.199219 20.269531 125.199219 20.011719 C 125.199219 19.941406 125.222656 19.785156 125.300781 19.699219 C 125.28125 19.699219 125.261719 19.699219 125.242188 19.699219 C 124.796875 19.699219 124.332031 20.199219 124.144531 20.417969 L 123.464844 23.15625 L 122.574219 23.15625 "
       style="stroke:none;fill-rule:nonzero;fill:#000000;fill-opacity:1" />
    <path
       id="path6923"
       d="M 128.476562 19.386719 C 127.59375 19.386719 126.949219 21.054688 126.949219 21.925781 C 126.949219 22.574219 127.191406 22.941406 127.609375 22.941406 C 127.996094 22.941406 128.316406 22.527344 128.519531 22.175781 L 129.121094 20.160156 C 129.0625 19.6875 128.800781 19.386719 128.476562 19.386719 Z M 127.203125 23.230469 C 126.53125 23.230469 126.117188 22.726562 126.117188 21.917969 C 126.117188 20.609375 127.246094 19.273438 128.355469 19.273438 C 128.820312 19.273438 129.015625 19.472656 129.175781 19.792969 L 129.402344 19.347656 L 130.257812 19.273438 L 129.757812 20.582031 L 129.265625 22.289062 C 129.203125 22.492188 129.179688 22.636719 129.179688 22.738281 C 129.179688 23.019531 129.4375 23.058594 129.6875 23.058594 C 129.765625 23.058594 129.855469 23.050781 129.960938 23.042969 C 129.714844 23.136719 129.367188 23.222656 129.101562 23.222656 C 128.644531 23.222656 128.472656 23.105469 128.472656 22.78125 C 128.472656 22.730469 128.476562 22.652344 128.515625 22.503906 L 128.421875 22.460938 C 128.039062 23.007812 127.6875 23.230469 127.203125 23.230469 "
       style="stroke:none;fill-rule:nonzero;fill:#000000;fill-opacity:1" />
    <path
       id="path6925"
       d="M 131.652344 23.230469 C 131.109375 23.230469 130.847656 23.015625 130.847656 22.570312 C 130.847656 22.429688 130.871094 22.269531 130.921875 22.097656 L 131.675781 19.515625 L 130.882812 19.460938 L 130.980469 19.328125 L 131.6875 19.359375 L 132.09375 18.074219 L 132.980469 17.96875 L 132.496094 19.304688 L 133.59375 19.359375 L 133.496094 19.488281 L 132.484375 19.460938 L 131.730469 22.042969 C 131.679688 22.226562 131.652344 22.375 131.652344 22.492188 C 131.652344 22.785156 131.820312 22.925781 132.160156 22.925781 C 132.359375 22.925781 132.664062 22.878906 132.929688 22.804688 C 132.421875 23.09375 132.015625 23.230469 131.652344 23.230469 "
       style="stroke:none;fill-rule:nonzero;fill:#000000;fill-opacity:1" />
    <path
       id="path6927"
       d="M 135.300781 18.410156 C 135.113281 18.410156 134.917969 18.28125 134.917969 17.996094 C 134.917969 17.621094 135.1875 17.308594 135.511719 17.308594 C 135.683594 17.308594 135.882812 17.410156 135.882812 17.707031 C 135.882812 18.082031 135.609375 18.410156 135.300781 18.410156 Z M 134.351562 23.222656 C 133.894531 23.222656 133.664062 23.042969 133.664062 22.691406 C 133.664062 22.585938 133.683594 22.46875 133.726562 22.300781 L 134.476562 19.898438 C 134.507812 19.789062 134.496094 19.699219 134.449219 19.628906 C 134.359375 19.503906 134.152344 19.433594 133.773438 19.410156 L 133.8125 19.351562 L 135.496094 19.316406 L 134.519531 22.296875 C 134.472656 22.449219 134.441406 22.582031 134.441406 22.679688 C 134.441406 22.960938 134.675781 23.019531 135.050781 23.019531 C 135.136719 23.019531 135.230469 23.015625 135.335938 23.011719 C 135.1875 23.070312 134.734375 23.222656 134.351562 23.222656 "
       style="stroke:none;fill-rule:nonzero;fill:#000000;fill-opacity:1" />
    <path
       id="path6929"
       d="M 139.148438 23.222656 C 138.664062 23.222656 138.453125 23.074219 138.453125 22.738281 C 138.453125 22.636719 138.480469 22.484375 138.523438 22.347656 L 139.078125 20.644531 C 139.136719 20.441406 139.171875 20.296875 139.171875 20.140625 C 139.171875 19.835938 139.007812 19.683594 138.683594 19.683594 C 138.359375 19.683594 137.960938 19.882812 137.527344 20.261719 L 136.792969 23.1875 L 135.910156 23.15625 L 136.355469 21.835938 L 136.882812 19.894531 C 136.910156 19.800781 136.933594 19.683594 136.863281 19.589844 C 136.789062 19.484375 136.625 19.429688 136.3125 19.410156 L 136.351562 19.351562 L 137.84375 19.316406 L 137.546875 20.082031 L 137.578125 20.113281 L 137.636719 20.140625 C 138.152344 19.617188 138.746094 19.289062 139.191406 19.289062 C 139.683594 19.289062 139.953125 19.550781 139.953125 20.027344 C 139.953125 20.203125 139.921875 20.394531 139.863281 20.582031 L 139.285156 22.371094 C 139.226562 22.566406 139.199219 22.679688 139.199219 22.765625 C 139.199219 23.007812 139.394531 23.058594 139.683594 23.058594 C 139.773438 23.058594 139.882812 23.054688 140.007812 23.042969 C 139.839844 23.109375 139.476562 23.222656 139.148438 23.222656 "
       style="stroke:none;fill-rule:nonzero;fill:#000000;fill-opacity:1" />
    <path
       id="path6931"
       d="M 142.964844 19.386719 C 142.066406 19.386719 141.496094 21.046875 141.496094 21.917969 C 141.496094 22.679688 141.890625 22.839844 142.21875 22.839844 C 142.53125 22.839844 142.773438 22.683594 143.023438 22.316406 L 143.671875 20.125 C 143.585938 19.773438 143.347656 19.386719 142.964844 19.386719 Z M 141.496094 24.851562 C 140.582031 24.851562 140.164062 24.445312 140.164062 24.070312 C 140.164062 23.742188 140.382812 23.503906 140.683594 23.503906 C 140.945312 23.503906 141.109375 23.671875 141.109375 23.945312 C 141.109375 24.117188 140.996094 24.292969 140.824219 24.390625 C 140.933594 24.652344 141.1875 24.773438 141.488281 24.773438 C 142.101562 24.773438 142.507812 24.324219 142.800781 23.320312 L 143.003906 22.597656 L 142.976562 22.589844 L 142.90625 22.550781 C 142.542969 22.988281 142.234375 23.15625 141.800781 23.15625 C 141.140625 23.15625 140.675781 22.617188 140.675781 21.84375 C 140.675781 20.570312 141.769531 19.273438 142.84375 19.273438 C 143.316406 19.273438 143.539062 19.460938 143.726562 19.738281 L 143.933594 19.347656 L 144.800781 19.273438 L 144.296875 20.59375 L 143.550781 23.246094 C 143.214844 24.414062 142.660156 24.851562 141.496094 24.851562 "
       style="stroke:none;fill-rule:nonzero;fill:#000000;fill-opacity:1" />
    <g
       style="fill:#edb800;fill-opacity:1"
       id="g6935"
       clip-rule="nonzero"
       clip-path="url(#clip19)">
      <path
         id="path6933"
         d="M 133.355469 31.234375 C 129.472656 31.234375 127.152344 35.433594 127.152344 42.464844 C 127.152344 49.078125 129.699219 53.699219 133.355469 53.699219 C 137.007812 53.699219 139.558594 49.078125 139.558594 42.464844 C 139.558594 35.433594 137.238281 31.234375 133.355469 31.234375 Z M 133.355469 55.496094 C 126.203125 55.496094 121.015625 50.015625 121.015625 42.464844 C 121.015625 34.914062 126.203125 29.4375 133.355469 29.4375 C 140.503906 29.4375 145.691406 34.914062 145.691406 42.464844 C 145.691406 50.015625 140.503906 55.496094 133.355469 55.496094 "
         style="stroke:none;fill-rule:nonzero;fill:#edb800;fill-opacity:1" />
    </g>
    <path
       id="path6937"
       d="M 97.765625 62.144531 C 110.550781 60.378906 112.464844 54.65625 112.464844 51.390625 C 112.464844 46.414062 108.246094 43.824219 99.917969 43.695312 L 102.21875 30.484375 L 117.996094 29.230469 L 117.140625 33.59375 L 103.671875 34.660156 L 102.367188 39.539062 L 102.667969 39.542969 C 106.277344 39.574219 118.054688 40.425781 118.054688 50.210938 C 118.054688 53.648438 116.011719 57 112.453125 59.402344 C 109.058594 61.746094 102.859375 63.523438 97.949219 63.574219 L 97.765625 62.144531 "
       style="stroke:none;fill-rule:nonzero;fill:#edb800;fill-opacity:1" />
    <path
       id="path6939"
       d="M 118.128906 63.738281 L 115.84375 60.132812 L 117.371094 60.132812 L 118.789062 62.519531 L 120.234375 60.132812 L 121.722656 60.132812 L 119.4375 63.710938 L 119.4375 66.082031 L 118.128906 66.082031 L 118.128906 63.738281 "
       style="stroke:none;fill-rule:nonzero;fill:#edb800;fill-opacity:1" />
    <path
       id="path6941"
       d="M 122.535156 60.132812 L 127.023438 60.132812 L 127.023438 61.296875 L 123.839844 61.296875 L 123.839844 62.503906 L 126.644531 62.503906 L 126.644531 63.667969 L 123.839844 63.667969 L 123.839844 64.917969 L 127.066406 64.917969 L 127.066406 66.082031 L 122.535156 66.082031 L 122.535156 60.132812 "
       style="stroke:none;fill-rule:nonzero;fill:#edb800;fill-opacity:1" />
    <path
       id="path6943"
       d="M 131.644531 63.59375 L 130.855469 61.664062 L 130.066406 63.59375 Z M 130.269531 60.089844 L 131.476562 60.089844 L 134.027344 66.082031 L 132.65625 66.082031 L 132.113281 64.75 L 129.601562 64.75 L 129.054688 66.082031 L 127.722656 66.082031 L 130.269531 60.089844 "
       style="stroke:none;fill-rule:nonzero;fill:#edb800;fill-opacity:1" />
    <path
       id="path6945"
       d="M 137.578125 63.023438 C 138.214844 63.023438 138.582031 62.683594 138.582031 62.183594 L 138.582031 62.164062 C 138.582031 61.605469 138.1875 61.316406 137.554688 61.316406 L 136.253906 61.316406 L 136.253906 63.023438 Z M 134.941406 60.132812 L 137.660156 60.132812 C 138.417969 60.132812 139.007812 60.34375 139.394531 60.738281 C 139.726562 61.070312 139.90625 61.535156 139.90625 62.097656 L 139.90625 62.113281 C 139.90625 63.074219 139.390625 63.675781 138.632812 63.957031 L 140.085938 66.082031 L 138.554688 66.082031 L 137.28125 64.179688 L 136.253906 64.179688 L 136.253906 66.082031 L 134.941406 66.082031 L 134.941406 60.132812 "
       style="stroke:none;fill-rule:nonzero;fill:#edb800;fill-opacity:1" />
    <g
       style="fill:#edb800;fill-opacity:1"
       id="g6949"
       clip-rule="nonzero"
       clip-path="url(#clip20)">
      <path
         id="path6947"
         d="M 140.679688 65.214844 L 141.449219 64.289062 C 141.988281 64.730469 142.546875 65.011719 143.226562 65.011719 C 143.761719 65.011719 144.085938 64.800781 144.085938 64.449219 L 144.085938 64.433594 C 144.085938 64.101562 143.882812 63.933594 142.886719 63.675781 C 141.6875 63.371094 140.914062 63.039062 140.914062 61.859375 L 140.914062 61.84375 C 140.914062 60.761719 141.78125 60.046875 143 60.046875 C 143.863281 60.046875 144.605469 60.320312 145.207031 60.804688 L 144.527344 61.792969 C 144 61.425781 143.480469 61.203125 142.980469 61.203125 C 142.480469 61.203125 142.214844 61.433594 142.214844 61.722656 L 142.214844 61.738281 C 142.214844 62.128906 142.472656 62.257812 143.5 62.519531 C 144.707031 62.835938 145.386719 63.269531 145.386719 64.304688 L 145.386719 64.324219 C 145.386719 65.503906 144.484375 66.167969 143.203125 66.167969 C 142.300781 66.167969 141.390625 65.851562 140.679688 65.214844 "
         style="stroke:none;fill-rule:nonzero;fill:#edb800;fill-opacity:1" />
    </g>
  </g>
</svg>
