<?xml version="1.0" encoding="UTF-8" standalone="no"?>
<svg
   xmlns:dc="http://purl.org/dc/elements/1.1/"
   xmlns:cc="http://creativecommons.org/ns#"
   xmlns:rdf="http://www.w3.org/1999/02/22-rdf-syntax-ns#"
   xmlns:svg="http://www.w3.org/2000/svg"
   xmlns="http://www.w3.org/2000/svg"
   xmlns:sodipodi="http://sodipodi.sourceforge.net/DTD/sodipodi-0.dtd"
   xmlns:inkscape="http://www.inkscape.org/namespaces/inkscape"
   inkscape:version="1.0beta2 (2b71d25, 2019-12-03)"
   sodipodi:docname="JCU 50th Logo - Horizontal BLACK.pdf.svg"
   id="svg1127"
   version="1.1"
   viewBox="0 0 298.79 97.44"
   height="97.44pt"
   width="298.79pt">
  <metadata
     id="metadata1131">
    <rdf:RDF>
      <cc:Work
         rdf:about="">
        <dc:format>image/svg+xml</dc:format>
        <dc:type
           rdf:resource="http://purl.org/dc/dcmitype/StillImage" />
        <dc:title></dc:title>
      </cc:Work>
    </rdf:RDF>
  </metadata>
  <sodipodi:namedview
     inkscape:current-layer="surface1"
     inkscape:window-maximized="0"
     inkscape:window-y="82"
     inkscape:window-x="1682"
     inkscape:cy="55.807877"
     inkscape:cx="158.39328"
     inkscape:zoom="1.1295558"
     inkscape:pagecheckerboard="true"
     showgrid="false"
     id="namedview1129"
     inkscape:window-height="878"
     inkscape:window-width="1440"
     inkscape:pageshadow="2"
     inkscape:pageopacity="0"
     guidetolerance="10"
     gridtolerance="10"
     objecttolerance="10"
     borderopacity="1"
     inkscape:document-rotation="0"
     bordercolor="#666666"
     pagecolor="#ffffff" />
  <defs
     id="defs926">
    <clipPath
       id="clip1">
      <path
         id="path833"
         d="M 228 36 L 230 36 L 230 97.441406 L 228 97.441406 Z M 228 36 " />
    </clipPath>
    <clipPath
       id="clip2">
      <path
         id="path836"
         d="M 17 88 L 37 88 L 37 97.441406 L 17 97.441406 Z M 17 88 " />
    </clipPath>
    <clipPath
       id="clip3">
      <path
         id="path839"
         d="M 65 85 L 78 85 L 78 97.441406 L 65 97.441406 Z M 65 85 " />
    </clipPath>
    <clipPath
       id="clip4">
      <path
         id="path842"
         d="M 78 85 L 89 85 L 89 97.441406 L 78 97.441406 Z M 78 85 " />
    </clipPath>
    <clipPath
       id="clip5">
      <path
         id="path845"
         d="M 89 85 L 99 85 L 99 97.441406 L 89 97.441406 Z M 89 85 " />
    </clipPath>
    <clipPath
       id="clip6">
      <path
         id="path848"
         d="M 99 85 L 110 85 L 110 97.441406 L 99 97.441406 Z M 99 85 " />
    </clipPath>
    <clipPath
       id="clip7">
      <path
         id="path851"
         d="M 111 85 L 122 85 L 122 97.441406 L 111 97.441406 Z M 111 85 " />
    </clipPath>
    <clipPath
       id="clip8">
      <path
         id="path854"
         d="M 123 85 L 136 85 L 136 97.441406 L 123 97.441406 Z M 123 85 " />
    </clipPath>
    <clipPath
       id="clip9">
      <path
         id="path857"
         d="M 138 85 L 147 85 L 147 97.441406 L 138 97.441406 Z M 138 85 " />
    </clipPath>
    <clipPath
       id="clip10">
      <path
         id="path860"
         d="M 148 85 L 151 85 L 151 97.441406 L 148 97.441406 Z M 148 85 " />
    </clipPath>
    <clipPath
       id="clip11">
      <path
         id="path863"
         d="M 152 85 L 165 85 L 165 97.441406 L 152 97.441406 Z M 152 85 " />
    </clipPath>
    <clipPath
       id="clip12">
      <path
         id="path866"
         d="M 268 45 L 298.789062 45 L 298.789062 79 L 268 79 Z M 268 45 " />
    </clipPath>
    <clipPath
       id="clip13">
      <path
         id="path869"
         d="M 268 45 L 298.789062 45 L 298.789062 79 L 268 79 Z M 268 45 " />
    </clipPath>
    <clipPath
       id="clip14">
      <path
         id="path872"
         d="M 268.507812 61.707031 C 268.507812 71.261719 274.996094 78.097656 283.648438 78.097656 C 292.296875 78.097656 298.785156 71.261719 298.785156 61.707031 C 298.785156 52.148438 292.296875 45.308594 283.648438 45.308594 C 274.996094 45.308594 268.507812 52.148438 268.507812 61.707031 M 276.460938 61.707031 C 276.460938 52.777344 279.324219 48.101562 283.648438 48.101562 C 287.972656 48.101562 290.832031 52.777344 290.832031 61.707031 C 290.832031 69.585938 287.972656 75.308594 283.648438 75.308594 C 279.324219 75.308594 276.460938 69.585938 276.460938 61.707031 " />
    </clipPath>
    <clipPath
       id="clip15">
      <path
         id="path875"
         d="M 264 81 L 272 81 L 272 89 L 264 89 Z M 264 81 " />
    </clipPath>
    <clipPath
       id="clip16">
      <path
         id="path878"
         d="M 269.796875 81.691406 L 268.195312 84.332031 L 266.621094 81.691406 L 264.929688 81.691406 L 267.460938 85.679688 L 267.460938 88.277344 L 268.910156 88.277344 L 268.910156 85.652344 L 271.441406 81.691406 Z M 269.796875 81.691406 " />
    </clipPath>
    <clipPath
       id="clip17">
      <path
         id="path881"
         d="M 271.984375 81.691406 L 276.953125 81.691406 L 276.953125 82.980469 L 271.984375 82.980469 Z M 271.984375 82.980469 L 273.425781 82.980469 L 273.425781 84.316406 L 271.984375 84.316406 Z M 271.984375 84.316406 L 276.53125 84.316406 L 276.53125 85.605469 L 271.984375 85.605469 Z M 271.984375 85.605469 L 273.425781 85.605469 L 273.425781 86.988281 L 271.984375 86.988281 Z M 271.984375 86.988281 L 277.003906 86.988281 L 277.003906 88.277344 L 271.984375 88.277344 Z M 271.984375 86.988281 " />
    </clipPath>
    <clipPath
       id="clip18">
      <path
         id="path884"
         d="M 277 81 L 285 81 L 285 89 L 277 89 Z M 277 81 " />
    </clipPath>
    <clipPath
       id="clip19">
      <path
         id="path887"
         d="M 280.28125 81.644531 L 277.453125 88.277344 L 278.933594 88.277344 L 279.535156 86.800781 L 282.320312 86.800781 L 282.925781 88.277344 L 284.4375 88.277344 L 281.617188 81.644531 Z M 280.929688 83.382812 L 281.804688 85.519531 L 280.054688 85.519531 Z M 280.929688 83.382812 " />
    </clipPath>
    <clipPath
       id="clip20">
      <path
         id="path890"
         d="M 285 81 L 291 81 L 291 89 L 285 89 Z M 285 81 " />
    </clipPath>
    <clipPath
       id="clip21">
      <path
         id="path893"
         d="M 285.039062 81.691406 L 285.039062 88.277344 L 286.492188 88.277344 L 286.492188 86.171875 L 287.628906 86.171875 L 289.039062 88.277344 L 290.734375 88.277344 L 289.125 85.925781 C 289.964844 85.613281 290.539062 84.945312 290.539062 83.882812 L 290.539062 83.863281 C 290.539062 83.242188 290.339844 82.726562 289.972656 82.355469 C 289.539062 81.925781 288.890625 81.691406 288.054688 81.691406 Z M 286.492188 82.996094 L 287.929688 82.996094 C 288.636719 82.996094 289.070312 83.320312 289.070312 83.9375 L 289.070312 83.957031 C 289.070312 84.511719 288.664062 84.890625 287.957031 84.890625 L 286.492188 84.890625 Z M 286.492188 82.996094 " />
    </clipPath>
    <clipPath
       id="clip22">
      <path
         id="path896"
         d="M 291 81 L 297 81 L 297 89 L 291 89 Z M 291 81 " />
    </clipPath>
    <clipPath
       id="clip23">
      <path
         id="path899"
         d="M 291.269531 83.582031 L 291.269531 83.601562 C 291.269531 84.910156 292.125 85.277344 293.449219 85.613281 C 294.554688 85.898438 294.777344 86.085938 294.777344 86.449219 L 294.777344 86.472656 C 294.777344 86.855469 294.421875 87.09375 293.828125 87.09375 C 293.074219 87.09375 292.453125 86.78125 291.863281 86.292969 L 291.003906 87.316406 C 291.796875 88.023438 292.800781 88.375 293.800781 88.375 C 295.222656 88.375 296.21875 87.640625 296.21875 86.328125 L 296.21875 86.3125 C 296.21875 85.164062 295.464844 84.679688 294.128906 84.332031 C 292.992188 84.042969 292.707031 83.902344 292.707031 83.46875 L 292.707031 83.449219 C 292.707031 83.128906 293 82.875 293.554688 82.875 C 294.109375 82.875 294.683594 83.121094 295.265625 83.523438 L 296.023438 82.433594 C 295.351562 81.898438 294.535156 81.59375 293.574219 81.59375 C 292.226562 81.59375 291.269531 82.386719 291.269531 83.582031 " />
    </clipPath>
    <clipPath
       id="clip24">
      <path
         id="path902"
         d="M 251 91 L 255 91 L 255 97.441406 L 251 97.441406 Z M 251 91 " />
    </clipPath>
    <clipPath
       id="clip25">
      <path
         id="path905"
         d="M 255 91 L 261 91 L 261 97.441406 L 255 97.441406 Z M 255 91 " />
    </clipPath>
    <clipPath
       id="clip26">
      <path
         id="path908"
         d="M 260 91 L 266 91 L 266 97.441406 L 260 97.441406 Z M 260 91 " />
    </clipPath>
    <clipPath
       id="clip27">
      <path
         id="path911"
         d="M 264 91 L 270 91 L 270 97.441406 L 264 97.441406 Z M 264 91 " />
    </clipPath>
    <clipPath
       id="clip28">
      <path
         id="path914"
         d="M 276 91 L 282 91 L 282 97.441406 L 276 97.441406 Z M 276 91 " />
    </clipPath>
    <clipPath
       id="clip29">
      <path
         id="path917"
         d="M 281 91 L 287 91 L 287 97.441406 L 281 97.441406 Z M 281 91 " />
    </clipPath>
    <clipPath
       id="clip30">
      <path
         id="path920"
         d="M 286 91 L 292 91 L 292 97.441406 L 286 97.441406 Z M 286 91 " />
    </clipPath>
    <clipPath
       id="clip31">
      <path
         id="path923"
         d="M 291 91 L 297 91 L 297 97.441406 L 291 97.441406 Z M 291 91 " />
    </clipPath>
  </defs>
  <g
     id="surface1">
    <g
       style="fill:#000000;fill-opacity:1"
       id="g930"
       clip-rule="nonzero"
       clip-path="url(#clip1)">
      <path
         id="path928"
         d="M 229.488281 36.050781 L 228.972656 36.050781 L 228.972656 97.144531 L 229.488281 97.144531 L 229.488281 36.050781 "
         style="stroke:none;fill-rule:nonzero;fill:#000000;fill-opacity:1" />
    </g>
    <path
       id="path932"
       d="M 46.804688 55.082031 C 45.167969 56.027344 42.824219 56.621094 40.222656 56.621094 C 37.617188 56.621094 35.28125 56.027344 33.640625 55.085938 C 32.003906 54.140625 29.65625 53.550781 27.058594 53.550781 C 24.460938 53.550781 22.109375 54.140625 20.476562 55.085938 C 18.835938 56.027344 16.496094 56.621094 13.890625 56.621094 C 11.289062 56.621094 8.949219 56.027344 7.3125 55.085938 C 5.671875 54.140625 3.332031 53.550781 0.726562 53.550781 C 0.484375 53.550781 0.242188 53.558594 0 53.570312 L 0 59.660156 C 0 60.585938 0.0351562 61.472656 0.0859375 62.34375 C 0.296875 62.335938 0.511719 62.328125 0.726562 62.328125 C 3.332031 62.328125 5.671875 62.917969 7.3125 63.863281 C 8.949219 64.808594 11.289062 65.398438 13.890625 65.398438 C 16.496094 65.398438 18.835938 64.808594 20.476562 63.863281 C 22.109375 62.917969 24.460938 62.328125 27.058594 62.328125 C 29.65625 62.328125 32.003906 62.917969 33.640625 63.863281 C 35.28125 64.808594 37.617188 65.398438 40.222656 65.398438 C 42.824219 65.398438 45.167969 64.808594 46.804688 63.863281 C 48.445312 62.917969 50.785156 62.328125 53.382812 62.328125 C 53.605469 62.328125 53.816406 62.335938 54.027344 62.34375 C 54.082031 61.472656 54.113281 60.585938 54.113281 59.660156 L 54.113281 53.570312 C 53.875 53.558594 53.636719 53.550781 53.382812 53.550781 C 50.785156 53.550781 48.445312 54.140625 46.804688 55.082031 "
       style="stroke:none;fill-rule:nonzero;fill:#000000;fill-opacity:1" />
    <path
       id="path934"
       d="M 40.222656 74.175781 C 37.621094 74.175781 35.277344 73.585938 33.640625 72.644531 C 32.003906 71.699219 29.65625 71.105469 27.058594 71.105469 C 24.460938 71.105469 22.113281 71.699219 20.476562 72.644531 C 18.835938 73.585938 16.496094 74.175781 13.890625 74.175781 C 11.289062 74.179688 8.949219 73.585938 7.3125 72.644531 C 5.855469 71.800781 3.84375 71.242188 1.589844 71.132812 C 2.742188 74.992188 4.449219 78.238281 6.460938 81 C 6.761719 81.132812 7.046875 81.269531 7.3125 81.421875 C 8.949219 82.363281 11.289062 82.957031 13.890625 82.957031 C 16.496094 82.957031 18.835938 82.363281 20.476562 81.421875 C 22.113281 80.476562 24.460938 79.882812 27.058594 79.882812 C 29.65625 79.882812 32.003906 80.472656 33.640625 81.421875 C 35.277344 82.363281 37.621094 82.957031 40.222656 82.957031 C 42.824219 82.957031 45.167969 82.363281 46.804688 81.421875 C 47.070312 81.265625 47.359375 81.132812 47.65625 81 C 49.671875 78.238281 51.371094 74.992188 52.527344 71.132812 C 50.273438 71.242188 48.257812 71.800781 46.804688 72.644531 C 45.167969 73.585938 42.824219 74.175781 40.222656 74.175781 "
       style="stroke:none;fill-rule:nonzero;fill:#000000;fill-opacity:1" />
    <g
       style="fill:#000000;fill-opacity:1"
       id="g938"
       clip-rule="nonzero"
       clip-path="url(#clip2)">
      <path
         id="path936"
         d="M 33.640625 90.199219 C 32.003906 89.257812 29.65625 88.664062 27.058594 88.664062 C 24.460938 88.664062 22.113281 89.257812 20.476562 90.199219 C 19.6875 90.65625 18.734375 91.023438 17.671875 91.289062 C 21.445312 93.808594 24.933594 95.664062 27.058594 97.441406 C 29.183594 95.664062 32.671875 93.808594 36.445312 91.289062 C 35.382812 91.023438 34.429688 90.65625 33.640625 90.199219 "
         style="stroke:none;fill-rule:nonzero;fill:#000000;fill-opacity:1" />
    </g>
    <path
       id="path940"
       d="M 46.804688 37.527344 C 45.167969 38.472656 42.824219 39.066406 40.222656 39.066406 C 37.617188 39.066406 35.28125 38.472656 33.640625 37.527344 C 32.003906 36.585938 29.65625 35.992188 27.058594 35.992188 C 24.460938 35.992188 22.109375 36.585938 20.476562 37.527344 C 18.835938 38.472656 16.496094 39.066406 13.890625 39.066406 C 11.289062 39.066406 8.949219 38.472656 7.3125 37.527344 C 5.671875 36.585938 3.332031 35.992188 0.726562 35.992188 C 0.484375 35.992188 0.242188 36 0 36.011719 L 0 44.789062 C 0.242188 44.78125 0.484375 44.773438 0.726562 44.773438 C 3.332031 44.773438 5.671875 45.363281 7.3125 46.304688 C 8.949219 47.253906 11.289062 47.84375 13.890625 47.84375 C 16.496094 47.84375 18.835938 47.253906 20.476562 46.304688 C 22.109375 45.363281 24.460938 44.773438 27.058594 44.773438 C 29.65625 44.773438 32.003906 45.363281 33.640625 46.304688 C 35.28125 47.253906 37.617188 47.84375 40.222656 47.84375 C 42.824219 47.84375 45.167969 47.253906 46.804688 46.304688 C 48.445312 45.363281 50.785156 44.773438 53.382812 44.773438 C 53.636719 44.773438 53.875 44.78125 54.113281 44.792969 L 54.113281 36.011719 C 53.875 36 53.636719 35.992188 53.382812 35.992188 C 50.785156 35.992188 48.445312 36.585938 46.804688 37.527344 "
       style="stroke:none;fill-rule:nonzero;fill:#000000;fill-opacity:1" />
    <path
       id="path942"
       d="M 27.058594 19.5 C 22.160156 19.5 18.1875 23.46875 18.1875 28.367188 C 18.1875 28.808594 18.234375 29.242188 18.292969 29.664062 C 19.109375 29.421875 19.847656 29.109375 20.476562 28.746094 C 22.109375 27.804688 24.460938 27.214844 27.058594 27.214844 C 29.65625 27.214844 32.003906 27.804688 33.640625 28.746094 C 34.273438 29.109375 35.007812 29.421875 35.824219 29.667969 C 35.886719 29.242188 35.929688 28.808594 35.929688 28.367188 C 35.929688 23.46875 31.957031 19.5 27.058594 19.5 Z M 14.96875 22.105469 C 14.792969 22.128906 14.617188 22.179688 14.4375 22.210938 C 13.96875 22.292969 13.523438 22.300781 13.078125 22.285156 C 12.617188 22.269531 12.074219 22.160156 11.769531 21.960938 C 11.691406 22.421875 12.261719 23.03125 12.746094 23.359375 C 13.078125 23.585938 13.425781 23.78125 13.796875 23.902344 C 13.941406 23.953125 14.085938 23.980469 14.230469 24.035156 C 14.675781 24.1875 15.109375 24.472656 15.457031 24.777344 C 15.902344 25.175781 16.273438 25.675781 16.617188 26.121094 C 16.894531 24.824219 17.410156 23.613281 18.117188 22.535156 C 17.648438 22.367188 17.144531 22.1875 16.589844 22.105469 C 16.101562 22.027344 15.523438 22.015625 14.96875 22.105469 Z M 47.320312 28.371094 L 37.582031 26.625 C 37.679688 27.191406 37.742188 27.777344 37.742188 28.367188 C 37.742188 28.960938 37.679688 29.542969 37.582031 30.113281 Z M 16.527344 26.625 L 6.792969 28.371094 L 16.53125 30.113281 C 16.441406 29.542969 16.375 28.960938 16.375 28.367188 C 16.375 27.777344 16.441406 27.191406 16.527344 26.625 Z M 40.035156 24.25 C 40.144531 24.101562 40.230469 23.945312 40.339844 23.800781 C 40.609375 23.410156 40.917969 23.089844 41.242188 22.78125 C 41.582031 22.46875 42.042969 22.160156 42.40625 22.085938 C 42.128906 21.707031 41.292969 21.675781 40.71875 21.785156 C 40.328125 21.863281 39.953125 21.96875 39.59375 22.144531 C 39.453125 22.214844 39.332031 22.296875 39.191406 22.363281 C 38.769531 22.5625 38.261719 22.675781 37.796875 22.699219 C 37.207031 22.742188 36.585938 22.644531 36.027344 22.570312 L 36.019531 22.570312 C 36.722656 23.652344 37.234375 24.863281 37.507812 26.167969 C 37.960938 25.953125 38.4375 25.722656 38.890625 25.394531 C 39.289062 25.105469 39.707031 24.703125 40.035156 24.25 Z M 20.984375 19.59375 L 14.859375 16.164062 L 18.277344 22.292969 C 19.015625 21.234375 19.925781 20.320312 20.984375 19.59375 Z M 35.839844 22.292969 L 39.257812 16.164062 L 33.136719 19.59375 C 34.191406 20.320312 35.105469 21.234375 35.839844 22.292969 Z M 28.855469 17.847656 L 27.058594 0 L 25.261719 17.847656 C 25.847656 17.753906 26.445312 17.6875 27.058594 17.6875 C 27.667969 17.6875 28.265625 17.753906 28.855469 17.847656 Z M 20.835938 15.835938 C 20.902344 15.96875 20.988281 16.09375 21.054688 16.234375 C 21.253906 16.660156 21.367188 17.164062 21.390625 17.625 C 21.425781 18.222656 21.335938 18.84375 21.265625 19.394531 L 21.265625 19.40625 C 22.339844 18.703125 23.554688 18.191406 24.855469 17.917969 C 24.644531 17.464844 24.414062 16.980469 24.085938 16.535156 C 23.792969 16.136719 23.390625 15.71875 22.941406 15.394531 C 22.792969 15.285156 22.636719 15.195312 22.488281 15.089844 C 22.097656 14.816406 21.78125 14.511719 21.46875 14.1875 C 21.160156 13.847656 20.851562 13.382812 20.777344 13.019531 C 20.398438 13.296875 20.367188 14.128906 20.476562 14.707031 C 20.558594 15.105469 20.660156 15.476562 20.835938 15.835938 Z M 33.328125 17.902344 C 33.402344 17.414062 33.410156 16.832031 33.328125 16.277344 C 33.300781 16.101562 33.242188 15.925781 33.214844 15.746094 C 33.136719 15.277344 33.121094 14.839844 33.136719 14.386719 C 33.15625 13.929688 33.261719 13.378906 33.464844 13.074219 C 33.007812 13.003906 32.394531 13.570312 32.066406 14.054688 C 31.839844 14.390625 31.648438 14.730469 31.523438 15.109375 C 31.472656 15.246094 31.441406 15.402344 31.394531 15.539062 C 31.234375 15.984375 30.953125 16.421875 30.648438 16.769531 C 30.25 17.210938 29.75 17.585938 29.300781 17.921875 C 29.300781 17.921875 29.300781 17.925781 29.296875 17.925781 C 30.601562 18.207031 31.8125 18.722656 32.890625 19.425781 C 33.058594 18.957031 33.230469 18.449219 33.328125 17.902344 "
       style="stroke:none;fill-rule:nonzero;fill:#000000;fill-opacity:1" />
    <path
       id="path944"
       d="M 65.824219 40.109375 C 65.824219 37.425781 65.773438 36.933594 62.578125 36.472656 L 62.578125 36.105469 L 70.972656 36.105469 L 70.972656 36.472656 C 68.046875 36.863281 67.96875 37.59375 67.96875 40.109375 L 67.96875 48.84375 C 67.996094 53.582031 67.433594 54.628906 62.136719 56.898438 L 61.945312 56.484375 C 65.53125 54.800781 65.824219 52.164062 65.824219 47.773438 L 65.824219 40.109375 "
       style="stroke:none;fill-rule:nonzero;fill:#000000;fill-opacity:1" />
    <path
       id="path946"
       d="M 75.058594 45.746094 C 74.644531 46.964844 73.566406 49.503906 73.566406 50.675781 C 73.566406 52.164062 75.25 52.164062 76.351562 52.335938 L 76.351562 52.699219 L 69.664062 52.699219 L 69.664062 52.335938 C 71.835938 51.75 72.054688 51.261719 72.8125 49.355469 L 75.566406 42.15625 L 77.035156 38.179688 C 77.253906 37.542969 77.570312 36.960938 77.300781 36.496094 C 77.960938 36.226562 78.570312 35.789062 79.082031 35.179688 L 84.453125 49.480469 C 85.109375 51.261719 85.527344 51.96875 87.476562 52.335938 L 87.476562 52.699219 L 80.304688 52.699219 L 80.304688 52.335938 C 81.160156 52.140625 82.183594 51.871094 82.183594 50.773438 C 82.183594 49.75 81.253906 47.453125 80.621094 45.746094 Z M 77.765625 38.277344 L 75.472656 44.621094 L 80.304688 44.621094 Z M 77.765625 38.277344 "
       style="stroke:none;fill-rule:nonzero;fill:#000000;fill-opacity:1" />
    <path
       id="path948"
       d="M 99.289062 49.136719 L 103.707031 39.425781 C 104.316406 38.085938 104.65625 36.863281 104.121094 36.496094 L 104.171875 36.105469 L 109.535156 36.105469 L 109.535156 36.472656 C 107.976562 36.789062 107.027344 37.375 107.121094 39.082031 L 107.660156 47.96875 C 107.929688 51.359375 107.929688 51.898438 110.535156 52.335938 L 110.535156 52.699219 L 102.511719 52.699219 L 102.511719 52.335938 C 104.390625 52.042969 105.585938 51.824219 105.464844 49.675781 L 104.804688 39.011719 L 104.757812 39.011719 L 98.535156 52.699219 L 98.265625 52.699219 L 92.480469 39.570312 L 92.433594 39.570312 C 92.042969 43.304688 91.847656 46.015625 91.675781 49.792969 C 91.628906 50.746094 91.652344 51.847656 94.605469 52.335938 L 94.605469 52.699219 L 87.796875 52.699219 L 87.796875 52.335938 C 89.96875 51.96875 90.1875 50.917969 90.53125 48.945312 L 91.433594 42.085938 L 91.75 38.765625 C 91.898438 37.15625 90.507812 36.59375 89.066406 36.472656 L 89.066406 36.105469 L 94.335938 36.105469 L 94.359375 36.375 C 93.824219 36.933594 94.480469 38.398438 94.652344 38.789062 L 99.289062 49.136719 "
       style="stroke:none;fill-rule:nonzero;fill:#000000;fill-opacity:1" />
    <path
       id="path950"
       d="M 111.542969 52.335938 C 114.472656 51.945312 114.496094 51.210938 114.566406 48.699219 L 114.566406 40.109375 C 114.496094 37.59375 114.472656 36.863281 111.542969 36.472656 L 111.542969 36.105469 L 124.648438 36.105469 L 124.355469 39.863281 L 123.988281 39.863281 C 123.816406 36.714844 121.546875 36.691406 119.085938 36.691406 L 116.71875 36.691406 L 116.71875 43.644531 L 119.253906 43.644531 C 121.085938 43.644531 122.476562 43.5 122.742188 41.402344 L 123.109375 41.402344 L 123.109375 46.84375 L 122.742188 46.84375 C 122.425781 44.699219 121.085938 44.667969 119.253906 44.667969 L 116.71875 44.667969 L 116.71875 48.671875 C 116.71875 50.113281 116.375 52.113281 120.378906 52.113281 C 123.453125 52.113281 124.964844 50.945312 125.574219 47.867188 L 125.9375 47.867188 C 125.914062 49.722656 125.601562 51.238281 125.113281 52.699219 L 111.542969 52.699219 L 111.542969 52.335938 "
       style="stroke:none;fill-rule:nonzero;fill:#000000;fill-opacity:1" />
    <path
       id="path952"
       d="M 137.117188 40.402344 L 136.730469 40.402344 C 136.339844 38.425781 135.703125 36.519531 133.289062 36.519531 C 131.726562 36.519531 130.433594 37.59375 130.433594 39.207031 C 130.433594 43.425781 138.121094 43.28125 138.121094 48.210938 C 138.121094 51.355469 134.996094 52.996094 132.191406 52.996094 C 130.699219 52.996094 129.136719 52.554688 127.898438 51.75 L 127.1875 47.601562 L 127.625 47.601562 C 128.234375 49.945312 129.871094 52.261719 132.554688 52.261719 C 134.359375 52.261719 135.777344 51.1875 135.777344 49.285156 C 135.777344 44.941406 128.3125 45.332031 128.3125 40.449219 C 128.3125 37.59375 131.140625 35.789062 133.75 35.789062 C 134.996094 35.789062 136.242188 36.152344 137.316406 36.738281 L 137.117188 40.402344 "
       style="stroke:none;fill-rule:nonzero;fill:#000000;fill-opacity:1" />
    <path
       id="path954"
       d="M 158.722656 41.132812 L 158.355469 41.132812 C 157.890625 38.375 156.277344 36.398438 153.351562 36.398438 C 148.886719 36.398438 146.371094 40.058594 146.371094 44.257812 C 146.371094 49.066406 150.054688 52.40625 153.597656 52.40625 C 156.789062 52.40625 158.058594 50.066406 159.160156 47.429688 L 159.503906 47.578125 C 159.207031 49.066406 158.746094 50.53125 158.160156 51.945312 C 156.597656 52.699219 154.914062 52.996094 153.179688 52.996094 C 148.078125 52.996094 143.539062 50.066406 143.539062 44.550781 C 143.539062 40.207031 146.929688 35.8125 153.375 35.8125 C 155.230469 35.8125 157.109375 36.179688 158.722656 37.132812 L 158.722656 41.132812 "
       style="stroke:none;fill-rule:nonzero;fill:#000000;fill-opacity:1" />
    <path
       id="path956"
       d="M 178.636719 44.402344 C 178.636719 49.652344 174.828125 52.992188 169.703125 52.992188 C 164.558594 52.992188 160.773438 49.652344 160.773438 44.378906 C 160.773438 39.179688 164.582031 35.8125 169.679688 35.8125 C 175.929688 35.8125 178.636719 40.058594 178.636719 44.402344 M 163.605469 43.792969 C 163.605469 47.574219 165.605469 52.40625 169.996094 52.40625 C 174.023438 52.40625 175.808594 48.308594 175.808594 44.820312 C 175.734375 40.496094 173.21875 36.398438 169.484375 36.398438 C 165.285156 36.398438 163.605469 40.496094 163.605469 43.792969 "
       style="stroke:none;fill-rule:nonzero;fill:#000000;fill-opacity:1" />
    <path
       id="path958"
       d="M 198.238281 44.402344 C 198.238281 49.652344 194.429688 52.992188 189.304688 52.992188 C 184.15625 52.992188 180.371094 49.652344 180.371094 44.378906 C 180.371094 39.179688 184.179688 35.8125 189.28125 35.8125 C 195.53125 35.8125 198.238281 40.058594 198.238281 44.402344 M 183.203125 43.792969 C 183.203125 47.574219 185.207031 52.40625 189.597656 52.40625 C 193.628906 52.40625 195.410156 48.308594 195.410156 44.820312 C 195.332031 40.496094 192.820312 36.398438 189.085938 36.398438 C 184.890625 36.398438 183.203125 40.496094 183.203125 43.792969 "
       style="stroke:none;fill-rule:nonzero;fill:#000000;fill-opacity:1" />
    <path
       id="path960"
       d="M 203.859375 48.699219 C 203.933594 51.210938 203.957031 51.945312 207.105469 52.335938 L 207.105469 52.699219 L 198.683594 52.699219 L 198.683594 52.335938 C 201.613281 51.945312 201.636719 51.210938 201.710938 48.699219 L 201.710938 40.109375 C 201.636719 37.59375 201.613281 36.863281 198.683594 36.472656 L 198.683594 36.105469 L 206.445312 36.105469 L 206.445312 36.472656 C 203.957031 36.863281 203.933594 37.59375 203.859375 40.109375 Z M 214.890625 36.105469 L 214.890625 36.472656 C 212.109375 36.765625 210.253906 39.132812 208.445312 41.011719 L 206.152344 43.453125 L 211.109375 48.917969 C 212.597656 50.554688 214.355469 52.015625 216.523438 52.625 L 216.402344 52.996094 C 212.15625 52.652344 211.472656 52.53125 209.175781 50.015625 L 204.199219 44.597656 L 208.128906 40.328125 C 210.691406 37.449219 210.203125 36.644531 208.566406 36.472656 L 208.566406 36.105469 L 214.890625 36.105469 "
       style="stroke:none;fill-rule:nonzero;fill:#000000;fill-opacity:1" />
    <path
       id="path962"
       d="M 81.636719 59.011719 L 81.636719 59.375 C 79.417969 59.621094 79.269531 60.988281 79.171875 64.210938 L 79.027344 69.554688 C 78.953125 72.703125 77.609375 75.898438 72.195312 75.898438 C 64.628906 75.898438 65.410156 70.429688 65.410156 68.480469 L 65.410156 63.015625 C 65.335938 60.5 65.3125 59.769531 62.382812 59.375 L 62.382812 59.011719 L 70.804688 59.011719 L 70.804688 59.375 C 67.605469 59.839844 67.554688 60.328125 67.554688 63.015625 L 67.554688 68.015625 C 67.554688 68.480469 66.773438 74.777344 73.460938 74.777344 C 78.734375 74.777344 78.222656 69.75 78.222656 66.769531 L 78.222656 64.210938 C 78.222656 61.109375 77.976562 59.695312 74.5625 59.375 L 74.5625 59.011719 L 81.636719 59.011719 "
       style="stroke:none;fill-rule:nonzero;fill:#000000;fill-opacity:1" />
    <path
       id="path964"
       d="M 98.621094 71.773438 L 98.496094 62.867188 C 98.472656 60.546875 97.839844 59.863281 95.082031 59.375 L 95.082031 59.011719 L 101.742188 59.011719 L 101.742188 59.375 C 100.058594 59.597656 99.742188 60.523438 99.546875 62.109375 C 99.203125 64.792969 99.328125 70.675781 99.449219 75.996094 L 99.132812 76.070312 C 95.226562 71.460938 90.882812 67.1875 86.757812 62.742188 L 86.757812 67.238281 C 86.757812 73.289062 86.613281 74.53125 90.152344 75.238281 L 90.152344 75.609375 L 82.855469 75.609375 L 82.855469 75.238281 C 86.152344 74.898438 86.027344 72.652344 86.027344 67.113281 L 86.027344 63.453125 C 86.027344 61.011719 85.636719 60.058594 82.539062 59.375 L 82.539062 59.011719 L 86.566406 59.011719 L 98.621094 71.773438 "
       style="stroke:none;fill-rule:nonzero;fill:#000000;fill-opacity:1" />
    <path
       id="path966"
       d="M 107.957031 71.605469 C 108.027344 74.117188 108.054688 74.851562 110.980469 75.242188 L 110.980469 75.609375 L 102.785156 75.609375 L 102.785156 75.242188 C 105.710938 74.851562 105.738281 74.117188 105.808594 71.605469 L 105.808594 63.015625 C 105.738281 60.5 105.710938 59.769531 102.785156 59.375 L 102.785156 59.011719 L 110.980469 59.011719 L 110.980469 59.375 C 108.054688 59.769531 108.027344 60.5 107.957031 63.015625 L 107.957031 71.605469 "
       style="stroke:none;fill-rule:nonzero;fill:#000000;fill-opacity:1" />
    <path
       id="path968"
       d="M 129.847656 59.011719 L 129.847656 59.375 C 127.550781 59.574219 126.847656 61.5 125.332031 65.039062 L 120.667969 76.167969 L 120.328125 76.167969 L 114.816406 62.96875 C 114.082031 61.183594 113.519531 59.621094 111.347656 59.375 L 111.347656 59.011719 L 119.085938 59.011719 L 119.085938 59.375 C 115.644531 59.71875 116.765625 61.671875 117.398438 63.210938 L 121.304688 72.628906 L 124.1875 65.722656 C 126.28125 60.71875 126.671875 59.914062 122.964844 59.375 L 122.964844 59.011719 L 129.847656 59.011719 "
       style="stroke:none;fill-rule:nonzero;fill:#000000;fill-opacity:1" />
    <path
       id="path970"
       d="M 130.066406 75.238281 C 132.996094 74.851562 133.019531 74.117188 133.09375 71.605469 L 133.09375 63.015625 C 133.019531 60.5 132.996094 59.769531 130.066406 59.375 L 130.066406 59.011719 L 143.171875 59.011719 L 142.882812 62.769531 L 142.515625 62.769531 C 142.34375 59.621094 140.070312 59.597656 137.605469 59.597656 L 135.242188 59.597656 L 135.242188 66.550781 L 137.78125 66.550781 C 139.605469 66.550781 141.003906 66.40625 141.269531 64.304688 L 141.636719 64.304688 L 141.636719 69.75 L 141.269531 69.75 C 140.953125 67.601562 139.605469 67.578125 137.78125 67.578125 L 135.242188 67.578125 L 135.242188 71.582031 C 135.242188 73.019531 134.898438 75.019531 138.902344 75.019531 C 141.976562 75.019531 143.492188 73.851562 144.101562 70.773438 L 144.464844 70.773438 C 144.441406 72.628906 144.125 74.144531 143.636719 75.609375 L 130.066406 75.609375 L 130.066406 75.238281 "
       style="stroke:none;fill-rule:nonzero;fill:#000000;fill-opacity:1" />
    <path
       id="path972"
       d="M 148.441406 64.039062 C 148.441406 60.304688 148.316406 59.742188 145.585938 59.5 L 145.585938 59.160156 L 151.539062 58.960938 C 157.691406 58.765625 158.175781 61.769531 158.175781 62.941406 C 158.175781 64.992188 156.910156 66.164062 155.152344 66.945312 L 155.273438 67.113281 C 157.152344 70.40625 159.496094 74.605469 163.523438 75.4375 L 163.449219 75.800781 C 160.863281 75.679688 158.960938 75.753906 157.542969 74.289062 C 155.933594 72.605469 154.664062 70.460938 154.152344 69.40625 C 153.175781 67.382812 152.296875 67.96875 150.589844 67.675781 L 150.589844 71.605469 C 150.589844 74.289062 150.636719 74.777344 153.980469 75.238281 L 153.980469 75.609375 L 145.414062 75.609375 L 145.414062 75.238281 C 148.34375 74.851562 148.367188 74.117188 148.441406 71.605469 Z M 150.589844 67.261719 C 152.929688 67.238281 155.664062 66.164062 155.664062 63.453125 C 155.664062 60.597656 153.152344 59.449219 150.589844 59.472656 L 150.589844 67.261719 "
       style="stroke:none;fill-rule:nonzero;fill:#000000;fill-opacity:1" />
    <path
       id="path974"
       d="M 172.757812 63.308594 L 172.367188 63.308594 C 171.976562 61.328125 171.34375 59.425781 168.929688 59.425781 C 167.367188 59.425781 166.074219 60.5 166.074219 62.109375 C 166.074219 66.332031 173.757812 66.1875 173.757812 71.117188 C 173.757812 74.261719 170.636719 75.898438 167.828125 75.898438 C 166.339844 75.898438 164.777344 75.460938 163.53125 74.652344 L 162.828125 70.507812 L 163.265625 70.507812 C 163.875 72.851562 165.507812 75.167969 168.195312 75.167969 C 170 75.167969 171.414062 74.09375 171.414062 72.191406 C 171.414062 67.847656 163.949219 68.238281 163.949219 63.355469 C 163.949219 60.5 166.777344 58.695312 169.390625 58.695312 C 170.636719 58.695312 171.878906 59.058594 172.953125 59.648438 L 172.757812 63.308594 "
       style="stroke:none;fill-rule:nonzero;fill:#000000;fill-opacity:1" />
    <path
       id="path976"
       d="M 179.894531 71.605469 C 179.96875 74.117188 179.992188 74.851562 182.921875 75.242188 L 182.921875 75.609375 L 174.71875 75.609375 L 174.71875 75.242188 C 177.652344 74.851562 177.675781 74.117188 177.75 71.605469 L 177.75 63.015625 C 177.675781 60.5 177.652344 59.769531 174.71875 59.375 L 174.71875 59.011719 L 182.921875 59.011719 L 182.921875 59.375 C 179.992188 59.769531 179.96875 60.5 179.894531 63.015625 L 179.894531 71.605469 "
       style="stroke:none;fill-rule:nonzero;fill:#000000;fill-opacity:1" />
    <path
       id="path978"
       d="M 199.039062 58.253906 L 199.230469 58.253906 L 199.574219 62.820312 L 199.230469 62.890625 C 198.378906 59.863281 197.039062 59.742188 194.230469 59.742188 L 192.761719 59.742188 L 192.761719 71.019531 C 192.761719 74.042969 192.910156 74.851562 196.183594 75.238281 L 196.183594 75.609375 L 187.203125 75.609375 L 187.203125 75.238281 C 190.472656 74.851562 190.617188 74.042969 190.617188 71.019531 L 190.617188 59.742188 L 189.15625 59.742188 C 186.347656 59.742188 185.003906 59.863281 184.148438 62.890625 L 183.808594 62.820312 L 184.148438 58.253906 L 184.34375 58.253906 L 184.589844 58.472656 C 185.199219 59.035156 185.300781 59.011719 186.101562 59.011719 L 197.28125 59.011719 C 198.085938 59.011719 198.183594 59.035156 198.792969 58.472656 L 199.039062 58.253906 "
       style="stroke:none;fill-rule:nonzero;fill:#000000;fill-opacity:1" />
    <path
       id="path980"
       d="M 215.6875 59.011719 L 215.6875 59.375 C 213.5625 59.546875 212.515625 60.71875 211.488281 62.476562 L 208.609375 68.1875 L 208.609375 70.949219 C 208.660156 73.75 208.707031 74.753906 211.828125 75.238281 L 211.828125 75.609375 L 203.238281 75.609375 L 203.238281 75.238281 C 206.363281 74.753906 206.414062 73.75 206.460938 70.949219 L 206.460938 68.992188 L 203.925781 63.453125 C 202.996094 61.402344 202.335938 59.671875 199.871094 59.375 L 199.871094 59.011719 L 206.609375 59.011719 L 206.609375 59.375 C 204.605469 59.648438 204.875 60.449219 205.660156 62.160156 L 208.097656 67.429688 L 210.21875 63.402344 C 211.734375 60.574219 211.539062 59.648438 209.417969 59.375 L 209.417969 59.011719 L 215.6875 59.011719 "
       style="stroke:none;fill-rule:nonzero;fill:#000000;fill-opacity:1" />
    <path
       id="path982"
       d="M 65.304688 80.421875 L 214.140625 80.421875 L 214.140625 80.921875 L 65.304688 80.921875 L 65.304688 80.421875 "
       style="stroke:none;fill-rule:nonzero;fill:#000000;fill-opacity:1" />
    <g
       style="fill:#000000;fill-opacity:1"
       id="g986"
       clip-rule="nonzero"
       clip-path="url(#clip3)">
      <path
         id="path984"
         d="M 73.363281 92.398438 L 71.320312 87.667969 L 69.292969 92.398438 Z M 70.390625 85.1875 L 72.316406 85.1875 L 77.519531 97.09375 L 75.324219 97.09375 L 74.125 94.238281 L 68.535156 94.238281 L 67.320312 97.09375 L 65.191406 97.09375 L 70.390625 85.1875 "
         style="stroke:none;fill-rule:nonzero;fill:#000000;fill-opacity:1" />
    </g>
    <g
       style="fill:#000000;fill-opacity:1"
       id="g990"
       clip-rule="nonzero"
       clip-path="url(#clip4)">
      <path
         id="path988"
         d="M 78.242188 92.078125 L 78.242188 85.269531 L 80.320312 85.269531 L 80.320312 91.992188 C 80.320312 94.1875 81.453125 95.355469 83.308594 95.355469 C 85.152344 95.355469 86.28125 94.257812 86.28125 92.078125 L 86.28125 85.269531 L 88.359375 85.269531 L 88.359375 91.976562 C 88.359375 95.507812 86.367188 97.28125 83.277344 97.28125 C 80.203125 97.28125 78.242188 95.507812 78.242188 92.078125 "
         style="stroke:none;fill-rule:nonzero;fill:#000000;fill-opacity:1" />
    </g>
    <g
       style="fill:#000000;fill-opacity:1"
       id="g994"
       clip-rule="nonzero"
       clip-path="url(#clip5)">
      <path
         id="path992"
         d="M 89.589844 95.371094 L 90.839844 93.886719 C 91.972656 94.863281 93.121094 95.421875 94.574219 95.421875 C 95.855469 95.421875 96.667969 94.8125 96.667969 93.933594 L 96.667969 93.902344 C 96.667969 93.058594 96.195312 92.601562 93.996094 92.09375 C 91.480469 91.488281 90.0625 90.742188 90.0625 88.5625 L 90.0625 88.53125 C 90.0625 86.503906 91.753906 85.101562 94.097656 85.101562 C 95.824219 85.101562 97.191406 85.625 98.390625 86.589844 L 97.273438 88.160156 C 96.210938 87.363281 95.148438 86.941406 94.066406 86.941406 C 92.847656 86.941406 92.140625 87.566406 92.140625 88.34375 L 92.140625 88.378906 C 92.140625 89.289062 92.679688 89.695312 94.960938 90.234375 C 97.460938 90.84375 98.746094 91.738281 98.746094 93.699219 L 98.746094 93.734375 C 98.746094 95.945312 97.003906 97.261719 94.523438 97.261719 C 92.714844 97.261719 91.007812 96.636719 89.589844 95.371094 "
         style="stroke:none;fill-rule:nonzero;fill:#000000;fill-opacity:1" />
    </g>
    <g
       style="fill:#000000;fill-opacity:1"
       id="g998"
       clip-rule="nonzero"
       clip-path="url(#clip6)">
      <path
         id="path996"
         d="M 103.589844 87.195312 L 99.839844 87.195312 L 99.839844 85.269531 L 109.433594 85.269531 L 109.433594 87.195312 L 105.683594 87.195312 L 105.683594 97.09375 L 103.589844 97.09375 L 103.589844 87.195312 "
         style="stroke:none;fill-rule:nonzero;fill:#000000;fill-opacity:1" />
    </g>
    <g
       style="fill:#000000;fill-opacity:1"
       id="g1002"
       clip-rule="nonzero"
       clip-path="url(#clip7)">
      <path
         id="path1000"
         d="M 116.40625 91.132812 C 117.890625 91.132812 118.839844 90.355469 118.839844 89.15625 L 118.839844 89.121094 C 118.839844 87.855469 117.925781 87.164062 116.390625 87.164062 L 113.363281 87.164062 L 113.363281 91.132812 Z M 111.289062 85.269531 L 116.558594 85.269531 C 118.042969 85.269531 119.210938 85.710938 119.96875 86.453125 C 120.59375 87.09375 120.949219 87.972656 120.949219 89.003906 L 120.949219 89.035156 C 120.949219 90.980469 119.785156 92.144531 118.144531 92.617188 L 121.335938 97.09375 L 118.871094 97.09375 L 115.964844 92.972656 L 113.363281 92.972656 L 113.363281 97.09375 L 111.289062 97.09375 L 111.289062 85.269531 "
         style="stroke:none;fill-rule:nonzero;fill:#000000;fill-opacity:1" />
    </g>
    <g
       style="fill:#000000;fill-opacity:1"
       id="g1006"
       clip-rule="nonzero"
       clip-path="url(#clip8)">
      <path
         id="path1004"
         d="M 131.703125 92.398438 L 129.660156 87.667969 L 127.632812 92.398438 Z M 128.730469 85.1875 L 130.65625 85.1875 L 135.859375 97.09375 L 133.664062 97.09375 L 132.464844 94.238281 L 126.871094 94.238281 L 125.65625 97.09375 L 123.527344 97.09375 L 128.730469 85.1875 "
         style="stroke:none;fill-rule:nonzero;fill:#000000;fill-opacity:1" />
    </g>
    <g
       style="fill:#000000;fill-opacity:1"
       id="g1010"
       clip-rule="nonzero"
       clip-path="url(#clip9)">
      <path
         id="path1008"
         d="M 138 85.269531 L 140.078125 85.269531 L 140.078125 95.203125 L 146.292969 95.203125 L 146.292969 97.09375 L 138 97.09375 L 138 85.269531 "
         style="stroke:none;fill-rule:nonzero;fill:#000000;fill-opacity:1" />
    </g>
    <g
       style="fill:#000000;fill-opacity:1"
       id="g1014"
       clip-rule="nonzero"
       clip-path="url(#clip10)">
      <path
         id="path1012"
         d="M 148.234375 85.269531 L 150.308594 85.269531 L 150.308594 97.09375 L 148.234375 97.09375 L 148.234375 85.269531 "
         style="stroke:none;fill-rule:nonzero;fill:#000000;fill-opacity:1" />
    </g>
    <g
       style="fill:#000000;fill-opacity:1"
       id="g1018"
       clip-rule="nonzero"
       clip-path="url(#clip11)">
      <path
         id="path1016"
         d="M 160.527344 92.398438 L 158.484375 87.667969 L 156.457031 92.398438 Z M 157.554688 85.1875 L 159.480469 85.1875 L 164.683594 97.09375 L 162.488281 97.09375 L 161.289062 94.238281 L 155.695312 94.238281 L 154.480469 97.09375 L 152.351562 97.09375 L 157.554688 85.1875 "
         style="stroke:none;fill-rule:nonzero;fill:#000000;fill-opacity:1" />
    </g>
    <g
       style="fill:#000000;fill-opacity:1"
       id="g1022"
       clip-rule="nonzero"
       clip-path="url(#clip12)">
      <path
         id="path1020"
         d="M 268.507812 61.707031 C 268.507812 71.261719 274.996094 78.097656 283.648438 78.097656 C 292.296875 78.097656 298.785156 71.261719 298.785156 61.707031 C 298.785156 52.148438 292.296875 45.308594 283.648438 45.308594 C 274.996094 45.308594 268.507812 52.148438 268.507812 61.707031 M 276.460938 61.707031 C 276.460938 52.777344 279.324219 48.101562 283.648438 48.101562 C 287.972656 48.101562 290.832031 52.777344 290.832031 61.707031 C 290.832031 69.585938 287.972656 75.308594 283.648438 75.308594 C 279.324219 75.308594 276.460938 69.585938 276.460938 61.707031 "
         style="stroke:none;fill-rule:nonzero;fill:#000000;fill-opacity:1" />
    </g>
    <path
       id="path1030"
       d="M 269.796875 81.691406 L 268.195312 84.332031 L 266.621094 81.691406 L 264.929688 81.691406 L 267.460938 85.679688 L 267.460938 88.277344 L 268.910156 88.277344 L 268.910156 85.652344 L 271.441406 81.691406 L 269.796875 81.691406 "
       style="stroke:none;fill-rule:nonzero;fill:#000000;fill-opacity:1" />
    <path
       id="path1038"
       d="M 271.984375 81.691406 L 271.984375 88.277344 L 277.003906 88.277344 L 277.003906 86.988281 L 273.425781 86.988281 L 273.425781 85.605469 L 276.53125 85.605469 L 276.53125 84.316406 L 273.425781 84.316406 L 273.425781 82.980469 L 276.953125 82.980469 L 276.953125 81.691406 L 271.984375 81.691406 "
       style="stroke:none;fill-rule:nonzero;fill:#000000;fill-opacity:1" />
    <path
       id="path1044"
       d="M 280.28125 81.644531 L 277.453125 88.277344 L 278.933594 88.277344 L 279.535156 86.800781 L 282.320312 86.800781 L 282.925781 88.277344 L 284.4375 88.277344 L 281.617188 81.644531 Z M 280.929688 83.382812 L 281.804688 85.519531 L 280.054688 85.519531 Z M 280.929688 83.382812 "
       style="stroke:none;fill-rule:nonzero;fill:#000000;fill-opacity:1" />
    <path
       id="path1052"
       d="M 285.039062 81.691406 L 285.039062 88.277344 L 286.492188 88.277344 L 286.492188 86.171875 L 287.628906 86.171875 L 289.039062 88.277344 L 290.734375 88.277344 L 289.125 85.925781 C 289.964844 85.613281 290.539062 84.945312 290.539062 83.882812 L 290.539062 83.863281 C 290.539062 83.242188 290.339844 82.726562 289.972656 82.355469 C 289.539062 81.925781 288.890625 81.691406 288.054688 81.691406 Z M 286.492188 82.996094 L 287.929688 82.996094 C 288.636719 82.996094 289.070312 83.320312 289.070312 83.9375 L 289.070312 83.957031 C 289.070312 84.511719 288.664062 84.890625 287.957031 84.890625 L 286.492188 84.890625 L 286.492188 82.996094 "
       style="stroke:none;fill-rule:nonzero;fill:#000000;fill-opacity:1" />
    <path
       id="path1060"
       d="M 291.269531 83.582031 L 291.269531 83.601562 C 291.269531 84.910156 292.125 85.277344 293.449219 85.613281 C 294.554688 85.898438 294.777344 86.085938 294.777344 86.449219 L 294.777344 86.472656 C 294.777344 86.855469 294.421875 87.09375 293.828125 87.09375 C 293.074219 87.09375 292.453125 86.78125 291.863281 86.292969 L 291.003906 87.316406 C 291.796875 88.023438 292.800781 88.375 293.800781 88.375 C 295.222656 88.375 296.21875 87.640625 296.21875 86.328125 L 296.21875 86.3125 C 296.21875 85.164062 295.464844 84.679688 294.128906 84.332031 C 292.992188 84.042969 292.707031 83.902344 292.707031 83.46875 L 292.707031 83.449219 C 292.707031 83.128906 293 82.875 293.554688 82.875 C 294.109375 82.875 294.683594 83.121094 295.265625 83.523438 L 296.023438 82.433594 C 295.351562 81.898438 294.535156 81.59375 293.574219 81.59375 C 292.226562 81.59375 291.269531 82.386719 291.269531 83.582031 "
       style="stroke:none;fill-rule:nonzero;fill:#000000;fill-opacity:1" />
    <path
       id="path1068"
       d="M 265.570312 51 L 249.34375 52.320312 L 247.910156 57.808594 C 256.347656 57.875 266.714844 60.863281 266.714844 71.28125 C 266.714844 75.519531 264.355469 79.753906 259.851562 82.875 C 255.34375 86.074219 247.554688 88.085938 241.976562 88.085938 L 241.691406 85.792969 C 246.765625 85.101562 259.421875 82.53125 259.421875 72.738281 C 259.421875 65.238281 251.628906 63.570312 244.265625 63.503906 L 247.125 46.628906 L 266.714844 45.027344 L 265.570312 51 "
       style="stroke:none;fill-rule:nonzero;fill:#000000;fill-opacity:1" />
    <g
       style="fill:#000000;fill-opacity:1"
       id="g1072"
       clip-rule="nonzero"
       clip-path="url(#clip24)">
      <path
         id="path1070"
         d="M 251.300781 97.023438 C 252.203125 96.980469 252.429688 96.902344 252.523438 96.527344 L 253.625 92.386719 C 253.773438 91.832031 253.730469 91.632812 252.714844 91.597656 L 252.75 91.484375 L 254.886719 91.320312 L 253.480469 96.527344 C 253.375 96.902344 253.539062 96.980469 254.460938 97.023438 L 254.433594 97.136719 L 251.273438 97.136719 L 251.300781 97.023438 "
         style="stroke:none;fill-rule:nonzero;fill:#000000;fill-opacity:1" />
    </g>
    <g
       style="fill:#000000;fill-opacity:1"
       id="g1076"
       clip-rule="nonzero"
       clip-path="url(#clip25)">
      <path
         id="path1074"
         d="M 256.875 94 C 256.875 94.75 257.152344 95.042969 257.621094 95.042969 C 258.414062 95.042969 259.226562 93.984375 259.226562 92.636719 C 259.226562 91.953125 258.976562 91.441406 258.386719 91.441406 C 257.464844 91.441406 256.875 92.953125 256.875 94 Z M 260.140625 93.1875 C 260.140625 95.433594 258.324219 97.082031 255.328125 97.285156 L 255.339844 97.160156 C 257.648438 96.726562 258.59375 95.609375 258.949219 94.410156 L 258.925781 94.394531 C 258.496094 94.964844 258.023438 95.242188 257.398438 95.242188 C 256.40625 95.242188 255.914062 94.566406 255.914062 93.714844 C 255.914062 92.550781 256.925781 91.265625 258.421875 91.265625 C 259.539062 91.265625 260.140625 92.101562 260.140625 93.1875 "
         style="stroke:none;fill-rule:nonzero;fill:#000000;fill-opacity:1" />
    </g>
    <g
       style="fill:#000000;fill-opacity:1"
       id="g1080"
       clip-rule="nonzero"
       clip-path="url(#clip26)">
      <path
         id="path1078"
         d="M 260.273438 97.160156 L 264.605469 92.203125 L 262.242188 92.203125 C 261.722656 92.203125 261.53125 92.34375 261.011719 93.253906 L 260.90625 93.253906 L 261.417969 91.390625 L 265.300781 91.390625 L 265.324219 91.484375 L 262.945312 94.78125 L 261.28125 97.222656 L 260.273438 97.222656 L 260.273438 97.160156 "
         style="stroke:none;fill-rule:nonzero;fill:#000000;fill-opacity:1" />
    </g>
    <g
       style="fill:#000000;fill-opacity:1"
       id="g1084"
       clip-rule="nonzero"
       clip-path="url(#clip27)">
      <path
         id="path1082"
         d="M 266.734375 97.074219 C 268.105469 97.074219 268.898438 94.316406 268.898438 92.777344 C 268.898438 91.917969 268.621094 91.441406 268.019531 91.441406 C 266.648438 91.441406 265.859375 94.210938 265.859375 95.746094 C 265.859375 96.605469 266.136719 97.074219 266.734375 97.074219 Z M 266.734375 97.257812 C 265.660156 97.257812 264.914062 96.503906 264.914062 95.121094 C 264.914062 93.488281 266.117188 91.265625 268.019531 91.265625 C 269.097656 91.265625 269.84375 92.023438 269.84375 93.402344 C 269.84375 95.035156 268.636719 97.257812 266.734375 97.257812 "
         style="stroke:none;fill-rule:nonzero;fill:#000000;fill-opacity:1" />
    </g>
    <path
       id="path1086"
       d="M 272.007812 94.703125 L 274.230469 94.703125 L 274.136719 95.0625 L 271.914062 95.0625 L 272.007812 94.703125 "
       style="stroke:none;fill-rule:nonzero;fill:#000000;fill-opacity:1" />
    <g
       style="fill:#000000;fill-opacity:1"
       id="g1090"
       clip-rule="nonzero"
       clip-path="url(#clip28)">
      <path
         id="path1088"
         d="M 276.246094 96.527344 L 278.375 95.035156 C 279.609375 94.191406 280.085938 93.5 280.085938 92.550781 C 280.085938 91.832031 279.789062 91.421875 279.164062 91.421875 C 278.722656 91.421875 278.28125 91.675781 278.046875 92.039062 C 278.390625 92.144531 278.582031 92.386719 278.582031 92.707031 C 278.582031 93.046875 278.324219 93.359375 277.949219 93.359375 C 277.578125 93.359375 277.332031 93.097656 277.332031 92.691406 C 277.332031 91.917969 278.203125 91.265625 279.296875 91.265625 C 280.476562 91.265625 281.09375 91.882812 281.09375 92.628906 C 281.09375 93.472656 280.425781 94.046875 278.097656 95.503906 L 276.863281 96.320312 L 276.863281 96.34375 L 279.09375 96.34375 C 279.710938 96.34375 279.929688 96.191406 280.40625 95.433594 L 280.519531 95.441406 L 280.035156 97.136719 L 276.109375 97.136719 L 276.246094 96.527344 "
         style="stroke:none;fill-rule:nonzero;fill:#000000;fill-opacity:1" />
    </g>
    <g
       style="fill:#000000;fill-opacity:1"
       id="g1094"
       clip-rule="nonzero"
       clip-path="url(#clip29)">
      <path
         id="path1092"
         d="M 283.230469 97.074219 C 284.601562 97.074219 285.394531 94.316406 285.394531 92.777344 C 285.394531 91.917969 285.117188 91.441406 284.515625 91.441406 C 283.144531 91.441406 282.355469 94.210938 282.355469 95.746094 C 282.355469 96.605469 282.632812 97.074219 283.230469 97.074219 Z M 283.230469 97.257812 C 282.15625 97.257812 281.410156 96.503906 281.410156 95.121094 C 281.410156 93.488281 282.613281 91.265625 284.515625 91.265625 C 285.59375 91.265625 286.339844 92.023438 286.339844 93.402344 C 286.339844 95.035156 285.132812 97.257812 283.230469 97.257812 "
         style="stroke:none;fill-rule:nonzero;fill:#000000;fill-opacity:1" />
    </g>
    <g
       style="fill:#000000;fill-opacity:1"
       id="g1098"
       clip-rule="nonzero"
       clip-path="url(#clip30)">
      <path
         id="path1096"
         d="M 286.367188 96.527344 L 288.496094 95.035156 C 289.730469 94.191406 290.207031 93.5 290.207031 92.550781 C 290.207031 91.832031 289.910156 91.421875 289.285156 91.421875 C 288.84375 91.421875 288.398438 91.675781 288.164062 92.039062 C 288.511719 92.144531 288.703125 92.386719 288.703125 92.707031 C 288.703125 93.046875 288.445312 93.359375 288.070312 93.359375 C 287.695312 93.359375 287.453125 93.097656 287.453125 92.691406 C 287.453125 91.917969 288.320312 91.265625 289.414062 91.265625 C 290.597656 91.265625 291.214844 91.882812 291.214844 92.628906 C 291.214844 93.472656 290.542969 94.046875 288.21875 95.503906 L 286.984375 96.320312 L 286.984375 96.34375 L 289.214844 96.34375 C 289.832031 96.34375 290.050781 96.191406 290.527344 95.433594 L 290.640625 95.441406 L 290.15625 97.136719 L 286.230469 97.136719 L 286.367188 96.527344 "
         style="stroke:none;fill-rule:nonzero;fill:#000000;fill-opacity:1" />
    </g>
    <g
       style="fill:#000000;fill-opacity:1"
       id="g1102"
       clip-rule="nonzero"
       clip-path="url(#clip31)">
      <path
         id="path1100"
         d="M 293.351562 97.074219 C 294.722656 97.074219 295.511719 94.316406 295.511719 92.777344 C 295.511719 91.917969 295.234375 91.441406 294.636719 91.441406 C 293.265625 91.441406 292.476562 94.210938 292.476562 95.746094 C 292.476562 96.605469 292.753906 97.074219 293.351562 97.074219 Z M 293.351562 97.257812 C 292.277344 97.257812 291.527344 96.503906 291.527344 95.121094 C 291.527344 93.488281 292.734375 91.265625 294.636719 91.265625 C 295.714844 91.265625 296.460938 92.023438 296.460938 93.402344 C 296.460938 95.035156 295.253906 97.257812 293.351562 97.257812 "
         style="stroke:none;fill-rule:nonzero;fill:#000000;fill-opacity:1" />
    </g>
    <path
       id="path1104"
       d="M 253.367188 39.804688 C 253.367188 37.9375 254.859375 35.992188 257.089844 35.992188 C 257.777344 35.992188 258.296875 36.226562 258.625 36.445312 L 259.105469 36.019531 L 259.242188 36.019531 L 258.679688 38.078125 L 258.539062 38.078125 C 258.15625 36.625 257.914062 36.15625 257.039062 36.15625 C 255.597656 36.15625 254.433594 38.285156 254.433594 40.003906 C 254.433594 41.253906 255.050781 42 256.179688 42 C 257.039062 42 257.8125 41.410156 258.472656 40.535156 L 258.601562 40.628906 C 257.992188 41.488281 257.097656 42.339844 255.789062 42.339844 C 254.390625 42.339844 253.367188 41.316406 253.367188 39.804688 "
       style="stroke:none;fill-rule:nonzero;fill:#000000;fill-opacity:1" />
    <path
       id="path1106"
       d="M 259.992188 40.109375 C 261.597656 40.082031 261.875 39.371094 261.875 38.796875 C 261.875 38.457031 261.703125 38.3125 261.441406 38.3125 C 260.835938 38.3125 260.203125 39.171875 259.992188 40.109375 Z M 259.964844 40.246094 C 259.929688 40.410156 259.921875 40.578125 259.921875 40.734375 C 259.921875 41.53125 260.175781 41.929688 260.871094 41.929688 C 261.320312 41.929688 261.816406 41.644531 262.144531 41.203125 L 262.257812 41.296875 C 261.789062 41.929688 261.207031 42.269531 260.503906 42.269531 C 259.714844 42.269531 259.003906 41.792969 259.003906 40.75 C 259.003906 39.4375 260.078125 38.128906 261.484375 38.128906 C 262.277344 38.128906 262.664062 38.511719 262.664062 39.023438 C 262.664062 39.699219 261.816406 40.28125 259.964844 40.246094 "
       style="stroke:none;fill-rule:nonzero;fill:#000000;fill-opacity:1" />
    <path
       id="path1108"
       d="M 263.953125 41.269531 C 263.917969 41.410156 263.894531 41.53125 263.894531 41.636719 C 263.894531 41.914062 264.117188 41.992188 264.789062 41.949219 L 264.789062 42.035156 C 264.621094 42.105469 264.128906 42.253906 263.746094 42.253906 C 263.25 42.253906 263 42.050781 263 41.660156 C 263 41.550781 263.023438 41.410156 263.070312 41.261719 L 263.988281 38.214844 L 264.414062 36.601562 C 264.484375 36.324219 264.328125 36.191406 263.683594 36.15625 L 263.683594 36.054688 L 265.5 35.964844 L 263.953125 41.269531 "
       style="stroke:none;fill-rule:nonzero;fill:#000000;fill-opacity:1" />
    <path
       id="path1110"
       d="M 266.402344 40.109375 C 268.007812 40.082031 268.289062 39.371094 268.289062 38.796875 C 268.289062 38.457031 268.113281 38.3125 267.851562 38.3125 C 267.246094 38.3125 266.613281 39.171875 266.402344 40.109375 Z M 266.378906 40.246094 C 266.34375 40.410156 266.335938 40.578125 266.335938 40.734375 C 266.335938 41.53125 266.585938 41.929688 267.28125 41.929688 C 267.730469 41.929688 268.226562 41.644531 268.558594 41.203125 L 268.667969 41.296875 C 268.203125 41.929688 267.621094 42.269531 266.914062 42.269531 C 266.125 42.269531 265.414062 41.792969 265.414062 40.75 C 265.414062 39.4375 266.488281 38.128906 267.898438 38.128906 C 268.6875 38.128906 269.078125 38.511719 269.078125 39.023438 C 269.078125 39.699219 268.226562 40.28125 266.378906 40.246094 "
       style="stroke:none;fill-rule:nonzero;fill:#000000;fill-opacity:1" />
    <path
       id="path1112"
       d="M 272.394531 39.464844 C 272.394531 38.902344 272.179688 38.570312 271.71875 38.570312 C 271.441406 38.570312 271.148438 38.753906 270.894531 38.988281 L 270.191406 41.707031 C 270.296875 41.964844 270.539062 42.105469 270.824219 42.105469 C 271.726562 42.105469 272.394531 40.566406 272.394531 39.464844 Z M 270.738281 42.269531 C 270.148438 42.269531 269.714844 42.132812 269.253906 41.757812 L 269.773438 39.976562 L 270.625 36.601562 C 270.703125 36.324219 270.539062 36.191406 269.894531 36.15625 L 269.894531 36.054688 L 271.726562 35.964844 L 270.9375 38.769531 L 270.964844 38.789062 C 271.371094 38.363281 271.78125 38.128906 272.257812 38.128906 C 272.855469 38.128906 273.316406 38.589844 273.316406 39.449219 C 273.316406 40.769531 272.230469 42.269531 270.738281 42.269531 "
       style="stroke:none;fill-rule:nonzero;fill:#000000;fill-opacity:1" />
    <path
       id="path1114"
       d="M 277.453125 38.726562 C 277.453125 39.117188 277.21875 39.386719 276.898438 39.386719 C 276.601562 39.386719 276.382812 39.238281 276.382812 38.925781 C 276.382812 38.839844 276.410156 38.675781 276.496094 38.578125 C 276.160156 38.597656 275.722656 38.960938 275.378906 39.371094 L 274.683594 42.191406 L 273.734375 42.191406 L 274.152344 40.785156 L 274.691406 38.796875 C 274.769531 38.519531 274.683594 38.390625 274.144531 38.355469 L 274.144531 38.25 L 275.714844 38.171875 L 275.429688 39.109375 L 275.445312 39.128906 C 275.828125 38.597656 276.339844 38.136719 276.808594 38.136719 C 277.234375 38.136719 277.453125 38.40625 277.453125 38.726562 "
       style="stroke:none;fill-rule:nonzero;fill:#000000;fill-opacity:1" />
    <path
       id="path1116"
       d="M 278.261719 40.890625 C 278.261719 41.496094 278.46875 41.886719 278.894531 41.886719 C 279.234375 41.886719 279.546875 41.550781 279.789062 41.125 L 280.40625 39.066406 C 280.34375 38.632812 280.101562 38.328125 279.78125 38.328125 C 278.921875 38.328125 278.261719 40.019531 278.261719 40.890625 Z M 280.632812 41.269531 C 280.578125 41.453125 280.542969 41.609375 280.542969 41.722656 C 280.542969 41.976562 280.761719 42.035156 281.300781 41.992188 L 281.300781 42.078125 C 281.074219 42.164062 280.710938 42.261719 280.421875 42.261719 C 279.980469 42.261719 279.738281 42.15625 279.738281 41.765625 C 279.738281 41.695312 279.746094 41.609375 279.78125 41.472656 L 279.761719 41.460938 C 279.355469 42.042969 278.980469 42.269531 278.476562 42.269531 C 277.785156 42.269531 277.324219 41.757812 277.324219 40.878906 C 277.324219 39.519531 278.503906 38.128906 279.660156 38.128906 C 280.164062 38.128906 280.371094 38.355469 280.535156 38.683594 L 280.691406 38.234375 L 281.605469 38.128906 L 281.136719 39.527344 L 280.632812 41.269531 "
       style="stroke:none;fill-rule:nonzero;fill:#000000;fill-opacity:1" />
    <path
       id="path1118"
       d="M 283.890625 38.40625 L 283.160156 41.019531 C 283.109375 41.203125 283.082031 41.351562 283.082031 41.472656 C 283.082031 41.75 283.238281 41.871094 283.558594 41.871094 C 283.769531 41.871094 284.078125 41.820312 284.332031 41.75 L 284.332031 41.835938 C 284.054688 42 283.550781 42.269531 283.039062 42.269531 C 282.441406 42.269531 282.171875 42.007812 282.171875 41.550781 C 282.171875 41.402344 282.195312 41.238281 282.246094 41.054688 L 283.023438 38.40625 L 282.246094 38.40625 L 282.308594 38.214844 L 283.074219 38.214844 L 283.445312 36.929688 L 284.394531 36.792969 L 283.941406 38.214844 L 285.027344 38.214844 L 284.964844 38.40625 L 283.890625 38.40625 "
       style="stroke:none;fill-rule:nonzero;fill:#000000;fill-opacity:1" />
    <path
       id="path1120"
       d="M 286.992188 36.113281 C 287.21875 36.113281 287.414062 36.261719 287.414062 36.566406 C 287.414062 36.964844 287.128906 37.328125 286.773438 37.328125 C 286.546875 37.328125 286.339844 37.164062 286.339844 36.859375 C 286.339844 36.460938 286.636719 36.113281 286.992188 36.113281 Z M 286.808594 42.042969 C 286.644531 42.113281 286.183594 42.261719 285.800781 42.261719 C 285.304688 42.261719 285.054688 42.050781 285.054688 41.671875 C 285.054688 41.550781 285.078125 41.417969 285.121094 41.261719 L 285.886719 38.796875 C 285.976562 38.511719 285.75 38.390625 285.210938 38.355469 L 285.210938 38.25 L 286.972656 38.171875 L 286.019531 41.28125 C 285.964844 41.4375 285.941406 41.566406 285.941406 41.660156 C 285.941406 41.929688 286.15625 41.992188 286.808594 41.957031 L 286.808594 42.042969 "
       style="stroke:none;fill-rule:nonzero;fill:#000000;fill-opacity:1" />
    <path
       id="path1122"
       d="M 288.355469 38.796875 C 288.433594 38.519531 288.347656 38.390625 287.808594 38.355469 L 287.808594 38.25 L 289.378906 38.171875 L 289.121094 39.015625 L 289.136719 39.03125 C 289.65625 38.503906 290.273438 38.144531 290.761719 38.144531 C 291.296875 38.144531 291.585938 38.441406 291.585938 38.945312 C 291.585938 39.109375 291.558594 39.308594 291.488281 39.527344 L 290.898438 41.359375 C 290.847656 41.523438 290.8125 41.652344 290.8125 41.75 C 290.8125 41.992188 291.019531 42.035156 291.59375 41.992188 L 291.59375 42.078125 C 291.445312 42.140625 291.0625 42.261719 290.71875 42.261719 C 290.222656 42.261719 289.960938 42.105469 289.960938 41.722656 C 289.960938 41.617188 289.988281 41.460938 290.039062 41.304688 L 290.605469 39.5625 C 290.664062 39.363281 290.699219 39.214844 290.699219 39.058594 C 290.699219 38.789062 290.570312 38.632812 290.238281 38.632812 C 289.902344 38.632812 289.492188 38.859375 289.085938 39.214844 L 288.347656 42.191406 L 287.398438 42.191406 L 287.816406 40.785156 L 288.355469 38.796875 "
       style="stroke:none;fill-rule:nonzero;fill:#000000;fill-opacity:1" />
    <path
       id="path1124"
       d="M 293.167969 40.878906 C 293.167969 41.488281 293.410156 41.785156 293.863281 41.785156 C 294.183594 41.785156 294.417969 41.609375 294.652344 41.261719 L 295.3125 39.03125 C 295.214844 38.667969 294.972656 38.328125 294.625 38.328125 C 293.730469 38.328125 293.167969 40.019531 293.167969 40.878906 Z M 292.238281 40.800781 C 292.238281 39.535156 293.339844 38.128906 294.503906 38.128906 C 295 38.128906 295.242188 38.328125 295.441406 38.625 L 295.582031 38.234375 L 296.503906 38.128906 L 296.03125 39.535156 L 295.269531 42.253906 C 294.9375 43.40625 294.410156 43.929688 293.121094 43.929688 C 292.179688 43.929688 291.71875 43.503906 291.71875 43.085938 C 291.71875 42.722656 291.960938 42.460938 292.289062 42.460938 C 292.59375 42.460938 292.769531 42.667969 292.769531 42.957031 C 292.769531 43.15625 292.636719 43.347656 292.453125 43.449219 C 292.578125 43.652344 292.828125 43.761719 293.117188 43.761719 C 293.777344 43.761719 294.148438 43.234375 294.417969 42.304688 L 294.625 41.566406 L 294.601562 41.558594 C 294.253906 41.976562 293.929688 42.191406 293.4375 42.191406 C 292.785156 42.191406 292.238281 41.6875 292.238281 40.800781 "
       style="stroke:none;fill-rule:nonzero;fill:#000000;fill-opacity:1" />
  </g>
</svg>
