<svg xmlns="http://www.w3.org/2000/svg" height="291.227" width="647.147" xml:space="preserve"><path style="fill:#0066b3;fill-opacity:1;fill-rule:nonzero;stroke:none" d="M1049.18 949.461c-36.74-21.199-89.227-34.43-147.524-34.43-58.402 0-110.836 13.231-147.582 34.391-36.722 21.168-89.261 34.387-147.515 34.387-58.301 0-110.922-13.219-147.563-34.387-36.777-21.16-89.262-34.391-147.613-34.391-58.293 0-110.781 13.231-147.477 34.391-36.773 21.168-89.226 34.387-147.61 34.387-5.452 0-10.855-.2-16.296-.43V846.828c0-20.68.754-40.558 1.93-60.148 4.77.16 9.55.422 14.367.422 58.383 0 110.836-13.262 147.609-34.493 36.696-21.14 89.184-34.347 147.477-34.347 58.351 0 110.836 13.207 147.613 34.347 36.641 21.231 89.262 34.493 147.563 34.493 58.254 0 110.793-13.262 147.515-34.493 36.746-21.14 89.18-34.347 147.582-34.347 58.297 0 110.784 13.207 147.524 34.398 36.73 21.18 89.22 34.442 147.47 34.442 4.95 0 9.68-.262 14.45-.422 1.18 19.59 1.89 39.468 1.89 60.148v136.551c-5.36.23-10.72.43-16.34.43-58.25 0-110.74-13.219-147.47-34.348M901.656 521.488c-58.347 0-110.879 13.211-147.582 34.352-36.722 21.191-89.261 34.48-147.515 34.48-58.301 0-110.879-13.289-147.563-34.48-36.777-21.141-89.262-34.352-147.613-34.352-58.293-.047-110.781 13.211-147.477 34.352-32.683 18.871-77.785 31.371-128.293 33.851 25.84-86.492 64.094-159.222 109.25-221.191 6.711-2.98 13.098-5.988 19.043-9.43 36.696-21.14 89.184-34.441 147.477-34.398 58.351 0 110.836 13.258 147.613 34.398 36.684 21.18 89.262 34.52 147.563 34.52 58.254 0 110.793-13.262 147.515-34.52 36.703-21.14 89.235-34.398 147.582-34.398 58.297 0 110.784 13.258 147.524 34.398 5.93 3.481 12.38 6.5 19.04 9.481 45.19 61.918 83.32 134.648 109.21 221.14-50.56-2.48-95.66-14.98-128.25-33.851-36.74-21.141-89.227-34.352-147.524-34.352m-147.582-359.16c-36.722 21.102-89.261 34.41-147.515 34.41-58.301 0-110.879-13.308-147.563-34.41-17.699-10.226-39.027-18.457-62.887-24.406C480.695 81.372 558.895 39.809 606.559 0c47.632 39.809 125.832 81.371 210.418 137.922-23.86 5.949-45.2 14.18-62.903 24.406M1049.18 1343.02c-36.74-21.18-89.227-34.5-147.524-34.5-58.402 0-110.836 13.32-147.582 34.5-36.722 21.1-89.261 34.37-147.515 34.37-58.301 0-110.922-13.27-147.563-34.37-36.777-21.18-89.262-34.5-147.613-34.5-58.293 0-110.781 13.32-147.477 34.5-36.773 21.1-89.226 34.37-147.61 34.37-5.452 0-10.855-.19-16.296-.42V1180.2c5.441.18 10.844.37 16.297.37 58.383 0 110.836-13.2 147.609-34.35 36.696-21.24 89.184-34.45 147.477-34.45 58.351 0 110.836 13.21 147.613 34.45 36.641 21.15 89.262 34.35 147.563 34.35 58.254 0 110.793-13.2 147.515-34.35 36.746-21.24 89.18-34.45 147.582-34.45 58.297 0 110.784 13.21 147.524 34.45 36.73 21.15 89.22 34.35 147.47 34.35 5.62 0 10.98-.19 16.34-.42v196.82c-5.36.23-10.72.42-16.34.42-58.25 0-110.74-13.27-147.47-34.37" transform="matrix(.13333 0 0 -.13333 0 291.227)"/><path style="fill:#e7b20f;fill-opacity:1;fill-rule:nonzero;stroke:none" d="M606.559 1747.12c-109.821 0-198.84-89.01-198.84-198.82 0-9.89.996-19.59 2.375-29.09 18.25 5.51 34.765 12.46 48.902 20.61 36.641 21.09 89.262 34.36 147.563 34.36 58.254 0 110.793-13.27 147.515-34.36 14.145-8.17 30.672-15.1 48.942-20.65 1.394 9.54 2.363 19.21 2.363 29.13 0 109.81-89.016 198.82-198.82 198.82zm-270.981-58.4c-3.965-.58-7.894-1.68-11.926-2.42-10.515-1.78-20.476-2.03-30.547-1.66-10.304.34-22.46 2.81-29.328 7.27-1.754-10.36 11.047-24.02 21.903-31.34 7.425-5.08 15.258-9.44 23.566-12.19 3.262-1.16 6.504-1.71 9.738-2.93 9.954-3.47 19.719-9.85 27.45-16.7 10.05-8.86 18.382-20.13 26.078-30.07 6.176 29.03 17.789 56.23 33.59 80.35-10.485 3.75-21.832 7.79-34.219 9.69-10.938 1.72-23.91 1.93-36.305 0zm725.162-140.46-218.283 39.12c2.164-12.72 3.555-25.8 3.555-39.1 0-13.31-1.391-26.29-3.555-39.07zm-690.295 39.12-218.16-39.12 218.242-39.05c-1.992 12.78-3.461 25.76-3.461 39.07 0 13.3 1.469 26.38 3.379 39.1zm527.02 53.22c2.43 3.32 4.348 6.88 6.805 10.11 6.031 8.77 12.929 15.94 20.207 22.79 7.582 7 17.961 13.95 26.058 15.66-6.152 8.41-24.906 9.19-37.765 6.66-8.817-1.73-17.196-4.07-25.262-8.02-3.145-1.54-5.84-3.45-8.996-4.94-9.481-4.45-20.84-6.93-31.285-7.5-13.247-.91-27.149 1.23-39.618 2.87h-.199c15.731-24.26 27.215-51.37 33.379-80.59 10.121 4.77 20.82 9.95 30.926 17.29 8.976 6.53 18.32 15.56 25.75 25.67zm-427.121 104.43-137.242 76.79 76.554-137.3c16.59 23.71 37.02 44.21 60.688 60.51zm333.031-60.51 76.582 137.3-137.195-76.79c23.613-16.3 44.14-36.8 60.613-60.51zm-156.559 99.59-40.257 400.04-40.301-400.04c13.16 2.14 26.488 3.6 40.301 3.6 13.683 0 27.054-1.46 40.257-3.6zm-179.789 45.14c1.516-3.01 3.446-5.84 4.911-8.95 4.476-9.54 7.031-20.89 7.582-31.18.777-13.41-1.254-27.31-2.883-39.68v-.27c24.133 15.74 51.375 27.28 80.539 33.42-4.774 10.11-9.879 20.94-17.281 30.92-6.536 9-15.618 18.31-25.622 25.6-3.324 2.47-6.835 4.47-10.214 6.8-8.735 6.18-15.844 13.01-22.778 20.29-6.98 7.62-13.918 18-15.582 26.13-8.484-6.22-9.152-24.89-6.66-37.82 1.781-8.92 4.102-17.26 7.988-25.26zm280.012-46.37c1.66 10.98 1.863 24.01 0 36.43-.605 3.96-1.848 7.87-2.508 11.88-1.769 10.54-2.09 20.37-1.769 30.48.472 10.29 2.777 22.6 7.402 29.49-10.301 1.57-23.984-11.13-31.348-22.01-5.125-7.58-9.394-15.19-12.203-23.64-1.14-3.11-1.793-6.53-2.867-9.63-3.574-9.96-9.941-19.82-16.73-27.6-8.938-9.85-20.129-18.32-30.215-25.84 0 0 0-.08-.039-.08a239.917 239.917 0 0 0 80.535-33.64c3.73 10.56 7.637 21.93 9.742 34.16" transform="matrix(.13333 0 0 -.13333 0 291.227)"/><path style="fill:#000;fill-opacity:1;fill-rule:nonzero;stroke:none" d="M1475.48 1285.14c0 60.16-1.11 71.13-72.78 81.48v8.23h188.25v-8.23c-65.66-8.71-67.34-25.14-67.34-81.48V1089.3c.58-106.14-12-129.671-130.75-180.499l-4.36 9.277c80.4 37.75 86.98 96.812 86.98 195.242v171.82m207-126.36c-9.29-27.38-33.44-84.3-33.44-110.52 0-33.39 37.76-33.39 62.42-37.21v-8.19h-149.91v8.19c48.72 13.14 53.62 24.08 70.57 66.77l61.79 161.37 32.87 89.17c4.9 14.24 12.01 27.35 6 37.73 14.78 6.04 28.43 15.85 39.94 29.53l120.34-320.54c14.75-39.95 24.09-55.82 67.84-64.03v-8.19h-160.82v8.19c19.15 4.38 42.13 10.43 42.13 35.01 0 22.99-20.81 74.42-35.02 112.72zm60.71 167.39-51.44-142.22h108.33zm482.45-243.44 99.03 217.73c13.68 30.04 21.32 57.45 9.27 65.63l1.14 8.77h120.27v-8.23c-34.96-7.1-56.28-20.22-54.11-58.52l12.04-199.14c6-76 6-88.08 64.5-97.94v-8.17h-179.9v8.17c42.11 6.59 68.89 11.51 66.16 59.65l-14.78 239.05h-1.07l-139.46-306.87h-6.01l-129.69 294.3h-1.04c-8.8-83.68-13.16-144.4-17.01-229.15-1.07-21.35-.53-46.01 65.67-56.98v-8.17h-152.58v8.17c48.68 8.23 53.55 31.78 61.26 76.05l20.21 153.74 7.11 74.39c3.31 36.13-27.9 48.71-60.15 51.42v8.23h118.14l.53-6.02c-12.04-12.56 2.71-45.41 6.57-54.16l103.9-231.95m274.69-71.7c65.66 8.8 66.2 25.22 67.76 81.54v192.57c-1.56 56.36-2.1 72.77-67.76 81.48v8.23h293.73l-6.57-84.21h-8.16c-3.87 70.53-54.75 71.11-109.96 71.11h-53.06v-155.91h56.85c41.04 0 72.23 3.27 78.23 50.28h8.21v-121.96h-8.21c-7.13 48.09-37.19 48.72-78.23 48.72h-56.85v-89.75c0-32.24-7.68-77.12 82.03-77.12 68.94 0 102.83 26.19 116.51 95.17h8.17c-.52-41.57-7.6-75.5-18.54-108.32h-304.15v8.17m573.3 267.54h-8.73c-8.76 44.31-22.96 86.99-77.12 86.99-35.07 0-64.01-24.06-64.01-60.2 0-94.6 172.3-91.33 172.3-201.85 0-70.53-70.05-107.221-132.91-107.221-33.44 0-68.43 9.831-96.25 27.901l-15.92 93h9.81c13.67-52.53 50.34-104.5 110.53-104.5 40.43 0 72.26 24.06 72.26 66.74 0 97.38-167.4 88.62-167.4 198.05 0 64.02 63.45 104.46 121.93 104.46 27.9 0 55.82-8.17 79.91-21.29l-4.4-82.08m484.23-16.41h-8.22c-10.41 61.83-46.54 106.1-112.12 106.1-100.14 0-156.54-82.01-156.54-176.12 0-107.81 82.59-182.69 162.01-182.69 71.58 0 100.04 52.49 124.66 111.56l7.72-3.28c-6.64-33.4-16.98-66.2-30.13-97.92-34.99-16.95-72.76-23.521-111.63-23.521-114.36 0-216.08 65.651-216.08 189.281 0 97.37 76.04 195.85 220.48 195.85 41.6 0 83.71-8.23 119.85-29.55v-89.71m446.44-73.32c0-117.62-85.34-192.512-200.23-192.512-115.38 0-200.24 74.892-200.24 193.032 0 116.57 85.39 192.08 199.71 192.08 140.08 0 200.76-95.21 200.76-192.6m-336.97 13.7c0-84.8 44.84-193.11 143.32-193.11 90.22 0 130.23 91.91 130.23 170.1-1.67 96.89-58.03 188.74-141.73 188.74-94.11 0-131.82-91.85-131.82-165.73m776.32-13.7c0-117.62-85.32-192.512-200.2-192.512-115.45 0-200.24 74.892-200.24 193.032 0 116.57 85.35 192.08 199.72 192.08 140.02 0 200.72-95.21 200.72-192.6m-336.98 13.7c0-84.8 44.87-193.11 143.33-193.11 90.31 0 130.23 91.91 130.23 170.1-1.68 96.89-58.03 188.74-141.75 188.74-94.01 0-131.81-91.85-131.81-165.73m463-109.97c1.62-56.33 2.16-72.76 72.77-81.52v-8.19h-188.79v8.19c65.7 8.76 66.2 25.19 67.83 81.52v192.57c-1.63 56.36-2.13 72.77-67.83 81.48v8.24h173.95v-8.24c-55.77-8.71-56.31-25.12-57.93-81.48zm247.25 282.29v-8.24c-62.36-6.55-103.93-59.62-144.42-101.73l-51.42-54.71 111.07-122.52c33.36-36.67 72.77-69.46 121.41-83.13l-2.73-8.241c-95.18 7.661-110.48 10.411-161.97 66.741l-111.59 121.47 88.11 95.71c57.42 64.53 46.48 82.61 9.81 86.41v8.24h141.73M1829.97 861.41v-8.172c-49.78-5.476-53.08-36.16-55.22-108.347l-3.34-119.789c-1.59-70.633-31.69-142.231-153.13-142.231-169.56 0-152.08 122.559-152.08 166.27v122.55c-1.68 56.387-2.2 72.75-67.86 81.547v8.172h188.77v-8.172c-71.7-10.418-72.77-21.359-72.77-81.547v-112.14c0-10.41-17.55-151.551 132.36-151.551 118.18 0 106.7 112.691 106.7 179.469v57.422c0 69.48-5.47 101.16-82.04 108.347v8.172h158.61m380.66-286.109-2.74 199.687c-.56 51.981-14.74 67.301-76.56 78.25v8.172h149.26v-8.172c-37.73-4.949-44.81-25.738-49.18-61.308-7.67-60.129-4.94-192.008-2.2-311.27l-7.07-1.68c-87.54 103.379-184.91 199.188-277.37 298.77V677.02c0-135.641-3.26-163.532 76.05-179.391v-8.258H1857.3v8.258c73.83 7.621 71.07 58.019 71.07 182.133v82.066c0 54.723-8.75 76.082-78.21 91.41v8.172h90.25l270.22-286.109m209.28 3.789c1.64-56.301 2.25-72.75 67.84-81.488v-8.231h-183.77v8.231c65.6 8.738 66.2 25.187 67.79 81.488v192.601c-1.59 56.387-2.19 72.75-67.79 81.547v8.172h183.77v-8.172c-65.59-8.797-66.2-25.16-67.84-81.547V579.09m490.71 282.32v-8.172c-51.45-4.41-67.28-47.597-101.2-126.937L2704.88 476.84h-7.63l-123.59 295.898c-16.44 40.024-29.02 75.024-77.69 80.5v8.172h173.4v-8.172c-77.16-7.687-51.99-51.457-37.78-85.937l87.5-211.153 64.64 154.821c46.97 112.172 55.74 130.203-27.39 142.269v8.172h154.28m4.92-363.781c65.71 8.711 66.24 25.16 67.84 81.461v192.601c-1.6 56.387-2.13 72.75-67.84 81.547v8.172h293.8l-6.55-84.238h-8.22c-3.87 70.59-54.75 71.117-109.99 71.117h-53.03v-155.91h56.9c40.96 0 72.22 3.262 78.2 50.332h8.25v-122.02h-8.25c-7.1 48.129-37.24 48.649-78.2 48.649h-56.9v-89.68c0-32.25-7.66-77.109 82.08-77.109 68.88 0 102.84 26.238 116.49 95.16h8.21c-.54-41.563-7.65-75.481-18.59-108.34h-304.2v8.258m411.88 251.121c0 83.691-2.76 96.25-64.02 101.75v7.609l133.5 4.391c137.83 4.379 148.77-62.891 148.77-89.16 0-45.949-28.43-72.219-67.8-89.762l2.7-3.816c42.14-73.813 94.64-167.922 184.95-186.571l-1.68-8.14c-58 2.73-100.65 1.051-132.37 33.879-36.11 37.75-64.55 85.871-76.01 109.468-21.94 45.364-41.61 32.211-79.91 38.832v-88.14c0-60.16 1.06-71.07 76.04-81.461v-8.258h-192.01v8.258c65.62 8.711 66.16 25.16 67.84 81.461zm48.13-72.262c52.51.532 113.8 24.633 113.8 85.34 0 64.051-56.36 89.762-113.8 89.203V676.488m496.97 88.641h-8.74c-8.75 44.332-22.99 87.019-77.11 87.019-35.04 0-63.99-24.07-63.99-60.218 0-94.641 172.27-91.352 172.27-201.891 0-70.508-70.02-107.168-132.91-107.168-33.37 0-68.43 9.82-96.33 27.918l-15.79 92.93h9.79c13.71-52.508 50.32-104.469 110.55-104.469 40.45 0 72.15 24.039 72.15 66.691 0 97.411-167.34 88.668-167.34 198.098 0 64.039 63.4 104.461 121.93 104.461 27.93 0 55.84-8.18 79.93-21.328l-4.41-82.043M4032.5 579.09c1.62-56.301 2.2-72.75 67.84-81.488v-8.231h-183.87v8.231c65.72 8.738 66.25 25.187 67.92 81.488v192.601c-1.67 56.387-2.2 72.75-67.92 81.547v8.172h183.87v-8.172c-65.64-8.797-66.22-25.16-67.84-81.547V579.09m429.11 299.269h4.31l7.69-102.32-7.69-1.621C4446.79 842.289 4416.76 845 4353.83 845h-32.91V592.238c0-67.769 3.35-85.898 76.67-94.609v-8.301h-201.31v8.301c73.28 8.711 76.54 26.84 76.54 94.609V845h-32.75c-62.97 0-93.07-2.711-112.25-70.582l-7.57 1.621 7.57 102.32h4.43l5.47-4.918c13.69-12.582 15.9-12.031 33.9-12.031h250.61c18.02 0 20.21-.551 33.89 12.031l5.49 4.918m373.19-16.949v-8.172c-47.62-3.859-71.08-30.097-94.11-69.519l-64.54-127.957v-61.934c1.12-62.84 2.18-85.277 72.21-96.199v-8.258h-192.58v8.258c70.04 10.922 71.17 33.359 72.2 96.199v43.832l-56.85 124.168c-20.81 45.953-35.58 84.82-90.85 91.41v8.172h151.02v-8.172c-44.89-6.066-38.85-24.097-21.3-62.398l54.65-118.168 47.58 90.289c33.92 63.437 29.55 84.211-17.99 90.277v8.172h140.56M1463.85 381.461h3336.3v-11.16h-3336.3v11.16m180.68-268.441-45.81 106-45.44-106zm-66.64 161.652h43.16l116.62-266.91h-49.23l-26.88 63.988h-125.32l-27.25-63.988h-47.71l116.61 266.91m175.97-154.461v152.578h46.58V122.102c0-49.223 25.36-75.352 67.01-75.352 41.27 0 66.64 24.602 66.64 73.461v152.578h46.57V122.488c0-79.136-44.68-118.898-113.97-118.898-68.9 0-112.83 39.762-112.83 116.621m254.36-73.832 28.01 33.312c25.37-21.953 51.12-34.46 83.68-34.46 28.77 0 46.95 13.64 46.95 33.328v.761c0 18.942-10.6 29.141-59.82 40.5-56.41 13.629-88.22 30.301-88.22 79.141v.758c0 45.422 37.87 76.871 90.49 76.871 38.62 0 69.29-11.75 96.18-33.328l-24.99-35.231c-23.86 17.821-47.71 27.278-71.94 27.278-27.27 0-43.17-14-43.17-31.418v-.762c0-20.457 12.12-29.527 63.23-41.649 56.03-13.628 84.81-33.691 84.81-77.62v-.758c0-49.59-38.99-79.122-94.65-79.122-40.51 0-78.76 14.008-110.56 42.399m313.8 183.25h-84.05v43.16h215.06v-43.16h-84.05V7.762h-46.96v221.867m287.3-88.231c33.32 0 54.52 17.442 54.52 44.321v.75c0 28.39-20.44 43.91-54.9 43.91h-67.78v-88.981zM2494.6 272.789h118.13c33.32 0 59.44-9.84 76.49-26.488 14-14.403 21.95-34.102 21.95-57.172v-.758c0-43.562-26.12-69.68-62.85-80.281l71.55-100.328h-55.26l-65.14 92.379h-58.31V7.761h-46.56V272.79m457.66-159.77-45.81 106-45.44-106zm-66.63 161.652h43.15L3045.4 7.762h-49.22L2969.3 71.75h-125.33l-27.25-63.988h-47.71l116.62 266.91m207.76-1.883h46.57V50.16h139.32V7.762h-185.89v265.027m229.37 0h46.56V7.762h-46.56v265.027m275.61-159.769-45.81 106-45.44-106zm-66.64 161.652h43.16L3691.5 7.762h-49.22L3615.4 71.75h-125.32l-27.26-63.988h-47.71l116.62 266.91" transform="matrix(.13333 0 0 -.13333 0 291.227)"/></svg>