<svg xmlns="http://www.w3.org/2000/svg" height="769.962" width="733.251"><defs><clipPath id="a" clipPathUnits="userSpaceOnUse"><path d="M0 688h688V0H0z"/></clipPath></defs><g clip-path="url(#a)" transform="matrix(1.33333 0 0 -1.33333 -99.121 841.279)"><path d="M580.968 304.518c-9.713-5.606-23.59-9.105-39.003-9.105-15.44 0-29.304 3.5-39.02 9.094-9.708 5.598-23.6 9.092-39.001 9.092-15.413 0-29.327-3.494-39.014-9.092-9.724-5.595-23.601-9.094-39.027-9.094-15.414 0-29.29 3.5-38.992 9.094-9.723 5.598-23.591 9.092-39.027 9.092-1.441 0-2.87-.053-4.31-.114v-36.102c0-5.468.2-10.725.51-15.905 1.263.045 2.528.112 3.8.112 15.436 0 29.304-3.505 39.027-9.116 9.702-5.59 23.578-9.083 38.992-9.083 15.426 0 29.303 3.493 39.027 9.083 9.687 5.611 23.6 9.116 39.014 9.116 15.402 0 29.293-3.505 39.002-9.116 9.715-5.59 23.579-9.083 39.019-9.083 15.413 0 29.29 3.493 39.003 9.093 9.712 5.601 23.59 9.106 38.99 9.106 1.31 0 2.56-.067 3.822-.112.31 5.18.499 10.437.499 15.905v36.102a99.042 99.042 0 01-4.32.114c-15.401 0-29.28-3.494-38.991-9.08m-39.003-113.154c-15.427 0-29.314 3.493-39.02 9.083-9.71 5.601-23.6 9.116-39.001 9.116-15.414 0-29.315-3.514-39.014-9.115-9.724-5.59-23.601-9.083-39.027-9.083-15.414-.012-29.291 3.493-38.992 9.083-8.641 4.99-20.567 8.295-33.92 8.95 6.83-22.87 16.947-42.1 28.885-58.48 1.775-.787 3.463-1.586 5.035-2.495 9.7-5.59 23.578-9.106 38.992-9.095 15.426 0 29.303 3.505 39.027 9.095 9.699 5.6 23.6 9.127 39.014 9.127 15.402 0 29.292-3.505 39-9.127 9.707-5.59 23.594-9.095 39.02-9.095 15.414 0 29.29 3.505 39.004 9.095 1.569.92 3.274 1.718 5.035 2.505 11.947 16.37 22.03 35.6 28.874 58.47-13.367-.655-25.292-3.96-33.91-8.95-9.712-5.59-23.59-9.084-39.002-9.084m-39.02-94.956c-9.709 5.578-23.6 9.093-39.002 9.093-15.413 0-29.314-3.514-39.014-9.093-4.679-2.707-10.319-4.88-16.627-6.456 22.364-14.948 43.04-25.94 55.641-36.465 12.594 10.525 33.27 21.517 55.633 36.466-6.308 1.575-11.95 3.749-16.63 6.455m78.022 312.163c-9.713-5.6-23.59-9.122-39.003-9.122-15.44 0-29.304 3.521-39.02 9.122-9.708 5.58-23.6 9.086-39.001 9.086-15.413 0-29.327-3.507-39.014-9.086-9.724-5.6-23.601-9.122-39.027-9.122-15.414 0-29.29 3.521-38.992 9.122-9.723 5.58-23.591 9.086-39.027 9.086-1.441 0-2.87-.049-4.31-.11v-52.026c1.44.05 2.869.1 4.31.1 15.436 0 29.304-3.49 39.027-9.083 9.702-5.615 23.578-9.108 38.992-9.108 15.426 0 29.303 3.493 39.027 9.108 9.687 5.592 23.6 9.083 39.014 9.083 15.402 0 29.293-3.49 39.002-9.083 9.715-5.615 23.579-9.108 39.019-9.108 15.413 0 29.29 3.493 39.003 9.108 9.712 5.592 23.59 9.083 38.99 9.083 1.488 0 2.905-.05 4.32-.112v52.037a97.562 97.562 0 01-4.32.111c-15.4 0-29.278-3.507-38.99-9.086" fill="#fff"/><path d="M463.943 515.413c-29.035 0-52.57-23.535-52.57-52.566 0-2.618.262-5.18.628-7.691 4.824 1.455 9.191 3.293 12.928 5.447 9.688 5.577 23.601 9.086 39.014 9.086 15.402 0 29.293-3.51 39.002-9.086 3.741-2.16 8.11-3.992 12.94-5.46.37 2.524.624 5.08.624 7.704 0 29.03-23.534 52.566-52.566 52.566m-71.645-15.441c-1.047-.155-2.087-.444-3.152-.641-2.78-.471-5.415-.538-8.076-.438-2.726.089-5.94.744-7.756 1.922-.463-2.74 2.923-6.35 5.793-8.285 1.963-1.344 4.033-2.498 6.23-3.224.862-.305 1.718-.453 2.575-.774 2.632-.917 5.213-2.606 7.257-4.416 2.658-2.343 4.86-5.322 6.895-7.95 1.633 7.675 4.702 14.867 8.881 21.245-2.773.989-5.773 2.06-9.048 2.56-2.892.456-6.32.51-9.599 0m191.727-37.136l-57.712 10.343c.571-3.361.941-6.821.941-10.337 0-3.52-.37-6.95-.94-10.331zm-182.508 10.343l-57.678-10.343 57.701-10.325c-.527 3.38-.915 6.812-.915 10.33 0 3.517.388 6.977.892 10.338m139.34 14.07c.642.879 1.15 1.819 1.798 2.676 1.595 2.315 3.42 4.212 5.343 6.023 2.005 1.85 4.75 3.69 6.89 4.14-1.628 2.225-6.586 2.43-9.984 1.762-2.332-.457-4.548-1.075-6.68-2.121-.832-.407-1.544-.912-2.379-1.306-2.506-1.178-5.508-1.833-8.27-1.985-3.502-.238-7.178.327-10.475.76h-.053c4.16-6.413 7.195-13.58 8.826-21.305 2.674 1.26 5.504 2.63 8.176 4.569 2.373 1.727 4.843 4.115 6.807 6.787m-112.927 27.61l-36.285 20.304 20.24-36.302c4.387 6.269 9.788 11.689 16.045 15.998m88.051-15.998l20.248 36.302-36.274-20.304a63.31 63.31 0 0016.026-15.998m-41.392 26.332l-10.645 105.767-10.655-105.767c3.48.566 7.004.95 10.655.95 3.618 0 7.153-.384 10.645-.95m-47.535 11.936c.4-.798.911-1.545 1.298-2.368 1.184-2.523 1.858-5.523 2.004-8.243.206-3.546-.332-7.22-.762-10.491v-.072a62.56 62.56 0 0021.294 8.835c-1.26 2.673-2.612 5.538-4.569 8.177-1.728 2.379-4.129 4.84-6.774 6.768-.879.652-1.807 1.18-2.7 1.797-2.31 1.633-4.19 3.44-6.022 5.365-1.847 2.016-3.68 4.758-4.12 6.909-2.243-1.643-2.42-6.582-1.762-10 .472-2.357 1.085-4.564 2.113-6.677m74.033-12.26a33.39 33.39 0 010 9.63c-.162 1.047-.489 2.08-.664 3.143-.468 2.784-.55 5.384-.468 8.057.125 2.72.735 5.975 1.958 7.797-2.723.416-6.342-2.942-8.288-5.82-1.356-2.002-2.485-4.014-3.227-6.25-.303-.82-.475-1.727-.757-2.545-.945-2.634-2.629-5.24-4.426-7.298-2.362-2.606-5.32-4.843-7.988-6.831l-.01-.022a63.42 63.42 0 0021.293-8.895c.988 2.792 2.02 5.798 2.577 9.034" fill="#e7b20f"/><path d="M130.884 330.101v-3.892c-29.31-4.928-50.32-22.046-50.32-53.17 0-47.465 38.907-74.18 83.52-74.18 51.095 0 86.629 39.163 86.629 76.774 0 33.976-24.9 47.463-52.912 59.135l1.556 3.633c15.822-3.113 31.384-8.04 46.428-14.266 8.04-16.6 11.154-34.497 11.154-52.912 0-54.21-31.126-102.45-89.742-102.45-46.17 0-92.856 36.05-92.856 104.524 0 19.712 3.89 39.684 14.006 56.804zm-53.43 223.845h3.89c2.593-23.603 17.119-25.16 51.356-26.197l56.8-1.557c33.46-.776 67.439-15.043 67.439-72.624 0-80.405-58.1-72.104-78.85-72.104h-58.098c-26.715-.777-34.497-1.04-38.647-32.162h-3.89v89.484h3.89c4.928-33.98 10.115-34.497 38.647-34.497h53.17c4.929 0 71.846-8.3 71.846 62.768 0 56.022-53.43 50.576-85.074 50.576H132.7c-32.941 0-47.985-2.592-51.356-38.904h-3.89zm42.536-445.611c-28.532 0-33.719-.519-38.647-34.495h-3.89v89.223h3.89c4.15-31.126 11.932-31.903 38.647-31.903h92.855c42.654.22 60.027-5.322 76.578-40.2 2.921-6.155 5.526-10.966 8.597-20.604 2.528-7.932 3.007-15.22 3.101-16.16l-3.873-.383c-.02.278-.309 3.287-1.486 7.876-.56 2.187-2.029 5.803-2.58 6.976-1.875 3.982-3.23 6.453-5.348 9.7-17.88 27.401-44.824 29.97-86.402 29.97z" fill="#fff"/></g></svg>