<svg xmlns="http://www.w3.org/2000/svg" height="797.96" width="704.2" xml:space="preserve"><path style="fill:#000;fill-opacity:1;fill-rule:nonzero;stroke:none" d="M132.563 1953.36c0 91.69-1.684 108.4-110.918 124.19v12.53h286.921v-12.53c-100.078-13.28-102.64-38.33-102.64-124.19v-298.51c.879-161.79-18.289-197.66-199.281-275.13L0 1393.88c122.543 57.53 132.563 147.55 132.563 297.58v261.9m315.511-192.61c-14.16-41.72-50.965-128.49-50.965-168.46 0-50.88 57.563-50.88 95.141-56.71v-12.48H263.766v12.48c74.25 20.02 81.714 36.7 107.55 101.78l94.18 245.96 50.106 135.9c7.472 21.71 18.296 41.69 9.144 57.51 22.527 9.21 43.332 24.16 60.879 45.01l183.422-488.56c22.48-60.9 36.719-85.08 103.394-97.6v-12.48H627.324v12.48c29.188 6.67 64.219 15.9 64.219 53.36 0 35.04-31.727 113.43-53.379 171.81zm92.543 255.14-78.41-216.77h165.117zm735.353-371.06 150.94 331.88c20.85 45.78 32.49 87.56 14.13 100.02l1.74 13.38h183.32v-12.55c-53.29-10.83-85.78-30.82-82.48-89.2l18.35-303.53c9.16-115.85 9.16-134.26 98.3-149.27v-12.46h-274.2v12.46c64.19 10.04 105.01 17.53 100.85 90.91l-22.53 364.37h-1.64l-212.56-467.74h-9.16l-197.67 448.57h-1.58c-13.42-127.54-20.07-220.1-25.93-349.27-1.63-32.55-.81-70.13 100.09-86.84v-12.46H883.379v12.46c74.191 12.54 81.621 48.43 93.375 115.91l30.806 234.33 10.83 113.39c5.05 55.07-42.515 74.24-91.683 78.37v12.55h180.073l.82-9.19c-18.37-19.14 4.12-69.21 10.01-82.55l158.36-353.54m418.69-109.27c100.09 13.4 100.89 38.43 103.28 124.27v293.53c-2.39 85.89-3.19 110.91-103.28 124.19v12.53h447.71l-10.02-128.36h-12.44c-5.9 107.51-83.45 108.4-167.61 108.4h-80.88v-237.63h86.67c62.54 0 110.1 4.97 119.24 76.63h12.51v-185.9h-12.51c-10.87 73.31-56.7 74.27-119.24 74.27h-86.67v-136.8c0-49.14-11.68-117.55 125.05-117.55 105.08 0 156.73 39.92 177.58 145.06h12.46c-.8-63.37-11.58-115.08-28.26-165.1h-463.59v12.46m873.83 407.79h-13.31c-13.34 67.53-35 132.58-117.55 132.58-53.45 0-97.57-36.68-97.57-91.75 0-144.2 262.62-139.21 262.62-307.67 0-107.51-106.76-163.44-202.58-163.44-50.97 0-104.3 15-146.71 42.53l-24.26 141.76h14.96c20.85-80.07 76.73-159.28 168.47-159.28 61.63 0 110.13 36.67 110.13 101.72 0 148.44-255.15 135.09-255.15 301.88 0 97.57 96.71 159.21 185.85 159.21 42.53 0 85.08-12.45 121.81-32.45l-6.71-125.09m738.07-25.02h-12.54c-15.87 94.23-70.94 161.71-170.9 161.71-152.63 0-238.58-124.99-238.58-268.44 0-164.33 125.87-278.46 246.92-278.46 109.11 0 152.49 80 190.02 170.05l11.76-5.01c-10.12-50.91-25.88-100.9-45.92-149.25-53.34-25.83-110.91-35.86-170.14-35.86-174.31 0-329.36 100.07-329.36 288.52 0 148.41 115.9 298.52 336.06 298.52 63.41 0 127.59-12.55 182.68-45.05v-136.73m680.47-111.77c0-179.27-130.08-293.43-305.2-293.43-175.87 0-305.21 114.16-305.21 294.24 0 177.68 130.14 292.76 304.41 292.76 213.5 0 306-145.11 306-293.57m-513.63 20.89c0-129.25 68.36-294.33 218.45-294.33 137.52 0 198.51 140.09 198.51 259.26-2.56 147.68-88.45 287.68-216.04 287.68-143.44 0-200.92-140-200.92-252.61m1183.28-20.89c0-179.27-130.05-293.43-305.14-293.43-175.97 0-305.22 114.16-305.22 294.24 0 177.68 130.1 292.76 304.42 292.76 213.42 0 305.94-145.11 305.94-293.57m-513.64 20.89c0-129.25 68.4-294.33 218.48-294.33 137.65 0 198.49 140.09 198.49 259.26-2.55 147.68-88.43 287.68-216.05 287.68-143.29 0-200.92-140-200.92-252.61m705.72-167.62c2.47-85.87 3.29-110.9 110.91-124.25v-12.48h-287.75v12.48c100.15 13.35 100.91 38.38 103.4 124.25v293.53c-2.49 85.89-3.25 110.91-103.4 124.19v12.56h265.15v-12.56c-85.02-13.28-85.84-38.3-88.31-124.19zm376.87 430.28v-12.56c-95.06-9.99-158.41-90.87-220.14-155.05l-78.37-83.4 169.29-186.74c50.87-55.9 110.93-105.88 185.06-126.72l-4.17-12.57c-145.07 11.7-168.38 15.88-246.86 101.74l-170.08 185.16 134.28 145.86c87.53 98.37 70.85 125.91 14.95 131.72v12.56h216.04M672.887 1307.5v-12.46c-75.879-8.34-80.903-55.11-84.172-165.14l-5.082-182.58c-2.43-107.672-48.309-216.8-233.414-216.8-258.442 0-231.785 186.8-231.785 253.429v186.801c-2.563 85.96-3.368 110.88-103.45 124.29v12.46H302.72v-12.46c-109.285-15.87-110.922-32.55-110.922-124.29V999.82c0-15.871-26.738-231.011 201.746-231.011 180.129 0 162.629 171.781 162.629 273.571v87.52c0 105.91-8.324 154.2-125.039 165.14v12.46h241.754m580.202-436.102-4.17 304.372c-.86 79.23-22.48 102.59-116.71 119.27v12.46h227.52v-12.46c-57.52-7.53-68.3-39.23-74.96-93.44-11.7-91.65-7.53-292.67-3.36-474.44l-10.78-2.551C1137.2 882.16 988.797 1028.21 847.871 1179.99v-153.54c0-206.751-4.976-249.251 115.906-273.419V740.43H714.539v12.601c112.539 11.617 108.32 88.43 108.32 277.589v125.11c0 83.4-13.324 115.95-119.199 139.31v12.46h137.555l411.875-436.102m319 5.782c2.5-85.809 3.42-110.871 103.38-124.2v-12.55h-280.1v12.55c99.99 13.329 100.91 38.391 103.34 124.2v293.57c-2.43 85.96-3.35 110.88-103.34 124.29v12.46h280.1v-12.46c-99.96-13.41-100.88-38.33-103.38-124.29V877.18m747.93 430.32v-12.46c-78.42-6.73-102.55-72.55-154.24-193.48l-159.34-380.228h-11.63l-188.39 451.028c-25.05 60.99-44.23 114.34-118.41 122.68v12.46h264.29v-12.46c-117.6-11.7-79.24-78.42-57.57-130.98l133.37-321.849 98.52 235.989c71.6 170.97 84.96 198.46-41.75 216.84v12.46h235.15m7.51-554.469c100.15 13.278 100.96 38.34 103.4 124.149v293.57c-2.44 85.96-3.25 110.88-103.4 124.29v12.46h447.81l-9.98-128.41h-12.53c-5.9 107.61-83.45 108.42-167.66 108.42h-80.82v-237.65h86.72c62.43 0 110.08 4.98 119.2 76.72h12.58V940.59h-12.58c-10.82 73.35-56.77 74.16-119.2 74.16h-86.72V878.039c0-49.141-11.68-117.519 125.11-117.519 104.98 0 156.75 39.992 177.55 145.05h12.51c-.83-63.359-11.65-115.058-28.33-165.14h-463.66v12.601m627.78 382.749c0 127.56-4.2 146.71-97.57 155.09v11.61l203.47 6.68c210.09 6.69 226.77-95.86 226.77-135.9 0-70.04-43.34-110.08-103.35-136.81l4.12-5.83c64.23-112.491 144.25-255.929 281.91-284.358l-2.57-12.422c-88.42 4.172-153.41 1.621-201.77 51.648-55.04 57.532-98.37 130.883-115.86 166.852-33.42 69.14-63.4 49.09-121.77 59.19V877.18c0-91.692 1.61-108.321 115.87-124.149V740.43h-292.65v12.601c100.03 13.278 100.84 38.34 103.4 124.149zm73.38-110.13c80.02.8 173.45 37.53 173.45 130.08 0 97.61-85.92 136.8-173.45 135.95v-266.03m757.47 135.1h-13.32c-13.34 67.57-35.04 132.63-117.54 132.63-53.41 0-97.52-36.67-97.52-91.78 0-144.25 262.57-139.23 262.57-307.741 0-107.468-106.72-163.339-202.58-163.339-50.87 0-104.3 14.98-146.83 42.558l-24.07 141.633h14.92c20.9-80.031 76.7-159.223 168.51-159.223 61.65 0 109.96 36.641 109.96 101.66 0 148.452-255.06 135.141-255.06 301.942 0 97.62 96.65 159.22 185.85 159.22 42.58 0 85.11-12.46 121.83-32.51l-6.72-125.05M4030 877.18c2.46-85.809 3.36-110.871 103.4-124.2v-12.55h-280.24v12.55c100.17 13.329 100.97 38.391 103.51 124.2v293.57c-2.54 85.96-3.34 110.88-103.51 124.29v12.46h280.24v-12.46c-100.04-13.41-100.94-38.33-103.4-124.29V877.18m654.05 456.15h6.59l11.7-155.95-11.7-2.46c-29.17 103.44-74.94 107.57-170.85 107.57h-50.16V897.23c0-103.3 5.09-130.921 116.85-144.199v-12.652h-306.85v12.652c111.69 13.278 116.66 40.899 116.66 144.199v385.26h-49.92c-95.98 0-141.84-4.13-171.08-107.57l-11.54 2.46 11.54 155.95h6.75l8.34-7.49c20.87-19.19 24.24-18.34 51.67-18.34h381.99c27.46 0 30.8-.85 51.65 18.34l8.36 7.49m568.82-25.83v-12.46c-72.56-5.87-108.34-45.87-143.43-105.95l-98.37-195.051v-94.398c1.7-95.762 3.31-129.981 110.05-146.61V740.43h-293.54v12.601c106.77 16.629 108.5 50.848 110.06 146.61v66.82l-86.65 189.269c-31.72 70.03-54.23 129.27-138.49 139.31v12.46h230.19v-12.46c-68.41-9.24-59.21-36.72-32.46-95.1l83.3-180.12 72.53 137.61c51.7 96.72 45.04 128.37-27.41 137.61v12.46h214.22M114.852 575.949H5200.06v-17.008H114.852v17.008" transform="matrix(.13333 0 0 -.13333 0 797.96)"/><path style="fill:#0066b3;fill-opacity:1;fill-rule:nonzero;stroke:none" d="M1790.65 4005.97c-58.87-33.98-142.99-55.19-236.42-55.19-93.59 0-177.62 21.21-236.51 55.13-58.85 33.93-143.05 55.11-236.41 55.11-93.431 0-177.767-21.18-236.486-55.11-58.941-33.92-143.058-55.13-236.566-55.13-93.426 0-177.547 21.21-236.352 55.13-58.937 33.93-143 55.11-236.558 55.11-8.743 0-17.399-.33-26.121-.7v-218.83c0-33.14 1.211-65 3.089-96.4 7.649.27 15.317.67 23.032.67 93.558 0 177.621-21.24 236.558-55.26 58.805-33.88 142.926-55.05 236.352-55.05 93.508 0 177.625 21.17 236.566 55.05 58.719 34.02 143.055 55.26 236.486 55.26 93.36 0 177.56-21.24 236.41-55.26 58.89-33.88 142.92-55.05 236.51-55.05 93.43 0 177.55 21.17 236.42 55.12 58.87 33.95 142.99 55.19 236.35 55.19 7.93 0 15.51-.4 23.16-.67 1.88 31.4 3.02 63.26 3.02 96.4v218.83c-8.59.37-17.18.7-26.18.7-93.36 0-177.48-21.18-236.35-55.05m-236.42-685.88c-93.51 0-177.69 21.18-236.51 55.06-58.85 33.95-143.05 55.26-236.41 55.26-93.431 0-177.697-21.31-236.486-55.26-58.941-33.88-143.058-55.06-236.566-55.06-93.426-.07-177.547 21.18-236.352 55.06-52.383 30.25-124.668 50.28-205.601 54.25 41.406-138.62 102.718-255.19 175.086-354.48 10.757-4.77 20.992-9.62 30.515-15.12 58.805-33.89 142.926-55.2 236.352-55.13 93.508 0 177.625 21.24 236.566 55.13 58.789 33.94 143.055 55.32 236.486 55.32 93.36 0 177.56-21.24 236.41-55.32 58.82-33.89 143-55.13 236.51-55.13 93.43 0 177.55 21.24 236.42 55.13 9.51 5.57 19.85 10.41 30.52 15.19 72.42 99.22 133.55 215.79 175.02 354.41-81.02-3.97-153.31-24-205.54-54.25-58.87-33.88-142.99-55.06-236.42-55.06m-236.51-575.58c-58.85 33.81-143.05 55.12-236.41 55.12-93.431 0-177.697-21.31-236.486-55.12-28.371-16.4-62.554-29.58-100.789-39.13 135.559-90.62 260.885-157.23 337.275-221.04 76.33 63.81 201.65 130.42 337.21 221.04-38.23 9.55-72.43 22.73-100.8 39.13m472.93 1892.19c-58.87-33.95-142.99-55.29-236.42-55.29-93.59 0-177.62 21.34-236.51 55.29-58.85 33.81-143.05 55.07-236.41 55.07-93.431 0-177.767-21.26-236.486-55.07-58.941-33.95-143.058-55.29-236.566-55.29-93.426 0-177.547 21.34-236.352 55.29-58.937 33.81-143 55.07-236.558 55.07-8.743 0-17.399-.3-26.121-.67v-315.35c8.722.3 17.378.6 26.121.6 93.558 0 177.621-21.16 236.558-55.05 58.805-34.04 142.926-55.21 236.352-55.21 93.508 0 177.625 21.17 236.566 55.21 58.719 33.89 143.055 55.05 236.486 55.05 93.36 0 177.56-21.16 236.41-55.05 58.89-34.04 142.92-55.21 236.51-55.21 93.43 0 177.55 21.17 236.42 55.21 58.87 33.89 142.99 55.05 236.35 55.05 9 0 17.59-.3 26.18-.67v315.42c-8.59.37-17.18.67-26.18.67-93.36 0-177.48-21.26-236.35-55.07" transform="matrix(.13333 0 0 -.13333 0 797.96)"/><path style="fill:#e7b20f;fill-opacity:1;fill-rule:nonzero;stroke:none" d="M1081.31 5284.31c-176.001 0-318.669-142.65-318.669-318.63 0-15.86 1.597-31.39 3.812-46.62 29.242 8.82 55.715 19.96 78.371 33.03 58.719 33.8 143.055 55.07 236.486 55.07 93.36 0 177.56-21.27 236.41-55.07 22.67-13.09 49.16-24.21 78.43-33.09 2.24 15.29 3.79 30.78 3.79 46.68 0 175.98-142.66 318.63-318.63 318.63zm-434.279-93.59c-6.351-.94-12.656-2.69-19.113-3.88-16.855-2.86-32.82-3.27-48.953-2.66-16.52.54-35.996 4.51-47.008 11.64-2.809-16.59 17.715-38.48 35.109-50.21 11.899-8.15 24.454-15.15 37.762-19.54 5.231-1.86 10.418-2.75 15.61-4.69 15.953-5.57 31.601-15.8 43.984-26.77 16.121-14.21 29.465-32.26 41.797-48.19 9.898 46.52 28.508 90.12 53.836 128.77-16.809 6-34.992 12.49-54.84 15.53-17.531 2.75-38.32 3.09-58.184 0zm1162.149-225.1-349.82 62.68c3.47-20.36 5.7-41.34 5.7-62.65 0-21.33-2.23-42.13-5.7-62.62zM702.91 5028.3l-349.621-62.68 349.758-62.59c-3.195 20.49-5.547 41.29-5.547 62.62 0 21.31 2.352 42.29 5.41 62.65zm844.6 85.29c3.9 5.33 6.98 11.03 10.91 16.22 9.67 14.03 20.72 25.53 32.38 36.51 12.15 11.22 28.79 22.37 41.77 25.1-9.87 13.48-39.91 14.73-60.52 10.68-14.13-2.78-27.56-6.52-40.49-12.86-5.04-2.47-9.35-5.53-14.42-7.92-15.19-7.14-33.39-11.11-50.13-12.03-21.23-1.44-43.51 1.99-63.5 4.61h-.31c25.21-38.87 43.61-82.32 53.49-129.14 16.22 7.64 33.36 15.94 49.56 27.69 14.39 10.47 29.36 24.94 41.26 41.14zm-684.502 167.36-219.942 123.07 122.684-220.04c26.59 38 59.328 70.86 97.258 96.97zm533.722-96.97 122.73 220.04-219.88-123.07c37.86-26.11 70.75-58.97 97.15-96.97zm-250.91 159.61-64.51 641.11-64.59-641.11c21.09 3.43 42.45 5.76 64.59 5.76 21.93 0 43.36-2.33 64.51-5.76zm-288.125 72.35c2.422-4.84 5.516-9.36 7.868-14.35 7.175-15.29 11.261-33.48 12.152-49.97 1.246-21.49-2.02-43.76-4.621-63.59v-.44c38.668 25.23 82.336 43.73 129.076 53.56-7.654 16.2-15.838 33.56-27.701 49.56-10.469 14.42-25.028 29.34-41.063 41.03-5.328 3.94-10.953 7.16-16.367 10.89-13.996 9.9-25.394 20.85-36.504 32.52-11.191 12.22-22.305 28.84-24.972 41.88-13.594-9.96-14.676-39.9-10.672-60.62 2.859-14.28 6.574-27.66 12.804-40.47zm448.745-74.32c2.66 17.58 2.99 38.47 0 58.39-.97 6.33-2.95 12.6-4.01 19.04-2.85 16.88-3.35 32.64-2.85 48.84.77 16.49 4.46 36.22 11.87 47.26-16.5 2.52-38.43-17.83-50.24-35.28-8.21-12.13-15.05-24.33-19.56-37.88-1.83-4.97-2.87-10.47-4.58-15.43-5.73-15.96-15.94-31.76-26.83-44.24-14.31-15.79-32.25-29.36-48.42-41.41 0 0 0-.13-.06-.13 46.74-10.12 90.26-28.57 129.07-53.91 5.98 16.92 12.24 35.14 15.61 54.75" transform="matrix(.13333 0 0 -.13333 0 797.96)"/><path style="fill:#000;fill-opacity:1;fill-rule:nonzero;stroke:none" d="M390.238 166.789 320.41 328.371l-69.254-161.582zM288.672 413.191h65.773L532.199 6.351h-75.023l-40.973 97.528H225.18L183.641 6.352h-72.723L288.672 413.19m268.211-235.44v232.559h70.988v-229.68c0-75.027 38.656-114.84 102.149-114.84 62.894 0 101.566 37.5 101.566 111.961v232.559h70.977V181.23C902.563 60.59 834.469 0 728.859 0 623.832 0 556.883 60.59 556.883 177.75M944.578 65.23 987.273 116c38.677-33.46 77.907-52.531 127.547-52.531 43.86 0 71.56 20.793 71.56 50.801v1.171c0 28.848-16.16 44.411-91.18 61.707-85.98 20.801-134.47 46.211-134.47 120.641v1.16c0 69.231 57.72 117.153 137.93 117.153 58.85 0 105.6-17.903 146.59-50.801l-38.09-53.672c-36.36 27.133-72.71 41.562-109.65 41.562-41.56 0-65.79-21.351-65.79-47.89v-1.153c0-31.179 18.47-45.007 96.37-63.48 85.41-20.789 129.27-51.367 129.27-118.316v-1.153c0-75.597-59.44-120.61-144.27-120.61-61.74 0-120.039 21.352-168.512 64.642M1422.88 344.52h-128.11v65.789h327.79V344.52h-128.11V6.352h-71.57V344.52m437.91-134.461c50.78 0 83.1 26.57 83.1 67.543v1.16c0 43.258-31.16 66.918-83.69 66.918h-103.3V210.059zm-174.86 200.25h180.05c50.79 0 90.6-14.989 116.58-40.368 21.35-21.953 33.45-51.961 33.45-87.14v-1.16c0-66.391-39.8-106.2-95.79-122.36l109.07-152.93h-84.25l-99.26 140.821h-88.88V6.352h-70.97v403.957m697.57-243.52-69.83 161.582-69.25-161.582zm-101.57 246.402h65.78l177.75-406.84h-75.03l-40.97 97.528h-191.03L2176.9 6.352h-72.73l177.76 406.839m316.68-2.882h70.97V70.989h212.37V6.351h-283.34v403.957m349.61.001h70.96V6.352h-70.96v403.957m420.07-243.52-69.83 161.582-69.25-161.582zm-101.57 246.402h65.78l177.76-406.84h-75.03l-40.97 97.528h-191.02l-41.55-97.527h-72.72l177.75 406.839" transform="matrix(.13333 0 0 -.13333 0 797.96)"/></svg>