<svg xmlns="http://www.w3.org/2000/svg" viewBox="0 0 156.83 74.93" height="99.907" width="209.107"><defs><clipPath id="a"><path d="M85 13h2v61.93h-2zm0 0"/></clipPath><clipPath id="b"><path d="M126 22h30.828v34H126zm0 0"/></clipPath><clipPath id="c"><path d="M109 68h4v6.93h-4zm0 0"/></clipPath><clipPath id="d"><path d="M113 68h6v6.93h-6zm0 0"/></clipPath><clipPath id="e"><path d="M118 68h6v6.93h-6zm0 0"/></clipPath><clipPath id="f"><path d="M122 68h6v6.93h-6zm0 0"/></clipPath><clipPath id="g"><path d="M134 68h6v6.93h-6zm0 0"/></clipPath><clipPath id="h"><path d="M139 68h6v6.93h-6zm0 0"/></clipPath><clipPath id="i"><path d="M144 68h6v6.93h-6zm0 0"/></clipPath><clipPath id="j"><path d="M149 68h6v6.93h-6zm0 0"/></clipPath><clipPath id="k"><path d="M43 68h15v6.93H43zm0 0"/></clipPath><clipPath id="l"><path d="M0 60h30v14.93H0zm0 0"/></clipPath></defs><g clip-path="url(#a)" fill="#fff"><path d="M86.18 13.64h-.516v61.094h.516V13.641"/></g><g clip-path="url(#b)" fill="#edb800"><path d="M126.547 39.227c0 9.558 6.488 16.394 15.14 16.394 8.653 0 15.137-6.836 15.137-16.394 0-9.555-6.484-16.395-15.137-16.395-8.652 0-15.14 6.84-15.14 16.395m7.957 0c0-8.926 2.86-13.602 7.184-13.602s7.183 4.676 7.183 13.602c0 7.882-2.86 13.605-7.184 13.605s-7.183-5.723-7.183-13.605"/></g><path d="M127.836 59.21l-1.602 2.645-1.57-2.644h-1.695l2.531 3.992v2.598h1.45v-2.625l2.53-3.965h-1.644m2.187-.001v6.59h5.016v-1.288h-3.574v-1.383h3.105v-1.29h-3.105v-1.335h3.527V59.21h-4.969m8.297-.046l-2.824 6.637h1.477l.601-1.477h2.785l.606 1.477h1.512l-2.82-6.637zm.649 1.742l.875 2.137h-1.75zm4.109-1.696v6.59h1.453v-2.105h1.137l1.41 2.106h1.695l-1.609-2.352c.84-.312 1.414-.98 1.414-2.043v-.02c0-.62-.2-1.136-.566-1.507-.434-.43-1.082-.668-1.918-.668zm1.453 1.31h1.438c.707 0 1.14.32 1.14.94v.02c0 .555-.406.93-1.113.93h-1.465v-1.89m4.778.585v.02c0 1.309.855 1.672 2.18 2.012 1.105.285 1.327.468 1.327.836v.02c0 .386-.355.624-.949.624-.754 0-1.375-.312-1.965-.8l-.859 1.023a4.203 4.203 0 002.797 1.058c1.422 0 2.418-.738 2.418-2.046v-.016c0-1.148-.754-1.633-2.09-1.98-1.137-.29-1.422-.43-1.422-.864v-.02c0-.32.293-.574.852-.574.55 0 1.125.247 1.707.649l.757-1.09c-.671-.535-1.488-.84-2.449-.84-1.347 0-2.304.793-2.304 1.988M123.61 28.523l-16.227 1.32-1.434 5.489c8.438.066 18.805 3.055 18.805 13.469 0 4.242-2.36 8.476-6.863 11.597-4.504 3.196-12.297 5.211-17.875 5.211l-.286-2.293c5.075-.695 17.73-3.261 17.73-13.054 0-7.5-7.792-9.168-15.155-9.235l2.86-16.875 19.589-1.601-1.145 5.972" fill="#edb800"/><g clip-path="url(#c)" fill="#fff"><path d="M109.34 74.547c.902-.043 1.129-.121 1.222-.496l1.102-4.14c.148-.556.106-.755-.91-.79l.035-.113 2.137-.164-1.406 5.207c-.106.375.058.453.98.496l-.027.113h-3.16l.027-.113"/></g><g clip-path="url(#d)" fill="#fff"><path d="M114.914 71.523c0 .747.277 1.043.746 1.043.79 0 1.606-1.058 1.606-2.406 0-.683-.25-1.195-.84-1.195-.918 0-1.512 1.508-1.512 2.558zm3.266-.816c0 2.25-1.817 3.898-4.813 4.102l.012-.125c2.308-.434 3.254-1.551 3.61-2.75l-.024-.02c-.426.574-.903.852-1.531.852-.989 0-1.485-.676-1.485-1.528 0-1.164 1.02-2.449 2.512-2.449 1.121 0 1.719.836 1.719 1.918"/></g><g clip-path="url(#e)" fill="#fff"><path d="M118.313 74.684l4.332-4.957h-2.364c-.52 0-.71.14-1.23 1.05h-.106l.512-1.867h3.883l.023.098-2.379 3.297-1.668 2.441h-1.004v-.062"/></g><g clip-path="url(#f)" fill="#fff"><path d="M124.773 74.598c1.372 0 2.165-2.762 2.165-4.297 0-.86-.278-1.336-.88-1.336-1.37 0-2.16 2.77-2.16 4.305 0 .859.278 1.328.875 1.328zm0 .183c-1.074 0-1.824-.754-1.824-2.136 0-1.633 1.207-3.856 3.11-3.856 1.078 0 1.824.758 1.824 2.137 0 1.633-1.207 3.855-3.11 3.855"/></g><path d="M130.047 72.227h2.223l-.094.359h-2.223l.094-.36" fill="#fff"/><g clip-path="url(#g)" fill="#fff"><path d="M134.285 74.05l2.13-1.491c1.233-.844 1.71-1.536 1.71-2.485 0-.719-.297-1.129-.922-1.129a1.37 1.37 0 00-1.117.618c.344.105.535.347.535.667a.64.64 0 01-.633.653c-.375 0-.617-.262-.617-.668 0-.774.871-1.426 1.965-1.426 1.18 0 1.797.617 1.797 1.363 0 .844-.668 1.414-2.996 2.875l-1.235.817v.023h2.235c.617 0 .832-.156 1.308-.91l.114.008-.485 1.695h-3.926l.137-.61"/></g><g clip-path="url(#h)" fill="#fff"><path d="M141.27 74.598c1.37 0 2.164-2.762 2.164-4.297 0-.86-.282-1.336-.88-1.336-1.37 0-2.16 2.77-2.16 4.305 0 .859.278 1.328.876 1.328zm0 .183c-1.075 0-1.825-.754-1.825-2.136 0-1.633 1.207-3.856 3.11-3.856 1.078 0 1.824.758 1.824 2.137 0 1.633-1.207 3.855-3.11 3.855"/></g><g clip-path="url(#i)" fill="#fff"><path d="M144.406 74.05l2.13-1.491c1.23-.844 1.71-1.536 1.71-2.485 0-.719-.297-1.129-.922-1.129a1.38 1.38 0 00-1.12.618c.35.105.538.347.538.667 0 .34-.262.653-.633.653-.375 0-.617-.262-.617-.668 0-.774.867-1.426 1.965-1.426 1.18 0 1.797.617 1.797 1.363 0 .844-.668 1.414-2.996 2.875l-1.235.817v.023h2.235c.613 0 .832-.156 1.308-.91l.114.008-.485 1.695h-3.925l.136-.61"/></g><g clip-path="url(#j)" fill="#fff"><path d="M151.39 74.598c1.372 0 2.165-2.762 2.165-4.297 0-.86-.282-1.336-.88-1.336-1.37 0-2.163 2.77-2.163 4.305 0 .859.281 1.328.879 1.328zm0 .183c-1.077 0-1.824-.754-1.824-2.136 0-1.633 1.207-3.856 3.11-3.856 1.078 0 1.824.758 1.824 2.137 0 1.633-1.207 3.855-3.11 3.855"/></g><path d="M111.402 17.328c0-1.867 1.496-3.812 3.727-3.812.687 0 1.207.234 1.535.453l.48-.426h.137l-.562 2.059h-.14c-.384-1.454-.626-1.922-1.5-1.922-1.442 0-2.606 2.129-2.606 3.847 0 1.25.617 1.996 1.746 1.996.86 0 1.629-.59 2.293-1.464l.129.093c-.61.86-1.504 1.711-2.817 1.711-1.394 0-2.422-1.023-2.422-2.535m6.629.305c1.606-.028 1.883-.738 1.883-1.313 0-.34-.172-.484-.434-.484-.605 0-1.242.86-1.449 1.797zm-.023.137a2.348 2.348 0 00-.047.488c0 .797.254 1.195.95 1.195.448 0 .944-.285 1.273-.726l.113.093c-.469.633-1.05.973-1.754.973-.79 0-1.5-.477-1.5-1.52 0-1.312 1.074-2.62 2.48-2.62.793 0 1.184.382 1.184.894 0 .676-.852 1.258-2.7 1.223m3.985 1.023c-.031.14-.058.262-.058.367 0 .277.222.356.894.313v.086c-.168.07-.66.218-1.043.218-.496 0-.746-.199-.746-.593 0-.11.023-.25.07-.399l.918-3.047.426-1.613c.07-.277-.086-.41-.73-.445v-.102l1.816-.09-1.547 5.305m2.449-1.16c1.61-.028 1.887-.738 1.887-1.313 0-.34-.176-.484-.437-.484-.606 0-1.239.86-1.45 1.797zm-.023.137a2.348 2.348 0 00-.047.488c0 .797.254 1.195.95 1.195.449 0 .945-.285 1.277-.726l.113.093c-.473.633-1.055.973-1.758.973-.789 0-1.5-.477-1.5-1.52 0-1.312 1.074-2.62 2.48-2.62.794 0 1.184.382 1.184.894 0 .676-.851 1.258-2.699 1.223m6.016-.782c0-.562-.215-.894-.676-.894-.278 0-.574.183-.824.418l-.704 2.718c.106.258.348.399.633.399.903 0 1.57-1.54 1.57-2.64zm-1.657 2.805c-.59 0-1.023-.137-1.484-.512l.52-1.781.851-3.375c.078-.277-.086-.41-.73-.445v-.102l1.832-.09-.79 2.805.028.02c.406-.426.816-.66 1.293-.66.598 0 1.058.46 1.058 1.32 0 1.32-1.085 2.82-2.578 2.82m6.715-3.543c0 .39-.234.66-.558.66-.293 0-.508-.148-.508-.46 0-.087.023-.25.11-.348-.337.02-.774.382-1.118.793l-.695 2.82h-.95l.418-1.406.54-1.989c.078-.277-.008-.406-.547-.441v-.106l1.57-.078-.285.938.015.02c.383-.532.895-.993 1.364-.993.425 0 .644.27.644.59m.808 2.164c0 .606.208.996.634.996.34 0 .652-.336.894-.762l.617-2.058c-.058-.434-.304-.738-.625-.738-.86 0-1.52 1.691-1.52 2.562zm2.372.379c-.055.184-.086.34-.086.453 0 .254.215.313.754.27v.086a2.68 2.68 0 01-.875.183c-.445 0-.688-.105-.688-.496 0-.07.008-.156.043-.293l-.015-.012c-.41.582-.785.809-1.29.809-.69 0-1.152-.512-1.152-1.39 0-1.36 1.18-2.75 2.336-2.75.504 0 .711.226.875.554l.156-.45.915-.105-.47 1.399-.503 1.742m3.258-2.863l-.73 2.613a1.729 1.729 0 00-.079.453c0 .277.156.399.477.399a3.2 3.2 0 00.773-.122v.086c-.277.164-.781.434-1.293.434-.598 0-.867-.262-.867-.719 0-.148.023-.312.078-.496l.774-2.648h-.774l.059-.192h.765l.371-1.285.95-.137-.454 1.422h1.086l-.058.192h-1.078m3.101-2.293c.227 0 .422.148.422.453 0 .398-.285.762-.64.762-.223 0-.434-.165-.434-.47 0-.398.297-.745.652-.745zm-.183 5.93c-.164.07-.625.218-1.008.218-.492 0-.746-.207-.746-.59 0-.12.027-.254.07-.41l.766-2.465c.082-.285-.14-.406-.68-.441v-.106l1.762-.078-.953 3.11a1.322 1.322 0 00-.079.379c0 .27.215.332.868.296v.086m1.547-3.246c.078-.277-.008-.406-.547-.441v-.106l1.57-.078-.258.844.016.016c.52-.528 1.137-.887 1.625-.887.539 0 .824.297.824.8 0 .165-.027.364-.098.583l-.59 1.832a1.51 1.51 0 00-.085.39c0 .243.207.286.78.243v.086a2.592 2.592 0 01-.874.183c-.496 0-.758-.156-.758-.539 0-.105.027-.262.078-.418l.567-1.742c.058-.2.093-.348.093-.504 0-.27-.129-.426-.46-.426-.337 0-.747.227-1.153.582l-.738 2.977h-.95l.418-1.406.54-1.989m4.812 2.082c0 .61.242.907.695.907.32 0 .555-.176.79-.524l.66-2.23c-.094-.364-.34-.703-.688-.703-.894 0-1.457 1.691-1.457 2.55zm-.93-.078c0-1.265 1.102-2.672 2.266-2.672.496 0 .738.2.937.496l.141-.39.918-.106-.469 1.407-.761 2.718c-.332 1.153-.86 1.676-2.145 1.676-.945 0-1.406-.426-1.406-.844 0-.363.242-.625.57-.625.305 0 .48.207.48.496 0 .2-.132.391-.316.493.125.203.375.312.66.312.66 0 1.036-.527 1.305-1.457l.207-.738-.023-.008c-.348.418-.668.633-1.164.633-.653 0-1.2-.504-1.2-1.39m-84.539 24.03c-1.261.73-3.062 1.184-5.062 1.184-2.004 0-3.801-.453-5.063-1.18-1.261-.726-3.062-1.18-5.062-1.18-2 0-3.805.454-5.063 1.18-1.258.727-3.058 1.18-5.062 1.18-2 0-3.801-.453-5.059-1.18-1.262-.726-3.062-1.18-5.062-1.18-.188 0-.375.008-.563.016v4.684c0 .707.028 1.39.067 2.062.164-.004.328-.015.496-.015 2 0 3.8.457 5.062 1.183 1.258.727 3.059 1.18 5.059 1.18 2.004 0 3.804-.453 5.062-1.18 1.258-.726 3.063-1.183 5.063-1.183 2 0 3.8.457 5.062 1.183 1.262.727 3.059 1.18 5.063 1.18 2 0 3.8-.453 5.062-1.18 1.258-.726 3.059-1.183 5.059-1.183.168 0 .332.011.496.015.039-.671.062-1.355.062-2.062v-4.684a12.967 12.967 0 00-.558-.015c-2 0-3.8.453-5.059 1.175M60.676 57.04c-2 0-3.805-.454-5.063-1.18-1.261-.727-3.062-1.18-5.062-1.18-2 0-3.801.453-5.063 1.18-1.258.726-3.058 1.18-5.062 1.18-2 0-3.801-.454-5.059-1.18-1.12-.645-2.668-1.075-4.402-1.16a24.792 24.792 0 003.75 7.59c.23.1.45.202.652.323 1.258.723 3.059 1.18 5.059 1.18 2.004 0 3.804-.457 5.062-1.18 1.262-.73 3.063-1.187 5.063-1.187 2 0 3.8.457 5.062 1.187 1.258.723 3.063 1.18 5.063 1.18 2 0 3.8-.457 5.062-1.18.203-.12.422-.226.653-.328a24.72 24.72 0 003.746-7.586c-1.735.086-3.282.516-4.399 1.16-1.261.727-3.062 1.18-5.062 1.18" fill="#fff"/><g clip-path="url(#k)" fill="#fff"><path d="M55.613 69.36c-1.261-.723-3.062-1.18-5.062-1.18-2 0-3.801.457-5.063 1.18-.605.35-1.336.632-2.156.84 2.902 1.937 5.586 3.362 7.219 4.73 1.636-1.368 4.316-2.793 7.219-4.73-.817-.208-1.551-.49-2.157-.84"/></g><path d="M65.738 28.855c-1.261.727-3.062 1.184-5.062 1.184-2.004 0-3.801-.457-5.063-1.184-1.261-.722-3.062-1.18-5.062-1.18-2 0-3.805.458-5.063 1.18-1.258.727-3.058 1.184-5.062 1.184-2 0-3.801-.457-5.059-1.184-1.262-.722-3.062-1.18-5.062-1.18-.188 0-.375.009-.563.016v6.75c.188-.004.375-.011.563-.011 2 0 3.8.453 5.062 1.18 1.258.726 3.059 1.18 5.059 1.18 2.004 0 3.804-.454 5.062-1.18 1.258-.727 3.063-1.18 5.063-1.18 2 0 3.8.453 5.062 1.18 1.262.726 3.059 1.18 5.063 1.18 2 0 3.8-.454 5.062-1.18 1.258-.727 3.059-1.18 5.059-1.18.191 0 .375.008.558.015v-6.754c-.183-.007-.367-.015-.558-.015-2 0-3.8.457-5.059 1.18" fill="#fff"/><path d="M50.55 14.992a6.822 6.822 0 00-6.82 6.82c0 .34.036.672.083 1a8.037 8.037 0 001.675-.707c1.258-.722 3.063-1.18 5.063-1.18 2 0 3.8.458 5.062 1.18.485.282 1.051.52 1.68.707a6.98 6.98 0 00.078-1 6.82 6.82 0 00-6.82-6.82zm-9.292 2.004c-.137.02-.274.059-.41.082-.36.063-.703.07-1.047.059-.356-.012-.774-.098-1.008-.25-.059.355.379.824.75 1.074.258.176.527.324.809.418.113.043.226.058.336.101.34.122.675.34.94.575.345.304.63.691.895 1.03a8.099 8.099 0 011.153-2.757c-.36-.129-.75-.265-1.172-.332a4.16 4.16 0 00-1.246 0zm24.875 4.82l-7.488-1.343c.074.437.12.886.12 1.343 0 .454-.046.899-.12 1.34zm-23.68-1.343l-7.484 1.343 7.488 1.34a8.5 8.5 0 01-.121-1.34c0-.457.05-.906.117-1.343zm18.078-1.825c.086-.113.149-.238.235-.347.207-.301.445-.547.695-.781.258-.243.613-.48.89-.54-.21-.289-.851-.312-1.292-.226a3.48 3.48 0 00-.868.273c-.109.055-.199.121-.308.172a2.988 2.988 0 01-1.074.258c-.454.031-.93-.043-1.36-.102h-.008a8.17 8.17 0 011.149 2.766c.344-.164.71-.34 1.058-.594.309-.222.63-.53.883-.879zM45.88 15.066l-4.707-2.636 2.625 4.71a8.273 8.273 0 012.082-2.074zm11.426 2.075l2.625-4.711-4.703 2.636a8.258 8.258 0 012.078 2.075zm-5.371-3.418L50.55 0l-1.383 13.723c.453-.07.91-.121 1.383-.121.472 0 .93.05 1.383.12zm-6.168-1.547c.05.101.117.199.168.308.156.325.242.715.261 1.067.028.46-.043.937-.101 1.363v.008a8.163 8.163 0 012.765-1.145c-.164-.347-.34-.718-.593-1.062a4.074 4.074 0 00-.88-.88c-.113-.081-.234-.151-.35-.23a5.863 5.863 0 01-.782-.695c-.238-.262-.477-.62-.535-.898-.29.215-.313.855-.227 1.297.063.304.14.593.274.867zm9.605 1.59a4.186 4.186 0 000-1.25c-.02-.133-.062-.27-.086-.407-.058-.363-.07-.699-.058-1.046.015-.352.093-.774.253-1.012-.355-.055-.824.383-1.078.758-.175.257-.32.52-.418.808-.039.106-.062.227-.097.332-.121.34-.34.68-.575.946-.304.34-.69.628-1.035.886l-.004.004a8.178 8.178 0 012.766 1.152c.125-.359.262-.75.332-1.171" fill="#edb800"/><path d="M7.336 39.04v.503c-3.8.64-6.527 2.86-6.527 6.898 0 6.16 5.046 9.625 10.836 9.625 6.628 0 11.242-5.082 11.242-9.96 0-4.41-3.235-6.16-6.867-7.672l.203-.473c2.05.402 4.07 1.043 6.023 1.852 1.043 2.152 1.445 4.476 1.445 6.863 0 7.035-4.039 13.297-11.644 13.297C6.059 59.973 0 55.293 0 46.41c0-2.558.504-5.152 1.816-7.37h5.52M.406 9.992H.91c.336 3.063 2.219 3.266 6.664 3.403l7.367.199c4.344.101 8.75 1.953 8.75 9.426 0 10.43-7.539 9.355-10.23 9.355H5.92c-3.464.098-4.472.133-5.01 4.172H.405v-11.61H.91c.637 4.407 1.313 4.473 5.012 4.473h6.902c.637 0 9.32 1.078 9.32-8.14 0-7.27-6.933-6.563-11.039-6.563h-3.53c-4.278 0-6.227.336-6.665 5.047H.406V9.992" fill="#fff"/><g clip-path="url(#l)" fill="#fff"><path d="M5.922 67.813c-3.7 0-4.375.066-5.012 4.476H.406V60.711H.91c.54 4.039 1.547 4.14 5.012 4.14h12.05c5.536-.027 7.79.692 9.934 5.215.38.801.719 1.422 1.117 2.676.329 1.028.391 1.973.403 2.094l-.504.05c0-.034-.04-.425-.192-1.019a6.691 6.691 0 00-.335-.906 9.228 9.228 0 00-.692-1.258c-2.32-3.558-5.816-3.89-11.21-3.89H5.921"/></g></svg>