<svg xmlns="http://www.w3.org/2000/svg" viewBox="0 0 145.69 78.35" height="78.35pt" width="194.253"><defs><clipPath id="a"><path d="M82 17h1v61.352h-1zm0 0"/></clipPath><clipPath id="b"><path d="M1 72h6v6.352H1zm0 0"/></clipPath><clipPath id="c"><path d="M7 72h5v6.352H7zm0 0"/></clipPath><clipPath id="d"><path d="M12 72h5v6.352h-5zm0 0"/></clipPath><clipPath id="e"><path d="M16 72h6v6.352h-6zm0 0"/></clipPath><clipPath id="f"><path d="M22 72h5v6.352h-5zm0 0"/></clipPath><clipPath id="g"><path d="M27 72h7v6.352h-7zm0 0"/></clipPath><clipPath id="h"><path d="M33 72h5v6.352h-5zm0 0"/></clipPath><clipPath id="i"><path d="M38 72h2v6.352h-2zm0 0"/></clipPath><clipPath id="j"><path d="M40 72h6v6.352h-6zm0 0"/></clipPath><clipPath id="k"><path d="M100 72h5v6.352h-5zm0 0"/></clipPath><clipPath id="l"><path d="M104 72h6v6.352h-6zm0 0"/></clipPath><clipPath id="m"><path d="M109 72h6v6.352h-6zm0 0"/></clipPath><clipPath id="n"><path d="M114 72h5v6.352h-5zm0 0"/></clipPath><clipPath id="o"><path d="M125 72h5v6.352h-5zm0 0"/></clipPath><clipPath id="p"><path d="M130 72h5v6.352h-5zm0 0"/></clipPath><clipPath id="q"><path d="M134 72h6v6.352h-6zm0 0"/></clipPath><clipPath id="r"><path d="M140 72h5v6.352h-5zm0 0"/></clipPath><clipPath id="s"><path d="M121 29h24.691v27H121zm0 0"/></clipPath><clipPath id="t"><path d="M140 60h5.691v7H140zm0 0"/></clipPath></defs><g clip-path="url(#a)"><path d="M82.816 17.094h-.515v61.093h.515V17.094"/></g><path d="M1.734 52.715c0-1.2-.023-1.418-1.453-1.621v-.164h3.754v.164c-1.308.172-1.344.5-1.344 1.62v3.907c.012 2.113-.238 2.582-2.605 3.598L0 60.03c1.602-.75 1.734-1.93 1.734-3.89v-3.426m4.126 2.52c-.184.547-.669 1.68-.669 2.203 0 .665.754.665 1.247.743v.164H3.449v-.164c.973-.262 1.07-.48 1.406-1.332l1.23-3.215.657-1.778c.098-.285.238-.546.121-.753a2.03 2.03 0 00.793-.586l2.399 6.386c.297.797.48 1.114 1.355 1.278v.164H8.203v-.164c.383-.086.84-.207.84-.7 0-.457-.414-1.48-.7-2.246zm1.21-3.336l-1.027 2.836h2.16zm9.614 4.852l1.976-4.34c.274-.597.426-1.144.184-1.308l.023-.172h2.399v.164c-.7.14-1.121.402-1.082 1.164l.242 3.969c.12 1.515.12 1.757 1.285 1.953v.164h-3.586v-.164c.84-.133 1.375-.23 1.32-1.188l-.297-4.765h-.02l-2.78 6.117h-.118l-2.585-5.867h-.024a70.732 70.732 0 00-.336 4.566c-.023.426-.012.918 1.309 1.137v.164H11.55v-.164c.972-.164 1.066-.633 1.222-1.516l.403-3.062.14-1.485c.067-.719-.554-.972-1.199-1.023v-.164h2.356l.011.117c-.242.25.055.906.13 1.082l2.07 4.621m5.477 1.43c1.309-.176 1.32-.504 1.352-1.625v-3.84c-.032-1.121-.043-1.45-1.352-1.621v-.164h5.856l-.133 1.675h-.16c-.078-1.406-1.094-1.417-2.192-1.417h-1.058v3.109h1.132c.817 0 1.442-.067 1.56-1.004h.163v2.434h-.164c-.14-.961-.742-.973-1.559-.973h-1.132v1.789c0 .645-.153 1.539 1.632 1.539 1.375 0 2.051-.523 2.325-1.898h.164a6.898 6.898 0 01-.371 2.16H22.16v-.164m11.43-5.332h-.176c-.176-.883-.457-1.735-1.539-1.735-.7 0-1.273.48-1.273 1.2 0 1.886 3.433 1.82 3.433 4.023 0 1.406-1.394 2.137-2.648 2.137a3.598 3.598 0 01-1.918-.555l-.317-1.855h.192c.273 1.046 1.004 2.085 2.203 2.085.808 0 1.441-.48 1.441-1.332 0-1.941-3.336-1.765-3.336-3.949 0-1.273 1.266-2.082 2.43-2.082.559 0 1.113.164 1.594.426l-.086 1.637m9.648.328h-.164c-.207-1.235-.926-2.117-2.234-2.117-1.996 0-3.121 1.636-3.121 3.511 0 2.149 1.648 3.64 3.23 3.64 1.426 0 1.996-1.046 2.485-2.222l.156.067a10.5 10.5 0 01-.602 1.949c-.699.34-1.449.469-2.226.469-2.278 0-4.305-1.309-4.305-3.774 0-1.937 1.516-3.902 4.395-3.902.828 0 1.668.164 2.386.59v1.789m8.899 1.461c0 2.343-1.7 3.836-3.989 3.836-2.3 0-3.992-1.493-3.992-3.848 0-2.324 1.7-3.828 3.98-3.828 2.794 0 4 1.898 4 3.84m-6.714-.274c0 1.692.894 3.848 2.855 3.848 1.801 0 2.598-1.832 2.598-3.39-.035-1.93-1.156-3.762-2.828-3.762-1.875 0-2.625 1.832-2.625 3.304m15.473.274c0 2.343-1.7 3.836-3.989 3.836-2.304 0-3.992-1.493-3.992-3.848 0-2.324 1.7-3.828 3.98-3.828 2.79 0 4 1.898 4 3.84m-6.714-.274c0 1.692.894 3.848 2.855 3.848 1.8 0 2.598-1.832 2.598-3.39-.035-1.93-1.16-3.762-2.828-3.762-1.875 0-2.625 1.832-2.625 3.304m9.226 2.192c.032 1.12.043 1.449 1.45 1.625v.164h-3.762v-.164c1.308-.176 1.32-.504 1.351-1.625v-3.84c-.03-1.121-.043-1.45-1.351-1.621v-.164h3.468v.164c-1.113.172-1.124.5-1.156 1.62zm4.93-5.625v.164c-1.242.129-2.07 1.187-2.879 2.027l-1.027 1.09 2.215 2.441c.664.73 1.449 1.383 2.421 1.657l-.054.164c-1.899-.153-2.203-.207-3.23-1.328l-2.223-2.422 1.757-1.907c1.145-1.289.926-1.648.196-1.722v-.164h2.824M8.8 61.16v.164c-.991.11-1.058.723-1.1 2.16l-.067 2.387c-.031 1.41-.633 2.836-3.051 2.836-3.383 0-3.031-2.441-3.031-3.312v-2.446c-.035-1.12-.047-1.449-1.356-1.625v-.164h3.762v.164c-1.426.207-1.45.426-1.45 1.625v2.235c0 .21-.347 3.023 2.638 3.023 2.355 0 2.128-2.246 2.128-3.578v-1.145c0-1.386-.109-2.015-1.636-2.16v-.164H8.8m7.587 5.703l-.055-3.98c-.012-1.035-.293-1.34-1.527-1.559v-.164h2.976v.164c-.754.098-.894.516-.98 1.223-.153 1.2-.098 3.828-.043 6.203l-.14.035c-1.747-2.062-3.688-3.972-5.532-5.957v2.008c0 2.703-.063 3.262 1.516 3.578v.164H9.344v-.164c1.472-.152 1.418-1.156 1.418-3.633v-1.633c0-1.093-.176-1.52-1.559-1.824v-.164H11l5.387 5.703m4.172-.073c.03 1.12.043 1.448 1.351 1.624v.164h-3.664v-.164c1.309-.176 1.32-.504 1.352-1.625v-3.84c-.032-1.12-.043-1.449-1.352-1.625v-.164h3.664v.164c-1.308.176-1.32.504-1.351 1.625v3.84m9.781-5.629v.164c-1.027.09-1.344.95-2.02 2.531l-2.082 4.973h-.152L23.62 62.93c-.328-.797-.578-1.496-1.547-1.606v-.164h3.457v.164c-1.539.153-1.039 1.028-.754 1.715l1.743 4.207 1.289-3.086c.937-2.234 1.113-2.594-.543-2.836v-.164h3.074m.099 7.254c1.308-.176 1.32-.504 1.351-1.625v-3.84c-.031-1.12-.043-1.449-1.352-1.625v-.164h5.856l-.133 1.68H36c-.078-1.406-1.094-1.418-2.195-1.418H32.75v3.11h1.133c.816 0 1.441-.067 1.558-1.005h.164v2.434h-.164c-.14-.961-.742-.969-1.558-.969H32.75v1.785c0 .645-.152 1.54 1.637 1.54 1.37 0 2.047-.524 2.32-1.899h.164a6.898 6.898 0 01-.371 2.16h-6.063v-.164m8.208-5.008c0-1.668-.055-1.918-1.274-2.027v-.152l2.66-.086c2.746-.086 2.965 1.254 2.965 1.777 0 .914-.566 1.437-1.351 1.789l.054.074c.84 1.473 1.887 3.348 3.688 3.719l-.035.164c-1.157-.055-2.008-.023-2.637-.676a9.376 9.376 0 01-1.516-2.183c-.437-.903-.832-.64-1.594-.774v1.758c0 1.2.024 1.418 1.516 1.625v.164h-3.828v-.164c1.309-.176 1.32-.504 1.352-1.625zm.96 1.442c1.047-.012 2.27-.493 2.27-1.7 0-1.277-1.125-1.789-2.27-1.78v3.48m9.907-1.766h-.176c-.172-.883-.457-1.734-1.535-1.734-.7 0-1.278.48-1.278 1.199 0 1.887 3.434 1.82 3.434 4.023 0 1.407-1.395 2.137-2.648 2.137a3.608 3.608 0 01-1.918-.555l-.317-1.855h.196c.273 1.047 1.003 2.082 2.203 2.082.808 0 1.437-.477 1.437-1.328 0-1.942-3.336-1.766-3.336-3.95 0-1.273 1.266-2.081 2.434-2.081.554 0 1.11.164 1.59.425l-.086 1.637M52.7 66.79c.03 1.12.042 1.448 1.35 1.624v.164h-3.663v-.164c1.312-.176 1.32-.504 1.355-1.625v-3.84c-.035-1.12-.043-1.449-1.355-1.625v-.164h3.664v.164c-1.309.176-1.32.504-1.352 1.625v3.84m8.555-5.965h.086l.152 2.04-.152.03c-.383-1.351-.98-1.406-2.235-1.406h-.656v5.04c0 1.35.067 1.71 1.528 1.886v.164h-4.012v-.164c1.46-.176 1.523-.535 1.523-1.887v-5.039h-.652c-1.254 0-1.856.055-2.238 1.407l-.149-.032.149-2.039h.09l.109.098c.273.25.316.238.676.238h4.996c.36 0 .402.012.676-.238l.109-.098m7.437.336v.164c-.949.078-1.418.602-1.875 1.387l-1.285 2.55v1.235c.02 1.25.043 1.7 1.438 1.918v.164h-3.84v-.164c1.398-.219 1.418-.668 1.441-1.918v-.875l-1.132-2.473c-.418-.918-.711-1.691-1.813-1.824v-.164h3.012v.164c-.899.121-.778.48-.426 1.246l1.09 2.356.945-1.801c.68-1.266.59-1.68-.355-1.8v-.165h2.8M1.5 70.727H68v.222H1.5v-.222"/><path d="M23.414 25.875c-.766.445-1.867.723-3.09.723-1.222 0-2.32-.278-3.094-.723-.77-.445-1.87-.719-3.09-.719-1.222 0-2.324.274-3.093.719-.77.445-1.871.723-3.094.723-1.223 0-2.32-.278-3.09-.723-.77-.445-1.87-.719-3.093-.719-.114 0-.227.004-.34.008v2.863c0 .43.015.848.039 1.258.101-.004.199-.008.3-.008 1.223 0 2.325.278 3.094.723.77.441 1.867.719 3.09.719 1.223 0 2.324-.278 3.094-.719.77-.445 1.871-.723 3.094-.723 1.218 0 2.32.278 3.09.723.773.441 1.87.719 3.093.719 1.223 0 2.324-.278 3.09-.719.773-.445 1.871-.723 3.094-.723.101 0 .203.004.3.008.028-.41.04-.828.04-1.258v-2.863a9.428 9.428 0 00-.34-.008c-1.223 0-2.32.274-3.094.719m-3.09 8.969c-1.222 0-2.324-.278-3.094-.719-.77-.445-1.87-.723-3.09-.723-1.222 0-2.324.278-3.093.723-.77.441-1.871.719-3.094.719-1.223 0-2.32-.278-3.09-.719-.683-.398-1.629-.66-2.687-.71a15.173 15.173 0 002.289 4.636c.14.062.273.125.398.195.77.445 1.867.723 3.09.723 1.223 0 2.324-.278 3.094-.723.77-.441 1.871-.723 3.094-.723 1.218 0 2.32.278 3.09.723.769.445 1.87.723 3.093.723 1.223 0 2.324-.278 3.09-.723a5.19 5.19 0 01.402-.2 15.194 15.194 0 002.29-4.632c-1.063.05-2.008.313-2.692.711-.766.441-1.867.719-3.09.719m-3.094 7.527c-.77-.441-1.87-.723-3.09-.723-1.222 0-2.324.282-3.093.723a5.11 5.11 0 01-1.317.512c1.774 1.183 3.41 2.054 4.41 2.89.997-.836 2.637-1.707 4.41-2.89a5.14 5.14 0 01-1.32-.512m6.184-24.746c-.766.445-1.867.723-3.09.723-1.222 0-2.32-.278-3.094-.723-.77-.441-1.87-.719-3.09-.719-1.222 0-2.324.278-3.093.719-.77.445-1.871.723-3.094.723-1.223 0-2.32-.278-3.09-.723-.77-.441-1.87-.719-3.093-.719-.114 0-.227.004-.34.008v4.125c.113-.004.226-.008.34-.008 1.222 0 2.324.278 3.093.719.77.445 1.867.723 3.09.723 1.223 0 2.324-.278 3.094-.723.77-.441 1.871-.719 3.094-.719 1.218 0 2.32.278 3.09.719.773.445 1.87.723 3.093.723 1.223 0 2.324-.278 3.09-.723.773-.441 1.871-.719 3.094-.719.117 0 .23.004.34.008v-4.125a9.428 9.428 0 00-.34-.008c-1.223 0-2.32.278-3.094.719" fill="#0069b4"/><path d="M14.14 9.156a4.17 4.17 0 00-4.167 4.168c0 .207.02.41.05.61a4.915 4.915 0 001.024-.43c.77-.445 1.871-.723 3.094-.723 1.218 0 2.32.278 3.09.723.296.168.644.316 1.027.43.027-.2.047-.403.047-.61 0-2.3-1.864-4.168-4.164-4.168zm-5.68 1.227c-.081.012-.163.035-.25.05-.218.036-.429.044-.64.036-.215-.008-.468-.063-.613-.153-.039.215.23.5.457.657.156.105.32.195.496.254.067.023.137.035.203.062.211.07.414.207.575.352.21.183.386.418.546.629.13-.61.375-1.18.704-1.684-.22-.078-.458-.164-.715-.203a2.371 2.371 0 00-.762 0zm15.2 2.941l-4.574-.82c.043.27.074.543.074.82 0 .278-.031.551-.074.82zm-14.469-.82l-4.57.82 4.574.82a5.207 5.207 0 01-.074-.82c0-.277.031-.55.07-.82zm11.047-1.113c.051-.07.09-.145.14-.211.13-.184.274-.336.423-.48.16-.145.379-.294.547-.329-.13-.176-.52-.191-.79-.137a1.973 1.973 0 00-.53.168c-.067.032-.122.07-.188.102-.2.094-.438.144-.656.156-.278.02-.57-.023-.832-.058h-.004c.332.507.57 1.078.699 1.687.215-.098.437-.207.652-.36a2.71 2.71 0 00.54-.538zm-8.953-2.188L8.41 7.593l1.606 2.876a4.95 4.95 0 011.27-1.266zm6.98 1.266l1.606-2.875-2.875 1.61c.492.339.922.769 1.27 1.265zm-3.28-2.086L14.14 0l-.844 8.383c.273-.043.555-.074.844-.074.285 0 .566.03.843.074zm-3.77-.945c.031.062.074.12.105.187.094.2.145.438.157.652.015.282-.024.57-.059.832v.004a4.965 4.965 0 011.687-.699c-.101-.21-.207-.437-.363-.648a2.573 2.573 0 00-.535-.536c-.07-.05-.145-.093-.215-.144a2.941 2.941 0 01-.476-.426c-.149-.156-.293-.375-.329-.547-.175.133-.19.524-.14.793.039.188.09.364.168.532zm5.87.968c.032-.226.04-.5 0-.761-.015-.082-.038-.165-.054-.25-.035-.22-.043-.426-.035-.637.008-.215.055-.473.152-.617-.214-.036-.5.23-.656.46a2.03 2.03 0 00-.254.493c-.023.066-.039.14-.062.203a1.84 1.84 0 01-.348.578 4.15 4.15 0 01-.637.543c.614.133 1.18.375 1.688.707.078-.223.16-.46.207-.719" fill="#edb800"/><g clip-path="url(#b)"><path d="M5.102 76.078l-.91-2.113-.907 2.113zm-1.329-3.223h.864l2.324 5.32h-.98l-.54-1.273H2.945l-.543 1.274H1.45l2.324-5.32"/></g><g clip-path="url(#c)"><path d="M7.281 75.938v-3.043h.93v3.003c0 .98.504 1.5 1.336 1.5.82 0 1.328-.488 1.328-1.46v-3.043h.926v2.996c0 1.578-.89 2.37-2.27 2.37-1.375 0-2.25-.792-2.25-2.323"/></g><g clip-path="url(#d)"><path d="M12.352 77.406l.558-.664c.504.438 1.02.688 1.668.688.574 0 .938-.274.938-.664v-.016c0-.375-.215-.582-1.196-.809-1.12-.27-1.758-.601-1.758-1.574v-.015c0-.907.758-1.532 1.805-1.532.77 0 1.38.235 1.918.664l-.5.7c-.476-.352-.95-.543-1.433-.543-.543 0-.86.28-.86.629v.011c0 .41.242.59 1.262.832 1.113.27 1.687.672 1.687 1.547v.016c0 .988-.777 1.578-1.886 1.578-.805 0-1.57-.281-2.203-.848"/></g><g clip-path="url(#e)"><path d="M18.605 73.754H16.93v-.86h4.289v.86h-1.676v4.422h-.938v-4.422"/></g><g clip-path="url(#f)"><path d="M24.332 75.512c.664 0 1.086-.348 1.086-.883v-.016c0-.562-.406-.875-1.094-.875h-1.351v1.774zm-2.285-2.617h2.355c.664 0 1.184.195 1.524.527.281.289.437.68.437 1.14v.016c0 .867-.52 1.387-1.254 1.598l1.426 2h-1.101l-1.297-1.84h-1.164v1.84h-.926v-5.281"/></g><g clip-path="url(#g)"><path d="M31.168 76.078l-.914-2.113-.902 2.113zm-1.328-3.223h.86l2.327 5.32h-.984l-.535-1.273h-2.496l-.543 1.274h-.953l2.324-5.32"/></g><g clip-path="url(#h)"><path d="M33.98 72.895h.93v4.437h2.778v.844H33.98v-5.281"/></g><g clip-path="url(#i)"><path d="M38.555 72.895h.925v5.28h-.925v-5.28"/></g><g clip-path="url(#j)"><path d="M44.047 76.078l-.914-2.113-.906 2.113zm-1.328-3.223h.86l2.323 5.32h-.98l-.535-1.273h-2.5l-.543 1.274h-.95l2.325-5.32"/></g><g clip-path="url(#k)"><path d="M100.79 78.21l.065-.062c.825-.007 1.09-.082 1.196-.48l1.074-4.043c.07-.27.098-.453-.004-.582-.11-.156-.371-.223-.926-.242l.075-.055 2.046-.133-1.414 5.035c-.03.106-.05.227.016.32.105.15.398.188.98.212l-.03.03h-3.079"/></g><g clip-path="url(#l)"><path d="M107.73 72.648c-.925 0-1.515 1.508-1.515 2.543 0 .711.254 1.059.77 1.059.761 0 1.609-1.02 1.609-2.39 0-.77-.317-1.212-.864-1.212zm-2.933 5.63c1.898-.325 3.098-1.239 3.523-2.676l-.03-.024-.067-.031c-.41.558-.875.816-1.457.816-1.04 0-1.407-.75-1.407-1.453 0-1.11.989-2.347 2.407-2.347.992 0 1.636.718 1.636 1.832 0 2.203-1.808 3.753-4.609 3.957l.004-.075"/></g><g clip-path="url(#m)"><path d="M109.57 78.293l4.262-4.828-2.336-.07c-.543 0-.738.168-1.238 1.046l-.067-.02.54-1.769 3.746.032-2.329 3.246-1.617 2.363h-.96"/></g><g clip-path="url(#n)"><path d="M117.133 72.648c-1.39 0-2.153 2.805-2.153 4.247 0 .886.305 1.34.899 1.34 1.39 0 2.152-2.801 2.152-4.239 0-.894-.304-1.348-.898-1.348zm-1.254 5.68c-1.07 0-1.734-.785-1.734-2.043 0-1.555 1.136-3.722 2.988-3.722 1.074 0 1.738.785 1.738 2.042 0 1.555-1.137 3.723-2.992 3.723"/></g><path d="M120.934 76.184l.132-.297 2.13.031-.118.266h-2.144"/><g clip-path="url(#o)"><path d="M125.027 78.21l.176-.542 2.063-1.434c1.21-.832 1.687-1.52 1.687-2.457 0-.75-.328-1.144-.941-1.144-.438 0-.89.25-1.13.62.345.157.52.376.52.677 0 .285-.218.593-.578.593-.34 0-.558-.242-.558-.609 0-.746.84-1.352 1.875-1.352 1.039 0 1.71.508 1.71 1.29 0 .82-.69 1.382-2.906 2.77l-1.203.796v.043l.024.059h2.175c.618 0 .84-.153 1.317-.907l.07.028-.5 1.57h-3.8"/></g><g clip-path="url(#p)"><path d="M133.234 72.648c-1.39 0-2.152 2.805-2.152 4.247 0 .886.305 1.34.898 1.34 1.391 0 2.153-2.801 2.153-4.239 0-.894-.305-1.348-.899-1.348zm-1.254 5.68c-1.074 0-1.738-.785-1.738-2.043 0-1.555 1.14-3.722 2.992-3.722 1.075 0 1.739.785 1.739 2.042 0 1.555-1.137 3.723-2.993 3.723"/></g><g clip-path="url(#q)"><path d="M134.906 78.21l.176-.542 2.063-1.434c1.21-.832 1.683-1.52 1.683-2.457 0-.75-.324-1.144-.937-1.144-.446 0-.887.246-1.13.62.344.157.516.376.516.677 0 .285-.218.593-.574.593-.34 0-.558-.242-.558-.609 0-.746.84-1.352 1.87-1.352 1.044 0 1.712.508 1.712 1.29 0 .82-.688 1.382-2.903 2.77l-1.203.796v.043l.024.059h2.175c.618 0 .836-.153 1.317-.907l.074.028-.504 1.57h-3.8"/></g><g clip-path="url(#r)"><path d="M143.113 72.648c-1.39 0-2.152 2.805-2.152 4.247 0 .886.3 1.34.894 1.34 1.395 0 2.157-2.801 2.157-4.239 0-.894-.305-1.348-.899-1.348zm-1.258 5.68c-1.07 0-1.734-.785-1.734-2.043 0-1.555 1.137-3.722 2.992-3.722 1.07 0 1.739.785 1.739 2.042 0 1.555-1.141 3.723-2.997 3.723"/></g><path d="M105.055 23.3c-1.368 0-2.32-1-2.32-2.433 0-1.777 1.445-3.68 3.593-3.68.676 0 1.176.239 1.477.434l.515-.418.11.012-.59 1.953-.098-.027c-.316-1.325-.555-1.875-1.465-1.875-1.43 0-2.586 2.078-2.586 3.797 0 1.265.637 1.988 1.746 1.988.786 0 1.547-.485 2.27-1.446l.07.102c-.797 1.055-1.683 1.594-2.722 1.594m5.519-3.934c-.582 0-1.234.801-1.453 1.79h.117c1.207 0 1.801-.442 1.801-1.274 0-.332-.164-.516-.465-.516zm-.914 3.863c-.656 0-1.426-.375-1.426-1.44 0-1.188.98-2.517 2.383-2.517.695 0 1.11.313 1.11.832 0 .7-.957 1.153-2.438 1.153h-.152a1.226 1.226 0 00-.086.515c0 .836.297 1.211.965 1.211.453 0 .945-.277 1.28-.726l.052.097c-.465.563-1.032.875-1.688.875m3.164-.015c-.465 0-.687-.176-.687-.535 0-.102.02-.23.066-.375l.899-2.977.414-1.578c.03-.117.02-.207-.036-.277-.09-.121-.3-.184-.714-.207l.039-.059 1.73-.043-1.55 5.125a1.696 1.696 0 00-.06.367c0 .297.25.356.622.356.086 0 .183-.004.297-.008-.196.078-.664.21-1.02.21m4.008-3.847c-.582 0-1.234.801-1.453 1.79h.117c1.207 0 1.805-.442 1.805-1.274 0-.332-.168-.516-.469-.516zm-.914 3.863c-.656 0-1.426-.375-1.426-1.44 0-1.188.98-2.517 2.383-2.517.695 0 1.11.313 1.11.832 0 .7-.958 1.153-2.438 1.153h-.152a1.226 1.226 0 00-.086.515c0 .836.296 1.211.964 1.211.454 0 .946-.277 1.282-.726l.047.097c-.461.563-1.028.875-1.684.875m4.687-3.609c-.316 0-.628.227-.832.418l-.699 2.676c.106.285.352.441.66.441.946 0 1.575-1.578 1.575-2.62 0-.755-.383-.915-.704-.915zm-.957 3.61c-.582 0-.992-.141-1.421-.489l.52-1.695.831-3.297c.031-.113.024-.203-.027-.273-.086-.125-.305-.188-.723-.211l.04-.059 1.745-.043-.808 2.684.093.058c.415-.433.805-.633 1.235-.633.601 0 .988.489.988 1.247 0 1.28-1.058 2.71-2.473 2.71m2.926-.074l.446-1.32.527-1.941c.023-.094.047-.215-.02-.305-.074-.106-.238-.16-.55-.18l.039-.058 1.492-.036-.32.86.035.035.054.02c.43-.594.91-.95 1.297-.95.356 0 .586.211.586.535 0 .356-.207.602-.5.602-.293 0-.46-.148-.46-.406 0-.07.023-.227.1-.313h-.058c-.445 0-.91.5-1.097.719l-.68 2.738h-.89m5.902-3.769c-.883 0-1.528 1.668-1.528 2.539 0 .648.242 1.015.66 1.015.387 0 .707-.414.91-.765l.602-2.016c-.059-.473-.32-.773-.644-.773zm-1.274 3.843c-.672 0-1.086-.503-1.086-1.312 0-1.309 1.13-2.645 2.238-2.645.465 0 .66.2.82.52l.227-.445.856-.075-.5 1.309-.492 1.707a1.602 1.602 0 00-.086.45c0 .28.257.32.507.32.079 0 .168-.008.274-.016-.246.094-.594.18-.86.18-.456 0-.628-.118-.628-.442 0-.05.004-.129.043-.277l-.094-.043c-.383.547-.734.77-1.219.77m4.449-.001c-.543 0-.804-.214-.804-.66 0-.14.023-.3.074-.472l.754-2.582-.793-.055.097-.133.708.031.406-1.285.886-.105-.484 1.336 1.098.054-.098.13-1.012-.028-.754 2.582a1.81 1.81 0 00-.078.45c0 .292.168.433.508.433.2 0 .504-.047.77-.121-.508.289-.914.425-1.278.425m3.648-4.82c-.187 0-.382-.129-.382-.414 0-.375.27-.687.594-.687.172 0 .37.101.37.398 0 .375-.273.703-.581.703zm-.948 4.813c-.457 0-.688-.18-.688-.532 0-.105.02-.222.063-.39l.75-2.403c.03-.109.02-.199-.028-.27-.09-.124-.297-.194-.676-.218l.04-.058 1.683-.036-.976 2.98a1.44 1.44 0 00-.079.384c0 .28.235.34.61.34.086 0 .18-.004.285-.008-.149.058-.602.21-.984.21m4.796.001c-.484 0-.695-.149-.695-.485 0-.101.027-.254.07-.39l.555-1.703c.059-.204.094-.348.094-.504 0-.305-.164-.457-.488-.457-.325 0-.723.199-1.157.578l-.734 2.925-.883-.03.445-1.321.528-1.941c.027-.094.05-.211-.02-.305-.074-.106-.238-.16-.55-.18l.039-.058 1.492-.036-.297.766.031.031.059.028c.515-.524 1.11-.852 1.554-.852.493 0 .762.262.762.738 0 .176-.031.368-.09.555l-.578 1.79c-.058.194-.086.308-.086.394 0 .242.196.293.485.293.09 0 .199-.004.324-.016-.168.066-.531.18-.86.18m3.817-3.836c-.899 0-1.469 1.66-1.469 2.531 0 .762.395.922.723.922.312 0 .554-.156.804-.524l.649-2.191c-.086-.352-.324-.738-.707-.738zm-1.469 5.465c-.914 0-1.332-.407-1.332-.782 0-.328.219-.566.52-.566.261 0 .425.168.425.441 0 .172-.113.348-.285.446.11.261.363.382.664.382.614 0 1.02-.449 1.313-1.453l.203-.722-.027-.008-.07-.04c-.364.438-.673.606-1.106.606-.66 0-1.125-.539-1.125-1.312 0-1.274 1.094-2.57 2.168-2.57.472 0 .695.187.883.464l.207-.39.867-.075-.504 1.32-.746 2.653c-.336 1.168-.89 1.606-2.055 1.606"/><g clip-path="url(#s)" fill="#edb800"><path d="M133.355 31.234c-3.882 0-6.203 4.2-6.203 11.23 0 6.614 2.547 11.235 6.203 11.235 3.653 0 6.204-4.62 6.204-11.234 0-7.031-2.32-11.23-6.204-11.23zm0 24.262c-7.152 0-12.34-5.48-12.34-13.031 0-7.55 5.188-13.028 12.34-13.028 7.149 0 12.336 5.477 12.336 13.028 0 7.55-5.187 13.031-12.336 13.031"/></g><path d="M97.766 62.145c12.785-1.766 14.699-7.489 14.699-10.754 0-4.977-4.219-7.567-12.547-7.696l2.3-13.21 15.778-1.255-.855 4.364-13.47 1.066-1.304 4.88.301.003c3.61.031 15.387.883 15.387 10.668 0 3.437-2.043 6.789-5.602 9.191-3.394 2.344-9.594 4.121-14.504 4.172l-.183-1.43m20.363 1.594l-2.285-3.605h1.527l1.418 2.387 1.445-2.387h1.489l-2.285 3.578v2.371h-1.31v-2.344m4.407-3.605h4.488v1.164h-3.183v1.207h2.805v1.164h-2.805v1.25h3.226v1.164h-4.53v-5.95m9.109 3.462l-.79-1.93-.789 1.93zm-1.375-3.504h1.207l2.55 5.992h-1.37l-.544-1.332h-2.511l-.547 1.332h-1.332l2.547-5.992m7.308 2.933c.637 0 1.004-.34 1.004-.84v-.019c0-.559-.394-.848-1.027-.848h-1.301v1.707zm-2.637-2.89h2.72c.757 0 1.347.21 1.734.605.332.332.511.797.511 1.36v.015c0 .961-.515 1.563-1.273 1.844l1.453 2.125h-1.531l-1.274-1.902h-1.027v1.902h-1.313v-5.95" fill="#edb800"/><g clip-path="url(#t)" fill="#edb800"><path d="M140.68 65.215l.77-.926c.538.441 1.097.723 1.777.723.535 0 .859-.211.859-.563v-.015c0-.332-.203-.5-1.2-.758-1.198-.305-1.972-.637-1.972-1.817v-.015c0-1.082.867-1.797 2.086-1.797.863 0 1.605.273 2.207.758l-.68.988c-.527-.367-1.047-.59-1.547-.59s-.765.23-.765.52v.015c0 .39.258.52 1.285.782 1.207.316 1.887.75 1.887 1.785v.02c0 1.179-.903 1.843-2.184 1.843a3.78 3.78 0 01-2.523-.953"/></g></svg>