<svg xmlns="http://www.w3.org/2000/svg" version="1.0" width="387.298" height="258.199" viewBox="0 0 600 400"><path fill="#096" d="M0 330h600v70H0zM0 0h600v70H0z"/><path d="M0 70h600v20H0zm0 240h600v20H0z"/><path fill="#009" d="M0 90h600v220H0z"/><path d="M290 95c-100 30-95 105-63 174l-38 36 69-25v-92c22-33 62-33 84 0v92l69 25-38-36c32-69 37-144-63-174l-10 43-10-43z" fill="#fff"/><path d="M338 197.05l-23.338 17.967L323.516 244l-23.497-17.805-23.474 17.77 8.817-28.97-23.362-18 28.946-.1L299.98 168l9.073 28.909 28.946.142z" fill="#fff"/></svg>