<svg xmlns="http://www.w3.org/2000/svg" width="704.2" height="797.96"><path d="M17.675 537.512c0-12.225-.224-14.453-14.79-16.559v-1.67h38.257v1.67c-13.344 1.771-13.685 5.111-13.685 16.559v39.801c.117 21.572-2.439 26.355-26.571 36.684L0 612.11c16.34-7.67 17.675-19.673 17.675-39.677v-34.92m42.068 25.68c-1.888 5.563-6.795 17.132-6.795 22.462 0 6.784 7.675 6.784 12.685 7.561v1.664H35.17v-1.664c9.9-2.67 10.895-4.893 14.34-13.57l12.557-32.795 6.68-18.12c.997-2.895 2.44-5.559 1.22-7.668 3.004-1.228 5.778-3.222 8.117-6.002l24.457 65.142c2.997 8.12 4.895 11.344 13.785 13.013v1.664H83.643v-1.664c3.892-.89 8.563-2.12 8.563-7.115 0-4.672-4.23-15.124-7.117-22.908zm12.34-34.018l-10.455 28.902h22.015zm98.047 49.475l20.125-44.251c2.78-6.104 4.332-11.675 1.884-13.336l.232-1.784h24.442v1.673c-7.105 1.444-11.437 4.11-10.997 11.893l2.447 40.471c1.221 15.447 1.221 17.901 13.106 19.903v1.661h-36.56v-1.661c8.559-1.339 14.002-2.338 13.447-12.122l-3.004-48.582h-.219l-28.341 62.365h-1.221l-26.356-59.81h-.211c-1.79 17.006-2.676 29.347-3.457 46.57-.218 4.34-.108 9.35 13.345 11.579v1.661h-31.008v-1.661c9.892-1.672 10.883-6.458 12.45-15.455l4.107-31.244 1.444-15.119c.674-7.342-5.668-9.898-12.224-10.449v-1.673h24.01l.109 1.225c-2.45 2.552.55 9.228 1.335 11.007l21.114 47.138m55.826 14.57c13.345-1.787 13.452-5.124 13.77-16.57v-39.137c-.318-11.452-.425-14.788-13.77-16.559v-1.67h59.694l-1.336 17.114h-1.658c-.787-14.334-11.127-14.453-22.348-14.453h-10.784v31.684h11.556c8.338 0 14.68-.663 15.898-10.217h1.668v24.786h-1.668c-1.449-9.774-7.56-9.902-15.898-9.902h-11.556v18.24c0 6.552-1.558 15.673 16.673 15.673 14.01 0 20.897-5.323 23.677-19.341h1.662c-.107 8.449-1.544 15.344-3.768 22.013h-61.812v-1.661m116.51-54.372h-1.774c-1.779-9.004-4.667-17.678-15.674-17.678-7.126 0-13.009 4.891-13.009 12.234 0 19.226 35.016 18.561 35.016 41.022 0 14.335-14.235 21.792-27.01 21.792-6.797 0-13.907-2-19.562-5.67l-3.235-18.902h1.995c2.78 10.676 10.23 21.238 22.463 21.238 8.217 0 14.684-4.89 14.684-13.563 0-19.792-34.02-18.012-34.02-40.25 0-13.01 12.894-21.229 24.78-21.229 5.67 0 11.344 1.66 16.241 4.327l-.895 16.679m98.41 3.336h-1.672c-2.116-12.564-9.459-21.562-22.787-21.562-20.35 0-31.81 16.666-31.81 35.792 0 21.911 16.782 37.128 32.922 37.128 14.548 0 20.332-10.666 25.336-22.673l1.568.668c-1.35 6.788-3.45 13.453-6.123 19.9-7.112 3.444-14.788 4.781-22.685 4.781-23.241 0-43.915-13.342-43.915-38.469 0-19.788 15.454-39.803 44.808-39.803 8.455 0 17.012 1.674 24.358 6.007v18.23m90.729 14.903c0 23.903-17.344 39.124-40.693 39.124-23.45 0-40.695-15.221-40.695-39.232 0-23.69 17.352-39.034 40.588-39.034 28.467 0 40.8 19.348 40.8 39.142M463.12 554.3c0 17.233 9.115 39.244 29.127 39.244 18.336 0 26.468-18.679 26.468-34.568-.342-19.69-11.794-38.357-28.806-38.357-19.125 0-26.789 18.666-26.789 33.681m157.77 2.785c0 23.903-17.34 39.124-40.685 39.124-23.462 0-40.696-15.221-40.696-39.232 0-23.69 17.347-39.034 40.59-39.034 28.456 0 40.792 19.348 40.792 39.142m-68.486-2.785c0 17.233 9.12 39.244 29.131 39.244 18.353 0 26.465-18.679 26.465-34.568-.34-19.69-11.79-38.357-28.806-38.357-19.106 0-26.79 18.666-26.79 33.681m94.096 22.35c.33 11.449.439 14.786 14.788 16.566v1.664h-38.366v-1.664c13.353-1.78 13.454-5.117 13.786-16.567v-39.137c-.332-11.452-.433-14.788-13.786-16.559v-1.674h35.353v1.674c-11.336 1.771-11.445 5.107-11.775 16.559zm50.25-57.371v1.674c-12.675 1.332-21.122 12.116-29.352 20.674l-10.45 11.12 22.572 24.898c6.783 7.454 14.791 14.118 24.675 16.896l-.556 1.676c-19.343-1.56-22.45-2.117-32.915-13.565l-22.677-24.688 17.904-19.448c11.67-13.116 9.447-16.788 1.993-17.563v-1.674h28.806M89.718 623.627v1.661c-10.117 1.112-10.787 7.348-11.223 22.019l-.677 24.344c-.324 14.356-6.441 28.906-31.122 28.906-34.459 0-30.905-24.906-30.905-33.79V641.86c-.342-11.461-.449-14.784-13.793-16.572v-1.661h38.365v1.661c-14.572 2.116-14.79 4.34-14.79 16.572v22.79c0 2.117-3.565 30.802 26.9 30.802 24.017 0 21.683-22.904 21.683-36.476v-11.67c0-14.12-1.11-20.56-16.672-22.018v-1.661h32.234m77.361 58.147l-.556-40.583c-.115-10.564-2.998-13.679-15.562-15.903v-1.661h30.336v1.661c-7.669 1.004-9.106 5.23-9.994 12.459-1.56 12.22-1.004 39.022-.448 63.258l-1.438.34c-17.79-21.006-37.577-40.48-56.368-60.717V661.1c0 27.567-.663 33.233 15.455 36.456v1.68H95.272v-1.68c15.005-1.55 14.443-11.79 14.443-37.012v-16.681c0-11.12-1.777-15.46-15.894-18.575v-1.661h18.341l54.917 58.147m42.533-.771c.333 11.44.456 14.782 13.784 16.56v1.673h-37.347v-1.673c13.332-1.778 13.455-5.12 13.779-16.56V641.86c-.324-11.461-.447-14.784-13.779-16.572v-1.661h37.347v1.661c-13.328 1.788-13.45 5.11-13.784 16.572v39.143m99.724-57.376v1.661c-10.456.897-13.673 9.673-20.565 25.797l-21.246 50.697h-1.55l-25.119-60.137c-3.34-8.132-5.897-15.245-15.788-16.357v-1.661h35.239v1.661c-15.68 1.56-10.566 10.456-7.676 17.464l17.782 42.913L283.55 654.2c9.547-22.796 11.328-26.461-5.566-28.912v-1.661h31.353m1 73.929c13.354-1.77 13.462-5.112 13.787-16.553V641.86c-.325-11.461-.433-14.784-13.787-16.572v-1.661h59.708l-1.33 17.121h-1.671c-.787-14.348-11.127-14.456-22.355-14.456h-10.776v31.687h11.563c8.324 0 14.677-.664 15.893-10.23h1.678v24.799h-1.678c-1.442-9.78-7.569-9.888-15.893-9.888h-11.563v18.228c0 6.552-1.557 15.67 16.682 15.67 13.997 0 20.9-5.333 23.673-19.34h1.668c-.11 8.447-1.553 15.34-3.777 22.018h-61.822v-1.68m83.704-51.033c0-17.008-.56-19.562-13.009-20.679v-1.548l27.13-.89c28.011-.893 30.235 12.78 30.235 18.12 0 9.338-5.778 14.677-13.78 18.24l.55.778c8.564 14.999 19.233 34.124 37.588 37.914l-.343 1.657c-11.79-.557-20.455-.216-26.903-6.887-7.338-7.67-13.116-17.45-15.448-22.247-4.456-9.218-8.453-6.545-16.236-7.892v17.914c0 12.225.215 14.442 15.45 16.553v1.68h-39.02v-1.68c13.337-1.77 13.445-5.112 13.786-16.553zm9.784 14.684c10.67-.107 23.127-5.004 23.127-17.344 0-13.015-11.456-18.24-23.127-18.127v35.47m100.996-18.013h-1.776c-1.778-9.009-4.672-17.684-15.672-17.684-7.121 0-13.002 4.89-13.002 12.238 0 19.233 35.009 18.564 35.009 41.032 0 14.329-14.23 21.778-27.01 21.778-6.783 0-13.907-1.997-19.578-5.674l-3.21-18.884h1.99c2.787 10.67 10.227 21.23 22.468 21.23 8.22 0 14.661-4.886 14.661-13.555 0-19.794-34.008-18.02-34.008-40.26 0-13.015 12.887-21.229 24.78-21.229 5.678 0 11.348 1.662 16.244 4.335l-.896 16.673m32.512 37.81c.328 11.44.448 14.782 13.787 16.56v1.673h-37.365v-1.673c13.356-1.778 13.462-5.12 13.801-16.56V641.86c-.339-11.461-.445-14.784-13.801-16.572v-1.661h37.365v1.661c-13.339 1.788-13.459 5.11-13.787 16.572v39.143m87.207-60.82h.879l1.56 20.793-1.56.328c-3.89-13.792-9.992-14.343-22.78-14.343h-6.688v51.368c0 13.774.678 17.456 15.58 19.227v1.687h-40.914v-1.687c14.892-1.77 15.555-5.453 15.555-19.227v-51.368h-6.656c-12.797 0-18.912.551-22.81 14.343l-1.54-.328 1.54-20.793h.9l1.111.998c2.783 2.559 3.232 2.446 6.89 2.446h50.932c3.661 0 4.106.113 6.886-2.446l1.115-.998m75.843 3.444v1.661c-9.675.783-14.446 6.116-19.124 14.127l-13.116 26.006v12.587c.226 12.768.441 17.33 14.673 19.548v1.68h-39.139v-1.68c14.236-2.217 14.467-6.78 14.675-19.548v-8.91l-11.553-25.235c-4.23-9.338-7.231-17.236-18.466-18.575v-1.661h30.692v1.661c-9.121 1.232-7.894 4.896-4.328 12.68l11.107 24.016 9.67-18.348c6.894-12.896 6.006-17.116-3.654-18.348v-1.661h28.563m-685.069 97.54H693.34v2.268H15.314v-2.268M238.753 263.83c-7.849 4.531-19.065 7.36-31.522 7.36-12.479 0-23.683-2.829-31.535-7.351-7.847-4.524-19.073-7.348-31.521-7.348-12.458 0-23.703 2.824-31.532 7.348-7.859 4.522-19.074 7.35-31.542 7.35-12.457 0-23.673-2.828-31.514-7.35-7.858-4.524-19.066-7.348-31.54-7.348-1.166 0-2.32.044-3.483.093v29.177c0 4.419.161 8.667.411 12.854 1.02-.036 2.043-.09 3.071-.09 12.475 0 23.683 2.832 31.541 7.368 7.841 4.518 19.057 7.34 31.514 7.34 12.468 0 23.683-2.822 31.542-7.34 7.83-4.536 19.074-7.368 31.532-7.368 12.448 0 23.674 2.832 31.521 7.368 7.852 4.518 19.056 7.34 31.535 7.34 12.457 0 23.673-2.822 31.522-7.349 7.85-4.527 19.066-7.359 31.514-7.359 1.057 0 2.068.054 3.088.09.25-4.187.402-8.435.402-12.854v-29.177a80.045 80.045 0 00-3.49-.093c-12.448 0-23.664 2.824-31.514 7.34m-31.523 91.45c-12.467 0-23.691-2.824-31.534-7.341-7.847-4.527-19.073-7.368-31.521-7.368-12.458 0-23.693 2.841-31.532 7.368-7.859 4.517-19.074 7.341-31.542 7.341-12.457.01-23.673-2.824-31.514-7.341-6.984-4.033-16.622-6.704-27.413-7.233 5.52 18.482 13.696 34.025 23.345 47.264 1.434.636 2.799 1.282 4.068 2.016 7.841 4.518 19.057 7.36 31.514 7.35 12.468 0 23.683-2.832 31.542-7.35 7.839-4.526 19.074-7.376 31.532-7.376 12.448 0 23.674 2.832 31.521 7.376 7.843 4.518 19.067 7.35 31.535 7.35 12.457 0 23.673-2.832 31.522-7.35 1.268-.743 2.647-1.388 4.07-2.026 9.656-13.229 17.806-28.772 23.336-47.254-10.803.529-20.442 3.2-27.406 7.233-7.849 4.517-19.065 7.341-31.522 7.341m-31.535 76.744c-7.847-4.508-19.073-7.349-31.521-7.349-12.458 0-23.693 2.841-31.532 7.35-3.783 2.186-8.34 3.943-13.438 5.217 18.074 12.082 34.784 20.964 44.97 29.472 10.177-8.508 26.886-17.39 44.961-29.472-5.097-1.274-9.657-3.031-13.44-5.218m63.057-252.292c-7.849 4.527-19.065 7.372-31.522 7.372-12.479 0-23.683-2.845-31.535-7.372-7.847-4.508-19.073-7.342-31.521-7.342-12.458 0-23.703 2.834-31.532 7.342-7.859 4.527-19.074 7.372-31.542 7.372-12.457 0-23.673-2.845-31.514-7.372-7.858-4.508-19.066-7.342-31.54-7.342-1.166 0-2.32.04-3.483.089v42.047c1.163-.04 2.317-.08 3.482-.08 12.475 0 23.683 2.821 31.541 7.34 7.841 4.538 19.057 7.361 31.514 7.361 12.468 0 23.683-2.823 31.542-7.361 7.83-4.519 19.074-7.34 31.532-7.34 12.448 0 23.674 2.821 31.521 7.34 7.852 4.538 19.056 7.361 31.535 7.361 12.457 0 23.673-2.823 31.522-7.361 7.85-4.519 19.066-7.34 31.514-7.34 1.2 0 2.345.04 3.49.089V172.48c-1.145-.05-2.29-.09-3.49-.09-12.448 0-23.664 2.835-31.514 7.343m-94.578-86.348c-23.467 0-42.49 19.02-42.49 42.484 0 2.115.213 4.186.509 6.216 3.899-1.176 7.428-2.661 10.45-4.404 7.828-4.506 19.073-7.342 31.53-7.342 12.449 0 23.675 2.836 31.522 7.342 3.023 1.746 6.555 3.228 10.457 4.412.299-2.038.506-4.104.506-6.224 0-23.464-19.022-42.484-42.484-42.484zM86.27 105.864c-.847.125-1.688.359-2.549.517-2.247.382-4.376.436-6.527.355-2.202-.072-4.8-.601-6.267-1.552-.375 2.212 2.362 5.13 4.68 6.695 1.587 1.086 3.261 2.02 5.036 2.605.697.248 1.389.367 2.081.625 2.127.743 4.214 2.107 5.865 3.57 2.15 1.894 3.928 4.301 5.573 6.425a50.557 50.557 0 017.178-17.17c-2.242-.8-4.666-1.665-7.312-2.07a25.887 25.887 0 00-7.758 0zm154.953 30.013l-46.643-8.357c.463 2.715.76 5.512.76 8.353 0 2.844-.297 5.618-.76 8.35zM93.721 127.52l-46.616 8.357 46.635 8.346c-.426-2.732-.74-5.506-.74-8.35 0-2.841.314-5.638.721-8.353zm112.614-11.372c.52-.71.93-1.47 1.454-2.163 1.29-1.87 2.763-3.404 4.318-4.868 1.62-1.496 3.838-2.982 5.569-3.346-1.316-1.798-5.321-1.964-8.07-1.424-1.883.37-3.674.869-5.398 1.714-.672.33-1.247.738-1.923 1.056-2.025.952-4.452 1.482-6.684 1.604-2.83.192-5.801-.265-8.466-.614h-.042a50.898 50.898 0 017.132 17.218c2.163-1.018 4.448-2.125 6.608-3.692a26.067 26.067 0 005.502-5.485zm-91.267-22.315L85.742 77.424l16.358 29.339c3.545-5.067 7.91-9.448 12.968-12.93zm71.163 12.93l16.364-29.339-29.318 16.41a51.13 51.13 0 0112.954 12.929zM152.776 85.48L144.175 0l-8.612 85.481c2.812-.457 5.66-.768 8.612-.768 2.924 0 5.781.311 8.601.768zm-38.417-9.646c.323.645.736 1.248 1.05 1.913.956 2.039 1.5 4.464 1.62 6.663.166 2.865-.27 5.834-.616 8.478v.059a50.55 50.55 0 0117.21-7.141c-1.02-2.16-2.112-4.475-3.694-6.608-1.396-1.923-3.337-3.912-5.475-5.471-.71-.525-1.46-.955-2.182-1.452-1.866-1.32-3.386-2.78-4.867-4.336-1.492-1.63-2.974-3.845-3.33-5.584-1.812 1.328-1.957 5.32-1.423 8.083.381 1.904.877 3.688 1.707 5.396zm59.833 9.909a26.91 26.91 0 000-7.785c-.13-.844-.393-1.68-.535-2.539-.38-2.25-.446-4.352-.38-6.512.103-2.199.595-4.83 1.583-6.301-2.2-.336-5.124 2.377-6.699 4.704-1.094 1.617-2.006 3.244-2.608 5.05-.244.663-.382 1.396-.61 2.058-.764 2.128-2.126 4.234-3.578 5.898-1.908 2.106-4.3 3.915-6.456 5.522 0 0 0 .017-.008.017a51.275 51.275 0 0117.21 7.188c.797-2.256 1.632-4.685 2.081-7.3M52.032 775.721l-9.31-21.544-9.235 21.544zM38.49 742.868h8.77l23.7 54.245H60.957l-5.463-13.004h-25.47l-5.539 13.004H14.79l23.7-54.245m35.761 31.392v-31.008h9.465v30.624c0 10.004 5.154 15.312 13.62 15.312 8.386 0 13.542-5 13.542-14.928v-31.008h9.464v30.544c0 16.085-9.08 24.164-23.16 24.164-14.004 0-22.93-8.079-22.93-23.7m51.692 15.003l5.692-6.77c5.157 4.462 10.388 7.004 17.007 7.004 5.848 0 9.541-2.772 9.541-6.773v-.156c0-3.847-2.155-5.922-12.157-8.228-11.464-2.773-17.93-6.161-17.93-16.085v-.155c0-9.23 7.696-15.62 18.391-15.62 7.847 0 14.08 2.387 19.545 6.773l-5.078 7.156c-4.848-3.617-9.695-5.541-14.62-5.541-5.542 0-8.772 2.847-8.772 6.385v.154c0 4.157 2.462 6 12.849 8.464 11.388 2.772 17.236 6.849 17.236 15.775v.154c0 10.08-7.925 16.081-19.236 16.081-8.232 0-16.005-2.847-22.468-8.618m63.773-37.239h-17.081v-8.772h43.705v8.772H199.26v45.09h-9.543v-45.09m58.388 17.928c6.771 0 11.08-3.543 11.08-9.006v-.154c0-5.768-4.154-8.923-11.158-8.923h-13.774v18.083zm-23.314-26.7h24.006c6.772 0 12.08 1.999 15.544 5.383 2.847 2.927 4.46 6.928 4.46 11.618v.155c0 8.852-5.306 14.16-12.772 16.315l14.543 20.39h-11.233l-13.235-18.776h-11.85v18.776h-9.463v-53.86m93.009 32.468l-9.31-21.544-9.234 21.544zm-13.543-32.853h8.771l23.7 54.245h-10.004l-5.463-13.004h-25.47l-5.538 13.004h-9.697l23.701-54.245m42.224.384h9.463v45.243h28.316v8.618h-37.779v-53.86m46.615-.001h9.461v53.861h-9.461v-53.86m56.009 32.468l-9.31-21.544-9.234 21.544zm-13.542-32.853h8.77l23.702 54.245H458.03l-5.463-13.004h-25.47l-5.54 13.004h-9.695l23.7-54.245"/></svg>