<svg xmlns="http://www.w3.org/2000/svg" viewBox="0 0 237.83 174.83" height="233.107" width="317.107"><defs><clipPath id="a"><path d="M166 113h2v61.828h-2zm0 0"/></clipPath><clipPath id="b"><path d="M3 162h13v12.828H3zm0 0"/></clipPath><clipPath id="c"><path d="M16 162h11v12.828H16zm0 0"/></clipPath><clipPath id="d"><path d="M27 162h10v12.828H27zm0 0"/></clipPath><clipPath id="e"><path d="M37 162h11v12.828H37zm0 0"/></clipPath><clipPath id="f"><path d="M49 162h11v12.828H49zm0 0"/></clipPath><clipPath id="g"><path d="M61 162h13v12.828H61zm0 0"/></clipPath><clipPath id="h"><path d="M75 162h10v12.828H75zm0 0"/></clipPath><clipPath id="i"><path d="M86 162h3v12.828h-3zm0 0"/></clipPath><clipPath id="j"><path d="M90 162h13v12.828H90zm0 0"/></clipPath><clipPath id="k"><path d="M207 122h30.828v34H207zm0 0"/></clipPath><clipPath id="l"><path d="M190 168h4v6.828h-4zm0 0"/></clipPath><clipPath id="m"><path d="M194 168h6v6.828h-6zm0 0"/></clipPath><clipPath id="n"><path d="M199 168h6v6.828h-6zm0 0"/></clipPath><clipPath id="o"><path d="M203 168h6v6.828h-6zm0 0"/></clipPath><clipPath id="p"><path d="M215 168h6v6.828h-6zm0 0"/></clipPath><clipPath id="q"><path d="M220 168h6v6.828h-6zm0 0"/></clipPath><clipPath id="r"><path d="M225 168h6v6.828h-6zm0 0"/></clipPath><clipPath id="s"><path d="M230 168h6v6.828h-6zm0 0"/></clipPath></defs><g clip-path="url(#a)"><path d="M167.184 113.664h-.52v61.094h.52v-61.094"/></g><path d="M3.871 117.754c0-2.68-.047-3.164-3.238-3.625v-.367h8.379v.367c-2.922.387-2.996 1.117-2.996 3.625v8.719c.023 4.726-.536 5.773-5.82 8.039L0 134.098c3.578-1.684 3.871-4.313 3.871-8.692v-7.652m9.219 5.629c-.414 1.215-1.492 3.75-1.492 4.918 0 1.488 1.683 1.488 2.78 1.656v.363H7.704v-.363c2.172-.586 2.387-1.07 3.14-2.973l2.755-7.183 1.46-3.969c.22-.637.536-1.219.27-1.68a4.604 4.604 0 001.777-1.316l5.36 14.27c.656 1.78 1.07 2.484 3.02 2.851v.363h-7.16v-.363c.85-.195 1.874-.465 1.874-1.559 0-1.023-.926-3.312-1.558-5.015zm2.7-7.453l-2.29 6.328h4.824zm21.48 10.836l4.41-9.692c.61-1.34.949-2.558.41-2.922l.055-.39h5.351v.363c-1.555.316-2.504.902-2.406 2.605l.535 8.868c.266 3.382.266 3.922 2.871 4.359v.363h-8.012v-.363c1.875-.293 3.07-.512 2.946-2.656l-.657-10.64h-.046l-6.211 13.66h-.266l-5.773-13.102h-.047c-.39 3.726-.586 6.43-.758 10.203-.047.95-.024 2.047 2.922 2.535v.363H25.8v-.363c2.168-.367 2.387-1.414 2.73-3.383l.899-6.847.316-3.313c.149-1.605-1.242-2.168-2.676-2.289v-.363h5.258l.024.265c-.536.559.12 2.024.293 2.414l4.625 10.325m12.231 3.191c2.922-.39 2.945-1.121 3.016-3.629v-8.574c-.07-2.508-.094-3.238-3.016-3.625v-.367h13.078l-.293 3.75h-.363c-.176-3.14-2.438-3.168-4.899-3.168h-2.359v6.941h2.531c1.825 0 3.215-.144 3.48-2.238h.368v5.43h-.367c-.317-2.141-1.656-2.168-3.48-2.168h-2.532v3.996c0 1.433-.344 3.433 3.652 3.433 3.067 0 4.579-1.168 5.188-4.238h.363a15.274 15.274 0 01-.828 4.82H49.5v-.363m25.523-11.91h-.39c-.387-1.973-1.02-3.871-3.43-3.871-1.562 0-2.851 1.07-2.851 2.68 0 4.21 7.671 4.066 7.671 8.984 0 3.14-3.12 4.773-5.918 4.773-1.488 0-3.046-.437-4.285-1.242l-.71-4.14h.437c.61 2.34 2.242 4.652 4.922 4.652 1.8 0 3.215-1.07 3.215-2.969 0-4.336-7.45-3.945-7.45-8.816 0-2.852 2.825-4.653 5.426-4.653 1.242 0 2.488.364 3.559.95l-.196 3.652m21.559.73h-.367c-.465-2.754-2.07-4.722-4.992-4.722-4.457 0-6.97 3.652-6.97 7.84 0 4.8 3.677 8.132 7.216 8.132 3.187 0 4.453-2.336 5.55-4.964l.34.144a22.939 22.939 0 01-1.34 4.36c-1.558.753-3.238 1.046-4.968 1.046-5.094 0-9.621-2.922-9.621-8.425 0-4.336 3.386-8.72 9.816-8.72 1.852 0 3.727.368 5.336 1.317v3.992m19.875 3.266c0 5.234-3.8 8.57-8.914 8.57-5.137 0-8.914-3.336-8.914-8.593 0-5.192 3.8-8.551 8.89-8.551 6.235 0 8.938 4.238 8.938 8.574m-15.004-.61c0 3.774 2 8.598 6.383 8.598 4.016 0 5.797-4.094 5.797-7.574-.074-4.312-2.582-8.402-6.309-8.402-4.191 0-5.87 4.09-5.87 7.379m34.566.609c0 5.234-3.801 8.57-8.915 8.57-5.14 0-8.918-3.336-8.918-8.593 0-5.192 3.801-8.551 8.895-8.551 6.234 0 8.938 4.238 8.938 8.574m-15.004-.61c0 3.774 1.996 8.598 6.379 8.598 4.023 0 5.8-4.094 5.8-7.574-.078-4.312-2.586-8.402-6.312-8.402-4.188 0-5.867 4.09-5.867 7.379m20.613 4.894c.07 2.508.098 3.238 3.238 3.629v.363h-8.402v-.363c2.922-.39 2.945-1.121 3.015-3.629v-8.574c-.07-2.508-.093-3.238-3.015-3.625v-.367h7.742v.367c-2.48.387-2.508 1.117-2.578 3.625zm11.008-12.566v.367c-2.778.289-4.63 2.652-6.43 4.527l-2.289 2.438 4.941 5.453c1.489 1.633 3.243 3.094 5.407 3.7l-.121.366c-4.239-.34-4.918-.46-7.211-2.968l-4.965-5.41 3.922-4.262c2.554-2.871 2.066-3.676.433-3.844v-.367h6.313M19.656 136.621v.363c-2.218.243-2.363 1.61-2.46 4.825l-.15 5.332c-.07 3.144-1.41 6.332-6.816 6.332-7.55 0-6.77-5.457-6.77-7.403v-5.457c-.073-2.511-.1-3.238-3.022-3.629v-.363h8.406v.363c-3.196.461-3.242.95-3.242 3.63v4.991c0 .465-.782 6.75 5.894 6.75 5.262 0 4.75-5.02 4.75-7.992v-2.554c0-3.094-.242-4.504-3.652-4.825v-.363h7.062m16.946 12.739l-.122-8.891c-.027-2.317-.656-3-3.41-3.485v-.363h6.645v.363c-1.68.22-1.992 1.145-2.188 2.73-.343 2.677-.218 8.548-.097 13.856l-.317.075c-3.894-4.602-8.23-8.868-12.347-13.301v4.484c0 6.04-.145 7.281 3.386 7.988v.368h-7.28v-.368c3.284-.34 3.163-2.586 3.163-8.109v-3.656c0-2.434-.39-3.387-3.48-4.067v-.363h4.015l12.032 12.738m9.316-.171c.074 2.507.102 3.238 3.02 3.628v.368h-8.18v-.368c2.922-.39 2.949-1.12 3.02-3.629v-8.574c-.071-2.511-.098-3.238-3.02-3.629v-.363h8.18v.363c-2.918.391-2.946 1.118-3.02 3.63v8.573m21.848-12.566v.363c-2.29.196-2.996 2.118-4.504 5.653l-4.657 11.105h-.34l-5.5-13.176c-.734-1.78-1.292-3.34-3.46-3.582v-.363h7.718v.363c-3.433.34-2.312 2.29-1.68 3.825l3.895 9.402 2.88-6.895c2.089-4.992 2.48-5.796-1.22-6.332v-.363h6.868m.218 16.195c2.926-.39 2.95-1.12 3.02-3.629v-8.574c-.07-2.511-.094-3.238-3.02-3.629v-.363h13.082l-.293 3.75h-.367c-.172-3.144-2.437-3.168-4.894-3.168h-2.364v6.942h2.536c1.824 0 3.214-.145 3.48-2.243h.367v5.434h-.367c-.316-2.14-1.656-2.164-3.48-2.164h-2.536v3.992c0 1.434-.34 3.434 3.657 3.434 3.066 0 4.578-1.168 5.183-4.239h.367c-.023 1.852-.34 3.36-.828 4.825H67.984v-.368m18.336-11.179c0-3.727-.12-4.285-2.847-4.532v-.34l5.941-.195c6.137-.195 6.625 2.801 6.625 3.97 0 2.046-1.266 3.218-3.02 3.995l.122.172c1.875 3.285 4.214 7.477 8.234 8.305l-.074.363c-2.582-.121-4.48-.047-5.895-1.508-1.61-1.68-2.875-3.824-3.383-4.875-.976-2.02-1.851-1.433-3.558-1.726v3.922c0 2.68.047 3.164 3.387 3.628v.368H83.3v-.368c2.922-.39 2.945-1.12 3.02-3.629zm2.145 3.215c2.336-.024 5.066-1.094 5.066-3.801 0-2.848-2.508-3.992-5.066-3.969v7.77m22.125-3.946h-.39c-.388-1.972-1.02-3.875-3.43-3.875-1.563 0-2.852 1.07-2.852 2.684 0 4.21 7.672 4.066 7.672 8.988 0 3.137-3.117 4.77-5.918 4.77-1.484 0-3.047-.438-4.29-1.243l-.702-4.136h.437c.61 2.336 2.238 4.648 4.922 4.648 1.8 0 3.211-1.07 3.211-2.969 0-4.335-7.45-3.945-7.45-8.82 0-2.851 2.821-4.648 5.427-4.648 1.246 0 2.488.363 3.558.949l-.195 3.652m7.125 8.282c.07 2.507.097 3.238 3.02 3.628v.368h-8.188v-.368c2.926-.39 2.95-1.12 3.023-3.629v-8.574c-.074-2.511-.097-3.238-3.023-3.629v-.363h8.187v.363c-2.921.391-2.949 1.118-3.02 3.63v8.573m19.102-13.324h.192l.344 4.559-.344.07c-.852-3.023-2.188-3.14-4.988-3.14h-1.465v11.25c0 3.02.148 3.824 3.414 4.214v.368h-8.965v-.368c3.262-.39 3.406-1.195 3.406-4.214v-11.25h-1.457c-2.805 0-4.14.117-4.996 3.14l-.34-.07.34-4.559h.195l.246.219c.61.563.707.54 1.508.54h11.156c.805 0 .903.023 1.508-.54l.246-.219m16.618.758v.363c-2.121.172-3.168 1.34-4.192 3.094l-2.875 5.695v2.758c.051 2.797.098 3.797 3.215 4.285v.368h-8.574v-.368c3.12-.488 3.172-1.488 3.215-4.285v-1.949l-2.532-5.531c-.925-2.043-1.582-3.774-4.043-4.067v-.363h6.723v.363c-2 .27-1.73 1.07-.95 2.778l2.434 5.261 2.122-4.02c1.507-2.823 1.312-3.75-.801-4.019v-.363h6.258M3.355 157.988h148.536v.496H3.355v-.496M52.305 57.8c-1.723.993-4.176 1.61-6.907 1.61-2.734 0-5.187-.617-6.91-1.61-1.718-.987-4.175-1.609-6.902-1.609-2.73 0-5.195.621-6.91 1.61-1.719.992-4.18 1.61-6.91 1.61-2.727 0-5.184-.618-6.903-1.61-1.722-.989-4.175-1.61-6.91-1.61-.254 0-.508.008-.762.02v6.394c0 .97.036 1.899.09 2.817.223-.012.446-.024.672-.024 2.735 0 5.188.622 6.91 1.618 1.719.988 4.176 1.605 6.903 1.605 2.73 0 5.191-.617 6.91-1.605 1.715-.996 4.18-1.618 6.91-1.618 2.727 0 5.184.622 6.902 1.618 1.723.988 4.176 1.605 6.91 1.605 2.73 0 5.184-.617 6.907-1.61 1.718-.991 4.175-1.613 6.902-1.613.23 0 .453.012.676.024.054-.918.09-1.848.09-2.817v-6.394c-.254-.012-.504-.02-.766-.02-2.727 0-5.184.621-6.902 1.61m-6.907 20.031c-2.73 0-5.191-.617-6.91-1.605-1.718-.993-4.175-1.614-6.902-1.614-2.73 0-5.191.621-6.91 1.614-1.719.988-4.18 1.605-6.91 1.605-2.727.004-5.184-.617-6.903-1.605-1.531-.887-3.64-1.47-6.008-1.586a33.942 33.942 0 005.118 10.355 9 9 0 01.89.442c1.719.988 4.176 1.613 6.903 1.609 2.73 0 5.191-.621 6.91-1.61 1.719-.992 4.18-1.617 6.91-1.617 2.727 0 5.184.621 6.902 1.618 1.719.988 4.18 1.609 6.91 1.609 2.73 0 5.184-.621 6.907-1.61.277-.164.578-.304.89-.445 2.114-2.898 3.899-6.3 5.114-10.351-2.368.117-4.48.699-6.004 1.586-1.723.988-4.176 1.605-6.907 1.605m-6.91 16.813c-1.718-.989-4.175-1.61-6.902-1.61-2.73 0-5.191.621-6.91 1.61-.828.48-1.828.867-2.942 1.144 3.957 2.648 7.618 4.594 9.852 6.457 2.227-1.863 5.887-3.808 9.848-6.457-1.118-.277-2.118-.664-2.946-1.144m13.817-55.266c-1.723.988-4.176 1.613-6.907 1.613-2.734 0-5.187-.625-6.91-1.613-1.718-.988-4.175-1.61-6.902-1.61-2.73 0-5.195.622-6.91 1.61-1.719.988-4.18 1.613-6.91 1.613-2.727 0-5.184-.625-6.903-1.613-1.722-.988-4.175-1.61-6.91-1.61-.254 0-.508.008-.762.02V47c.254-.008.508-.02.762-.02 2.735 0 5.188.618 6.91 1.61 1.719.996 4.176 1.613 6.903 1.613 2.73 0 5.191-.617 6.91-1.613 1.715-.992 4.18-1.61 6.91-1.61 2.727 0 5.184.618 6.902 1.61 1.723.996 4.176 1.613 6.91 1.613 2.73 0 5.184-.617 6.907-1.613 1.718-.992 4.175-1.61 6.902-1.61.262 0 .512.012.766.02v-9.21c-.254-.013-.504-.02-.766-.02-2.727 0-5.184.62-6.902 1.609M31.586 20.46c-5.14 0-9.309 4.169-9.309 9.306 0 .464.047.918.11 1.363a10.785 10.785 0 002.289-.965c1.715-.988 4.18-1.61 6.91-1.61 2.727 0 5.184.622 6.902 1.61a11.12 11.12 0 002.293.969c.063-.45.11-.903.11-1.367 0-5.137-4.168-9.305-9.305-9.305zm-12.688 2.735c-.183.028-.367.078-.558.114a7.103 7.103 0 01-1.43.078c-.48-.016-1.05-.133-1.37-.34-.083.484.515 1.121 1.023 1.465.347.238.714.441 1.105.57.152.055.3.082.453.137.469.164.926.46 1.285.781.473.418.864.945 1.223 1.41.289-1.36.832-2.633 1.57-3.762-.488-.175-1.02-.363-1.601-.453a5.627 5.627 0 00-1.7 0zm33.946 6.575l-10.215-1.832c.098.597.164 1.207.164 1.832 0 .62-.066 1.23-.164 1.828zM20.53 27.938L10.32 29.77l10.214 1.828a11.78 11.78 0 01-.16-1.828c0-.625.066-1.235.156-1.832zm24.672-2.489c.113-.156.203-.324.317-.476.28-.41.605-.746.945-1.067.355-.328.84-.652 1.222-.73-.289-.395-1.167-.434-1.769-.313a4.494 4.494 0 00-1.184.375c-.144.07-.273.16-.418.23a4.129 4.129 0 01-1.464.352c-.622.043-1.274-.058-1.856-.133h-.012a11.013 11.013 0 011.563 3.77c.476-.223.976-.465 1.45-.809a5.654 5.654 0 001.206-1.199zm-19.996-4.89l-6.426-3.594 3.586 6.426c.778-1.11 1.73-2.07 2.84-2.832zm15.59 2.832l3.586-6.426-6.422 3.594a11.167 11.167 0 012.836 2.832zm-7.328-4.66L31.586.003 29.699 18.73a11.487 11.487 0 011.887-.168c.637 0 1.266.067 1.883.168zm-8.418-2.114c.07.14.164.274.23.418.211.445.328.977.356 1.461.035.625-.059 1.277-.133 1.856v.011a11.058 11.058 0 013.77-1.562c-.227-.473-.465-.98-.81-1.45a5.91 5.91 0 00-1.198-1.199c-.157-.113-.32-.207-.48-.316a7.363 7.363 0 01-1.067-.95c-.324-.359-.649-.843-.73-1.222-.395.29-.427 1.164-.31 1.77.083.418.192.808.372 1.183zm13.11 2.168a5.919 5.919 0 000-1.703c-.028-.187-.087-.367-.118-.559a7.04 7.04 0 01-.082-1.425c.02-.48.129-1.059.344-1.38-.48-.073-1.121.52-1.465 1.032a4.28 4.28 0 00-.57 1.105c-.055.145-.086.305-.137.45-.168.468-.465.93-.781 1.293-.418.46-.946.855-1.414 1.21 0 0 0 .005-.004.005 1.363.292 2.636.832 3.77 1.574.175-.496.358-1.028.456-1.602"/><g clip-path="url(#b)"><path d="M11.398 169.938l-2.039-4.72-2.023 4.72zm-2.968-7.196h1.922l5.191 11.883h-2.191l-1.196-2.848H6.578l-1.215 2.848H3.238l5.192-11.883"/></g><g clip-path="url(#c)"><path d="M16.266 169.617v-6.793h2.074v6.711c0 2.192 1.129 3.352 2.984 3.352 1.836 0 2.965-1.094 2.965-3.27v-6.793h2.074v6.692c0 3.523-1.988 5.293-5.074 5.293-3.066 0-5.023-1.77-5.023-5.192"/></g><g clip-path="url(#d)"><path d="M27.59 172.906l1.246-1.484c1.133.976 2.277 1.535 3.727 1.535 1.28 0 2.09-.61 2.09-1.484v-.036c0-.843-.473-1.296-2.665-1.8-2.511-.61-3.925-1.352-3.925-3.524v-.035c0-2.023 1.683-3.422 4.027-3.422 1.719 0 3.086.524 4.281 1.485l-1.11 1.566c-1.062-.793-2.124-1.215-3.202-1.215-1.215 0-1.922.625-1.922 1.403v.03c0 .91.539 1.317 2.812 1.856 2.496.606 3.778 1.5 3.778 3.457v.032c0 2.207-1.739 3.523-4.215 3.523-1.801 0-3.504-.625-4.922-1.887"/></g><g clip-path="url(#e)"><path d="M41.563 164.746H37.82v-1.922h9.575v1.922h-3.743v9.879h-2.09v-9.879"/></g><g clip-path="url(#f)"><path d="M54.352 168.676c1.484 0 2.43-.778 2.43-1.973v-.035c0-1.262-.915-1.953-2.446-1.953h-3.02v3.96zm-5.11-5.852h5.262c1.484 0 2.644.438 3.406 1.18.621.64.977 1.52.977 2.547v.031c0 1.941-1.164 3.106-2.797 3.574l3.183 4.469h-2.46l-2.899-4.113h-2.598v4.113h-2.074v-11.8"/></g><g clip-path="url(#g)"><path d="M69.621 169.938l-2.039-4.72-2.023 4.72zm-2.969-7.196h1.922l5.192 11.883h-2.192l-1.195-2.848h-5.582l-1.211 2.848H61.46l5.191-11.883"/></g><g clip-path="url(#h)"><path d="M75.902 162.824h2.075v9.914h6.203v1.887h-8.278v-11.8"/></g><g clip-path="url(#i)"><path d="M86.113 162.824h2.075v11.801h-2.075v-11.8"/></g><g clip-path="url(#j)"><path d="M98.387 169.938l-2.043-4.72-2.02 4.72zm-2.969-7.196h1.922l5.191 11.883h-2.191l-1.195-2.848h-5.582l-1.211 2.848h-2.125l5.191-11.883"/></g><g clip-path="url(#k)"><path d="M207.547 139.25c0 9.559 6.492 16.395 15.14 16.395 8.653 0 15.141-6.836 15.141-16.395 0-9.555-6.488-16.395-15.14-16.395-8.649 0-15.141 6.84-15.141 16.395m7.957 0c0-8.93 2.86-13.602 7.184-13.602 4.328 0 7.187 4.672 7.187 13.602 0 7.883-2.86 13.605-7.188 13.605-4.324 0-7.183-5.722-7.183-13.605"/></g><path d="M208.836 159.234l-1.602 2.649-1.57-2.649h-1.691l2.53 3.993v2.597h1.45V163.2l2.531-3.965h-1.648m2.187-.001v6.59h5.02v-1.289h-3.578v-1.383h3.105v-1.293h-3.105v-1.332h3.527v-1.293h-4.969m8.297-.046l-2.824 6.636h1.48l.598-1.476h2.79l.6 1.476h1.516l-2.824-6.637zm.649 1.742l.875 2.136h-1.75zm4.113-1.696v6.59h1.45v-2.105h1.136l1.414 2.105h1.695l-1.613-2.351c.84-.313 1.414-.98 1.414-2.043v-.02c0-.62-.195-1.137-.566-1.508-.434-.43-1.078-.668-1.918-.668zm1.45 1.309h1.44c.704 0 1.137.32 1.137.941v.02c0 .555-.402.93-1.109.93h-1.469v-1.891m4.778.586v.02c0 1.308.855 1.671 2.183 2.011 1.102.281 1.328.473 1.328.836v.02c0 .386-.36.625-.953.625-.75 0-1.37-.313-1.965-.801l-.855 1.023a4.188 4.188 0 002.797 1.059c1.418 0 2.418-.738 2.418-2.047v-.016c0-1.148-.754-1.632-2.09-1.976-1.14-.293-1.422-.438-1.422-.867v-.02c0-.32.293-.574.848-.574.55 0 1.129.246 1.71.648l.755-1.09c-.668-.535-1.489-.84-2.45-.84-1.343 0-2.304.794-2.304 1.989m-25.699-32.582l-16.227 1.32-1.43 5.488c8.434.067 18.8 3.055 18.8 13.47 0 4.238-2.358 8.476-6.862 11.597-4.504 3.195-12.297 5.21-17.871 5.21l-.29-2.292c5.079-.695 17.73-3.262 17.73-13.055 0-7.5-7.788-9.168-15.155-9.234l2.86-16.875 19.589-1.602-1.145 5.973"/><g clip-path="url(#l)"><path d="M190.34 174.57c.902-.043 1.129-.12 1.222-.496l1.106-4.14c.148-.555.102-.754-.91-.79l.031-.113 2.137-.164-1.406 5.207c-.106.375.062.453.98.496l-.023.114h-3.165l.028-.114"/></g><g clip-path="url(#m)"><path d="M195.918 171.547c0 .746.277 1.043.746 1.043.79 0 1.606-1.059 1.606-2.406 0-.684-.25-1.196-.844-1.196-.918 0-1.508 1.508-1.508 2.559zm3.262-.817c0 2.25-1.813 3.903-4.809 4.102l.008-.125c2.309-.434 3.258-1.55 3.613-2.75l-.027-.02c-.426.575-.903.852-1.528.852-.992 0-1.484-.676-1.484-1.527 0-1.164 1.016-2.45 2.508-2.45 1.121 0 1.719.836 1.719 1.918"/></g><g clip-path="url(#n)"><path d="M199.313 174.707l4.332-4.957h-2.36c-.52 0-.715.14-1.234 1.05h-.106l.516-1.866h3.879l.027.097-2.379 3.297-1.668 2.442h-1.007v-.063"/></g><g clip-path="url(#o)"><path d="M205.777 174.621c1.371 0 2.16-2.762 2.16-4.297 0-.86-.277-1.336-.875-1.336-1.375 0-2.164 2.77-2.164 4.305 0 .86.278 1.328.88 1.328zm0 .184c-1.078 0-1.824-.754-1.824-2.137 0-1.633 1.207-3.856 3.11-3.856 1.074 0 1.824.758 1.824 2.137 0 1.633-1.211 3.856-3.11 3.856"/></g><path d="M211.05 172.25h2.223l-.097.36h-2.223l.098-.36"/><g clip-path="url(#p)"><path d="M215.29 174.074l2.124-1.492c1.234-.844 1.711-1.535 1.711-2.484 0-.72-.293-1.13-.918-1.13a1.38 1.38 0 00-1.121.618c.348.105.539.348.539.668 0 .34-.262.652-.637.652-.37 0-.613-.261-.613-.668 0-.773.867-1.425 1.96-1.425 1.185 0 1.798.617 1.798 1.363 0 .844-.668 1.414-2.996 2.875l-1.23.816v.024h2.23c.617 0 .836-.157 1.312-.91l.113.007-.488 1.696h-3.926l.141-.61"/></g><g clip-path="url(#q)"><path d="M222.273 174.621c1.372 0 2.16-2.762 2.16-4.297 0-.86-.277-1.336-.874-1.336-1.371 0-2.164 2.77-2.164 4.305 0 .86.277 1.328.878 1.328zm0 .184c-1.078 0-1.824-.754-1.824-2.137 0-1.633 1.207-3.856 3.11-3.856 1.074 0 1.824.758 1.824 2.137 0 1.633-1.211 3.856-3.11 3.856"/></g><g clip-path="url(#r)"><path d="M225.41 174.074l2.125-1.492c1.235-.844 1.711-1.535 1.711-2.484 0-.72-.293-1.13-.918-1.13a1.38 1.38 0 00-1.121.618c.348.105.54.348.54.668 0 .34-.263.652-.638.652-.37 0-.613-.261-.613-.668 0-.773.867-1.425 1.961-1.425 1.184 0 1.797.617 1.797 1.363 0 .844-.668 1.414-2.996 2.875l-1.23.816v.024h2.23c.617 0 .832-.157 1.308-.91l.118.007-.489 1.696h-3.925l.14-.61"/></g><g clip-path="url(#s)"><path d="M232.395 174.621c1.37 0 2.16-2.762 2.16-4.297 0-.86-.278-1.336-.875-1.336-1.371 0-2.164 2.77-2.164 4.305 0 .86.277 1.328.879 1.328zm0 .184c-1.079 0-1.825-.754-1.825-2.137 0-1.633 1.207-3.856 3.11-3.856 1.074 0 1.82.758 1.82 2.137 0 1.633-1.207 3.856-3.105 3.856"/></g><path d="M192.406 117.352c0-1.868 1.492-3.813 3.727-3.813.683 0 1.207.234 1.535.453l.477-.426h.14l-.566 2.059h-.137c-.383-1.453-.625-1.922-1.504-1.922-1.441 0-2.601 2.129-2.601 3.848 0 1.25.613 1.996 1.742 1.996.86 0 1.633-.59 2.293-1.469l.129.098c-.606.86-1.5 1.71-2.813 1.71-1.398 0-2.422-1.023-2.422-2.534m6.625.304c1.61-.027 1.887-.738 1.887-1.312 0-.34-.176-.489-.434-.489-.609 0-1.242.864-1.453 1.801zm-.023.137a2.338 2.338 0 00-.043.488c0 .797.25 1.196.945 1.196.453 0 .945-.286 1.278-.727l.113.094c-.469.633-1.051.972-1.754.972-.79 0-1.504-.476-1.504-1.52 0-1.312 1.078-2.62 2.484-2.62.79 0 1.18.383 1.18.894 0 .676-.852 1.258-2.7 1.223m3.985 1.023c-.031.141-.058.262-.058.368 0 .277.226.355.894.312v.086c-.164.07-.66.219-1.043.219-.496 0-.746-.203-.746-.594 0-.11.027-.25.07-.398l.918-3.047.426-1.614c.07-.277-.086-.41-.726-.445v-.101l1.812-.09-1.547 5.304m2.453-1.16c1.606-.027 1.883-.738 1.883-1.312 0-.34-.176-.489-.433-.489-.61 0-1.243.864-1.45 1.801zm-.027.137a2.338 2.338 0 00-.043.488c0 .797.254 1.196.945 1.196.453 0 .95-.286 1.278-.727l.113.094c-.469.633-1.05.972-1.754.972-.789 0-1.504-.476-1.504-1.52 0-1.312 1.078-2.62 2.484-2.62.79 0 1.18.383 1.18.894 0 .676-.847 1.258-2.699 1.223m6.02-.781c0-.563-.22-.895-.676-.895-.282 0-.575.184-.825.418l-.707 2.719c.106.258.348.398.637.398.903 0 1.57-1.539 1.57-2.64zm-1.66 2.804c-.59 0-1.024-.136-1.485-.511l.523-1.782.848-3.375c.078-.277-.086-.41-.726-.445v-.101l1.832-.09-.793 2.804.027.02c.41-.426.816-.66 1.297-.66.597 0 1.054.46 1.054 1.32 0 1.32-1.082 2.82-2.578 2.82m6.715-3.543c0 .391-.234.66-.554.66-.293 0-.512-.148-.512-.46 0-.086.023-.25.113-.348-.34.02-.773.383-1.121.793l-.695 2.82h-.946l.414-1.406.54-1.988c.078-.278-.008-.406-.547-.442v-.105l1.574-.078-.29.937.02.016c.38-.527.895-.988 1.364-.988.425 0 .64.27.64.59m.813 2.164c0 .605.207.996.632.996.336 0 .649-.336.891-.762l.617-2.059c-.058-.433-.3-.738-.625-.738-.86 0-1.515 1.691-1.515 2.563zm2.367.378c-.05.184-.086.34-.086.454 0 .25.219.312.754.27v.085c-.227.086-.59.184-.875.184-.445 0-.688-.106-.688-.496 0-.07.008-.157.043-.293l-.015-.012c-.41.582-.782.808-1.285.808-.696 0-1.157-.511-1.157-1.39 0-1.364 1.184-2.75 2.336-2.75.504 0 .711.226.88.554l.155-.453.91-.101-.468 1.398-.504 1.742m3.258-2.863l-.73 2.613a1.709 1.709 0 00-.079.454c0 .277.156.398.48.398.208 0 .52-.055.77-.121v.086c-.273.164-.777.433-1.293.433-.598 0-.867-.261-.867-.718 0-.149.027-.317.078-.496l.774-2.649h-.774l.063-.191h.761l.375-1.285.946-.141-.454 1.426h1.086l-.058.191h-1.078m3.101-2.293c.227 0 .426.149.426.453 0 .399-.285.762-.644.762-.223 0-.43-.164-.43-.469 0-.398.293-.746.648-.746zm-.18 5.93c-.167.07-.624.219-1.007.219-.496 0-.75-.211-.75-.59 0-.121.027-.254.07-.41l.766-2.465c.086-.285-.14-.406-.68-.442v-.105l1.766-.078-.957 3.11a1.31 1.31 0 00-.079.378c0 .27.22.332.872.297v.086m1.543-3.246c.082-.278-.008-.406-.547-.442v-.105l1.574-.078-.262.84.02.02c.52-.532 1.136-.888 1.62-.888.54 0 .825.297.825.801 0 .164-.023.363-.094.582l-.59 1.832a1.4 1.4 0 00-.09.39c0 .243.212.286.782.243v.086a2.57 2.57 0 01-.875.184c-.496 0-.754-.157-.754-.54 0-.105.023-.261.074-.417l.567-1.743c.058-.203.093-.347.093-.504 0-.27-.129-.425-.457-.425-.34 0-.746.226-1.156.582l-.738 2.976h-.946l.414-1.406.54-1.988m4.815 2.082c0 .61.24.906.692.906.325 0 .555-.176.79-.523l.66-2.23c-.094-.364-.336-.704-.684-.704-.895 0-1.457 1.691-1.457 2.55zm-.929-.078c0-1.266 1.102-2.672 2.266-2.672.492 0 .738.199.937.492l.137-.39.922-.102-.469 1.406-.765 2.719c-.329 1.152-.86 1.676-2.145 1.676-.945 0-1.406-.426-1.406-.844 0-.363.246-.625.574-.625.305 0 .477.207.477.496 0 .2-.13.39-.313.492.121.2.371.313.66.313.66 0 1.031-.528 1.301-1.457l.211-.739-.027-.008c-.348.415-.668.633-1.164.633-.653 0-1.196-.504-1.196-1.39"/></svg>