<svg xmlns="http://www.w3.org/2000/svg" height="291.227" width="647.147"><path d="M139.89 164.632c-4.898 2.826-11.896 4.59-19.67 4.59-7.786 0-14.777-1.764-19.677-4.585-4.896-2.822-11.901-4.585-19.668-4.585-7.774 0-14.79 1.763-19.676 4.585-4.903 2.821-11.901 4.586-19.681 4.586-7.773 0-14.771-1.765-19.664-4.586-4.903-2.822-11.897-4.585-19.681-4.585-.727 0-1.447.027-2.173.057v18.207c0 2.758.1 5.408.257 8.02.636-.021 1.274-.056 1.916-.056 7.784 0 14.778 1.768 19.681 4.599 4.893 2.818 11.891 4.58 19.664 4.58 7.78 0 14.778-1.762 19.681-4.58 4.886-2.831 11.902-4.6 19.676-4.6 7.767 0 14.772 1.769 19.668 4.6 4.9 2.818 11.89 4.58 19.678 4.58 7.773 0 14.771-1.762 19.67-4.587 4.897-2.824 11.896-4.592 19.662-4.592.66 0 1.291.035 1.927.056.157-2.612.252-5.262.252-8.02V160.11c-.715-.03-1.43-.057-2.179-.057-7.766 0-14.765 1.763-19.662 4.58m-19.671 57.062c-7.779 0-14.783-1.762-19.677-4.58-4.896-2.826-11.901-4.598-19.668-4.598-7.774 0-14.784 1.772-19.676 4.598-4.903 2.818-11.901 4.58-19.681 4.58-7.773.006-14.771-1.762-19.664-4.58-4.358-2.516-10.371-4.183-17.106-4.514 3.446 11.532 8.546 21.23 14.567 29.492.895.398 1.746.799 2.54 1.258 4.892 2.818 11.89 4.592 19.663 4.586 7.78 0 14.778-1.768 19.681-4.586 4.892-2.824 11.902-4.603 19.676-4.603 7.767 0 14.772 1.768 19.668 4.603 4.894 2.818 11.898 4.586 19.678 4.586 7.773 0 14.771-1.768 19.67-4.586.79-.464 1.65-.867 2.538-1.264 6.026-8.256 11.11-17.954 14.562-29.486-6.742.33-12.755 1.998-17.1 4.514-4.899 2.818-11.897 4.58-19.67 4.58m-19.678 47.888c-4.896-2.814-11.901-4.588-19.668-4.588-7.774 0-14.784 1.774-19.676 4.588-2.36 1.363-5.203 2.46-8.384 3.254 11.278 7.54 21.704 13.082 28.06 18.39 6.35-5.308 16.777-10.85 28.055-18.39-3.181-.793-6.026-1.89-8.387-3.254m39.347-157.426c-4.898 2.824-11.896 4.6-19.67 4.6-7.786 0-14.777-1.776-19.677-4.6-4.896-2.813-11.901-4.582-19.668-4.582-7.774 0-14.79 1.769-19.676 4.582-4.903 2.824-11.901 4.6-19.681 4.6-7.773 0-14.771-1.776-19.664-4.6-4.903-2.813-11.897-4.582-19.681-4.582-.727 0-1.447.025-2.173.056v26.236c.726-.024 1.446-.05 2.173-.05 7.784 0 14.778 1.76 19.681 4.58 4.893 2.832 11.891 4.594 19.664 4.594 7.78 0 14.778-1.762 19.681-4.594 4.886-2.82 11.902-4.58 19.676-4.58 7.767 0 14.772 1.76 19.668 4.58 4.9 2.832 11.89 4.594 19.678 4.594 7.773 0 14.771-1.762 19.67-4.594 4.897-2.82 11.896-4.58 19.662-4.58.75 0 1.464.026 2.179.056v-26.242a49.703 49.703 0 00-2.179-.056c-7.766 0-14.765 1.769-19.662 4.582" fill="#0066b3"/><path d="M80.875 58.277c-14.643 0-26.512 11.868-26.512 26.51 0 1.318.132 2.612.316 3.878 2.434-.734 4.636-1.661 6.52-2.748 4.886-2.812 11.902-4.581 19.676-4.581 7.767 0 14.772 1.77 19.668 4.581 1.886 1.09 4.09 2.014 6.526 2.754.186-1.272.315-2.562.315-3.884 0-14.642-11.869-26.51-26.51-26.51zm-36.131 7.787c-.529.077-1.053.224-1.59.323-1.402.237-2.73.27-4.073.221-1.374-.045-2.995-.375-3.91-.97-.235 1.382 1.472 3.203 2.92 4.18.99.677 2.034 1.258 3.142 1.625.435.154.867.228 1.298.39 1.327.463 2.63 1.314 3.66 2.227 1.34 1.181 2.451 2.684 3.477 4.01a31.555 31.555 0 014.479-10.714c-1.398-.5-2.911-1.039-4.563-1.292a16.126 16.126 0 00-4.84 0zm96.688 18.728l-29.104-5.216c.288 1.696.474 3.44.474 5.213 0 1.775-.186 3.506-.474 5.21zm-92.04-5.216l-29.087 5.216 29.099 5.207c-.266-1.704-.462-3.435-.462-5.21 0-1.773.196-3.517.45-5.213zm70.27-7.096c.324-.443.58-.917.907-1.348.804-1.17 1.724-2.125 2.695-3.039 1.01-.933 2.394-1.86 3.474-2.088-.82-1.121-3.32-1.225-5.035-.888-1.176.231-2.293.543-3.369 1.07-.419.205-.778.46-1.2.658-1.263.594-2.778.924-4.17 1-1.767.122-3.62-.164-5.283-.382h-.026a31.763 31.763 0 014.45 10.745c1.35-.636 2.776-1.327 4.124-2.305a16.277 16.277 0 003.433-3.423zm-56.95-13.924L44.415 48.317 54.62 66.624c2.212-3.161 4.936-5.895 8.092-8.068zm44.405 8.068l10.21-18.307-18.292 10.239a31.945 31.945 0 018.082 8.068zM86.242 53.345L80.875.007 75.5 53.345c1.755-.285 3.532-.48 5.374-.48 1.824 0 3.607.195 5.367.48zM62.27 47.327c.202.401.46.778.655 1.193.597 1.272.938 2.785 1.011 4.157.104 1.788-.167 3.642-.384 5.291v.036a31.572 31.572 0 0110.738-4.456c-.636-1.348-1.317-2.792-2.304-4.123a16.007 16.007 0 00-3.416-3.413c-.443-.33-.912-.596-1.362-.907-1.165-.824-2.113-1.734-3.037-2.705-.93-1.016-1.856-2.4-2.078-3.484-1.131.83-1.22 3.319-.888 5.043.238 1.189.547 2.301 1.065 3.368zm37.335 6.182a16.816 16.816 0 000-4.857c-.08-.528-.246-1.05-.334-1.584-.236-1.405-.279-2.716-.236-4.064.063-1.372.37-3.013.987-3.932-1.374-.21-3.198 1.484-4.18 2.935-.683 1.01-1.252 2.025-1.627 3.152-.152.414-.239.87-.382 1.284-.477 1.328-1.326 2.642-2.23 3.68-1.193 1.313-2.685 2.442-4.03 3.445 0 0 0 .01-.005.01a31.989 31.989 0 0110.738 4.486c.498-1.408 1.019-2.924 1.3-4.555" fill="#e7b20f"/><path d="M196.73 119.875c0-8.022-.147-9.484-9.703-10.864v-1.098h25.1v1.098c-8.755 1.161-8.979 3.352-8.979 10.864v26.112c.077 14.152-1.6 17.29-17.433 24.066l-.582-1.237c10.72-5.033 11.598-12.908 11.598-26.032v-22.91m27.599 16.849c-1.238 3.65-4.458 11.24-4.458 14.736 0 4.452 5.035 4.452 8.323 4.961v1.092h-19.988v-1.092c6.496-1.752 7.149-3.21 9.409-8.903l8.239-21.516 4.382-11.889c.654-1.899 1.602-3.647.8-5.03 1.971-.806 3.791-2.114 5.326-3.938l16.045 42.739c1.967 5.326 3.212 7.442 9.045 8.537v1.092h-21.442v-1.092c2.553-.584 5.617-1.39 5.617-4.668 0-3.065-2.775-9.923-4.67-15.03zm8.095-22.319l-6.858 18.963h14.444zm64.327 32.459l13.204-29.031c1.824-4.005 2.843-7.66 1.236-8.75l.152-1.17h16.036v1.097c-4.661.947-7.504 2.696-7.215 7.803l1.606 26.552c.8 10.133.8 11.744 8.6 13.059v1.089h-23.987v-1.09c5.615-.878 9.185-1.534 8.821-7.953l-1.97-31.873h-.143l-18.595 40.916h-.801l-17.292-39.24h-.139c-1.173 11.157-1.754 19.253-2.268 30.553-.142 2.847-.07 6.135 8.756 7.598v1.089H262.41v-1.09c6.491-1.097 7.14-4.237 8.168-10.14l2.695-20.498.948-9.919c.441-4.817-3.72-6.494-8.02-6.856v-1.097h15.752l.07.803c-1.605 1.674.362 6.054.877 7.221l13.853 30.927m36.624 9.56c8.755-1.174 8.827-3.363 9.035-10.872v-25.676c-.208-7.515-.28-9.703-9.035-10.864v-1.098h39.164l-.876 11.228h-1.088c-.516-9.404-7.3-9.481-14.661-9.481h-7.075v20.788h7.58c5.472 0 9.631-.436 10.431-6.704h1.095v16.261h-1.095c-.95-6.412-4.959-6.496-10.43-6.496h-7.58v11.967c0 4.299-1.025 10.283 10.937 10.283 9.192 0 13.71-3.492 15.534-12.69h1.09c-.07 5.543-1.014 10.067-2.472 14.443h-40.554v-1.09m76.44-35.672h-1.164c-1.168-5.907-3.061-11.598-10.282-11.598-4.676 0-8.535 3.208-8.535 8.027 0 12.613 22.973 12.177 22.973 26.913 0 9.404-9.34 14.296-17.721 14.296-4.459 0-9.124-1.31-12.833-3.72l-2.123-12.4h1.308c1.823 7.004 6.712 13.933 14.737 13.933 5.391 0 9.635-3.208 9.635-8.898 0-12.984-22.32-11.816-22.32-26.407 0-8.536 8.46-13.928 16.257-13.928 3.72 0 7.443 1.09 10.655 2.839l-.587 10.944m64.564 2.188h-1.096c-1.388-8.244-6.205-14.147-14.949-14.147-13.352 0-20.872 10.935-20.872 23.483 0 14.374 11.012 24.358 21.601 24.358 9.544 0 13.339-6.998 16.622-14.874l1.029.437c-.885 4.453-2.264 8.827-4.017 13.056-4.666 2.26-9.702 3.136-14.884 3.136-15.248 0-28.811-8.753-28.811-25.237 0-12.983 10.139-26.114 29.397-26.114 5.547 0 11.162 1.098 15.98 3.94v11.962m59.526 9.776c0 15.682-11.379 25.668-26.698 25.668-15.384 0-26.698-9.986-26.698-25.738 0-15.542 11.385-25.61 26.628-25.61 18.677 0 26.768 12.694 26.768 25.68m-44.93-1.827c0 11.307 5.979 25.748 19.11 25.748 12.029 0 17.364-12.255 17.364-22.68-.223-12.919-7.738-25.165-18.898-25.165-12.548 0-17.576 12.246-17.576 22.097m103.51 1.827c0 15.682-11.376 25.668-26.694 25.668-15.393 0-26.698-9.986-26.698-25.738 0-15.542 11.38-25.61 26.629-25.61 18.67 0 26.763 12.694 26.763 25.68m-44.931-1.827c0 11.307 5.983 25.748 19.11 25.748 12.042 0 17.365-12.255 17.365-22.68-.224-12.919-7.738-25.165-18.9-25.165-12.535 0-17.575 12.246-17.575 22.097m61.734 14.662c.215 7.511.287 9.702 9.702 10.87v1.092H593.82v-1.092c8.76-1.168 8.827-3.359 9.044-10.87v-25.675c-.217-7.515-.284-9.703-9.044-10.864v-1.099h23.193v1.099c-7.436 1.161-7.508 3.349-7.724 10.864zm32.966-37.638v1.099c-8.315.873-13.857 7.949-19.256 13.564l-6.856 7.294 14.81 16.336c4.447 4.89 9.702 9.262 16.187 11.084l-.364 1.1c-12.69-1.022-14.73-1.389-21.596-8.9l-14.878-16.196 11.748-12.761c7.656-8.604 6.197-11.015 1.308-11.521v-1.099h18.897m-398.26 68.46v1.09c-6.637.73-7.077 4.82-7.363 14.446l-.445 15.972c-.212 9.417-4.225 18.964-20.417 18.964-22.608 0-20.278-16.341-20.278-22.17v-16.34c-.224-7.518-.293-9.7-9.048-10.872v-1.09h25.17v1.09c-9.56 1.389-9.703 2.847-9.703 10.873v14.952c0 1.388-2.34 20.206 17.648 20.206 15.757 0 14.227-15.025 14.227-23.929v-7.656c0-9.264-.73-13.488-10.939-14.446v-1.09h21.148m50.754 38.148l-.365-26.625c-.074-6.93-1.965-8.974-10.208-10.433v-1.09h19.902v1.09c-5.031.66-5.975 3.431-6.558 8.174-1.022 8.017-.658 25.601-.293 41.503l-.943.224c-11.672-13.784-24.654-26.559-36.982-39.836v13.43c0 18.086-.435 21.805 10.14 23.92v1.1H247.64v-1.1c9.844-1.017 9.476-7.737 9.476-24.285V189.65c0-7.297-1.167-10.145-10.428-12.188v-1.09h12.033l36.03 38.148m27.904-.505c.218 7.506.3 9.7 9.045 10.865v1.097h-24.503v-1.097c8.747-1.165 8.827-3.359 9.039-10.865v-25.68c-.212-7.519-.292-9.7-9.039-10.873v-1.09H331.7v1.09c-8.745 1.173-8.827 3.354-9.045 10.873v25.68m65.428-37.643v1.09c-6.86.588-8.971 6.346-13.494 16.925l-13.938 33.261h-1.018l-16.478-39.453c-2.192-5.337-3.87-10.003-10.359-10.733v-1.09h23.12v1.09c-10.288 1.025-6.932 6.86-5.037 11.458l11.666 28.154 8.619-20.643c6.263-14.956 7.432-17.36-3.652-18.97v-1.089h20.57m.657 48.504c8.761-1.161 8.832-3.355 9.045-10.861v-25.68c-.213-7.519-.284-9.7-9.045-10.873v-1.09h39.173l-.873 11.232h-1.096c-.516-9.412-7.3-9.483-14.666-9.483h-7.07v20.788h7.586c5.462 0 9.63-.434 10.427-6.71h1.1v16.269h-1.1c-.947-6.417-4.965-6.487-10.427-6.487h-7.586v11.958c0 4.3-1.022 10.28 10.944 10.28 9.184 0 13.712-3.498 15.532-12.687h1.094c-.072 5.542-1.02 10.064-2.478 14.445h-40.56v-1.1m54.917-33.484c0-11.158-.368-12.833-8.536-13.566v-1.015l17.8-.585c18.377-.584 19.836 8.385 19.836 11.888 0 6.126-3.79 9.629-9.04 11.968l.36.509c5.619 9.841 12.619 22.39 24.66 24.876l-.224 1.085c-7.733-.364-13.42-.14-17.65-4.517-4.814-5.033-8.606-11.45-10.134-14.596-2.925-6.048-5.548-4.295-10.655-5.177v11.752c0 8.021.142 9.476 10.139 10.861v1.101h-25.601v-1.1c8.749-1.162 8.821-3.356 9.045-10.862zm6.417 9.635c7.002-.07 15.174-3.284 15.174-11.378 0-8.54-7.515-11.969-15.174-11.894v23.272m66.263-11.818h-1.165c-1.167-5.911-3.066-11.603-10.282-11.603-4.672 0-8.532 3.21-8.532 8.029 0 12.619 22.97 12.18 22.97 26.919 0 9.4-9.336 14.289-17.722 14.289-4.449 0-9.124-1.31-12.844-3.723l-2.105-12.39h1.305c1.828 7 6.71 13.929 14.74 13.929 5.394 0 9.62-3.205 9.62-8.892 0-12.988-22.312-11.823-22.312-26.413 0-8.539 8.454-13.928 16.258-13.928 3.724 0 7.445 1.09 10.657 2.843l-.588 10.94m21.331 24.805c.216 7.506.293 9.7 9.045 10.865v1.097h-24.516v-1.097c8.763-1.165 8.833-3.359 9.056-10.865v-25.68c-.223-7.519-.293-9.7-9.056-10.873v-1.09h24.516v1.09c-8.752 1.173-8.83 3.354-9.045 10.873v25.68m57.214-39.903h.575l1.025 13.643-1.025.216c-2.55-9.05-6.555-9.411-14.945-9.411h-4.388v33.702c0 9.035.446 11.453 10.222 12.614v1.107h-26.841v-1.107c9.77-1.161 10.205-3.579 10.205-12.614V178.56h-4.366c-8.396 0-12.41.361-14.967 9.41l-1.01-.215 1.01-13.643h.59l.73.656c1.825 1.677 2.12 1.604 4.52 1.604h33.415c2.402 0 2.694.073 4.518-1.604l.732-.656m49.759 2.26v1.09c-6.35.514-9.477 4.013-12.548 9.269l-8.605 17.06v8.259c.149 8.378.29 11.37 9.628 12.826v1.101h-25.678v-1.1c9.339-1.457 9.49-4.449 9.627-12.827v-5.845l-7.58-16.555c-2.775-6.127-4.744-11.31-12.113-12.188v-1.09h20.136v1.09c-5.986.808-5.18 3.213-2.84 8.32l7.286 15.755 6.344-12.038c4.523-8.459 3.94-11.229-2.398-12.037v-1.09h18.741m-449.46 63.993h444.84v1.488H195.18v-1.488m24.09 35.792l-6.107-14.133-6.059 14.133zm-8.885-21.553h5.755l15.55 35.588h-6.565l-3.584-8.532h-16.709l-3.633 8.532h-6.362l15.548-35.588m23.463 20.595v-20.344h6.21v20.091c0 6.563 3.382 10.047 8.935 10.047 5.503 0 8.886-3.28 8.886-9.794v-20.344h6.209v20.04c0 10.551-5.957 15.853-15.196 15.853-9.187 0-15.044-5.302-15.044-15.55m33.915 9.845l3.734-4.442c3.383 2.927 6.816 4.595 11.158 4.595 3.836 0 6.26-1.819 6.26-4.444v-.101c0-2.526-1.414-3.886-7.976-5.4-7.522-1.818-11.763-4.04-11.763-10.552v-.102c0-6.056 5.05-10.249 12.065-10.249 5.15 0 9.239 1.567 12.824 4.444l-3.332 4.697c-3.181-2.376-6.361-3.637-9.592-3.637-3.636 0-5.756 1.867-5.756 4.19v.1c0 2.728 1.616 3.938 8.431 5.554 7.47 1.817 11.308 4.492 11.308 10.35v.1c0 6.612-5.199 10.55-12.62 10.55-5.401 0-10.501-1.868-14.741-5.653m41.84-24.433h-11.207v-5.755h28.675v5.754h-11.207v29.583h-6.261v-29.583m38.307 11.765c4.442 0 7.269-2.326 7.269-5.91v-.1c0-3.785-2.726-5.855-7.32-5.855h-9.038v11.865zm-15.297-17.52h15.751c4.443 0 7.925 1.313 10.199 3.533 1.866 1.92 2.926 4.546 2.926 7.622v.102c0 5.808-3.482 9.29-8.38 10.704l9.54 13.377h-7.368l-8.685-12.317h-7.775v12.317h-6.208v-35.337m61.022 21.302l-6.108-14.133-6.059 14.133zm-8.884-21.553h5.753l15.55 35.588h-6.563l-3.584-8.532h-16.711l-3.633 8.532H369.2l15.55-35.588m27.702.251h6.21v29.684h18.575v5.653h-24.785v-35.337m30.583 0h6.208v35.337h-6.208v-35.337m36.748 21.302l-6.108-14.133-6.059 14.133zm-8.886-21.553h5.755l15.548 35.588h-6.563l-3.584-8.532h-16.709l-3.635 8.532h-6.361l15.55-35.588"/></svg>