<svg xmlns="http://www.w3.org/2000/svg" width="157.854" height="63.632"><defs><clipPath id="a"><path d="M48.245-225.085H206.1v-63.632H48.245z" transform="translate(-48.245 288.717)"/></clipPath></defs><g clip-path="url(#a)"><path d="M30.739 8.733 5.11 34.362a2.994 2.994 0 0 1-4.233 0 2.994 2.994 0 0 1 0-4.233L26.506 4.5a2.994 2.994 0 0 1 4.233 0 2.994 2.994 0 0 1 0 4.233m16.93 16.93L22.04 51.292a2.994 2.994 0 0 1-4.233 0 2.994 2.994 0 0 1 0-4.233L43.436 21.43a2.994 2.994 0 0 1 4.233 0 2.994 2.994 0 0 1 0 4.233m5.469 11.463L27.509 62.755a2.994 2.994 0 0 1-4.233 0 2.994 2.994 0 0 1 0-4.233l25.629-25.629a2.994 2.994 0 0 1 4.233 0 2.994 2.994 0 0 1 0 4.233M48.621 7.78 8.647 47.754a2.992 2.992 0 0 1-4.231 0 2.991 2.991 0 0 1 0-4.233L44.388 3.547a2.994 2.994 0 0 1 4.233 0 2.994 2.994 0 0 1 0 4.233" fill="#d2d4d5"/><path d="M41.33 6.606 15.701 32.235a2.994 2.994 0 0 1-4.233 0 2.994 2.994 0 0 1 0-4.233L37.097 2.373a2.994 2.994 0 0 1 4.233 0 2.994 2.994 0 0 1 0 4.233m3.566 13.364L15.701 49.165a2.994 2.994 0 0 1-4.233 0 2.994 2.994 0 0 1 0-4.233l29.198-29.195a2.994 2.994 0 0 1 4.233 0 2.994 2.994 0 0 1 0 4.233m12.597 4.333L31.867 49.932a2.994 2.994 0 0 1-4.233 0 2.994 2.994 0 0 1 0-4.233L53.263 20.07a2.994 2.994 0 0 1 4.233 0 2.994 2.994 0 0 1 0 4.233" fill="#d72027"/><path d="M68.495.338h1.4v12.048h-1.4zm10.68 12.048V6.544a2.358 2.358 0 0 0-.503-1.648 2.05 2.05 0 0 0-1.575-.543 2.593 2.593 0 0 0-2.076.766 3.879 3.879 0 0 0-.659 2.531v4.736h-1.367V3.354h1.112l.222 1.236h.066a2.773 2.773 0 0 1 1.179-1.033 3.818 3.818 0 0 1 1.688-.368 3.436 3.436 0 0 1 2.457.787 3.356 3.356 0 0 1 .823 2.52v5.89zm10.357 0V6.544a2.358 2.358 0 0 0-.503-1.648 2.048 2.048 0 0 0-1.575-.543 2.593 2.593 0 0 0-2.076.766 3.879 3.879 0 0 0-.659 2.531v4.736h-1.367V3.354h1.112l.222 1.236h.066a2.792 2.792 0 0 1 1.179-1.033 3.818 3.818 0 0 1 1.688-.368 3.436 3.436 0 0 1 2.457.787 3.35 3.35 0 0 1 .823 2.52v5.89zm5.093-4.525a4.3 4.3 0 0 0 .69 2.637 2.406 2.406 0 0 0 2.038.906 2.419 2.419 0 0 0 2.039-.9 4.271 4.271 0 0 0 .695-2.643 4.2 4.2 0 0 0-.695-2.616 2.446 2.446 0 0 0-2.055-.892 2.41 2.41 0 0 0-2.028.88 4.246 4.246 0 0 0-.684 2.628m6.88 0a4.988 4.988 0 0 1-1.112 3.448 3.914 3.914 0 0 1-3.074 1.244 4.07 4.07 0 0 1-2.15-.569 3.741 3.741 0 0 1-1.451-1.631 5.694 5.694 0 0 1-.511-2.492 4.971 4.971 0 0 1 1.105-3.44 3.9 3.9 0 0 1 3.068-1.232 3.817 3.817 0 0 1 3.008 1.264 4.966 4.966 0 0 1 1.117 3.408m4.376 4.524-3.427-9.032h1.465l1.946 5.357a25.179 25.179 0 0 1 .774 2.439h.066a18.667 18.667 0 0 1 .574-1.809q.481-1.371 2.163-5.987h1.467l-3.427 9.032zm8.941-.964a2.787 2.787 0 0 0 2.008-.7 2.6 2.6 0 0 0 .729-1.961v-.816l-1.369.057a4.978 4.978 0 0 0-2.354.508 1.53 1.53 0 0 0-.72 1.392 1.408 1.408 0 0 0 .45 1.128 1.861 1.861 0 0 0 1.256.392m3.09.964-.271-1.284h-.062a3.815 3.815 0 0 1-1.352 1.149 4.121 4.121 0 0 1-1.676.3 3.016 3.016 0 0 1-2.105-.692 2.521 2.521 0 0 1-.767-1.97q0-2.735 4.375-2.868l1.533-.048v-.561a2.284 2.284 0 0 0-.458-1.57 1.882 1.882 0 0 0-1.462-.506 5.962 5.962 0 0 0-2.555.692l-.421-1.046a6.459 6.459 0 0 1 1.468-.57 6.331 6.331 0 0 1 1.593-.2 3.446 3.446 0 0 1 2.4.716 2.994 2.994 0 0 1 .779 2.3v6.158zm6.75-.964a4.512 4.512 0 0 0 .7-.053 4.425 4.425 0 0 0 .535-.111v1.046a2.469 2.469 0 0 1-.654.177 4.924 4.924 0 0 1-.779.069q-2.621 0-2.621-2.76V4.417h-1.292v-.659l1.293-.569.577-1.924h.791v2.092h2.62v1.064h-2.62v5.311a1.829 1.829 0 0 0 .387 1.253 1.345 1.345 0 0 0 1.062.437m4.408.963h-1.367V3.353h1.367zM127.588.906a.908.908 0 0 1 .231-.688.8.8 0 0 1 .575-.218.808.808 0 0 1 .569.222.889.889 0 0 1 .239.684.906.906 0 0 1-.239.688.8.8 0 0 1-.569.227.78.78 0 0 1-.575-.227.922.922 0 0 1-.231-.688m6.361 11.479-3.429-9.032h1.467l1.944 5.357a25.369 25.369 0 0 1 .775 2.439h.066a18.488 18.488 0 0 1 .572-1.809q.482-1.371 2.164-5.987h1.467l-3.427 9.032zm9.92-8.049a2.238 2.238 0 0 0-1.734.707 3.262 3.262 0 0 0-.762 1.962h4.723a3.011 3.011 0 0 0-.577-1.983 2.034 2.034 0 0 0-1.65-.686m.371 8.216a4.149 4.149 0 0 1-3.161-1.22 4.727 4.727 0 0 1-1.157-3.389 5.235 5.235 0 0 1 1.076-3.469 3.569 3.569 0 0 1 2.889-1.286 3.4 3.4 0 0 1 2.686 1.117 4.28 4.28 0 0 1 .988 2.947v.864h-6.221a3.574 3.574 0 0 0 .8 2.415 2.779 2.779 0 0 0 2.147.823 7.281 7.281 0 0 0 2.884-.609v1.22a7.247 7.247 0 0 1-1.372.448 7.732 7.732 0 0 1-1.562.137M69.895 24.201h1.922a3.316 3.316 0 0 0 2.174-.59 2.191 2.191 0 0 0 .692-1.766 2.012 2.012 0 0 0-.7-1.722 3.819 3.819 0 0 0-2.266-.53h-1.822zm0 1.2v5.01h-1.4V18.368h3.3a5.2 5.2 0 0 1 3.276.848 3.078 3.078 0 0 1 1.061 2.555 3.2 3.2 0 0 1-2.421 3.23l3.27 5.413h-1.657l-2.916-5.01zm12.269-3.034a2.233 2.233 0 0 0-1.734.707 3.262 3.262 0 0 0-.762 1.962h4.721a3.017 3.017 0 0 0-.575-1.983 2.036 2.036 0 0 0-1.65-.686m.371 8.216a4.149 4.149 0 0 1-3.161-1.22 4.727 4.727 0 0 1-1.157-3.389 5.235 5.235 0 0 1 1.076-3.469 3.567 3.567 0 0 1 2.889-1.285 3.4 3.4 0 0 1 2.686 1.116 4.28 4.28 0 0 1 .988 2.947v.866h-6.221a3.577 3.577 0 0 0 .8 2.415 2.783 2.783 0 0 0 2.147.823 7.284 7.284 0 0 0 2.884-.611v1.22a7.26 7.26 0 0 1-1.373.448 7.589 7.589 0 0 1-1.56.137m11.482-2.629a2.268 2.268 0 0 1-.938 1.945 4.432 4.432 0 0 1-2.637.683 5.732 5.732 0 0 1-2.8-.569v-1.268a6.842 6.842 0 0 0 1.4.519 5.835 5.835 0 0 0 1.436.189 3.247 3.247 0 0 0 1.643-.342 1.131 1.131 0 0 0 .579-1.043 1.135 1.135 0 0 0-.458-.9 7.286 7.286 0 0 0-1.784-.888 9.552 9.552 0 0 1-1.793-.82 2.428 2.428 0 0 1-.791-.795 2.075 2.075 0 0 1-.264-1.062 2.024 2.024 0 0 1 .9-1.743 4.181 4.181 0 0 1 2.463-.638 7.2 7.2 0 0 1 2.852.593l-.482 1.113a6.551 6.551 0 0 0-2.465-.561 2.836 2.836 0 0 0-1.467.3.942.942 0 0 0-.495.841 1.027 1.027 0 0 0 .185.617 1.843 1.843 0 0 0 .6.487 13.686 13.686 0 0 0 1.583.667 5.922 5.922 0 0 1 2.169 1.184 2.073 2.073 0 0 1 .564 1.491m5.668-5.585a2.229 2.229 0 0 0-1.732.707 3.253 3.253 0 0 0-.764 1.962h4.721a3.017 3.017 0 0 0-.575-1.983 2.036 2.036 0 0 0-1.65-.686m.371 8.216a4.145 4.145 0 0 1-3.16-1.22 4.72 4.72 0 0 1-1.158-3.389 5.235 5.235 0 0 1 1.076-3.469 3.567 3.567 0 0 1 2.889-1.285 3.4 3.4 0 0 1 2.686 1.116 4.28 4.28 0 0 1 .988 2.947v.866h-6.221a3.585 3.585 0 0 0 .8 2.415 2.785 2.785 0 0 0 2.147.823 7.284 7.284 0 0 0 2.884-.611v1.22a7.247 7.247 0 0 1-1.372.448 7.617 7.617 0 0 1-1.562.137m8.121-1.13a2.783 2.783 0 0 0 2.007-.7 2.592 2.592 0 0 0 .729-1.962v-.816l-1.369.058a5 5 0 0 0-2.354.506 1.529 1.529 0 0 0-.719 1.394 1.413 1.413 0 0 0 .448 1.133 1.868 1.868 0 0 0 1.258.387m3.09.964-.272-1.284h-.066a3.8 3.8 0 0 1-1.348 1.149 4.109 4.109 0 0 1-1.676.3 3.012 3.012 0 0 1-2.105-.693 2.525 2.525 0 0 1-.766-1.969q0-2.735 4.377-2.868l1.531-.048v-.561a2.286 2.286 0 0 0-.458-1.57 1.878 1.878 0 0 0-1.46-.506 5.956 5.956 0 0 0-2.555.692l-.421-1.046a6.475 6.475 0 0 1 1.465-.57 6.352 6.352 0 0 1 1.594-.2 3.441 3.441 0 0 1 2.394.716 3 3 0 0 1 .779 2.3v6.158zm7.953-9.196a5.229 5.229 0 0 1 1.08.1l-.192 1.269a4.69 4.69 0 0 0-.99-.124 2.408 2.408 0 0 0-1.875.89 3.244 3.244 0 0 0-.779 2.216v4.849h-1.364v-9.036h1.128l.156 1.673h.066a3.938 3.938 0 0 1 1.211-1.358 2.728 2.728 0 0 1 1.559-.479m6.377 9.361a3.854 3.854 0 0 1-3.036-1.207 4.963 4.963 0 0 1-1.075-3.416 5.113 5.113 0 0 1 1.093-3.5 3.927 3.927 0 0 1 3.107-1.238 6.167 6.167 0 0 1 1.3.14 4.324 4.324 0 0 1 1.022.329l-.415 1.163a6.55 6.55 0 0 0-.99-.3 4.457 4.457 0 0 0-.948-.119q-2.752 0-2.752 3.511a4.191 4.191 0 0 0 .671 2.553 2.339 2.339 0 0 0 1.991.89 6.079 6.079 0 0 0 2.314-.487v1.212a4.937 4.937 0 0 1-2.283.469m10.606-.166v-5.841a2.358 2.358 0 0 0-.5-1.649 2.046 2.046 0 0 0-1.573-.543 2.58 2.58 0 0 0-2.081.774 3.928 3.928 0 0 0-.654 2.539v4.72h-1.372V17.593h1.369v3.882a8.515 8.515 0 0 1-.066 1.161h.082a2.784 2.784 0 0 1 1.149-1.026 3.736 3.736 0 0 1 1.7-.376 3.491 3.491 0 0 1 2.484.787 3.321 3.321 0 0 1 .829 2.5v5.893zm-58.605 5.983v7.8a4.246 4.246 0 0 1-1.245 3.234 4.77 4.77 0 0 1-3.419 1.178 4.564 4.564 0 0 1-3.366-1.186 4.4 4.4 0 0 1-1.191-3.263v-7.763h1.4v7.862a3.1 3.1 0 0 0 .827 2.315 3.319 3.319 0 0 0 2.423.808 3.21 3.21 0 0 0 2.349-.811 3.123 3.123 0 0 0 .821-2.33v-7.844zm9.163 12.048v-5.842a2.358 2.358 0 0 0-.503-1.648 2.058 2.058 0 0 0-1.575-.543 2.593 2.593 0 0 0-2.076.766 3.879 3.879 0 0 0-.659 2.531v4.736h-1.367v-9.032h1.112l.222 1.236h.066a2.773 2.773 0 0 1 1.179-1.033 3.818 3.818 0 0 1 1.688-.368 3.436 3.436 0 0 1 2.457.787 3.356 3.356 0 0 1 .823 2.52v5.89zm5.546 0h-1.367v-9.032h1.367zm-1.483-11.481a.9.9 0 0 1 .23-.687.8.8 0 0 1 .575-.218.8.8 0 0 1 .569.222.886.886 0 0 1 .239.682.9.9 0 0 1-.239.688.794.794 0 0 1-.569.227.785.785 0 0 1-.575-.227.918.918 0 0 1-.23-.688m6.362 11.482-3.429-9.032h1.467l1.946 5.357a25.179 25.179 0 0 1 .773 2.439h.066a18.667 18.667 0 0 1 .574-1.809q.481-1.371 2.163-5.987h1.468l-3.429 9.032zm9.92-8.049a2.238 2.238 0 0 0-1.734.707 3.272 3.272 0 0 0-.762 1.962h4.723a3.017 3.017 0 0 0-.577-1.983 2.031 2.031 0 0 0-1.65-.686m.371 8.216a4.149 4.149 0 0 1-3.161-1.22 4.727 4.727 0 0 1-1.157-3.389 5.235 5.235 0 0 1 1.076-3.469 3.567 3.567 0 0 1 2.889-1.285 3.4 3.4 0 0 1 2.686 1.116 4.28 4.28 0 0 1 .988 2.947v.866h-6.221a3.573 3.573 0 0 0 .8 2.413 2.779 2.779 0 0 0 2.147.823 7.281 7.281 0 0 0 2.884-.609v1.22a7.377 7.377 0 0 1-1.372.45 7.863 7.863 0 0 1-1.562.135m9.777-9.362a5.35 5.35 0 0 1 1.08.1l-.192 1.269a4.69 4.69 0 0 0-.99-.124 2.408 2.408 0 0 0-1.875.89 3.244 3.244 0 0 0-.779 2.216v4.849h-1.364v-9.036h1.128l.156 1.673h.066a3.962 3.962 0 0 1 1.213-1.36 2.729 2.729 0 0 1 1.557-.477m8.595 6.733a2.265 2.265 0 0 1-.94 1.946 4.428 4.428 0 0 1-2.637.683 5.73 5.73 0 0 1-2.8-.569v-1.269a6.793 6.793 0 0 0 1.4.519 5.772 5.772 0 0 0 1.438.189 3.265 3.265 0 0 0 1.647-.34 1.135 1.135 0 0 0 .573-1.045 1.13 1.13 0 0 0-.458-.901 7.177 7.177 0 0 0-1.784-.885 9.687 9.687 0 0 1-1.791-.821 2.416 2.416 0 0 1-.791-.8 2.075 2.075 0 0 1-.264-1.058 2.023 2.023 0 0 1 .9-1.743 4.184 4.184 0 0 1 2.463-.638 7.2 7.2 0 0 1 2.853.593l-.485 1.113a6.545 6.545 0 0 0-2.465-.561 2.826 2.826 0 0 0-1.466.306.941.941 0 0 0-.493.84 1.016 1.016 0 0 0 .185.617 1.805 1.805 0 0 0 .6.487 13.686 13.686 0 0 0 1.583.667 5.922 5.922 0 0 1 2.168 1.179 2.083 2.083 0 0 1 .564 1.491m3.593 2.464h-1.369v-9.032h1.369zm-1.483-11.481a.907.907 0 0 1 .229-.687.81.81 0 0 1 .577-.218.8.8 0 0 1 .569.222.886.886 0 0 1 .239.682.9.9 0 0 1-.239.688.794.794 0 0 1-.569.227.791.791 0 0 1-.577-.227.924.924 0 0 1-.229-.688m7.3 10.517a4.512 4.512 0 0 0 .7-.053 4.425 4.425 0 0 0 .535-.111v1.046a2.451 2.451 0 0 1-.654.177 4.941 4.941 0 0 1-.779.071q-2.621 0-2.619-2.761v-5.373h-1.294v-.659l1.294-.569.576-1.924h.791v2.092h2.622v1.064H133.8v5.311a1.829 1.829 0 0 0 .387 1.253 1.345 1.345 0 0 0 1.062.437m4.411.964h-1.367v-9.032h1.367zm-1.483-11.481a.9.9 0 0 1 .23-.687.8.8 0 0 1 .576-.218.8.8 0 0 1 .569.222.886.886 0 0 1 .239.682.9.9 0 0 1-.239.688.794.794 0 0 1-.569.227.785.785 0 0 1-.576-.227.918.918 0 0 1-.23-.688m7.826 3.433a2.238 2.238 0 0 0-1.734.707 3.262 3.262 0 0 0-.762 1.962h4.723a3.017 3.017 0 0 0-.577-1.983 2.031 2.031 0 0 0-1.65-.686m.371 8.216a4.149 4.149 0 0 1-3.161-1.22 4.727 4.727 0 0 1-1.157-3.389 5.235 5.235 0 0 1 1.076-3.469 3.567 3.567 0 0 1 2.889-1.285 3.4 3.4 0 0 1 2.686 1.116 4.28 4.28 0 0 1 .988 2.947v.866h-6.221a3.573 3.573 0 0 0 .8 2.413 2.779 2.779 0 0 0 2.147.823 7.281 7.281 0 0 0 2.884-.609v1.22a7.377 7.377 0 0 1-1.372.45 7.874 7.874 0 0 1-1.562.135m11.483-2.629a2.268 2.268 0 0 1-.938 1.945 4.434 4.434 0 0 1-2.639.683 5.73 5.73 0 0 1-2.8-.569v-1.268a6.828 6.828 0 0 0 1.4.519 5.772 5.772 0 0 0 1.438.189 3.269 3.269 0 0 0 1.647-.34 1.132 1.132 0 0 0 .573-1.045 1.13 1.13 0 0 0-.458-.901 7.177 7.177 0 0 0-1.784-.885 9.739 9.739 0 0 1-1.791-.821 2.447 2.447 0 0 1-.791-.8 2.075 2.075 0 0 1-.264-1.058 2.026 2.026 0 0 1 .9-1.743 4.186 4.186 0 0 1 2.465-.638 7.2 7.2 0 0 1 2.852.593l-.486 1.113a6.545 6.545 0 0 0-2.465-.561 2.826 2.826 0 0 0-1.466.306.941.941 0 0 0-.493.84 1.016 1.016 0 0 0 .185.617 1.805 1.805 0 0 0 .6.487 13.686 13.686 0 0 0 1.583.667 5.922 5.922 0 0 1 2.168 1.179 2.083 2.083 0 0 1 .564 1.491"/></g></svg>