<svg xmlns="http://www.w3.org/2000/svg" width="219.078" height="65.385"><defs><clipPath id="a"><path d="M515.971-942.823h219.078v-65.385H515.971z"/></clipPath><clipPath id="b"><path d="M515.971-942.855h219.078v-65.353H515.971z"/></clipPath></defs><g clip-path="url(#a)" transform="translate(-515.971 1008.208)"><path d="M536.823-989.434a.229.229 0 00-.216.119 115.405 115.405 0 00-4.477 8.081.273.273 0 000 .251 151.258 151.258 0 0114.58 37.888.246.246 0 00.236.195h4.24a.236.236 0 00.184-.089.264.264 0 00.057-.205c-2.095-15.696-8.741-34.464-14.399-46.1a.241.241 0 00-.205-.14m7.898-9.69a.225.225 0 00-.219.093 108.699 108.699 0 00-5.505 7.899.273.273 0 00-.015.265 146.87 146.87 0 0114.876 47.743.249.249 0 00.241.221h4.165a.239.239 0 00.177-.081.266.266 0 00.065-.192c-1.345-25.648-9.954-47.567-13.593-55.801a.247.247 0 00-.192-.147" fill="#071e39"/></g><g clip-path="url(#b)" transform="translate(-515.971 1008.208)"><path d="M530.312-979.245a.237.237 0 00-.219-.132.242.242 0 00-.212.141 118.572 118.572 0 00-3.504 8.085.281.281 0 00.017.236 162.028 162.028 0 0112.865 27.845.245.245 0 00.229.169h4.509a.241.241 0 00.193-.1.279.279 0 00.043-.225 164.945 164.945 0 00-13.921-36.019m34.109 11.372a162.317 162.317 0 00-10.391-40.176.253.253 0 00-.176-.155.236.236 0 00-.219.068 71.226 71.226 0 00-6.614 7.494.267.267 0 00-.02.276c.129.263 12.995 26.5 13.947 57.215a.251.251 0 00.244.251h4.165a.253.253 0 00.244-.255 205.086 205.086 0 00-1.18-24.718m-39.695-1.13a.239.239 0 00-.229-.124.244.244 0 00-.207.164 107.162 107.162 0 00-2.564 7.96.276.276 0 00.031.217 164.2 164.2 0 019.645 17.742.244.244 0 00.219.144h4.659a.243.243 0 00.2-.112.269.269 0 00.027-.239 160.73 160.73 0 00-11.781-25.752m-5.824 22.894c-.609-.905-1.211-1.8-1.788-2.681a.243.243 0 00-.256-.1.255.255 0 00-.187.215c-.113.821-.555 4.015-.7 5.5a.267.267 0 00.064.2.241.241 0 00.179.083h4.355a.246.246 0 00.217-.139.274.274 0 00-.016-.278c-.62-.944-1.247-1.877-1.868-2.8" fill="#071e39"/></g><g clip-path="url(#a)" transform="translate(-515.971 1008.208)"><path d="M520.259-958.683a.232.232 0 00-.243-.115.25.25 0 00-.2.188 96.46 96.46 0 00-1.643 7.8.273.273 0 00.041.2c1.705 2.535 3.369 5.023 4.977 7.6a.238.238 0 00.2.116h4.968a.241.241 0 00.208-.123.272.272 0 00.009-.252 163.91 163.91 0 00-8.317-15.414m65.744-8.805a6.13 6.13 0 01-6.476-6.248v-11.987h2.743v11.86a3.57 3.57 0 003.733 3.912 3.589 3.589 0 003.759-3.912v-11.86h2.741v11.987a6.152 6.152 0 01-6.5 6.248m21.436-.152l-8.356-12.724v12.724h-2.744v-18.083h2.515l8.355 12.7v-12.7h2.745v18.083zm6.526-18.083h2.743v18.083h-2.743zm13.196 18.083h-2.133l-5.943-18.083h2.844l4.165 13.155 4.167-13.155h2.9zm8.395 0v-18.083h11.556v2.464h-8.813v5.281h7.519v2.438h-7.519v5.435h8.813v2.465zm24.55 0l-3.809-7.62h-3.43v7.62h-2.742v-18.083h7.009c3.429 0 5.613 2.209 5.613 5.281a4.749 4.749 0 01-3.606 4.802l4.165 8zm-3.175-15.619h-4.064v5.663h4.064a2.753 2.753 0 003.075-2.819 2.771 2.771 0 00-3.073-2.844m14.395 15.771a8.188 8.188 0 01-6.4-2.387l1.828-1.8a5.968 5.968 0 004.623 1.724c2.363 0 3.733-1.017 3.733-2.769a2.43 2.43 0 00-.711-1.879 3.146 3.146 0 00-1.981-.763l-2.133-.3a6.2 6.2 0 01-3.43-1.451 4.5 4.5 0 01-1.32-3.453c0-3.151 2.287-5.309 6.044-5.309a7.529 7.529 0 015.613 2.057l-1.753 1.73a5.307 5.307 0 00-3.936-1.4c-2.133 0-3.3 1.22-3.3 2.82a2.153 2.153 0 00.685 1.676 4.038 4.038 0 002.032.839l2.057.305a5.978 5.978 0 013.377 1.344 4.731 4.731 0 011.472 3.708c0 3.328-2.716 5.308-6.5 5.308m9.472-18.235h2.743v18.083H680.8zm13.145 2.463v15.619h-2.743v-15.619h-4.977v-2.464h12.7v2.464zm7.685-2.463h2.743v18.083h-2.743zm6.716 18.083v-18.083h11.556v2.464h-8.813v5.281h7.517v2.438h-7.517v5.435h8.813v2.465zm20.201.152a8.188 8.188 0 01-6.4-2.387l1.828-1.8a5.968 5.968 0 004.623 1.724c2.363 0 3.733-1.017 3.733-2.769a2.43 2.43 0 00-.711-1.879 3.146 3.146 0 00-1.981-.763l-2.133-.3a6.2 6.2 0 01-3.43-1.451 4.5 4.5 0 01-1.32-3.453c0-3.151 2.287-5.309 6.044-5.309a7.529 7.529 0 015.613 2.057l-1.753 1.73a5.307 5.307 0 00-3.936-1.4c-2.133 0-3.3 1.22-3.3 2.82a2.153 2.153 0 00.685 1.676 4.038 4.038 0 002.032.839l2.057.305a5.978 5.978 0 013.377 1.344 4.731 4.731 0 011.472 3.708c0 3.328-2.716 5.308-6.5 5.308M584.48-961.09l-6.655 18.083h1.473l1.575-4.393h8.432l1.575 4.393h1.473l-6.654-18.083zm.609 1.828l3.784 10.641h-7.568zm15.678 16.407a5.863 5.863 0 01-6.2-6.019v-12.216h1.372v12.035a4.628 4.628 0 004.828 4.981 4.628 4.628 0 004.825-4.981v-12.035h1.375v12.216a5.863 5.863 0 01-6.2 6.019m15.479 0a7.634 7.634 0 01-6.02-2.388l.965-.964a6.32 6.32 0 005.131 2.133c2.844 0 4.648-1.372 4.648-3.733a3.274 3.274 0 00-.991-2.54 4.373 4.373 0 00-2.616-.965l-2.108-.331a6.275 6.275 0 01-3.225-1.32 4.113 4.113 0 01-1.423-3.327c0-3.023 2.159-4.953 5.613-4.953a7.145 7.145 0 015.207 1.956l-.889.889a5.877 5.877 0 00-4.392-1.676c-2.615 0-4.189 1.448-4.189 3.732a2.909 2.909 0 00.939 2.363 5.771 5.771 0 002.69 1.117l1.955.307a5.742 5.742 0 013.225 1.192 4.44 4.44 0 011.58 3.508c0 3.045-2.341 5-6.1 5m8.246-18.235v1.219h5.384v16.864h1.372v-16.864h5.409v-1.219zm26.146 18.083l-4.317-8.331h-4.978v8.331h-1.372v-18.083h6.883c2.947 0 5.181 1.7 5.181 4.851a4.671 4.671 0 01-4.165 4.876l4.368 8.356zm-3.961-16.864h-5.334v7.315h5.333c2.311 0 3.988-1.168 3.988-3.657s-1.677-3.657-3.988-3.657m14.804-1.22l-6.655 18.083h1.473l1.575-4.393h8.432l1.575 4.393h1.473l-6.654-18.083zm.609 1.828l3.784 10.641h-7.568zm10.411-1.828v18.083h10.972v-1.219h-9.6v-16.864zm14.286 18.083h1.372v-18.083h-1.372zm11.129-18.083l-6.655 18.083h1.473l1.575-4.393h8.432l1.575 4.393h1.473l-6.654-18.083zm.609 1.828l3.784 10.641h-7.568z" fill="#071e39"/></g></svg>