<svg xmlns="http://www.w3.org/2000/svg" xmlns:xlink="http://www.w3.org/1999/xlink" width="108.217" height="94.771" viewBox="0 0 108.217 94.771">
  <defs>
    <clipPath id="clip-path">
      <path id="path18" d="M0-94.772H108.218V0H0Z"/>
    </clipPath>
    <clipPath id="clip-path-2">
      <path id="path66" d="M96.009-51.63l-6.587,1.748c-1.48.393-1.787,2.135-.148,3.723h0c1.391,1.348,3.289,1.686,4.244.471h0l3.152-5.128a.519.519,0,0,0-.033-.636h0a.626.626,0,0,0-.468-.2h0a.75.75,0,0,0-.16.018"/>
    </clipPath>
    <linearGradient id="linear-gradient" x1="-10.265" y1="-6.698" x2="-10.215" y2="-6.698" gradientUnits="objectBoundingBox">
      <stop offset="0" stop-color="#ffc63f"/>
      <stop offset="0.637" stop-color="#f58400"/>
      <stop offset="1" stop-color="#f58400"/>
    </linearGradient>
    <clipPath id="clip-path-3">
      <path id="path88" d="M93.123-91.14l-1.237.593a4.163,4.163,0,0,0-2.265,2.773h0a4.54,4.54,0,0,0,.4,3.12h0c1.271,2.233,9.573,14.613,9.573,14.613h0a2.392,2.392,0,0,1,.422,1.329h0a2.252,2.252,0,0,1-.385,1.157h0L90.764-53.93a.588.588,0,0,0-.036.622h0a.585.585,0,0,0,.677.223h0l7.015-1.948a2.97,2.97,0,0,0,1.056-.52h0a2.984,2.984,0,0,0,.6-.694h0L107-67.162a3.146,3.146,0,0,0-.219-3.7h0L94.546-90.773a1.055,1.055,0,0,0-.714-.494h0a.9.9,0,0,0-.137-.01h0a1.458,1.458,0,0,0-.571.137"/>
    </clipPath>
    <linearGradient id="linear-gradient-2" x1="0.383" y1="0" x2="0.931" y2="1.212" xlink:href="#linear-gradient"/>
    <clipPath id="clip-path-4">
      <path id="path110" d="M55.949-85.651a1.066,1.066,0,0,0-.614.444h0L46.743-71.385a3.146,3.146,0,0,0-.219,3.7h0L55.293-53.63a1.231,1.231,0,0,0,.711.543h0a1.087,1.087,0,0,0,.778-.129h0l1.284-.75a4.191,4.191,0,0,0,1.185-5.822h0l-5.094-7.86a2.385,2.385,0,0,1-.035-3.233h0l5-7.619a4.686,4.686,0,0,0,.779-3.7h0a4.373,4.373,0,0,0-2.039-2.689h0L56.7-85.55a1.2,1.2,0,0,0-.524-.129h0a.958.958,0,0,0-.23.028"/>
    </clipPath>
    <linearGradient id="linear-gradient-3" x1="0.392" y1="0.107" x2="0.582" y2="1.673" xlink:href="#linear-gradient"/>
  </defs>
  <g id="australia-future-unlimited" transform="translate(-6.057 127.879)">
    <g id="g12" transform="translate(6.057 -33.108)">
      <g id="g14" clip-path="url(#clip-path)">
        <g id="g20" transform="translate(71.654 -50.051)">
          <path id="path22" d="M0,0C.648,0,1-.283,1-.965a.859.859,0,0,0-.987-.983c-.7,0-.982.325-.982,1.009C-.969-.308-.645,0,0,0" fill="#3d3935"/>
        </g>
        <g id="g24" transform="translate(66.618 -37.01)">
          <path id="path26" d="M0,0A.332.332,0,0,0,.054.186.332.332,0,0,0,.308.314h.906A.322.322,0,0,0,1.462.184.353.353,0,0,0,1.525,0V-15.8a.317.317,0,0,0-.14-.253.327.327,0,0,0-.325-.014c-.193.1-.757.415-.878.485a.359.359,0,0,0-.119.115.427.427,0,0,0-.063.2Z" fill="#3d3935"/>
        </g>
        <g id="g28" transform="translate(70.911 -37.01)">
          <path id="path30" d="M0,0A.34.34,0,0,0,.059.182.326.326,0,0,0,.315.314h.906A.32.32,0,0,0,1.469.184.342.342,0,0,0,1.532,0V-10.639a.338.338,0,0,0-.076-.2.328.328,0,0,0-.234-.115H.315a.346.346,0,0,0-.226.1A.328.328,0,0,0,0-10.639Z" fill="#3d3935"/>
        </g>
        <g id="g32" transform="translate(39.806 -47.555)">
          <path id="path34" d="M0,0A.34.34,0,0,0-.062-.187.317.317,0,0,0-.248-.308a12.44,12.44,0,0,0-2.9-.381c-3.092,0-3.938,1.808-3.938,3A3.4,3.4,0,0,0-4.667,5.25l1.279.539c.943.4,2.235.916,2.235,2.185,0,.916-.6,1.807-2.7,1.807a9.151,9.151,0,0,1-2.653-.324.315.315,0,0,0-.4.3v.7a.324.324,0,0,0,.06.185.351.351,0,0,0,.184.121,11.748,11.748,0,0,0,2.975.378c3.36,0,4.135-1.95,4.135-3.124C.452,6.4-.8,5.391-2.262,4.78l-1.055-.446c-2.139-.891-2.252-1.6-2.252-2.042,0-.54.382-1.62,2.378-1.62a12.831,12.831,0,0,1,2.841.357A.264.264,0,0,0-.087.971.345.345,0,0,0,0,.75V0" fill="#3d3935"/>
        </g>
        <g id="g36" transform="translate(63.834 -46.532)">
          <path id="path38" d="M0,0C-.59-1.313-2.208-1.714-3.514-1.714A7.271,7.271,0,0,0-6.945-.9a.864.864,0,0,0-.28.2.386.386,0,0,0-.1.246V.224a.317.317,0,0,0,.146.271A.309.309,0,0,0-6.884.51a6.413,6.413,0,0,1,3.1-.862c1.394,0,2.532.469,2.547,2.114V2.795h-.717c-3.911,0-6.313,1.525-6.313,4.039A2.8,2.8,0,0,0-6.524,9.556q.339-.6.71-1.192a1.707,1.707,0,0,1-.877-1.6c0-2.44,2.968-2.769,4.866-2.769h.576l.015,4.624A10.34,10.34,0,0,1-3.5,8.8a4.836,4.836,0,0,1-2.314-.439q-.371.588-.71,1.192a7.6,7.6,0,0,0,3.121.563A19.039,19.039,0,0,0,.032,9.767a.336.336,0,0,0,.19-.118.348.348,0,0,0,.062-.2V1.762A4.414,4.414,0,0,0,0,0" fill="#3d3935"/>
        </g>
        <g id="g40" transform="translate(82.923 -46.532)">
          <path id="path42" d="M0,0C-.589-1.313-2.207-1.714-3.514-1.714A7.27,7.27,0,0,0-6.945-.9a.872.872,0,0,0-.28.2.388.388,0,0,0-.1.246V.224a.315.315,0,0,0,.146.271A.309.309,0,0,0-6.884.51a6.413,6.413,0,0,1,3.1-.862c1.394,0,2.532.469,2.547,2.114V2.795h-.717c-3.911,0-6.313,1.525-6.313,4.039,0,2.468,2.2,3.161,4.242,3.268q.377-.654.761-1.3l-.239,0c-1.434,0-3.191-.236-3.191-2.043,0-2.44,2.968-2.769,4.867-2.769h.575l.015,4.624A9.576,9.576,0,0,1-3.263,8.8q-.385.646-.761,1.3c.209.011.418.018.621.018A19.047,19.047,0,0,0,.033,9.767a.333.333,0,0,0,.189-.118.348.348,0,0,0,.062-.2V1.762A4.422,4.422,0,0,0,0,0" fill="#3d3935"/>
        </g>
        <g id="g44" transform="translate(20.993 -37.097)">
          <path id="path46" d="M0,0C-.036-.127-1.753-5.868-3.208-10.5c-.378.541-.737,1.082-1.064,1.623L-3.1-4.9H-8.586l2.716-9.413,1.6,5.44c.327-.541.686-1.081,1.064-1.623-.79-2.515-1.5-4.7-1.826-5.485a.319.319,0,0,0-.121-.136.4.4,0,0,0-.181-.051H-6.392a.334.334,0,0,0-.185.061.364.364,0,0,0-.112.147C-7.628-13.666-11.649-.214-11.712,0a.341.341,0,0,0,.038.279A.3.3,0,0,0-11.427.4h1.035a.308.308,0,0,0,.2-.069.352.352,0,0,0,.094-.149c.041-.129,1.1-3.723,1.1-3.723h6.268L-1.619.191a.3.3,0,0,0,.1.145A.365.365,0,0,0-1.313.4h1A.317.317,0,0,0-.034.272.358.358,0,0,0,0,0" fill="#3d3935"/>
        </g>
        <g id="g48" transform="translate(45.163 -36.413)">
          <path id="path50" d="M0,0A7.859,7.859,0,0,0,1.047-.068a3.475,3.475,0,0,0,.568-.108.381.381,0,0,0,.2-.153A.345.345,0,0,0,1.87-.5v-.665A.327.327,0,0,0,1.749-1.4a.319.319,0,0,0-.262-.06,6.518,6.518,0,0,1-1.371.147c-1.436,0-1.736-.751-1.736-2.041v-6.806H1.274a.336.336,0,0,0,.227-.1.317.317,0,0,0,.089-.213v-.758a.319.319,0,0,0-.091-.218.339.339,0,0,0-.225-.1h-2.9v-2.745a.318.318,0,0,0-.142-.255.319.319,0,0,0-.322-.013c-.194.1-.757.415-.879.484a.371.371,0,0,0-.129.133.411.411,0,0,0-.045.185c0,.121,0,10.45,0,10.45C-3.147-1.1-2.347,0,0,0" fill="#3d3935"/>
        </g>
        <g id="g52" transform="translate(55.042 -46.646)">
          <path id="path54" d="M0,0A.358.358,0,0,0,.1-.228v-.826A.362.362,0,0,0,.03-1.26a.353.353,0,0,0-.2-.128,4.1,4.1,0,0,0-1-.14A3.738,3.738,0,0,0-4.778,1.218V-1a.328.328,0,0,0-.084-.213.328.328,0,0,0-.229-.1h-.792a.352.352,0,0,0-.225.083.322.322,0,0,0-.1.23V9.637a.316.316,0,0,0,.085.213.328.328,0,0,0,.23.1h.907a.321.321,0,0,0,.236-.116.329.329,0,0,0,.074-.2V4.222A4.385,4.385,0,0,1-3.61,1.005,3.394,3.394,0,0,1-1.191-.024a3.85,3.85,0,0,1,.91.1A.292.292,0,0,0,0,0" fill="#3d3935"/>
        </g>
        <g id="g56" transform="translate(22.434 -47.962)">
          <path id="path58" d="M0,0A.317.317,0,0,0-.227.1.342.342,0,0,0-.312.314V6.408A7.692,7.692,0,0,0-.032,8.943a4.237,4.237,0,0,0,4.176,2.606,5.362,5.362,0,0,0,2.533-.612C8.5,9.906,8.629,8.1,8.629,6.055V.314A.34.34,0,0,0,8.548.1.328.328,0,0,0,8.316,0H7.383a.331.331,0,0,0-.23.1.332.332,0,0,0-.084.211c0,.18.014,6.515.014,6.515,0,1.692-.478,3.357-2.825,3.357-2.01,0-3.051-1.031-3.051-3.308V.314A.348.348,0,0,0,1.146.128.318.318,0,0,0,.892,0Z" fill="#3d3935"/>
        </g>
      </g>
    </g>
    <g id="g60" transform="translate(6.057 -33.108)">
      <g id="g62" clip-path="url(#clip-path-2)">
        <g id="g68">
          <g id="g70">
            <path id="path80" d="M96.009-51.63l-6.587,1.748c-1.48.393-1.787,2.135-.148,3.723h0c1.391,1.348,3.289,1.686,4.244.471h0l3.152-5.128a.519.519,0,0,0-.033-.636h0a.626.626,0,0,0-.468-.2h0a.75.75,0,0,0-.16.018" fill="url(#linear-gradient)"/>
          </g>
        </g>
      </g>
    </g>
    <g id="g82" transform="translate(6.057 -33.108)">
      <g id="g84" clip-path="url(#clip-path-3)">
        <g id="g90">
          <g id="g92">
            <path id="path102" d="M93.123-91.14l-1.237.593a4.163,4.163,0,0,0-2.265,2.773h0a4.54,4.54,0,0,0,.4,3.12h0c1.271,2.233,9.573,14.613,9.573,14.613h0a2.392,2.392,0,0,1,.422,1.329h0a2.252,2.252,0,0,1-.385,1.157h0L90.764-53.93a.588.588,0,0,0-.036.622h0a.585.585,0,0,0,.677.223h0l7.015-1.948a2.97,2.97,0,0,0,1.056-.52h0a2.984,2.984,0,0,0,.6-.694h0L107-67.162a3.146,3.146,0,0,0-.219-3.7h0L94.546-90.773a1.055,1.055,0,0,0-.714-.494h0a.9.9,0,0,0-.137-.01h0a1.458,1.458,0,0,0-.571.137" fill="url(#linear-gradient-2)"/>
          </g>
        </g>
      </g>
    </g>
    <g id="g104" transform="translate(6.057 -33.108)">
      <g id="g106" clip-path="url(#clip-path-4)">
        <g id="g112">
          <g id="g114">
            <path id="path124" d="M55.949-85.651a1.066,1.066,0,0,0-.614.444h0L46.743-71.385a3.146,3.146,0,0,0-.219,3.7h0L55.293-53.63a1.231,1.231,0,0,0,.711.543h0a1.087,1.087,0,0,0,.778-.129h0l1.284-.75a4.191,4.191,0,0,0,1.185-5.822h0l-5.094-7.86a2.385,2.385,0,0,1-.035-3.233h0l5-7.619a4.686,4.686,0,0,0,.779-3.7h0a4.373,4.373,0,0,0-2.039-2.689h0L56.7-85.55a1.2,1.2,0,0,0-.524-.129h0a.958.958,0,0,0-.23.028" fill="url(#linear-gradient-3)"/>
          </g>
        </g>
      </g>
    </g>
    <g id="g126" transform="translate(6.057 -33.108)">
      <g id="g128" clip-path="url(#clip-path)">
        <g id="g134" transform="translate(28.946 -20.736)">
          <path id="path136" d="M0,0C0,1.039-.061,1.93-1.05,2.491a2.7,2.7,0,0,1-1.38.33A2.3,2.3,0,0,1-4.7,1.514,4.1,4.1,0,0,1-4.884.061V-3.011a.182.182,0,0,1,.045-.111.159.159,0,0,1,.118-.052h.783a.164.164,0,0,1,.132.066.181.181,0,0,1,.032.1l0,3.182c0,.7.074,1.672,1.368,1.672,1.185,0,1.294-.891,1.294-1.6V-3.011a.177.177,0,0,1,.045-.111.159.159,0,0,1,.118-.052h.785a.162.162,0,0,1,.132.066.174.174,0,0,1,.032.1Z" fill="#3d3935"/>
        </g>
        <g id="g138" transform="translate(19.162 -20.736)">
          <path id="path140" d="M0,0C0,1.039-.06,1.93-1.05,2.491a2.7,2.7,0,0,1-1.38.33A2.3,2.3,0,0,1-4.7,1.514,4.1,4.1,0,0,1-4.883.061V-3.011a.176.176,0,0,1,.044-.111.16.16,0,0,1,.118-.052h.782a.164.164,0,0,1,.132.066.181.181,0,0,1,.031.1l0,3.182c0,.7.073,1.672,1.367,1.672,1.185,0,1.294-.891,1.294-1.6V-3.011a.181.181,0,0,1,.044-.111.16.16,0,0,1,.118-.052h.785a.163.163,0,0,1,.131.066.17.17,0,0,1,.031.1Z" fill="#3d3935"/>
        </g>
        <g id="g142" transform="translate(72.129 -18.931)">
          <path id="path144" d="M0,0A2.488,2.488,0,0,1-.583.064c-.794,0-.989-.355-.989-.977V-4.051H-.088A.176.176,0,0,0,.031-4.1a.17.17,0,0,0,.046-.111v-.6a.164.164,0,0,0-.048-.112.167.167,0,0,0-.117-.05H-1.571V-6.49a.163.163,0,0,0-.074-.132.164.164,0,0,0-.167-.007l-.779.471a.2.2,0,0,0-.067.072.224.224,0,0,0-.023.1v4.831c0,.721.024,1.5.769,1.9a2.406,2.406,0,0,0,1.1.232A4.559,4.559,0,0,0-.229.943,1.642,1.642,0,0,0,.066.887.191.191,0,0,0,.172.807.159.159,0,0,0,.2.723V.157A.17.17,0,0,0,.137.031.17.17,0,0,0,0,0" fill="#ffab00"/>
        </g>
        <g id="g146" transform="translate(70.558 -23.909)">
          <path id="path148" d="M0,0V-1.512a.163.163,0,0,0-.074-.132.165.165,0,0,0-.167-.007l-.779.471a.208.208,0,0,0-.067.072.227.227,0,0,0-.023.1V3.821" fill="#ffab00"/>
        </g>
        <g id="g150" transform="translate(23.142 -18.931)">
          <path id="path152" d="M0,0A2.48,2.48,0,0,1-.582.064c-.793,0-.988-.355-.988-.977V-4.051H-.086A.174.174,0,0,0,.031-4.1a.165.165,0,0,0,.047-.111v-.6A.166.166,0,0,0,.03-4.928a.167.167,0,0,0-.117-.05H-1.571V-6.49a.164.164,0,0,0-.074-.132.165.165,0,0,0-.168-.007l-.779.471a.205.205,0,0,0-.068.072.23.23,0,0,0-.023.1v4.831c0,.721.025,1.5.77,1.9a2.4,2.4,0,0,0,1.1.232A4.541,4.541,0,0,0-.228.943a1.674,1.674,0,0,0,.3-.056A.194.194,0,0,0,.173.807.163.163,0,0,0,.2.723V.157A.167.167,0,0,0,.137.031.169.169,0,0,0,0,0" fill="#3d3935"/>
        </g>
        <g id="g154" transform="translate(31.288 -20.662)">
          <path id="path156" d="M0,0A2.227,2.227,0,0,1,.757-2,1.642,1.642,0,0,1,1.722-2.3a1.784,1.784,0,0,1,.484.061.151.151,0,0,0,.146-.04.188.188,0,0,0,.053-.119v-.719a.206.206,0,0,0-.037-.111.183.183,0,0,0-.1-.066,2.084,2.084,0,0,0-.519-.069A1.861,1.861,0,0,0-.06-1.931V-3.085A.174.174,0,0,0-.1-3.2a.172.172,0,0,0-.121-.052H-.941a.179.179,0,0,0-.117.042.166.166,0,0,0-.053.12V2.447a.163.163,0,0,0,.044.111.175.175,0,0,0,.12.053H-.16a.167.167,0,0,0,.123-.061A.166.166,0,0,0,0,2.447Z" fill="#3d3935"/>
        </g>
        <g id="g158" transform="translate(55.163 -18.216)">
          <path id="path160" d="M0,0A.17.17,0,0,0,.03.095.171.171,0,0,0,.164.164H.937A.167.167,0,0,0,1.066.1.168.168,0,0,0,1.1,0V-5.531a.17.17,0,0,0-.039-.1.17.17,0,0,0-.122-.059H.164a.18.18,0,0,0-.118.049A.174.174,0,0,0,0-5.531Z" fill="#ffab00"/>
        </g>
        <g id="g162" transform="translate(53.868 -26.537)">
          <path id="path164" d="M0,0A.163.163,0,0,0-.074-.132.162.162,0,0,0-.242-.139l-.779.47A.207.207,0,0,0-1.088.4a.213.213,0,0,0-.023.1V8.322a.165.165,0,0,0,.044.111.173.173,0,0,0,.119.053h.786a.165.165,0,0,0,.123-.061A.171.171,0,0,0,0,8.322Z" fill="#ffab00"/>
        </g>
        <g id="g166" transform="translate(55.723 -24.887)">
          <path id="path168" d="M0,0C-.476,0-.659-.219-.659-.671a.554.554,0,0,1,.636-.635c.463,0,.659.183.659.647C.636-.219.44,0,0,0" fill="#ffab00"/>
        </g>
        <g id="g170" transform="translate(67.066 -18.216)">
          <path id="path172" d="M0,0A.18.18,0,0,0,.03.095.171.171,0,0,0,.164.164H.938A.164.164,0,0,0,1.066.1.168.168,0,0,0,1.1,0V-5.531a.165.165,0,0,0-.039-.1.166.166,0,0,0-.121-.059H.164a.18.18,0,0,0-.117.049A.175.175,0,0,0,0-5.531Z" fill="#ffab00"/>
        </g>
        <g id="g174" transform="translate(67.628 -24.887)">
          <path id="path176" d="M0,0C-.476,0-.66-.219-.66-.671a.554.554,0,0,1,.635-.635c.465,0,.659.183.659.647C.635-.219.44,0,0,0" fill="#ffab00"/>
        </g>
        <g id="g178" transform="translate(45.237 -21.297)">
          <path id="path180" d="M0,0A4.1,4.1,0,0,1-.611,2.515a2.611,2.611,0,0,1-2.149.867A2.52,2.52,0,0,1-5.311,1.7,4.337,4.337,0,0,1-5.482.257V-5.234a.154.154,0,0,1,.033-.091.138.138,0,0,1,.1-.047h.885a.136.136,0,0,1,.1.047.149.149,0,0,1,.038.091V.2a2.439,2.439,0,0,0,.366,1.587A1.489,1.489,0,0,0-2.71,2.32a1.405,1.405,0,0,0,1.22-.55A2.619,2.619,0,0,0-1.172.244V-5.234a.151.151,0,0,1,.033-.091.137.137,0,0,1,.1-.047h.9a.137.137,0,0,1,.1.047A.149.149,0,0,1,0-5.234Z" fill="#ffab00"/>
        </g>
        <g id="g182" transform="translate(51.512 -18.213)">
          <path id="path184" d="M0,0A.169.169,0,0,1-.039.1.168.168,0,0,1-.161.164H-.948a.176.176,0,0,1-.117-.05A.17.17,0,0,1-1.111,0V-3.267c0-.977-.4-1.55-1.221-1.55a1.385,1.385,0,0,0-.854.3,2.356,2.356,0,0,0-.6,1.954V0a.169.169,0,0,1-.039.1.167.167,0,0,1-.122.059h-.785A.178.178,0,0,1-4.85.114.176.176,0,0,1-4.9,0V-5.534a.177.177,0,0,1,.046-.113A.18.18,0,0,1-4.732-5.7h.737a.167.167,0,0,1,.121.059.167.167,0,0,1,.039.1v.985A1.906,1.906,0,0,1-2-5.831a2.128,2.128,0,0,1,1.246.379A2.455,2.455,0,0,1,0-3.255Z" fill="#ffab00"/>
        </g>
        <g id="g186" transform="translate(58.618 -22.798)">
          <path id="path188" d="M0,0A1.88,1.88,0,0,1,1.758-1.245,1.577,1.577,0,0,1,3.394.061a1.946,1.946,0,0,1,1.88-1.306,1.892,1.892,0,0,1,1.513.708,3.143,3.143,0,0,1,.391,1.88V4.585a.174.174,0,0,1-.039.1.165.165,0,0,1-.121.059H6.232a.177.177,0,0,1-.118-.05.171.171,0,0,1-.046-.114V1.318a1.51,1.51,0,0,0-.4-1.293A1.2,1.2,0,0,0,4.957-.22,1.211,1.211,0,0,0,3.931.354,2.325,2.325,0,0,0,3.6,1.771V4.585a.174.174,0,0,1-.039.1.166.166,0,0,1-.122.059H2.654a.176.176,0,0,1-.117-.05.169.169,0,0,1-.047-.114v-3.1c0-1.172-.354-1.71-1.1-1.71A1.316,1.316,0,0,0,.342.39,2.4,2.4,0,0,0,.036,1.843V4.585A.177.177,0,0,1,0,4.69a.166.166,0,0,1-.121.059H-.91a.176.176,0,0,1-.118-.05.169.169,0,0,1-.046-.114V-.949a.17.17,0,0,1,.046-.113A.178.178,0,0,1-.91-1.112h.737a.167.167,0,0,1,.121.059.169.169,0,0,1,.039.1Z" fill="#ffab00"/>
        </g>
        <g id="g190" transform="translate(74.978 -24.056)">
          <path id="path192" d="M0,0C-1.745,0-2.613,1.5-2.613,3.052A2.893,2.893,0,0,0,.55,6.139a4.8,4.8,0,0,0,1.476-.206A.17.17,0,0,0,2.1,5.873a.174.174,0,0,0,.031-.1v-.54a.174.174,0,0,0-.058-.124.16.16,0,0,0-.105-.039.136.136,0,0,0-.05.009,3.951,3.951,0,0,1-1.19.18A1.971,1.971,0,0,1-1.477,3.431H.051V2.686H-1.489c.012-.219.122-1.819,1.5-1.819a1.444,1.444,0,0,1,1.355,1.55v.268H.051v.745H2.23a.179.179,0,0,0,.112-.043.17.17,0,0,0,.05-.09,3.86,3.86,0,0,0,.05-.722A2.409,2.409,0,0,0,0,0" fill="#ffab00"/>
        </g>
        <g id="g194" transform="translate(36.299 -24.056)">
          <path id="path196" d="M0,0C-1.746,0-2.613,1.5-2.613,3.052A2.893,2.893,0,0,0,.55,6.139a4.785,4.785,0,0,0,1.474-.206A.168.168,0,0,0,2.1,5.873a.174.174,0,0,0,.03-.1v-.54a.169.169,0,0,0-.058-.124.159.159,0,0,0-.105-.039.139.139,0,0,0-.05.009,3.947,3.947,0,0,1-1.189.18A1.97,1.97,0,0,1-1.477,3.431h1.6V2.686H-1.49c.013-.219.123-1.819,1.5-1.819a1.444,1.444,0,0,1,1.355,1.55v.268H.128v.745h2.1a.176.176,0,0,0,.111-.043.161.161,0,0,0,.05-.09,3.824,3.824,0,0,0,.05-.722A2.408,2.408,0,0,0,0,0" fill="#3d3935"/>
        </g>
        <g id="g198" transform="translate(83.132 -26.669)">
          <path id="path200" d="M0,0A.163.163,0,0,0-.167-.007l-.779.47a.208.208,0,0,0-.067.073.211.211,0,0,0-.023.1V3.516A1.9,1.9,0,0,0-2.7,2.625c-1.282,0-2.5,1.061-2.5,3.052,0,1.461.7,2.827,2.112,3.034.047-.327.088-.656.119-.992A2.067,2.067,0,0,1-4.077,5.726c0-1.745,1-2.16,1.575-2.16,1.111,0,1.514,1.245,1.514,2.087,0,.134-.061,2.137-1.563,2.137A1.293,1.293,0,0,1-2.97,7.72c-.03.335-.072.664-.119.992a2.59,2.59,0,0,0,.379.03A1.841,1.841,0,0,0-.951,7.557v.9a.164.164,0,0,0,.043.111.176.176,0,0,0,.121.052h.7a.162.162,0,0,0,.122-.061.17.17,0,0,0,.039-.1V.132A.163.163,0,0,0,0,0" fill="#ffab00"/>
        </g>
        <g id="g202" transform="translate(4.411 -27.143)">
          <path id="path204" d="M0,0A.327.327,0,0,0-.222.03l-.34.193a1.285,1.285,0,0,0-.6.788A1.368,1.368,0,0,0-.931,2.095L.534,4.329a.7.7,0,0,1-.01.947L-.968,7.58A1.227,1.227,0,0,0-.621,9.285l.376.22a.316.316,0,0,0,.229.037.358.358,0,0,0,.208-.158l2.57-4.12A.923.923,0,0,0,2.7,4.181L.18.131A.316.316,0,0,0,0,0" fill="#ffab00"/>
        </g>
        <g id="g206" transform="translate(10.627 -18.214)">
          <path id="path208" d="M0,0A.176.176,0,0,1-.05.117.162.162,0,0,1-.163.164H-1A.16.16,0,0,1-1.11.118.173.173,0,0,1-1.162,0V-8.31a.177.177,0,0,1,.05-.117A.17.17,0,0,1-1-8.475H2.932a.182.182,0,0,1,.117.051.165.165,0,0,1,.047.113v.717a.164.164,0,0,1-.046.111.173.173,0,0,1-.118.05H0v2.764H2.692a.18.18,0,0,1,.117.05.165.165,0,0,1,.046.112v.641a.17.17,0,0,1-.046.112.177.177,0,0,1-.118.052H0Z" fill="#3d3935"/>
        </g>
      </g>
    </g>
  </g>
</svg>
