<svg xmlns="http://www.w3.org/2000/svg" xmlns:xlink="http://www.w3.org/1999/xlink" width="157.854" height="63.632" viewBox="0 0 157.854 63.632">
  <defs>
    <clipPath id="clip-path">
      <path id="path196" d="M48.245-225.085H206.1v-63.632H48.245Z" transform="translate(-48.245 288.717)"/>
    </clipPath>
  </defs>
  <g id="innovative-research-universities" transform="translate(-48.245 288.717)">
    <g id="g192" transform="translate(48.245 -288.717)">
      <g id="g194" clip-path="url(#clip-path)">
        <g id="g200" transform="translate(0 3.624)">
          <path id="path202" d="M5.314.883-20.315,26.512a2.994,2.994,0,0,1-4.233,0,2.994,2.994,0,0,1,0-4.233L1.081-3.35a2.994,2.994,0,0,1,4.233,0,2.994,2.994,0,0,1,0,4.233" transform="translate(25.425 4.226)" fill="#d2d4d5"/>
        </g>
        <g id="g204" transform="translate(16.93 20.554)">
          <path id="path206" d="M5.314.883-20.315,26.512a2.994,2.994,0,0,1-4.233,0,2.994,2.994,0,0,1,0-4.233L1.081-3.35a2.994,2.994,0,0,1,4.233,0,2.994,2.994,0,0,1,0,4.233" transform="translate(25.425 4.226)" fill="#d2d4d5"/>
        </g>
        <g id="g208" transform="translate(22.399 32.017)">
          <path id="path210" d="M5.314.883-20.315,26.512a2.994,2.994,0,0,1-4.233,0,2.994,2.994,0,0,1,0-4.233L1.081-3.35a2.994,2.994,0,0,1,4.233,0,2.994,2.994,0,0,1,0,4.233" transform="translate(25.425 4.226)" fill="#d2d4d5"/>
        </g>
        <g id="g212" transform="translate(3.538 2.671)">
          <path id="path214" d="M7.793.883-32.181,40.857a2.992,2.992,0,0,1-4.231,0,2.991,2.991,0,0,1,0-4.233L3.56-3.35a2.994,2.994,0,0,1,4.233,0,2.994,2.994,0,0,1,0,4.233" transform="translate(37.29 4.226)" fill="#d2d4d5"/>
        </g>
        <g id="g216" transform="translate(10.591 1.497)">
          <path id="path218" d="M5.314.883-20.315,26.512a2.994,2.994,0,0,1-4.233,0,2.994,2.994,0,0,1,0-4.233L1.081-3.35a2.994,2.994,0,0,1,4.233,0,2.994,2.994,0,0,1,0,4.233" transform="translate(25.425 4.226)" fill="#d72027"/>
        </g>
        <g id="g220" transform="translate(10.592 14.861)">
          <path id="path222" d="M5.93.883-23.265,30.078a2.994,2.994,0,0,1-4.233,0,2.994,2.994,0,0,1,0-4.233L1.7-3.35a2.994,2.994,0,0,1,4.233,0,2.994,2.994,0,0,1,0,4.233" transform="translate(28.374 4.226)" fill="#d72027"/>
        </g>
        <g id="g224" transform="translate(26.757 19.194)">
          <path id="path226" d="M5.314.883-20.315,26.512a2.994,2.994,0,0,1-4.233,0,2.994,2.994,0,0,1,0-4.233L1.081-3.35a2.994,2.994,0,0,1,4.233,0,2.994,2.994,0,0,1,0,4.233" transform="translate(25.425 4.226)" fill="#d72027"/>
        </g>
        <path id="path228" d="M104.9-288.437h1.4v12.048h-1.4Z" transform="translate(-36.405 288.775)"/>
        <g id="g230" transform="translate(72.995 3.189)">
          <path id="path232" d="M1.068,1.59V-4.252A2.358,2.358,0,0,0,.565-5.9a2.05,2.05,0,0,0-1.575-.543,2.593,2.593,0,0,0-2.076.766,3.879,3.879,0,0,0-.659,2.531V1.59H-5.112V-7.442H-4l.222,1.236h.066A2.773,2.773,0,0,1-2.533-7.239,3.818,3.818,0,0,1-.845-7.607a3.436,3.436,0,0,1,2.457.787A3.356,3.356,0,0,1,2.435-4.3V1.59Z" transform="translate(5.112 7.607)"/>
        </g>
        <g id="g234" transform="translate(83.352 3.189)">
          <path id="path236" d="M1.068,1.59V-4.252A2.358,2.358,0,0,0,.565-5.9a2.048,2.048,0,0,0-1.575-.543,2.593,2.593,0,0,0-2.076.766,3.879,3.879,0,0,0-.659,2.531V1.59H-5.112V-7.442H-4l.222,1.236h.066A2.792,2.792,0,0,1-2.533-7.239,3.818,3.818,0,0,1-.845-7.607a3.436,3.436,0,0,1,2.457.787A3.35,3.35,0,0,1,2.435-4.3V1.59Z" transform="translate(5.112 7.607)"/>
        </g>
        <g id="g238" transform="translate(93.207 3.189)">
          <path id="path240" d="M.245.808a4.3,4.3,0,0,0,.69,2.637,2.406,2.406,0,0,0,2.038.906,2.419,2.419,0,0,0,2.039-.9A4.271,4.271,0,0,0,5.707.808a4.2,4.2,0,0,0-.695-2.616A2.446,2.446,0,0,0,2.957-2.7a2.41,2.41,0,0,0-2.028.88A4.246,4.246,0,0,0,.245.808m6.88,0A4.988,4.988,0,0,1,6.013,4.256,3.914,3.914,0,0,1,2.939,5.5a4.07,4.07,0,0,1-2.15-.569A3.741,3.741,0,0,1-.662,3.3,5.694,5.694,0,0,1-1.173.808,4.971,4.971,0,0,1-.068-2.632,3.9,3.9,0,0,1,3-3.864,3.817,3.817,0,0,1,6.008-2.6,4.966,4.966,0,0,1,7.125.808" transform="translate(1.173 3.864)"/>
        </g>
        <g id="g242" transform="translate(102.454 3.353)">
          <path id="path244" d="M.592,1.561-2.835-7.471h1.465L.576-2.114A25.179,25.179,0,0,1,1.35.325h.066A18.667,18.667,0,0,1,1.99-1.484q.481-1.371,2.163-5.987H5.62L2.193,1.561Z" transform="translate(2.835 7.471)"/>
        </g>
        <g id="g246" transform="translate(111.683 3.206)">
          <path id="path248" d="M.543,1.42A2.787,2.787,0,0,0,2.551.72,2.6,2.6,0,0,0,3.28-1.241v-.816L1.911-2a4.978,4.978,0,0,0-2.354.508A1.53,1.53,0,0,0-1.163-.1a1.408,1.408,0,0,0,.45,1.128A1.861,1.861,0,0,0,.543,1.42m3.09.964L3.362,1.1H3.3A3.815,3.815,0,0,1,1.948,2.249a4.121,4.121,0,0,1-1.676.3,3.016,3.016,0,0,1-2.105-.692A2.521,2.521,0,0,1-2.6-.113q0-2.735,4.375-2.868l1.533-.048V-3.59a2.284,2.284,0,0,0-.458-1.57,1.882,1.882,0,0,0-1.462-.506,5.962,5.962,0,0,0-2.555.692l-.421-1.046A6.459,6.459,0,0,1-.12-6.59a6.331,6.331,0,0,1,1.593-.2,3.446,3.446,0,0,1,2.4.716,2.994,2.994,0,0,1,.779,2.3V2.384Z" transform="translate(2.596 6.795)"/>
        </g>
        <g id="g250" transform="translate(120.551 1.261)">
          <path id="path252" d="M.711,1.756a4.512,4.512,0,0,0,.7-.053,4.425,4.425,0,0,0,.535-.111V2.638a2.469,2.469,0,0,1-.654.177,4.924,4.924,0,0,1-.779.069q-2.621,0-2.621-2.76V-5.248H-3.4v-.659l1.293-.569L-1.53-8.4h.791v2.092H1.881v1.064H-.739V.067A1.829,1.829,0,0,0-.352,1.32a1.345,1.345,0,0,0,1.062.437" transform="translate(3.4 8.404)"/>
        </g>
        <path id="path254" d="M155.258-276.332h-1.367v-9.032h1.367Zm-1.481-11.479a.908.908,0,0,1,.231-.688.8.8,0,0,1,.575-.218.808.808,0,0,1,.569.222.889.889,0,0,1,.239.684.906.906,0,0,1-.239.688.8.8,0,0,1-.569.227.78.78,0,0,1-.575-.227.922.922,0,0,1-.231-.688" transform="translate(-26.189 288.717)"/>
        <g id="g256" transform="translate(130.52 3.353)">
          <path id="path258" d="M.593,1.561-2.836-7.471h1.467L.575-2.114A25.369,25.369,0,0,1,1.35.325h.066a18.488,18.488,0,0,1,.572-1.809Q2.47-2.855,4.152-7.471H5.619L2.192,1.561Z" transform="translate(2.836 7.471)"/>
        </g>
        <g id="g260" transform="translate(139.922 3.188)">
          <path id="path262" d="M.682.2A2.238,2.238,0,0,0-1.052.907a3.262,3.262,0,0,0-.762,1.962H2.909A3.011,3.011,0,0,0,2.332.886,2.034,2.034,0,0,0,.682.2m.371,8.216a4.149,4.149,0,0,1-3.161-1.22A4.727,4.727,0,0,1-3.265,3.807,5.235,5.235,0,0,1-2.189.338,3.569,3.569,0,0,1,.7-.948,3.4,3.4,0,0,1,3.386.169a4.28,4.28,0,0,1,.988,2.947V3.98H-1.847a3.574,3.574,0,0,0,.8,2.415A2.779,2.779,0,0,0,1.1,7.218a7.281,7.281,0,0,0,2.884-.609v1.22a7.247,7.247,0,0,1-1.372.448,7.732,7.732,0,0,1-1.562.137" transform="translate(3.265 0.948)"/>
        </g>
        <g id="g264" transform="translate(68.494 18.368)">
          <path id="path266" d="M.242,1.008H2.164A3.316,3.316,0,0,0,4.338.418,2.191,2.191,0,0,0,5.03-1.348a2.012,2.012,0,0,0-.7-1.722A3.819,3.819,0,0,0,2.064-3.6H.242Zm0,1.2v5.01h-1.4V-4.825h3.3a5.2,5.2,0,0,1,3.276.848A3.078,3.078,0,0,1,6.479-1.422a3.2,3.2,0,0,1-2.421,3.23L7.328,7.221H5.671L2.755,2.211Z" transform="translate(1.159 4.825)"/>
        </g>
        <g id="g268" transform="translate(78.217 21.22)">
          <path id="path270" d="M.682.2A2.233,2.233,0,0,0-1.052.907a3.262,3.262,0,0,0-.762,1.962H2.907A3.017,3.017,0,0,0,2.332.886,2.036,2.036,0,0,0,.682.2m.371,8.216a4.149,4.149,0,0,1-3.161-1.22A4.727,4.727,0,0,1-3.265,3.807,5.235,5.235,0,0,1-2.189.338,3.567,3.567,0,0,1,.7-.947,3.4,3.4,0,0,1,3.386.169a4.28,4.28,0,0,1,.988,2.947v.866H-1.847a3.577,3.577,0,0,0,.8,2.415A2.783,2.783,0,0,0,1.1,7.22a7.284,7.284,0,0,0,2.884-.611v1.22a7.26,7.26,0,0,1-1.373.448,7.589,7.589,0,0,1-1.56.137" transform="translate(3.265 0.947)"/>
        </g>
        <g id="g272" transform="translate(87.612 21.22)">
          <path id="path274" d="M1.107,1.164A2.268,2.268,0,0,1,.169,3.109a4.432,4.432,0,0,1-2.637.683,5.732,5.732,0,0,1-2.8-.569V1.955a6.842,6.842,0,0,0,1.4.519,5.835,5.835,0,0,0,1.436.189A3.247,3.247,0,0,0-.789,2.321,1.131,1.131,0,0,0-.21,1.278a1.135,1.135,0,0,0-.458-.9A7.286,7.286,0,0,0-2.452-.51,9.552,9.552,0,0,1-4.245-1.33a2.428,2.428,0,0,1-.791-.795A2.075,2.075,0,0,1-5.3-3.187,2.024,2.024,0,0,1-4.4-4.93a4.181,4.181,0,0,1,2.463-.638,7.2,7.2,0,0,1,2.852.593L.433-3.862a6.551,6.551,0,0,0-2.465-.561,2.836,2.836,0,0,0-1.467.3.942.942,0,0,0-.495.841,1.027,1.027,0,0,0,.185.617,1.843,1.843,0,0,0,.6.487,13.686,13.686,0,0,0,1.583.667A5.922,5.922,0,0,1,.543-.327a2.073,2.073,0,0,1,.564,1.491" transform="translate(5.296 5.568)"/>
        </g>
        <g id="g276" transform="translate(95.736 21.22)">
          <path id="path278" d="M.682.2A2.229,2.229,0,0,0-1.05.907a3.253,3.253,0,0,0-.764,1.962H2.907A3.017,3.017,0,0,0,2.332.886,2.036,2.036,0,0,0,.682.2m.371,8.216a4.145,4.145,0,0,1-3.16-1.22A4.72,4.72,0,0,1-3.265,3.807,5.235,5.235,0,0,1-2.189.338,3.567,3.567,0,0,1,.7-.947,3.4,3.4,0,0,1,3.386.169a4.28,4.28,0,0,1,.988,2.947v.866H-1.847a3.585,3.585,0,0,0,.8,2.415A2.785,2.785,0,0,0,1.1,7.22a7.284,7.284,0,0,0,2.884-.611v1.22a7.247,7.247,0,0,1-1.372.448,7.617,7.617,0,0,1-1.562.137" transform="translate(3.265 0.947)"/>
        </g>
        <g id="g280" transform="translate(105.032 21.236)">
          <path id="path282" d="M.543,1.42A2.783,2.783,0,0,0,2.55.72a2.592,2.592,0,0,0,.729-1.962v-.816L1.91-2a5,5,0,0,0-2.354.506A1.529,1.529,0,0,0-1.163-.1,1.413,1.413,0,0,0-.715,1.033,1.868,1.868,0,0,0,.543,1.42m3.09.964L3.361,1.1H3.295A3.8,3.8,0,0,1,1.947,2.249a4.109,4.109,0,0,1-1.676.3,3.012,3.012,0,0,1-2.105-.693A2.525,2.525,0,0,1-2.6-.113q0-2.735,4.377-2.868l1.531-.048V-3.59a2.286,2.286,0,0,0-.458-1.57,1.878,1.878,0,0,0-1.46-.506,5.956,5.956,0,0,0-2.555.692l-.421-1.046A6.475,6.475,0,0,1-.121-6.59a6.352,6.352,0,0,1,1.594-.2,3.441,3.441,0,0,1,2.394.716,3,3,0,0,1,.779,2.3V2.384Z" transform="translate(2.597 6.795)"/>
        </g>
        <g id="g284" transform="translate(115.095 21.219)">
          <path id="path286" d="M.712,0a5.229,5.229,0,0,1,1.08.1L1.6,1.369a4.69,4.69,0,0,0-.99-.124,2.408,2.408,0,0,0-1.875.89,3.244,3.244,0,0,0-.779,2.216V9.2H-3.408V.164H-2.28l.156,1.673h.066A3.938,3.938,0,0,1-.847.479,2.728,2.728,0,0,1,.712,0" transform="translate(3.408 0)"/>
        </g>
        <g id="g288" transform="translate(121.48 21.219)">
          <path id="path290" d="M.711,1.618A3.854,3.854,0,0,1-2.325.411,4.963,4.963,0,0,1-3.4-3.005a5.113,5.113,0,0,1,1.093-3.5A3.927,3.927,0,0,1,.8-7.743a6.167,6.167,0,0,1,1.3.14,4.324,4.324,0,0,1,1.022.329L2.707-6.111a6.55,6.55,0,0,0-.99-.3,4.457,4.457,0,0,0-.948-.119q-2.752,0-2.752,3.511A4.191,4.191,0,0,0-1.312-.466,2.339,2.339,0,0,0,.679.424,6.079,6.079,0,0,0,2.993-.063V1.149a4.937,4.937,0,0,1-2.283.469" transform="translate(3.401 7.743)"/>
        </g>
        <g id="g292" transform="translate(130.017 17.593)">
          <path id="path294" d="M1.068,2.216V-3.625a2.358,2.358,0,0,0-.5-1.649,2.046,2.046,0,0,0-1.573-.543,2.58,2.58,0,0,0-2.081.774,3.928,3.928,0,0,0-.654,2.539V2.216H-5.112V-10.605h1.369v3.882a8.515,8.515,0,0,1-.066,1.161h.082A2.784,2.784,0,0,1-2.578-6.588a3.736,3.736,0,0,1,1.7-.376,3.491,3.491,0,0,1,2.484.787,3.321,3.321,0,0,1,.829,2.5V2.216Z" transform="translate(5.112 10.605)"/>
        </g>
        <g id="g296" transform="translate(68.371 36.397)">
          <path id="path298" d="M1.594,0V7.8A4.246,4.246,0,0,1,.349,11.034,4.77,4.77,0,0,1-3.07,12.212a4.564,4.564,0,0,1-3.366-1.186A4.4,4.4,0,0,1-7.627,7.763V0h1.4V7.862A3.1,3.1,0,0,0-5.4,10.177a3.319,3.319,0,0,0,2.423.808,3.21,3.21,0,0,0,2.349-.811A3.123,3.123,0,0,0,.193,7.844V0Z" transform="translate(7.627)"/>
        </g>
        <g id="g300" transform="translate(80.575 39.248)">
          <path id="path302" d="M1.068,1.59V-4.252A2.358,2.358,0,0,0,.565-5.9a2.058,2.058,0,0,0-1.575-.543,2.593,2.593,0,0,0-2.076.766,3.879,3.879,0,0,0-.659,2.531V1.59H-5.112V-7.442H-4l.222,1.236h.066A2.773,2.773,0,0,1-2.533-7.239,3.818,3.818,0,0,1-.845-7.607a3.436,3.436,0,0,1,2.457.787A3.356,3.356,0,0,1,2.435-4.3V1.59Z" transform="translate(5.112 7.607)"/>
        </g>
        <path id="path304" d="M124.847-246.505H123.48v-9.032h1.367Zm-1.483-11.481a.9.9,0,0,1,.23-.687.8.8,0,0,1,.575-.218.8.8,0,0,1,.569.222.886.886,0,0,1,.239.682.9.9,0,0,1-.239.688.794.794,0,0,1-.569.227.785.785,0,0,1-.575-.227.918.918,0,0,1-.23-.688" transform="translate(-32.546 294.95)"/>
        <g id="g306" transform="translate(93.751 39.413)">
          <path id="path308" d="M.593,1.561-2.836-7.471h1.467L.577-2.114A25.179,25.179,0,0,1,1.35.325h.066A18.667,18.667,0,0,1,1.99-1.484q.481-1.371,2.163-5.987H5.621L2.192,1.561Z" transform="translate(2.836 7.471)"/>
        </g>
        <g id="g310" transform="translate(103.153 39.249)">
          <path id="path312" d="M.682.2A2.238,2.238,0,0,0-1.052.907a3.272,3.272,0,0,0-.762,1.962H2.909A3.017,3.017,0,0,0,2.332.886,2.031,2.031,0,0,0,.682.2m.371,8.216a4.149,4.149,0,0,1-3.161-1.22A4.727,4.727,0,0,1-3.265,3.807,5.235,5.235,0,0,1-2.189.338,3.567,3.567,0,0,1,.7-.947,3.4,3.4,0,0,1,3.386.169a4.28,4.28,0,0,1,.988,2.947v.866H-1.847a3.573,3.573,0,0,0,.8,2.413A2.779,2.779,0,0,0,1.1,7.218a7.281,7.281,0,0,0,2.884-.609v1.22a7.377,7.377,0,0,1-1.372.45,7.863,7.863,0,0,1-1.562.135" transform="translate(3.265 0.947)"/>
        </g>
        <g id="g314" transform="translate(113.125 39.248)">
          <path id="path316" d="M.712,0a5.35,5.35,0,0,1,1.08.1L1.6,1.369a4.69,4.69,0,0,0-.99-.124,2.408,2.408,0,0,0-1.875.89,3.244,3.244,0,0,0-.779,2.216V9.2H-3.408V.164H-2.28l.156,1.673h.066A3.962,3.962,0,0,1-.845.477,2.729,2.729,0,0,1,.712,0" transform="translate(3.408)"/>
        </g>
        <g id="g318" transform="translate(119.437 39.249)">
          <path id="path320" d="M1.107,1.164a2.265,2.265,0,0,1-.94,1.946,4.428,4.428,0,0,1-2.637.683,5.73,5.73,0,0,1-2.8-.569V1.955a6.793,6.793,0,0,0,1.4.519,5.772,5.772,0,0,0,1.438.189,3.265,3.265,0,0,0,1.647-.34A1.135,1.135,0,0,0-.212,1.278,1.13,1.13,0,0,0-.67.377,7.177,7.177,0,0,0-2.454-.508a9.687,9.687,0,0,1-1.791-.821,2.416,2.416,0,0,1-.791-.8A2.075,2.075,0,0,1-5.3-3.187,2.023,2.023,0,0,1-4.4-4.93a4.184,4.184,0,0,1,2.463-.638,7.2,7.2,0,0,1,2.853.593L.431-3.862a6.545,6.545,0,0,0-2.465-.561A2.826,2.826,0,0,0-3.5-4.117a.941.941,0,0,0-.493.84,1.016,1.016,0,0,0,.185.617,1.805,1.805,0,0,0,.6.487,13.686,13.686,0,0,0,1.583.667A5.922,5.922,0,0,1,.543-.327a2.083,2.083,0,0,1,.564,1.491" transform="translate(5.296 5.568)"/>
        </g>
        <path id="path322" d="M155.56-246.505h-1.369v-9.032h1.369Zm-1.483-11.481a.907.907,0,0,1,.229-.687.81.81,0,0,1,.577-.218.8.8,0,0,1,.569.222.886.886,0,0,1,.239.682.9.9,0,0,1-.239.688.794.794,0,0,1-.569.227.791.791,0,0,1-.577-.227.924.924,0,0,1-.229-.688" transform="translate(-26.127 294.95)"/>
        <g id="g324" transform="translate(131.139 37.32)">
          <path id="path326" d="M.711,1.756a4.512,4.512,0,0,0,.7-.053,4.425,4.425,0,0,0,.535-.111V2.638a2.451,2.451,0,0,1-.654.177,4.941,4.941,0,0,1-.779.071q-2.621,0-2.619-2.761V-5.248H-3.4v-.659l1.294-.569L-1.53-8.4h.791v2.092H1.883v1.064H-.739V.067A1.829,1.829,0,0,0-.352,1.32a1.345,1.345,0,0,0,1.062.437" transform="translate(3.4 8.404)"/>
        </g>
        <path id="path328" d="M164.019-246.505h-1.367v-9.032h1.367Zm-1.483-11.481a.9.9,0,0,1,.23-.687.8.8,0,0,1,.576-.218.8.8,0,0,1,.569.222.886.886,0,0,1,.239.682.9.9,0,0,1-.239.688.794.794,0,0,1-.569.227.785.785,0,0,1-.576-.227.918.918,0,0,1-.23-.688" transform="translate(-24.359 294.95)"/>
        <g id="g330" transform="translate(142.056 39.249)">
          <path id="path332" d="M.682.2A2.238,2.238,0,0,0-1.052.907a3.262,3.262,0,0,0-.762,1.962H2.909A3.017,3.017,0,0,0,2.332.886,2.031,2.031,0,0,0,.682.2m.371,8.216a4.149,4.149,0,0,1-3.161-1.22A4.727,4.727,0,0,1-3.265,3.807,5.235,5.235,0,0,1-2.189.338,3.567,3.567,0,0,1,.7-.947,3.4,3.4,0,0,1,3.386.169a4.28,4.28,0,0,1,.988,2.947v.866H-1.847a3.573,3.573,0,0,0,.8,2.413A2.779,2.779,0,0,0,1.1,7.218a7.281,7.281,0,0,0,2.884-.609v1.22a7.377,7.377,0,0,1-1.372.45,7.874,7.874,0,0,1-1.562.135" transform="translate(3.265 0.947)"/>
        </g>
        <g id="g334" transform="translate(151.451 39.249)">
          <path id="path336" d="M1.107,1.164A2.268,2.268,0,0,1,.169,3.109a4.434,4.434,0,0,1-2.639.683,5.73,5.73,0,0,1-2.8-.569V1.955a6.828,6.828,0,0,0,1.4.519,5.772,5.772,0,0,0,1.438.189,3.269,3.269,0,0,0,1.647-.34A1.132,1.132,0,0,0-.212,1.278,1.13,1.13,0,0,0-.67.377,7.177,7.177,0,0,0-2.454-.508a9.739,9.739,0,0,1-1.791-.821,2.447,2.447,0,0,1-.791-.8A2.075,2.075,0,0,1-5.3-3.187,2.026,2.026,0,0,1-4.4-4.93a4.186,4.186,0,0,1,2.465-.638,7.2,7.2,0,0,1,2.852.593L.431-3.862a6.545,6.545,0,0,0-2.465-.561A2.826,2.826,0,0,0-3.5-4.117a.941.941,0,0,0-.493.84,1.016,1.016,0,0,0,.185.617,1.805,1.805,0,0,0,.6.487,13.686,13.686,0,0,0,1.583.667A5.922,5.922,0,0,1,.543-.327a2.083,2.083,0,0,1,.564,1.491" transform="translate(5.296 5.568)"/>
        </g>
      </g>
    </g>
  </g>
</svg>
