<svg xmlns="http://www.w3.org/2000/svg" xmlns:xlink="http://www.w3.org/1999/xlink" width="219.078" height="65.385" viewBox="0 0 219.078 65.385">
  <defs>
    <clipPath id="clip-path">
      <path id="path1204" d="M515.971-942.823H735.049v-65.385H515.971Z"/>
    </clipPath>
    <clipPath id="clip-path-2">
      <path id="path1220" d="M515.971-942.855H735.049v-65.353H515.971Z"/>
    </clipPath>
  </defs>
  <g id="universities-australia-2018-blue" transform="translate(-515.971 1008.208)">
    <g id="g1200">
      <g id="g1202" clip-path="url(#clip-path)">
        <g id="g1208" transform="translate(536.823 -989.434)">
          <path id="path1210" d="M0,0A.229.229,0,0,0-.216.119C-1.809,2.74-3.316,5.46-4.693,8.2a.273.273,0,0,0,0,.251A151.258,151.258,0,0,1,9.887,46.339a.246.246,0,0,0,.236.195h4.24a.236.236,0,0,0,.184-.089.264.264,0,0,0,.057-.205C12.509,30.544,5.863,11.776.205.14A.241.241,0,0,0,0,0" fill="#071e39"/>
        </g>
        <g id="g1212" transform="translate(544.721 -999.124)">
          <path id="path1214" d="M0,0A.225.225,0,0,0-.219.093C-2.144,2.609-4,5.267-5.724,7.992a.273.273,0,0,0-.015.265A146.87,146.87,0,0,1,9.137,56a.249.249,0,0,0,.241.221h4.165a.239.239,0,0,0,.177-.081.266.266,0,0,0,.065-.192C12.44,30.3,3.831,8.381.192.147A.247.247,0,0,0,0,0" fill="#071e39"/>
        </g>
      </g>
    </g>
    <g id="g1216">
      <g id="g1218" clip-path="url(#clip-path-2)">
        <g id="g1224" transform="translate(530.312 -979.245)">
          <path id="path1226" d="M0,0A.237.237,0,0,0-.219-.132.242.242,0,0,0-.431.009c-.519,1.083-1.032,2.2-1.527,3.32-.688,1.56-1.353,3.164-1.977,4.765a.281.281,0,0,0,.017.236A162.028,162.028,0,0,1,8.947,36.175a.245.245,0,0,0,.229.169h4.509a.241.241,0,0,0,.193-.1.279.279,0,0,0,.043-.225A164.945,164.945,0,0,0,0,0" fill="#071e39"/>
        </g>
        <g id="g1228" transform="translate(564.421 -967.873)">
          <path id="path1230" d="M0,0H0A162.317,162.317,0,0,0-10.391-40.176a.253.253,0,0,0-.176-.155.236.236,0,0,0-.219.068A71.226,71.226,0,0,0-17.4-32.769a.267.267,0,0,0-.02.276c.129.263,12.995,26.5,13.947,57.215a.251.251,0,0,0,.244.251H.936a.253.253,0,0,0,.244-.255A205.086,205.086,0,0,0,0,0" fill="#071e39"/>
        </g>
        <g id="g1232" transform="translate(524.726 -969.003)">
          <path id="path1234" d="M0,0A.239.239,0,0,0-.229-.124.244.244,0,0,0-.436.04C-1.395,2.664-2.259,5.343-3,8a.276.276,0,0,0,.031.217A164.2,164.2,0,0,1,6.676,25.959a.244.244,0,0,0,.219.144h4.659a.243.243,0,0,0,.2-.112.269.269,0,0,0,.027-.239A160.73,160.73,0,0,0,0,0" fill="#071e39"/>
        </g>
        <g id="g1236" transform="translate(518.902 -946.109)">
          <path id="path1238" d="M0,0C-.609-.905-1.211-1.8-1.788-2.681a.243.243,0,0,0-.256-.1.255.255,0,0,0-.187.215c-.113.821-.555,4.015-.7,5.5a.267.267,0,0,0,.064.2.241.241,0,0,0,.179.083H1.667a.246.246,0,0,0,.217-.139A.274.274,0,0,0,1.868,2.8C1.248,1.856.621.923,0,0" fill="#071e39"/>
        </g>
      </g>
    </g>
    <g id="g1240">
      <g id="g1242" clip-path="url(#clip-path)">
        <g id="g1248" transform="translate(520.259 -958.683)">
          <path id="path1250" d="M0,0A.232.232,0,0,0-.243-.115a.25.25,0,0,0-.2.188c-.663,2.613-1.215,5.237-1.643,7.8a.273.273,0,0,0,.041.2c1.705,2.535,3.369,5.023,4.977,7.6a.238.238,0,0,0,.2.116H8.1a.241.241,0,0,0,.208-.123.272.272,0,0,0,.009-.252A163.91,163.91,0,0,0,0,0" fill="#071e39"/>
        </g>
        <g id="g1252" transform="translate(586.003 -967.488)">
          <path id="path1254" d="M0,0A6.13,6.13,0,0,1-6.476-6.248V-18.235h2.743v11.86A3.57,3.57,0,0,0,0-2.463,3.589,3.589,0,0,0,3.759-6.375v-11.86H6.5V-6.248A6.152,6.152,0,0,1,0,0" fill="#071e39"/>
        </g>
        <g id="g1256" transform="translate(607.439 -967.64)">
          <path id="path1258" d="M0,0-8.356-12.724V0H-11.1V-18.083h2.515l8.355,12.7v-12.7H2.515V0Z" fill="#071e39"/>
        </g>
        <path id="path1260" d="M613.965-985.723h2.743v18.083h-2.743Z" fill="#071e39"/>
        <g id="g1262" transform="translate(627.161 -967.64)">
          <path id="path1264" d="M0,0H-2.133L-8.076-18.083h2.844L-1.067-4.928,3.1-18.083h2.9Z" fill="#071e39"/>
        </g>
        <g id="g1266" transform="translate(635.556 -967.64)">
          <path id="path1268" d="M0,0V-18.083H11.556v2.464H2.743v5.281h7.519V-7.9H2.743v5.435h8.813V0Z" fill="#071e39"/>
        </g>
        <g id="g1270" transform="translate(660.106 -967.64)">
          <path id="path1272" d="M0,0-3.809-7.62H-7.239V0H-9.981V-18.083h7.009c3.429,0,5.613,2.209,5.613,5.281A4.749,4.749,0,0,1-.965-8L3.2,0ZM-3.175-15.619H-7.239v5.663h4.064A2.753,2.753,0,0,0-.1-12.775a2.771,2.771,0,0,0-3.073-2.844" fill="#071e39"/>
        </g>
        <g id="g1274" transform="translate(671.328 -967.488)">
          <path id="path1276" d="M0,0A8.188,8.188,0,0,1-6.4-2.387l1.828-1.8A5.968,5.968,0,0,0,.051-2.463c2.363,0,3.733-1.017,3.733-2.769a2.43,2.43,0,0,0-.711-1.879,3.146,3.146,0,0,0-1.981-.763l-2.133-.3A6.2,6.2,0,0,1-4.471-9.625a4.5,4.5,0,0,1-1.32-3.453c0-3.151,2.287-5.309,6.044-5.309a7.529,7.529,0,0,1,5.613,2.057L4.113-14.6A5.307,5.307,0,0,0,.177-16c-2.133,0-3.3,1.22-3.3,2.82a2.153,2.153,0,0,0,.685,1.676,4.038,4.038,0,0,0,2.032.839l2.057.305A5.978,5.978,0,0,1,5.028-9.016,4.731,4.731,0,0,1,6.5-5.308C6.5-1.98,3.784,0,0,0" fill="#071e39"/>
        </g>
        <path id="path1278" d="M680.8-985.723h2.743v18.083H680.8Z" fill="#071e39"/>
        <g id="g1280" transform="translate(693.945 -983.26)">
          <path id="path1282" d="M0,0V15.619H-2.743V0H-7.72V-2.464h12.7V0Z" fill="#071e39"/>
        </g>
        <path id="path1284" d="M701.63-985.723h2.743v18.083H701.63Z" fill="#071e39"/>
        <g id="g1286" transform="translate(708.346 -967.64)">
          <path id="path1288" d="M0,0V-18.083H11.556v2.464H2.743v5.281H10.26V-7.9H2.743v5.435h8.813V0Z" fill="#071e39"/>
        </g>
        <g id="g1290" transform="translate(728.547 -967.488)">
          <path id="path1292" d="M0,0A8.188,8.188,0,0,1-6.4-2.387l1.828-1.8A5.968,5.968,0,0,0,.051-2.463c2.363,0,3.733-1.017,3.733-2.769a2.43,2.43,0,0,0-.711-1.879,3.146,3.146,0,0,0-1.981-.763l-2.133-.3A6.2,6.2,0,0,1-4.471-9.625a4.5,4.5,0,0,1-1.32-3.453c0-3.151,2.287-5.309,6.044-5.309a7.529,7.529,0,0,1,5.613,2.057L4.113-14.6A5.307,5.307,0,0,0,.177-16c-2.133,0-3.3,1.22-3.3,2.82a2.153,2.153,0,0,0,.685,1.676,4.038,4.038,0,0,0,2.032.839l2.057.305A5.978,5.978,0,0,1,5.028-9.016,4.731,4.731,0,0,1,6.5-5.308C6.5-1.98,3.784,0,0,0" fill="#071e39"/>
        </g>
        <g id="g1294" transform="translate(584.48 -961.09)">
          <path id="path1296" d="M0,0-6.655,18.083h1.473l1.575-4.393H4.825L6.4,18.083H7.873L1.219,0ZM.609,1.828,4.393,12.469H-3.175Z" fill="#071e39"/>
        </g>
        <g id="g1298" transform="translate(600.767 -942.855)">
          <path id="path1300" d="M0,0A5.863,5.863,0,0,1-6.2-6.019V-18.235h1.372V-6.2A4.628,4.628,0,0,0,0-1.219,4.628,4.628,0,0,0,4.825-6.2V-18.235H6.2V-6.019A5.863,5.863,0,0,1,0,0" fill="#071e39"/>
        </g>
        <g id="g1302" transform="translate(616.246 -942.855)">
          <path id="path1304" d="M0,0A7.634,7.634,0,0,1-6.02-2.388l.965-.964A6.32,6.32,0,0,0,.076-1.219c2.844,0,4.648-1.372,4.648-3.733a3.274,3.274,0,0,0-.991-2.54,4.373,4.373,0,0,0-2.616-.965L-.991-8.788a6.275,6.275,0,0,1-3.225-1.32,4.113,4.113,0,0,1-1.423-3.327c0-3.023,2.159-4.953,5.613-4.953a7.145,7.145,0,0,1,5.207,1.956l-.889.889A5.877,5.877,0,0,0-.1-17.219c-2.615,0-4.189,1.448-4.189,3.732a2.909,2.909,0,0,0,.939,2.363A5.771,5.771,0,0,0-.66-10.007L1.295-9.7A5.742,5.742,0,0,1,4.52-8.508,4.44,4.44,0,0,1,6.1-5C6.1-1.955,3.759,0,0,0" fill="#071e39"/>
        </g>
        <g id="g1306" transform="translate(624.492 -961.09)">
          <path id="path1308" d="M0,0V1.219H5.384V18.083H6.756V1.219h5.409V0Z" fill="#071e39"/>
        </g>
        <g id="g1310" transform="translate(650.638 -943.007)">
          <path id="path1312" d="M0,0-4.317-8.331H-9.295V0h-1.372V-18.083h6.883c2.947,0,5.181,1.7,5.181,4.851A4.671,4.671,0,0,1-2.768-8.356L1.6,0ZM-3.961-16.864H-9.295v7.315h5.333c2.311,0,3.988-1.168,3.988-3.657s-1.677-3.657-3.988-3.657" fill="#071e39"/>
        </g>
        <g id="g1314" transform="translate(661.48 -961.09)">
          <path id="path1316" d="M0,0-6.655,18.083h1.473l1.575-4.393H4.825L6.4,18.083H7.873L1.219,0ZM.609,1.828,4.393,12.469H-3.175Z" fill="#071e39"/>
        </g>
        <g id="g1318" transform="translate(672.5 -961.09)">
          <path id="path1320" d="M0,0V18.083H10.972V16.864h-9.6V0Z" fill="#071e39"/>
        </g>
        <path id="path1322" d="M686.786-943.007h1.372V-961.09h-1.372Z" fill="#071e39"/>
        <g id="g1324" transform="translate(697.915 -961.09)">
          <path id="path1326" d="M0,0-6.655,18.083h1.473l1.575-4.393H4.825L6.4,18.083H7.873L1.219,0ZM.609,1.828,4.393,12.469H-3.175Z" fill="#071e39"/>
        </g>
      </g>
    </g>
  </g>
</svg>
